<svg id="Layer_1" data-name="Layer 1" xmlns="http://www.w3.org/2000/svg" viewBox="0 0 492.33 44.5"><title>banner-section__arrow</title><g id="Join_Now_Special_Offer_50_Discount" data-name="Join Now! Special Offer 50% Discount"><path d="M7.4,34.8q0-.45-1.5-1.2a7.39,7.39,0,0,1-2.3-1.5,2.39,2.39,0,0,1-.5-1.4A3.44,3.44,0,0,1,4.8,28a5.59,5.59,0,0,1,3.3-1.2c1,0,1.5.4,1.5,1.3a.86.86,0,0,1-.3.6.86.86,0,0,1-.6.3.37.37,0,0,1-.3-.1c-.1-.1-.4,0-.4,0a4.06,4.06,0,0,0-1.7.5,1.47,1.47,0,0,0-.9,1.2,1.08,1.08,0,0,0,.3.7,5.14,5.14,0,0,0,1.4.8,6.17,6.17,0,0,1,2,1.3,2.11,2.11,0,0,1,.5,1.3c0,.9-.6,1.6-1.7,2.1a9.72,9.72,0,0,1-3.9.9c-1.1,0-1.6-.4-1.6-1.2a.91.91,0,0,1,.3-.7,1.07,1.07,0,0,1,1.2-.2,1.7,1.7,0,0,0,.7.1,5.08,5.08,0,0,0,1.7-.3C6.9,35.2,7.2,35.1,7.4,34.8Z" transform="translate(-2.4 0.01)" style="fill:#fff"/><path d="M18.8,34c0,.6-.5,1.3-1.5,2.2a5.08,5.08,0,0,1-3.5,1.3,2.87,2.87,0,0,1-2.3-.9,4.06,4.06,0,0,1-.9-2.6,7.48,7.48,0,0,1,1.7-4.6A4.94,4.94,0,0,1,16,27.2a2.11,2.11,0,0,1,1.6.6,2,2,0,0,1,.6,1.5,4,4,0,0,1-1.5,2.9,7.61,7.61,0,0,1-3.8,1.9.27.27,0,0,0-.3.3,1,1,0,0,0,.4.8,1.28,1.28,0,0,0,1,.4,5,5,0,0,0,3.5-1.8,1,1,0,0,1,.7-.4C18.6,33.5,18.8,33.6,18.8,34Zm-5.9-1.5a5.45,5.45,0,0,0,2.4-1.2,2.68,2.68,0,0,0,1.1-1.6.76.76,0,0,0-.2-.5.52.52,0,0,0-.4-.2,2.59,2.59,0,0,0-1.7,1.1A5.45,5.45,0,0,0,12.9,32.5Z" transform="translate(-2.4 0.01)" style="fill:#fff"/><path d="M28.1,34c0,.6-.5,1.3-1.5,2.2a5.08,5.08,0,0,1-3.5,1.3,2.87,2.87,0,0,1-2.3-.9,4.06,4.06,0,0,1-.9-2.6,7.48,7.48,0,0,1,1.7-4.6,4.94,4.94,0,0,1,3.7-2.2,2.11,2.11,0,0,1,1.6.6,2,2,0,0,1,.6,1.5A4,4,0,0,1,26,32.2a7.61,7.61,0,0,1-3.8,1.9.27.27,0,0,0-.3.3,1,1,0,0,0,.4.8,1.28,1.28,0,0,0,1,.4,5,5,0,0,0,3.5-1.8,1,1,0,0,1,.7-.4C27.9,33.5,28.1,33.6,28.1,34Zm-5.9-1.5a5.45,5.45,0,0,0,2.4-1.2,2.68,2.68,0,0,0,1.1-1.6.76.76,0,0,0-.2-.5.52.52,0,0,0-.4-.2,2.59,2.59,0,0,0-1.7,1.1A5.45,5.45,0,0,0,22.2,32.5Z" transform="translate(-2.4 0.01)" style="fill:#fff"/><path d="M38.7,33a15.19,15.19,0,0,1,2.5-3.7,3.41,3.41,0,0,1,2.1-1,1.66,1.66,0,0,1,1.2.5,4.88,4.88,0,0,1,.7,2.7c.1.7.1,1.2.2,1.7a8.11,8.11,0,0,0,.3,1.1,4.05,4.05,0,0,0,.5.9.91.91,0,0,1,.3.7.71.71,0,0,1-.3.6.91.91,0,0,1-.7.3,1.74,1.74,0,0,1-1.4-.9,5.24,5.24,0,0,1-.7-2.4,14.15,14.15,0,0,0-.3-2.3c-.1-.3-.3-.5-.5-.5s-1,.7-2,2A17.28,17.28,0,0,0,38.5,36l-.6,1.2a.55.55,0,0,1-.5.3,1.4,1.4,0,0,1-.9-.3c-.3-.2-.3-.4-.3-.7s.1-.7.2-1.5c.6-3.1,1.1-6.5,1.5-10a4.93,4.93,0,0,1,.5-1.8.79.79,0,0,1,.7-.5.91.91,0,0,1,.8.4,1.69,1.69,0,0,1,.3,1,21.51,21.51,0,0,1-.2,2.3c-.1.9-.5,2.2-.9,4.1C39,31.4,38.8,32.3,38.7,33Z" transform="translate(-2.4 0.01)" style="fill:#fff"/><path d="M56.3,32.6a7.22,7.22,0,0,1-2.2,3.5,4.8,4.8,0,0,1-3.3,1.4,2.39,2.39,0,0,1-2.1-1,3.78,3.78,0,0,1-.8-2.3,8.06,8.06,0,0,1,1.5-4.5,4.43,4.43,0,0,1,3.8-2.2,3,3,0,0,1,2.4,1.1,3.92,3.92,0,0,1,.9,2.6c-.1.5-.1,1-.2,1.4Zm-4.6-2.8a6.21,6.21,0,0,0-1.2,1.7,5.33,5.33,0,0,0-.6,2.4,2.13,2.13,0,0,0,.3,1.2c.2.3.4.5.7.5a3.24,3.24,0,0,0,2.3-1.3,4.18,4.18,0,0,0,1.2-2.9,2.41,2.41,0,0,0-.4-1.5,1.25,1.25,0,0,0-1.1-.6,2.57,2.57,0,0,0-1.2.5Z" transform="translate(-2.4 0.01)" style="fill:#fff"/><path d="M65.2,31.5c-.1.1-.5,1-1.3,2.8-.1.2-.1.2-.1.3-1,2-1.8,3-2.3,3-.8,0-1.6-1-2.2-3.1a19.52,19.52,0,0,1-.9-5.2,1.59,1.59,0,0,1,.4-1.2,1.39,1.39,0,0,1,1-.5.75.75,0,0,1,.7.4,1.33,1.33,0,0,1,.3.7l-.1,1.2V31a9.63,9.63,0,0,0,.4,2.5c.3,1.1.4,1.5.5,1.5s.4-.5.9-1.6c.7-1.4,1.2-2.4,1.6-3.1h0a7.3,7.3,0,0,1,1.6-2.2,1.9,1.9,0,0,1,.9.3.78.78,0,0,1,.3.7v.7a8.05,8.05,0,0,0,1.5,4.8c.1.1.1,0,.2-.1a6.8,6.8,0,0,0,.4-1.3c.4-1.3.8-2.5,1.2-3.5a5.83,5.83,0,0,1,1.1-1.9,1.28,1.28,0,0,1,1-.4,1.06,1.06,0,0,1,.9.9,1.42,1.42,0,0,1-.2.6,13.71,13.71,0,0,0-2,4.2,18.44,18.44,0,0,1-1.3,3.4c-.3.4-.4.6-.6.6a2.5,2.5,0,0,1-1.3-.3,3.64,3.64,0,0,1-1-1.1,10.91,10.91,0,0,1-.9-2.1C65.6,32.7,65.3,31.9,65.2,31.5Z" transform="translate(-2.4 0.01)" style="fill:#fff"/><path d="M89,34c0,.6-.5,1.3-1.5,2.2A5.08,5.08,0,0,1,84,37.5a2.87,2.87,0,0,1-2.3-.9,4.06,4.06,0,0,1-.9-2.6,7.48,7.48,0,0,1,1.7-4.6,4.94,4.94,0,0,1,3.7-2.2,2.11,2.11,0,0,1,1.6.6,2,2,0,0,1,.6,1.5,4,4,0,0,1-1.5,2.9,7.61,7.61,0,0,1-3.8,1.9.27.27,0,0,0-.3.3,1,1,0,0,0,.4.8,1.28,1.28,0,0,0,1,.4,5,5,0,0,0,3.5-1.8,1,1,0,0,1,.7-.4C88.8,33.5,89,33.6,89,34Zm-5.9-1.5a5.45,5.45,0,0,0,2.4-1.2,2.68,2.68,0,0,0,1.1-1.6.76.76,0,0,0-.2-.5A.52.52,0,0,0,86,29a2.59,2.59,0,0,0-1.7,1.1A5.45,5.45,0,0,0,83.1,32.5Z" transform="translate(-2.4 0.01)" style="fill:#fff"/><path d="M96.5,34.1q-2.25,3-4.5,3a2,2,0,0,1-1.4-.6,2.11,2.11,0,0,1-.6-1.6,8.23,8.23,0,0,1,2.1-5c1.4-1.8,2.8-2.6,4.2-2.6a1.39,1.39,0,0,1,1.4,1.1c.7,0,1,.3,1,.8,0,.2-.1.7-.2,1.3a21.64,21.64,0,0,0-.4,2.9,5.14,5.14,0,0,0,.2,1.6,3.93,3.93,0,0,1,.2.6c0,.1.2.2.4.3a.66.66,0,0,1,.4.5c0,.3-.2.5-.5.7a1.61,1.61,0,0,1-.9.3C96.9,37.4,96.4,36.3,96.5,34.1ZM96,29.2c-.6,0-1.4.7-2.3,2a6.36,6.36,0,0,0-1.4,3.3c0,.5.1.7.3.7.7,0,1.5-.6,2.6-1.8a4.85,4.85,0,0,0,1.5-3.2,1.45,1.45,0,0,0-.2-.7A.68.68,0,0,0,96,29.2Z" transform="translate(-2.4 0.01)" style="fill:#fff"/><path d="M105.1,34.8q0-.45-1.5-1.2a7.39,7.39,0,0,1-2.3-1.5,2.39,2.39,0,0,1-.5-1.4,3.44,3.44,0,0,1,1.7-2.7,5.59,5.59,0,0,1,3.3-1.2c1,0,1.5.4,1.5,1.3a1.06,1.06,0,0,1-.9.9.37.37,0,0,1-.3-.1.6.6,0,0,0-.4-.1,4.06,4.06,0,0,0-1.7.5,1.47,1.47,0,0,0-.9,1.2,1.08,1.08,0,0,0,.3.7,5.14,5.14,0,0,0,1.4.8,6.17,6.17,0,0,1,2,1.3,2.11,2.11,0,0,1,.5,1.3c0,.9-.6,1.6-1.7,2.1a9.72,9.72,0,0,1-3.9.9c-1.1,0-1.6-.4-1.6-1.2a.91.91,0,0,1,.3-.7,1.07,1.07,0,0,1,1.2-.2,1.7,1.7,0,0,0,.7.1,5.08,5.08,0,0,0,1.7-.3C104.6,35.1,104.9,35.1,105.1,34.8Z" transform="translate(-2.4 0.01)" style="fill:#fff"/><path d="M117.1,31.9c-.1,1.4-.3,2.8-.5,4.1a17.06,17.06,0,0,1-1,3.6,5.61,5.61,0,0,1-1.5,2.2,3.08,3.08,0,0,1-1.9.6,6.2,6.2,0,0,1-2.3-.4h0a6.24,6.24,0,0,1-1.6-1,2,2,0,0,1-.7-1.1,1.45,1.45,0,0,1,.2-.7c.1-.2.3-.2.5-.2a.76.76,0,0,1,.5.2,3.87,3.87,0,0,0,3.3,1.5c.6,0,1.1-.6,1.7-1.8a11.41,11.41,0,0,0,1-4.4q-2.7,2.1-4.2,2.1a1.9,1.9,0,0,1-1.5-.8,2.79,2.79,0,0,1-.6-1.8,17.28,17.28,0,0,1,.5-3.1,8.72,8.72,0,0,1,.8-2.5,1.29,1.29,0,0,1,1.1-.5.75.75,0,0,1,.7.4,1.2,1.2,0,0,1,.2.8,9.73,9.73,0,0,1-.6,1.5,7.56,7.56,0,0,0-.8,2.8,2,2,0,0,0,.2.9c.1.2.2.3.4.3a2.24,2.24,0,0,0,1-.3,8,8,0,0,0,1.4-.9,5.67,5.67,0,0,0,1.1-1,3,3,0,0,0,.4-.8,9.21,9.21,0,0,0,.2-2.3c0-.7.1-1.1.1-1.3s.1-.3.3-.5a.84.84,0,0,1,.7-.2,1.29,1.29,0,0,1,.8.2,2.53,2.53,0,0,1,.2,1.2Z" transform="translate(-2.4 0.01)" style="fill:#fff"/><path d="M127,31.2h0q.3-1.65.3-1.8a2,2,0,0,1,.3-1.1.91.91,0,0,1,.8-.4,1.22,1.22,0,0,1,.9.3.86.86,0,0,1,.3.6,9,9,0,0,1-.3,1.5l-.1.2a24.17,24.17,0,0,0-.6,2.8,11.56,11.56,0,0,0-.1,1.7,9.32,9.32,0,0,0,.2,1.4v.3c0,.1-.1.3-.4.5a1.33,1.33,0,0,1-.8.3q-1.2,0-1.2-1.8a17.13,17.13,0,0,1,.4-3.6A1.61,1.61,0,0,0,127,31.2Zm4.3-7.2a1.38,1.38,0,0,1-.6,1.1,1.87,1.87,0,0,1-1,.5,1,1,0,0,1-.9-.4,1.8,1.8,0,0,1-.4-.9,1.16,1.16,0,0,1,.4-1,2.14,2.14,0,0,1,1.2-.4,1.69,1.69,0,0,1,1,.3A.83.83,0,0,1,131.3,24Z" transform="translate(-2.4 0.01)" style="fill:#fff"/><path d="M135.1,29.9a9.07,9.07,0,0,0-.5,2,13.51,13.51,0,0,0-.4,2.4,2.15,2.15,0,0,0,.2,1,.55.55,0,0,0,.5.3,2.92,2.92,0,0,0,.9-.2,4.88,4.88,0,0,0,1.2-.8,1.2,1.2,0,0,1,.8-.4c.2,0,.3,0,.4.1s.2.2.2.3q0,.75-1.2,1.8a3.88,3.88,0,0,1-2.6,1,2.14,2.14,0,0,1-1.8-.7,3,3,0,0,1-.6-2,23.38,23.38,0,0,1,.9-4.7c-.4,0-.6.1-.8.1H132a1.33,1.33,0,0,1-.8-.3.91.91,0,0,1-.4-.8c0-.5.3-.7.8-.7l1.9-.1c.2-.7.5-1.6.8-2.8.2-.7.5-1.1,1.1-1.1a1.14,1.14,0,0,1,.8.3.91.91,0,0,1,.3.7,25.1,25.1,0,0,1-.7,2.7,29.63,29.63,0,0,1,3.1-.2c.3,0,.5,0,.6.1a.75.75,0,0,1,.1.5c0,.5-.4.9-1.3,1Z" transform="translate(-2.4 0.01)" style="fill:#fff"/><path d="M147.8,31.2h0q.3-1.65.3-1.8a2,2,0,0,1,.3-1.1.91.91,0,0,1,.8-.4,1.22,1.22,0,0,1,.9.3.86.86,0,0,1,.3.6,9,9,0,0,1-.3,1.5l-.1.2a24.17,24.17,0,0,0-.6,2.8,11.56,11.56,0,0,0-.1,1.7,9.32,9.32,0,0,0,.2,1.4v.3c0,.1-.1.3-.4.5a1.33,1.33,0,0,1-.8.3q-1.2,0-1.2-1.8a17.13,17.13,0,0,1,.4-3.6A3.18,3.18,0,0,0,147.8,31.2ZM152,24a1.38,1.38,0,0,1-.6,1.1,1.87,1.87,0,0,1-1,.5,1,1,0,0,1-.9-.4,1.8,1.8,0,0,1-.4-.9,1.16,1.16,0,0,1,.4-1,2.14,2.14,0,0,1,1.2-.4,1.69,1.69,0,0,1,1,.3A.83.83,0,0,1,152,24Z" transform="translate(-2.4 0.01)" style="fill:#fff"/><path d="M156.5,34.8q0-.45-1.5-1.2a7.39,7.39,0,0,1-2.3-1.5,2.39,2.39,0,0,1-.5-1.4,3.44,3.44,0,0,1,1.7-2.7,5.59,5.59,0,0,1,3.3-1.2c1,0,1.5.4,1.5,1.3a1.06,1.06,0,0,1-.9.9.37.37,0,0,1-.3-.1.6.6,0,0,0-.4-.1,4.06,4.06,0,0,0-1.7.5,1.47,1.47,0,0,0-.9,1.2,1.08,1.08,0,0,0,.3.7,5.14,5.14,0,0,0,1.4.8,6.17,6.17,0,0,1,2,1.3,2.11,2.11,0,0,1,.5,1.3c0,.9-.6,1.6-1.7,2.1a9.72,9.72,0,0,1-3.9.9c-1.1,0-1.6-.4-1.6-1.2a.91.91,0,0,1,.3-.7,1.07,1.07,0,0,1,1.2-.2,1.7,1.7,0,0,0,.7.1,5.08,5.08,0,0,0,1.7-.3C156,35.1,156.3,35.1,156.5,34.8Z" transform="translate(-2.4 0.01)" style="fill:#fff"/><path d="M170.7,29.9a9.07,9.07,0,0,0-.5,2,13.51,13.51,0,0,0-.4,2.4,2.15,2.15,0,0,0,.2,1,.55.55,0,0,0,.5.3,2.92,2.92,0,0,0,.9-.2,4.88,4.88,0,0,0,1.2-.8,1.2,1.2,0,0,1,.8-.4c.2,0,.3,0,.4.1s.2.2.2.3q0,.75-1.2,1.8a3.88,3.88,0,0,1-2.6,1,2.14,2.14,0,0,1-1.8-.7,3,3,0,0,1-.6-2,23.38,23.38,0,0,1,.9-4.7c-.4,0-.6.1-.8.1h-.2a1.33,1.33,0,0,1-.8-.3.91.91,0,0,1-.4-.8c0-.5.3-.7.8-.7l1.9-.1c.2-.7.5-1.6.8-2.8.2-.7.5-1.1,1.1-1.1a1.14,1.14,0,0,1,.8.3.91.91,0,0,1,.3.7,25.1,25.1,0,0,1-.7,2.7,29.63,29.63,0,0,1,3.1-.2c.3,0,.5,0,.6.1a.75.75,0,0,1,.1.5c0,.5-.4.9-1.3,1Z" transform="translate(-2.4 0.01)" style="fill:#fff"/><path d="M183.8,32.6a7.22,7.22,0,0,1-2.2,3.5,4.8,4.8,0,0,1-3.3,1.4,2.39,2.39,0,0,1-2.1-1,3.78,3.78,0,0,1-.8-2.3,8.06,8.06,0,0,1,1.5-4.5,4.43,4.43,0,0,1,3.8-2.2,3,3,0,0,1,2.4,1.1,3.92,3.92,0,0,1,.9,2.6,5.9,5.9,0,0,1-.2,1.4Zm-4.5-2.8a6.21,6.21,0,0,0-1.2,1.7,5.33,5.33,0,0,0-.6,2.4,2.13,2.13,0,0,0,.3,1.2c.2.3.4.5.7.5a3.24,3.24,0,0,0,2.3-1.3,4.18,4.18,0,0,0,1.2-2.9,2.41,2.41,0,0,0-.4-1.5,1.25,1.25,0,0,0-1.1-.6,2.2,2.2,0,0,0-1.2.5Z" transform="translate(-2.4 0.01)" style="fill:#fff"/><path d="M195.5,37.5a3,3,0,0,1-2.2-.8,3.11,3.11,0,0,1-.8-2.2,8.45,8.45,0,0,1,1.8-4.8c1.2-1.7,2.4-2.6,3.5-2.6a1.72,1.72,0,0,1,1.4.8,2.72,2.72,0,0,1,.6,1.7,1.44,1.44,0,0,1-.3,1.1.86.86,0,0,1-.6.3c-.6,0-.9-.4-1-1.2-.1-.6-.2-.9-.4-.9-.5,0-1.1.7-1.8,2a7.45,7.45,0,0,0-1.1,3.4c0,.8.4,1.2,1.3,1.2a5.07,5.07,0,0,0,2.9-1,2.5,2.5,0,0,1,1.1-.5.47.47,0,0,1,.5.5c0,.5-.5,1-1.6,1.8A5.59,5.59,0,0,1,195.5,37.5Z" transform="translate(-2.4 0.01)" style="fill:#fff"/><path d="M204.2,32.7l.1-.3a16.32,16.32,0,0,1,2.3-3.5,3.25,3.25,0,0,1,2.4-1.3,2.46,2.46,0,0,1,1.5.5,1.43,1.43,0,0,1,.6,1.2,1.45,1.45,0,0,1-.2.7.55.55,0,0,1-.5.3,1.28,1.28,0,0,1-1-.4.91.91,0,0,0-.5-.3c-.4,0-1.2.7-2.2,2a9.42,9.42,0,0,0-1.9,4.6,1.88,1.88,0,0,1-.4,1,1.22,1.22,0,0,1-.9.3.93.93,0,0,1-.9-.7,6.33,6.33,0,0,1-.3-2.3V32.8c0-.7.1-1.5.2-2.5,0-.3,0-.5.1-.6a7.07,7.07,0,0,1,.2-1.2,1.6,1.6,0,0,1,1.3-.9.78.78,0,0,1,.7.3,1.42,1.42,0,0,1,.2.6,6.09,6.09,0,0,1-.4,1.7,3.59,3.59,0,0,0-.2,1.1Z" transform="translate(-2.4 0.01)" style="fill:#fff"/><path d="M219,34c0,.6-.5,1.3-1.5,2.2a5.08,5.08,0,0,1-3.5,1.3,2.87,2.87,0,0,1-2.3-.9,4.06,4.06,0,0,1-.9-2.6,7.48,7.48,0,0,1,1.7-4.6,4.94,4.94,0,0,1,3.7-2.2,2.11,2.11,0,0,1,1.6.6,2,2,0,0,1,.6,1.5,4,4,0,0,1-1.5,2.9,7.61,7.61,0,0,1-3.8,1.9.27.27,0,0,0-.3.3,1,1,0,0,0,.4.8,1.28,1.28,0,0,0,1,.4,5,5,0,0,0,3.5-1.8,1,1,0,0,1,.7-.4C218.9,33.5,219,33.6,219,34Zm-5.8-1.5a5.45,5.45,0,0,0,2.4-1.2,2.68,2.68,0,0,0,1.1-1.6.76.76,0,0,0-.2-.5.52.52,0,0,0-.4-.2,2.59,2.59,0,0,0-1.7,1.1A5.45,5.45,0,0,0,213.2,32.5Z" transform="translate(-2.4 0.01)" style="fill:#fff"/><path d="M226.5,34.1q-2.25,3-4.5,3a2,2,0,0,1-1.4-.6,2.11,2.11,0,0,1-.6-1.6,8.23,8.23,0,0,1,2.1-5c1.4-1.8,2.8-2.6,4.2-2.6a1.39,1.39,0,0,1,1.4,1.1c.7,0,1,.3,1,.8,0,.2-.1.7-.2,1.3a21.64,21.64,0,0,0-.4,2.9,5.14,5.14,0,0,0,.2,1.6,3.93,3.93,0,0,1,.2.6c0,.1.2.2.4.3a.66.66,0,0,1,.4.5c0,.3-.2.5-.5.7a1.61,1.61,0,0,1-.9.3C226.9,37.4,226.4,36.3,226.5,34.1Zm-.5-4.9c-.6,0-1.4.7-2.3,2a6.36,6.36,0,0,0-1.4,3.3c0,.5.1.7.3.7.7,0,1.5-.6,2.6-1.8a4.85,4.85,0,0,0,1.5-3.2,1.45,1.45,0,0,0-.2-.7A.55.55,0,0,0,226,29.2Z" transform="translate(-2.4 0.01)" style="fill:#fff"/><path d="M234.6,29.9a9.07,9.07,0,0,0-.5,2,13.51,13.51,0,0,0-.4,2.4,2.15,2.15,0,0,0,.2,1,.55.55,0,0,0,.5.3,2.92,2.92,0,0,0,.9-.2,4.88,4.88,0,0,0,1.2-.8,1.2,1.2,0,0,1,.8-.4c.2,0,.3,0,.4.1s.2.2.2.3q0,.75-1.2,1.8a3.88,3.88,0,0,1-2.6,1,2.14,2.14,0,0,1-1.8-.7,3,3,0,0,1-.6-2,23.38,23.38,0,0,1,.9-4.7c-.4,0-.6.1-.8.1h-.2a1.33,1.33,0,0,1-.8-.3.91.91,0,0,1-.4-.8c0-.5.3-.7.8-.7l1.9-.1c.2-.7.5-1.6.8-2.8.2-.7.5-1.1,1.1-1.1a1.14,1.14,0,0,1,.8.3.91.91,0,0,1,.3.7,25.1,25.1,0,0,1-.7,2.7,29.63,29.63,0,0,1,3.1-.2c.3,0,.5,0,.6.1a.75.75,0,0,1,.1.5c0,.5-.4.9-1.3,1Z" transform="translate(-2.4 0.01)" style="fill:#fff"/><path d="M247.3,34c0,.6-.5,1.3-1.5,2.2a5.08,5.08,0,0,1-3.5,1.3,2.87,2.87,0,0,1-2.3-.9,4.06,4.06,0,0,1-.9-2.6,7.48,7.48,0,0,1,1.7-4.6,4.94,4.94,0,0,1,3.7-2.2,2.11,2.11,0,0,1,1.6.6,2,2,0,0,1,.6,1.5,4,4,0,0,1-1.5,2.9,7.61,7.61,0,0,1-3.8,1.9.27.27,0,0,0-.3.3,1,1,0,0,0,.4.8,1.28,1.28,0,0,0,1,.4,5,5,0,0,0,3.5-1.8,1,1,0,0,1,.7-.4C247.1,33.5,247.3,33.6,247.3,34Zm-5.9-1.5a5.45,5.45,0,0,0,2.4-1.2,2.68,2.68,0,0,0,1.1-1.6.76.76,0,0,0-.2-.5.52.52,0,0,0-.4-.2,2.59,2.59,0,0,0-1.7,1.1A5.45,5.45,0,0,0,241.4,32.5Z" transform="translate(-2.4 0.01)" style="fill:#fff"/><path d="M262,34.1q-2.25,3-4.5,3a2,2,0,0,1-1.4-.6,2.11,2.11,0,0,1-.6-1.6,8.23,8.23,0,0,1,2.1-5c1.4-1.8,2.8-2.6,4.2-2.6a1.39,1.39,0,0,1,1.4,1.1c.7,0,1,.3,1,.8,0,.2-.1.7-.2,1.3a21.64,21.64,0,0,0-.4,2.9,5.14,5.14,0,0,0,.2,1.6,3.93,3.93,0,0,1,.2.6c0,.1.2.2.4.3a.66.66,0,0,1,.4.5c0,.3-.2.5-.5.7a1.61,1.61,0,0,1-.9.3C262.4,37.4,261.9,36.3,262,34.1Zm-.5-4.9c-.6,0-1.4.7-2.3,2a6.36,6.36,0,0,0-1.4,3.3c0,.5.1.7.3.7.7,0,1.5-.6,2.6-1.8a4.85,4.85,0,0,0,1.5-3.2,1.45,1.45,0,0,0-.2-.7A.68.68,0,0,0,261.5,29.2Z" transform="translate(-2.4 0.01)" style="fill:#fff"/><path d="M279.7,34.4a10.18,10.18,0,0,1-2.3,1.8,4.59,4.59,0,0,1-2.2.7,2,2,0,0,1-1.4-.5,2.46,2.46,0,0,1-.5-1.5,5.61,5.61,0,0,1,1-3,8.92,8.92,0,0,1,2.9-2.9,6.09,6.09,0,0,1,3.3-1.2,2.3,2.3,0,0,1,1.4.4c.1.1.2.1.2.2a2.18,2.18,0,0,1,.4.5,2.07,2.07,0,0,1,.2.6,6.2,6.2,0,0,1-.3,1.1,12.09,12.09,0,0,0-.5,1.8c-.1.6-.3,2.1-.5,4.4a7.76,7.76,0,0,1-1.7,4.5,3.86,3.86,0,0,1-3,1.4,5.64,5.64,0,0,1-3.4-1.2c-1.1-.8-1.6-1.4-1.6-1.9a.63.63,0,0,1,.7-.7,2.91,2.91,0,0,1,1,.5,6.34,6.34,0,0,0,3.4,1.3c.7,0,1.3-.5,1.8-1.4A15.44,15.44,0,0,0,279.7,34.4Zm.2-4.9a3.55,3.55,0,0,0-1.7.8,8.09,8.09,0,0,0-2,2.1,4.24,4.24,0,0,0-.9,2.2c0,.3.1.5.3.5a3.73,3.73,0,0,0,2.3-.9,7.19,7.19,0,0,0,1.8-2.1,3.76,3.76,0,0,0,.7-1.8.76.76,0,0,0-.2-.5C280.1,29.7,280.1,29.5,279.9,29.5Z" transform="translate(-2.4 0.01)" style="fill:#fff"/><path d="M290,34.1q-2.25,3-4.5,3a2,2,0,0,1-1.4-.6,2.11,2.11,0,0,1-.6-1.6,8.23,8.23,0,0,1,2.1-5c1.4-1.8,2.8-2.6,4.2-2.6a1.39,1.39,0,0,1,1.4,1.1c.7,0,1,.3,1,.8,0,.2-.1.7-.2,1.3a21.64,21.64,0,0,0-.4,2.9,5.14,5.14,0,0,0,.2,1.6,3.93,3.93,0,0,1,.2.6c0,.1.2.2.4.3a.66.66,0,0,1,.4.5c0,.3-.2.5-.5.7a1.61,1.61,0,0,1-.9.3C290.4,37.4,289.9,36.3,290,34.1Zm-.5-4.9c-.6,0-1.4.7-2.3,2a6.36,6.36,0,0,0-1.4,3.3c0,.5.1.7.3.7.7,0,1.5-.6,2.6-1.8a5.39,5.39,0,0,0,1.5-3.2,1.45,1.45,0,0,0-.2-.7A.91.91,0,0,0,289.5,29.2Z" transform="translate(-2.4 0.01)" style="fill:#fff"/><path d="M297.7,22.2c.6,0,.9.3.9,1a3.4,3.4,0,0,1-.1,1c-.1.3-.3,1.3-.7,2.7a29,29,0,0,0-.7,3.4,16.79,16.79,0,0,0-.2,2.9c0,.7.1,1.6.2,2.7v.5a1,1,0,0,1-.4.9c-.3.2-.5.4-.8.4a1,1,0,0,1-.9-.6,4.92,4.92,0,0,1-.3-2,41.44,41.44,0,0,1,.7-7.3,21.36,21.36,0,0,1,1.2-4.9A1.55,1.55,0,0,1,297.7,22.2Z" transform="translate(-2.4 0.01)" style="fill:#fff"/><path d="M302.9,22.2c.6,0,.9.3.9,1a3.4,3.4,0,0,1-.1,1c-.1.3-.3,1.3-.7,2.7a29,29,0,0,0-.7,3.4,16.79,16.79,0,0,0-.2,2.9c0,.7.1,1.6.2,2.7v.5a1,1,0,0,1-.4.9c-.3.2-.5.4-.8.4a1,1,0,0,1-.9-.6,4.92,4.92,0,0,1-.3-2,41.44,41.44,0,0,1,.7-7.3,21.36,21.36,0,0,1,1.2-4.9A1.27,1.27,0,0,1,302.9,22.2Z" transform="translate(-2.4 0.01)" style="fill:#fff"/><path d="M312.6,34c0,.6-.5,1.3-1.5,2.2a5.08,5.08,0,0,1-3.5,1.3,2.87,2.87,0,0,1-2.3-.9,4.06,4.06,0,0,1-.9-2.6,7.48,7.48,0,0,1,1.7-4.6,4.94,4.94,0,0,1,3.7-2.2,2.11,2.11,0,0,1,1.6.6,2,2,0,0,1,.6,1.5,4,4,0,0,1-1.5,2.9,7.61,7.61,0,0,1-3.8,1.9.27.27,0,0,0-.3.3,1,1,0,0,0,.4.8,1.16,1.16,0,0,0,1,.4,5,5,0,0,0,3.5-1.8,1,1,0,0,1,.7-.4C312.4,33.5,312.6,33.6,312.6,34Zm-5.9-1.5a5.45,5.45,0,0,0,2.4-1.2,2.68,2.68,0,0,0,1.1-1.6.76.76,0,0,0-.2-.5.52.52,0,0,0-.4-.2,2.59,2.59,0,0,0-1.7,1.1A5.45,5.45,0,0,0,306.7,32.5Z" transform="translate(-2.4 0.01)" style="fill:#fff"/><path d="M316.3,32.7l.1-.3a16.32,16.32,0,0,1,2.3-3.5,3.25,3.25,0,0,1,2.4-1.3,2.46,2.46,0,0,1,1.5.5,1.43,1.43,0,0,1,.6,1.2,1.45,1.45,0,0,1-.2.7.55.55,0,0,1-.5.3,1.28,1.28,0,0,1-1-.4.91.91,0,0,0-.5-.3c-.4,0-1.2.7-2.2,2a9.42,9.42,0,0,0-1.9,4.6,1.88,1.88,0,0,1-.4,1,1.22,1.22,0,0,1-.9.3.93.93,0,0,1-.9-.7,6.33,6.33,0,0,1-.3-2.3V32.8c0-.7.1-1.5.2-2.5,0-.3,0-.5.1-.6a7.07,7.07,0,0,1,.2-1.2,1.6,1.6,0,0,1,1.3-.9.78.78,0,0,1,.7.3,1.42,1.42,0,0,1,.2.6,6.09,6.09,0,0,1-.4,1.7,3.59,3.59,0,0,0-.2,1.1Z" transform="translate(-2.4 0.01)" style="fill:#fff"/><path d="M331.7,31.9c-.1,1.4-.3,2.8-.5,4.1a17.06,17.06,0,0,1-1,3.6,5.61,5.61,0,0,1-1.5,2.2,3.08,3.08,0,0,1-1.9.6,6.2,6.2,0,0,1-2.3-.4h0a6.24,6.24,0,0,1-1.6-1,1.55,1.55,0,0,1-.7-1.1,1.45,1.45,0,0,1,.2-.7c.1-.2.3-.2.5-.2a.76.76,0,0,1,.5.2,3.87,3.87,0,0,0,3.3,1.5c.6,0,1.1-.6,1.7-1.8a11.41,11.41,0,0,0,1-4.4q-2.7,2.1-4.2,2.1a1.9,1.9,0,0,1-1.5-.8,2.79,2.79,0,0,1-.6-1.8,17.28,17.28,0,0,1,.5-3.1,8.72,8.72,0,0,1,.8-2.5,1.29,1.29,0,0,1,1.1-.5.75.75,0,0,1,.7.4,1.2,1.2,0,0,1,.2.8,9.73,9.73,0,0,1-.6,1.5,7.56,7.56,0,0,0-.8,2.8,2,2,0,0,0,.2.9c.1.2.2.3.4.3a2.24,2.24,0,0,0,1-.3,8,8,0,0,0,1.4-.9,5.67,5.67,0,0,0,1.1-1,3,3,0,0,0,.4-.8,9.21,9.21,0,0,0,.2-2.3c0-.7.1-1.1.1-1.3s.1-.3.3-.5a.84.84,0,0,1,.7-.2,1.29,1.29,0,0,1,.8.2,2.53,2.53,0,0,1,.2,1.2Z" transform="translate(-2.4 0.01)" style="fill:#fff"/><path d="M348.1,31.5c-.1.1-.5,1-1.3,2.8-.1.2-.1.2-.1.3-1,2-1.8,3-2.3,3-.8,0-1.6-1-2.2-3.1a19.52,19.52,0,0,1-.9-5.2,1.59,1.59,0,0,1,.4-1.2,1.23,1.23,0,0,1,1-.5.75.75,0,0,1,.7.4,1.33,1.33,0,0,1,.3.7l-.1,1.2V31a9.63,9.63,0,0,0,.4,2.5c.3,1.1.4,1.5.5,1.5s.4-.5.9-1.6c.7-1.4,1.2-2.4,1.6-3.1h0a7.3,7.3,0,0,1,1.6-2.2,1.9,1.9,0,0,1,.9.3.91.91,0,0,1,.3.7v.7a8.05,8.05,0,0,0,1.5,4.8c.1.1.1,0,.2-.1a6.8,6.8,0,0,0,.4-1.3c.4-1.3.8-2.5,1.2-3.5a5.83,5.83,0,0,1,1.1-1.9,1.28,1.28,0,0,1,1-.4,1.06,1.06,0,0,1,.9.9,1.42,1.42,0,0,1-.2.6,13.71,13.71,0,0,0-2,4.2,18.44,18.44,0,0,1-1.3,3.4c-.3.4-.4.6-.6.6a2.5,2.5,0,0,1-1.3-.3,3.64,3.64,0,0,1-1-1.1,14.63,14.63,0,0,1-.9-2.1C348.5,32.7,348.2,31.9,348.1,31.5Z" transform="translate(-2.4 0.01)" style="fill:#fff"/><path d="M357.5,31.2h0q.3-1.65.3-1.8a2,2,0,0,1,.3-1.1.91.91,0,0,1,.8-.4,1.22,1.22,0,0,1,.9.3.86.86,0,0,1,.3.6,9,9,0,0,1-.3,1.5l-.1.2a24.17,24.17,0,0,0-.6,2.8A11.56,11.56,0,0,0,359,35a9.32,9.32,0,0,0,.2,1.4v.3c0,.1-.1.3-.4.5a1.33,1.33,0,0,1-.8.3q-1.2,0-1.2-1.8a17.13,17.13,0,0,1,.4-3.6A3.18,3.18,0,0,0,357.5,31.2Zm4.2-7.2a1.38,1.38,0,0,1-.6,1.1,1.87,1.87,0,0,1-1,.5,1,1,0,0,1-.9-.4,1.22,1.22,0,0,1-.4-.9,1.16,1.16,0,0,1,.4-1,2.14,2.14,0,0,1,1.2-.4,1.69,1.69,0,0,1,1,.3A1.14,1.14,0,0,1,361.7,24Z" transform="translate(-2.4 0.01)" style="fill:#fff"/><path d="M365.6,29.9a9.07,9.07,0,0,0-.5,2,13.51,13.51,0,0,0-.4,2.4,2.15,2.15,0,0,0,.2,1,.55.55,0,0,0,.5.3,2.92,2.92,0,0,0,.9-.2,4.88,4.88,0,0,0,1.2-.8,1.2,1.2,0,0,1,.8-.4c.2,0,.3,0,.4.1s.2.2.2.3q0,.75-1.2,1.8a3.88,3.88,0,0,1-2.6,1,2.14,2.14,0,0,1-1.8-.7,3,3,0,0,1-.6-2,23.38,23.38,0,0,1,.9-4.7c-.4,0-.6.1-.8.1h-.2a1.33,1.33,0,0,1-.8-.3.91.91,0,0,1-.4-.8c0-.5.3-.7.8-.7l1.9-.1c.2-.7.5-1.6.8-2.8.2-.7.5-1.1,1.1-1.1a1.14,1.14,0,0,1,.8.3.91.91,0,0,1,.3.7,25.1,25.1,0,0,1-.7,2.7,29.63,29.63,0,0,1,3.1-.2c.3,0,.5,0,.6.1a.75.75,0,0,1,.1.5c0,.5-.4.9-1.3,1Z" transform="translate(-2.4 0.01)" style="fill:#fff"/><path d="M372.4,33a15.19,15.19,0,0,1,2.5-3.7,3.41,3.41,0,0,1,2.1-1,1.66,1.66,0,0,1,1.2.5,4.88,4.88,0,0,1,.7,2.7c.1.7.1,1.2.2,1.7a8.11,8.11,0,0,0,.3,1.1,4.05,4.05,0,0,0,.5.9.91.91,0,0,1,.3.7.71.71,0,0,1-.3.6.91.91,0,0,1-.7.3,1.74,1.74,0,0,1-1.4-.9,5.24,5.24,0,0,1-.7-2.4,14.15,14.15,0,0,0-.3-2.3c-.1-.3-.3-.5-.5-.5s-1,.7-2,2a17.28,17.28,0,0,0-2.1,3.3l-.6,1.2a.55.55,0,0,1-.5.3,1.4,1.4,0,0,1-.9-.3c-.3-.2-.3-.4-.3-.7s.1-.7.2-1.5c.6-3.1,1.1-6.5,1.5-10a4.93,4.93,0,0,1,.5-1.8.79.79,0,0,1,.7-.5.91.91,0,0,1,.8.4,1.69,1.69,0,0,1,.3,1,21.51,21.51,0,0,1-.2,2.3c-.1.9-.5,2.2-.9,4.1C372.7,31.4,372.5,32.3,372.4,33Z" transform="translate(-2.4 0.01)" style="fill:#fff"/><path d="M401.5,27.4l-2.9,4c-1.4,1.9-2.4,2.8-3.1,2.8a1.21,1.21,0,0,1-.9-.6,7.84,7.84,0,0,1-.8-1.8,18.41,18.41,0,0,1-.6-1.8c-.3-.9-.4-1.5-.5-1.6l-.4,2.3c-.1.7-.3,1.4-.4,2s-.3,1.4-.5,2.2a8.79,8.79,0,0,0-.3,2c0,.1-.2.3-.4.5a1.1,1.1,0,0,1-.6.3,1,1,0,0,1-.8-.4c-.2-.3-.4-.5-.4-.8a5.92,5.92,0,0,1,.4-2.1c1-3.6,1.5-5.8,1.7-6.7a10.18,10.18,0,0,0,.2-2.3.67.67,0,0,1,.4-.7,2.9,2.9,0,0,1,1.1-.3,1,1,0,0,1,.7.5,4.05,4.05,0,0,1,.5.9h0l1.2,3.4c.5,1.4.8,2.2,1,2.6.6-.7,1.6-1.9,2.8-3.6s2.1-2.8,2.5-3.3a1.21,1.21,0,0,1,2-.3c.4.3.5.4.5.6s-.1,1-.3,2.6c-.2,1.2-.3,2.4-.4,3.9s-.2,2.3-.2,2.5a3.75,3.75,0,0,0,.1,1,2,2,0,0,1,.1.7,1.74,1.74,0,0,1-.3,1.2,1.22,1.22,0,0,1-.9.3c-.8,0-1.2-.6-1.2-1.7a32.82,32.82,0,0,1,.3-4c.2-1.6.4-2.8.5-3.6A1,1,0,0,1,401.5,27.4Z" transform="translate(-2.4 0.01)" style="fill:#fff"/><path d="M414.1,32.6a7.22,7.22,0,0,1-2.2,3.5,5.3,5.3,0,0,1-3.3,1.4,2.39,2.39,0,0,1-2.1-1,3.78,3.78,0,0,1-.8-2.3,8.06,8.06,0,0,1,1.5-4.5,4.43,4.43,0,0,1,3.8-2.2,3,3,0,0,1,2.4,1.1,3.92,3.92,0,0,1,.9,2.6,5.9,5.9,0,0,1-.2,1.4Zm-4.5-2.8a6.21,6.21,0,0,0-1.2,1.7,5.33,5.33,0,0,0-.6,2.4,2.13,2.13,0,0,0,.3,1.2c.2.3.4.5.7.5a3.24,3.24,0,0,0,2.3-1.3,4.18,4.18,0,0,0,1.2-2.9,2.41,2.41,0,0,0-.4-1.5,1.25,1.25,0,0,0-1.1-.6,2.2,2.2,0,0,0-1.2.5Z" transform="translate(-2.4 0.01)" style="fill:#fff"/><path d="M422.2,34.1c-1.5,2.2-3,3.2-4.6,3.2a1.8,1.8,0,0,1-1.5-.7,2.88,2.88,0,0,1-.6-1.9,7.26,7.26,0,0,1,1.9-4.6c1.3-1.6,2.5-2.3,3.8-2.3a2,2,0,0,1,1.6.6c.4-1.9.7-3.1.8-3.6.2-.9.3-1.5.4-1.8a1.79,1.79,0,0,1,.5-.7.73.73,0,0,1,.6-.2.75.75,0,0,1,.7.4,1.49,1.49,0,0,1,.2.9,5.09,5.09,0,0,1-.4,1.4c-.4,1.3-.8,2.8-1.2,4.6a19.47,19.47,0,0,0-.5,4.3c0,1,.2,1.5.7,1.5a1.85,1.85,0,0,0,.7-.2c.3-.1.4-.2.5-.2.3,0,.4.2.4.5s-.3.8-.9,1.2a2.93,2.93,0,0,1-1.7.6,1.38,1.38,0,0,1-1.3-.9A3.6,3.6,0,0,1,422.2,34.1Zm-1-4.5q-1.2,0-2.4,1.8a6,6,0,0,0-1.3,3.2q0,.9.6.9c.7,0,1.6-.6,2.6-1.9a5.83,5.83,0,0,0,1.5-3,.86.86,0,0,0-.3-.6A1,1,0,0,0,421.2,29.6Z" transform="translate(-2.4 0.01)" style="fill:#fff"/><path d="M434,33.8a8,8,0,0,1-2,2.4,3.73,3.73,0,0,1-2.3.9,1.89,1.89,0,0,1-1.4-.7,2.92,2.92,0,0,1-.7-2.2,19.5,19.5,0,0,1,.5-3.2,12.49,12.49,0,0,0,.5-2.6,1.08,1.08,0,0,1,1.1-.7,1.14,1.14,0,0,1,.8.3,1.08,1.08,0,0,1,.3.7,5.35,5.35,0,0,1-.4,1.8,7.39,7.39,0,0,0-.5,1.9,9.43,9.43,0,0,0-.3,1.6c0,.8.2,1.2.5,1.2q.75,0,2.1-1.5a7.66,7.66,0,0,0,1.7-3,10.31,10.31,0,0,1,.7-2,1.05,1.05,0,0,1,.9-.5c.6,0,.9.3.9,1a1.76,1.76,0,0,1-.1.6,12.3,12.3,0,0,0-.5,3.5c0,1.5.3,2.4.8,2.7.2.1.3.2.3.4a.72.72,0,0,1-.4.6,1.61,1.61,0,0,1-.9.3c-.5,0-.8-.3-1.1-1A4.94,4.94,0,0,1,434,33.8Z" transform="translate(-2.4 0.01)" style="fill:#fff"/><path d="M442,22.2c.6,0,.9.3.9,1a3.4,3.4,0,0,1-.1,1c-.1.3-.3,1.3-.7,2.7a29,29,0,0,0-.7,3.4,16.79,16.79,0,0,0-.2,2.9c0,.7.1,1.6.2,2.7v.5a1,1,0,0,1-.4.9c-.3.2-.5.4-.8.4a1,1,0,0,1-.9-.6,4.92,4.92,0,0,1-.3-2,41.44,41.44,0,0,1,.7-7.3,21.36,21.36,0,0,1,1.2-4.9C441.3,22.4,441.6,22.2,442,22.2Z" transform="translate(-2.4 0.01)" style="fill:#fff"/><path d="M449.9,34.1q-2.25,3-4.5,3a2,2,0,0,1-1.4-.6,2.11,2.11,0,0,1-.6-1.6,8.23,8.23,0,0,1,2.1-5c1.4-1.8,2.8-2.6,4.2-2.6a1.39,1.39,0,0,1,1.4,1.1c.7,0,1,.3,1,.8,0,.2-.1.7-.2,1.3a21.64,21.64,0,0,0-.4,2.9,5.14,5.14,0,0,0,.2,1.6,3.93,3.93,0,0,1,.2.6c0,.1.2.2.4.3a.66.66,0,0,1,.4.5c0,.3-.2.5-.5.7a1.61,1.61,0,0,1-.9.3C450.3,37.4,449.8,36.3,449.9,34.1Zm-.5-4.9c-.6,0-1.4.7-2.3,2a6.36,6.36,0,0,0-1.4,3.3c0,.5.1.7.3.7.7,0,1.5-.6,2.6-1.8a5.39,5.39,0,0,0,1.5-3.2,1.45,1.45,0,0,0-.2-.7C449.7,29.3,449.6,29.2,449.4,29.2Z" transform="translate(-2.4 0.01)" style="fill:#fff"/></g><g id="_581649-0-arrow_Image" data-name="581649-0-arrow Image"><path d="M488.8,6.1C484.3,3.9,480,1.3,475,0c-.5-.1-1.2.4-.9.9,1.9,4.5,3.6,9.1,6.1,13.3a.81.81,0,0,0,1.5-.4,35.93,35.93,0,0,1,.3-4.7c6.8,7,15,14.7,8.9,25-2.7,4.5-7.2,8.1-12.6,8.8-5.6.7-10.3-2.6-13.9-6.6a.46.46,0,0,0-.7.6c6.6,10.2,19.9,9.9,27.1.4,3.6-4.7,5.1-10.1,2.9-15.8-1.9-5.1-6.3-9.2-10.2-13a26.38,26.38,0,0,0,4.9-.8C489.3,7.4,489.5,6.5,488.8,6.1Zm-7.2,1.2a.58.58,0,0,0-.3.8v.1a11.76,11.76,0,0,0-1,3c-1.6-3-2.9-6.1-4.2-9.2a66.54,66.54,0,0,1,9.8,4.4A16.5,16.5,0,0,0,481.6,7.3Z" transform="translate(-2.4 0.01)" style="fill:#f9f9f9"/></g></svg>