<svg id="Layer_1" xmlns="http://www.w3.org/2000/svg" viewBox="0 0 1539.7 244.5"><style>.st0{fill:#fff}.st2{fill:#333}</style><path d="M112.4 46.2v4.2h-3.8v4.2h4.5v4.1c.3 0 .5.1.8.1H255c12.5 0 23.6 4 33.1 12 9.7 8.1 15.6 18.4 17.9 30.9.4 1.9.6 3.9.6 5.8 0 2.6.1 5.3-.1 7.9-.2 3.6-1 7.2-2.1 10.6-5.6 17.8-20.4 31.2-38.6 35.1-3.4.7-6.9 1.1-10.5 1.1H78.2c-.7 0-1.4.1-2.1.4-7.5 2.9-15.4 4.1-23.4 3.6-25.3-1.6-45.8-19.8-51.1-43.6-.6-2.5-1-5.1-1.1-7.6 0-.5-.2-1-.3-1.4v-6.1c.1-.5.2-1.1.3-1.6.3-2.3.5-4.6 1-6.9C3.7 87.9 9 78.3 17.2 70.4c10.9-10.4 23.9-15.6 39-15.7 6.9 0 13.7 1.3 20.1 3.8.4.1.8.2 1.2.2h14.1c.2 0 .5 0 .8-.1v-3.8h4.1v3.8h4.1c.1-2.8 0-5.5 0-8.4h4V46c2.6.2 5.2.2 7.8.2zm-27 112.1H254.7c2.7 0 5.3-.2 8-.6 10.1-1.7 18.8-6.1 26-13.4 10.5-10.7 15-23.7 13.6-38.6-.6-5.9-2.3-11.5-5-16.7-8-15.5-24.1-25.9-42.7-25.9H105.3c-.2 0-.5 0-.8.1v8.6H101v3.3h-2c10.4 13.3 14.7 28.1 12 44.7-2.7 16.5-11.6 29.1-25.6 38.5zm-7.9-78.4c.3-.8-.2-1-.6-1.3-9-5.8-18.8-7.6-29.2-5.3-21.8 4.8-34.7 27.2-28.1 48.5 4.6 14.8 18.1 25.9 34.3 26.8 7.1.4 13.7-1 20-4.4 13.8-7.3 22-22.4 20-38.3-.7-6.1-2.8-11.6-6.2-16.7-.5-.8-.6-.8-1.6-.5v4.6h-3.4v4.1h-3.2v3.9c0 .5-.1.8-.4 1.2-.9 1.3-1.7 2.6-2.5 3.9-4.7 7.6-8.6 15.7-11.7 24.1-.7 2-2.2 3-4.2 3.3-.9.1-1.9.1-2.8 0-2.5-.4-4.4-1.6-5.3-4.1-.6-1.7-1.4-3.4-2.1-5-3.3-8.1-7.6-15.6-13.2-22.3-1.1-1.3-2.3-2.6-3.4-3.9-.9-1.1-1.8-2.2-2.1-3.6-.5-1.9.6-3.6 2.6-3.8.6-.1 1.2 0 1.7.2 1.7.5 3.2 1.3 4.7 2.2 3 1.8 5.6 4.1 8 6.5 3 3.1 5.7 6.4 8.2 9.8.2.2.4.5.6.8.1-.2.2-.3.2-.4 1.8-3.7 3.5-7.4 5.4-11.1 2.6-5 5.3-9.9 8.2-14.6.3-.5.6-.7 1.2-.7h2.2v-4c1 .1 1.8.1 2.7.1zm27.1-21.2c1.1.2 3.3.1 4-.1v-1.9-2h-4v4zM96.5 63v3.9h3.9c.2-1.1.1-3.3-.1-3.9h-3.8zm-6.9 0h-4.2c1.4 1 2.7 2 4.2 2.9V63zM116.8 41.9v-4.4h4.4c0 1.1 0 2.3-.1 3.4v1h-4.3z"/><path d="M112.4 46.2v-4.4h4.4c0 1.5 0 3-.1 4.5-1.4 0-2.8 0-4.3-.1zM116.8 46.3c.5 0 .9-.1 1.4-.1h2.9v4.3h-4.3v-4.2z"/><path class="st0" d="M104.6 58.7v-3.9h4v3.9c-.7.2-3 .2-4 0zM96.5 63h3.9c.2.6.3 2.8.1 3.9h-3.9c-.1-1.3-.1-2.5-.1-3.9zM89.6 63v2.9C88 65 86.8 64 85.4 63h4.2z"/><path d="M150.3 109.1h-7.9c-4.2-8.2-8.4-16.5-12.6-24.8h-.2v24.6c-.7.2-6.3.2-7.3.1V72.6h8.8c3.9 7.4 7.8 14.9 11.8 22.4h.2c.1-.9 0-1.8 0-2.7v-2.8-2.8-2.8-2.8-2.8-2.8-2.8h7.2c.2.6.2 35.4 0 36.4zM182.9 109V82.3c.7-.2 1.5-.1 2.2-.1h2.3c.7 1.9 1.5 3.7 2.2 5.6.2-.3.3-.5.5-.7.7-1.1 1.4-2.1 2.4-3 1.5-1.3 3.3-1.9 5.3-2h4.8c.5-2.5.9-5 1.4-7.6h6.4V82h5.7c.1 1.8 0 3.6 0 5.4h-5.6c0 .3-.1.5-.1.8v12.5c0 2.2.8 3 3 2.8.8-.1 1.7-.3 2.6-.4.3 1.8.6 3.6.9 5.3-1 .5-2.1.6-3.1.8-1.9.3-3.8.4-5.7 0-3.1-.7-5-2.6-5.5-5.8-.1-.9-.2-1.7-.2-2.6V88.7v-.9c-.1-.1-.1-.1-.2-.1-1.6 0-3.2-.1-4.7 0-2.4.2-4.2 1.6-5.4 3.6-1.1 1.8-1.6 3.9-1.6 6v11.6c-2.4.1-4.9.1-7.6.1zM254.6 109h-7.5c-.2-.6-.2-25.7 0-26.7h4.6c.5 1.3 1 2.6 1.6 4.1.3-.4.4-.6.6-.8 1.9-1.9 4-3.3 6.7-3.8 1.5-.3 3.1-.2 4.6.2 3.2.9 5 3.2 5.8 6.2.3.9.4 2 .4 2.9v17.8h-7.8v-.9c0-5.3-.1-10.5 0-15.8.1-3.3-2.6-4.6-5.3-4-1.4.3-2.4 1.2-3.4 2.3-.2.2-.2.5-.2.8V108c-.1.4-.1.7-.1 1zM167 81.6c7.7 0 13.9 6.3 13.9 14 0 7.6-6 14-14 14-7.7 0-14-6.4-14-14.1.2-7.7 6.5-13.9 14.1-13.9zm-7.2 14c0 3.9 3.2 7.2 7.1 7.2 3.9 0 7.2-3.2 7.2-7.2 0-3.9-3.2-7.1-7.2-7.2-3.8 0-7 3.3-7.1 7.2zM245 95.6c.1 7-5.5 13.9-13.9 14-8.2 0-14-6.6-14-14 0-7.7 6.3-14 14-14 7.8.1 13.9 6.3 13.9 14zm-6.8 0c0-3.9-3.2-7.1-7.2-7.1-3.9 0-7.1 3.2-7.1 7.2s3.2 7.2 7.2 7.2c4-.2 7.1-3.4 7.1-7.3zM210.9 120.5h8.3c1.2 0 2.4.2 3.6.6 2.4.9 3.7 2.6 4 5.1.1.7.1 1.5 0 2.2-.3 2-1.3 3.4-3.1 4.3-.4.2-.7.4-1.2.6 1.6 3.4 3.1 6.8 4.8 10.3-.8.1-1.5 0-2.1.1h-2.1c-1.5-3.3-3-6.5-4.4-9.8h-3.6c-.1 1.1 0 2.2 0 3.2v6.5h-3.9c-.3-7.6-.3-15.3-.3-23.1zm3.9 10.4h3.5c.6 0 1.2-.1 1.7-.2.8-.1 1.5-.5 2-1.1 1.7-2.2.4-5.4-2.4-5.7-1.5-.1-3-.1-4.6-.1-.1 0-.2.1-.3.1.1 2.2.1 4.5.1 7zM255 120.5c2.9.1 5.7-.2 8.4.2 4.4.6 7.3 3.3 8.2 7.6.6 2.8.5 5.6-.2 8.3-1.1 3.9-3.7 6.2-7.7 6.8-.9.1-1.9.2-2.8.2H255v-23.1zm3.9 20.1c1.4-.1 2.6-.1 3.9-.3 2.4-.4 3.9-1.8 4.5-4.2.3-1.3.4-2.7.4-4 0-1.6-.1-3.2-.6-4.7-.6-1.8-1.9-3-3.8-3.4-1-.2-2-.2-3-.3h-1.5c.1 5.7.1 11.2.1 16.9zM199 120.6h4v14.6c0 1.2-.2 2.5-.5 3.7-.7 2.6-2.4 4.3-5.1 4.9-1.9.4-3.7.4-5.6-.1-2.1-.6-3.5-1.9-4.4-3.9-.5-1.2-.7-2.5-.8-3.8v-15.1c0-.1 0-.2.1-.4h3.9v14.2c0 1 .1 2.1.3 3.1.4 1.8 1.5 2.8 3.4 2.8h1.3c1.6-.1 2.6-1 3-2.5.2-.8.3-1.7.3-2.6v-14c.1-.2.1-.5.1-.9zM157.7 140.5v3.2h-14.3v-23c.6-.2 12.3-.2 13.7-.1v3.1h-9.7v6.3h7.7v3.1h-7.7v7.3c3.4.1 6.8.1 10.3.1zM234 120.6h13.7v3.1c-.8.1-1.6 0-2.4 0h-7.5c-.1 2.1 0 4.2 0 6.3h7.7v3.1h-7.6c-.2.8-.2 6.3 0 7.3h10.3v3c-.6.2-12.8.3-14.3.1.1-7.5.1-15.2.1-22.9zM120.1 141.4c.6-1 1.2-1.9 1.8-2.8.4.2.7.4 1 .6 2.2 1.2 4.5 1.8 7 1.3 1.3-.3 2.3-.9 2.7-2.4.3-1.3 0-2.3-1.1-3.1-.6-.4-1.3-.7-2-1l-3.3-1.2c-.9-.4-1.8-.8-2.5-1.4-2.1-1.5-2.6-3.7-2.3-6.1.3-2.3 1.7-3.8 3.9-4.6 1.4-.5 2.8-.6 4.3-.6 1.7.1 3.3.4 4.9 1.1.3.1.6.3.9.5-.5 1-1 2-1.4 3-.4-.1-.6-.3-.9-.4-1.9-.7-3.8-1.1-5.8-.6-1.8.4-2.6 1.9-2 3.6.2.7.7 1.2 1.4 1.5.8.4 1.7.7 2.5 1 1.3.5 2.7.9 3.9 1.6 3.5 1.8 4.1 5.2 3.3 7.9-.5 1.8-1.7 3.1-3.3 3.8-1 .5-2 .7-3.1.8-3 .2-5.9-.3-8.5-1.8-.2-.1-.4-.3-.7-.4-.4 0-.5-.1-.7-.3zM179.9 123c-.8.9-1.5 1.7-2.3 2.6-.3-.2-.5-.4-.7-.6-1.4-1.2-3-1.6-4.8-1.3-1.4.2-2.4 1-3.1 2.2-.6 1.1-1 2.3-1.1 3.5-.3 2.1-.3 4.2.1 6.3.1.5.2 1 .4 1.4 1.1 2.9 4.1 4.3 7 3 .7-.3 1.3-.8 2-1.3l.7-.7c.8.9 1.5 1.7 2.3 2.6-1.3 1.6-2.9 2.7-4.8 3.1-1.9.4-3.7.4-5.5-.2-2.4-.7-4.1-2.3-5.2-4.5-.8-1.6-1.2-3.4-1.3-5.2-.2-2.7 0-5.3 1-7.8 1.2-2.9 3.1-4.9 6.2-5.6 2.1-.5 4.2-.4 6.3.4 1 .4 1.9 1.1 2.8 2.1z"/><g><path d="M1185.8 73.2v66.1c0 .5-.2.7-.6.9-11.6 5.3-23.1 10.7-34.7 16.1-.3.1-.5.3-.8.4h-.3c-.3-.2-.7-.4-1-.6-7.4-3.4-14.8-6.9-22.3-10.3-4.3-2-8.5-3.9-12.8-5.9v-66c0-.2.1-.4.1-.6.2.1.3.2.5.3 11.6 5.4 23.3 10.8 34.9 16.2.5.2.9.2 1.4 0 10-4.6 20-9.3 30-13.9 1.8-.8 3.6-1.7 5.4-2.6.1-.1.2-.1.2-.1zm-57.6 23.3V129.8c0 .5.2.7.6.8 6.7 3.1 13.5 6.2 20.2 9.3.3.2.8.1 1.2 0 6.7-3.1 13.4-6.2 20.2-9.3.5-.3.7-.6.7-1.1V97.2v-.8c-.3.1-.5.2-.7.3l-20.1 9.3c-.4.2-.7.2-1.2 0-6.4-3-12.8-5.9-19.2-8.9-.6-.1-1.1-.4-1.7-.6zM1228.8 102v38.2H1215c-.6 0-.8-.1-.8-.8V74.2v-.8c9.7 7.3 19.2 14.5 28.9 21.8 9.6-7.3 19.2-14.5 28.8-21.8v66.2c0 .4 0 .7-.6.7h-13.5c-.1 0-.3 0-.5-.1V102c-.4.3-.7.5-.9.7-4.2 3.1-8.4 6.3-12.6 9.4-.5.4-.8.4-1.3 0l-12.9-9.6c-.3-.2-.5-.3-.8-.5zM1388.7 140.3H1374c-.5 0-.7-.2-.9-.6-1.3-3.4-2.7-6.8-4.1-10.2-.2-.4-.4-.6-.9-.6h-21.8c-.5 0-.7.2-.9.6-1.3 3.4-2.7 6.8-4.1 10.1-.1.3-.2.6-.7.6h-14.9c.4-.8.7-1.6 1-2.4 8-18.2 16.1-36.5 24.1-54.8.1-.3.1-.8 0-1.2-1-2.5-2-4.9-3-7.4-.1-.2-.2-.5-.3-.8h12.8c.7 0 .9.2 1.2.8 7.4 17.9 14.8 35.8 22.2 53.6 1.6 3.8 3.2 7.6 4.7 11.5.1.3.1.5.3.8zm-31.4-40.4c-2.2 5.3-4.2 10.5-6.3 15.6h12.5c-2.1-5.1-4.1-10.2-6.2-15.6zM1435.8 120.2c.7 2.5 2.1 4.3 4 5.8 5 3.8 11.9 3.5 16.8-.8.2-.1.3-.3.5-.4.4-.4.7-.4 1.2-.2 3.2 1.8 6.4 3.5 9.6 5.3.2.1.4.2.8.5-1.5 1.4-2.9 2.8-4.5 4-5.4 4.3-11.6 6.3-18.5 5.8-13.1-.9-21.8-9.9-23.6-21-2.1-12.5 5.7-25.7 19.7-28.5 9.1-1.8 16.9.5 23.5 7 3.9 3.8 6.1 8.6 6.8 14 .4 2.6.3 5.2.4 7.8 0 .5-.1.6-.6.6h-22.4c-4.4 0-8.8 0-13.1-.1-.2.2-.4.2-.6.2zm21.5-11.1c-1.5-3.8-5.4-7.5-11.4-7.2-4.6.2-8.5 3.1-9.8 7.2h21.2zM1523.7 130.4c-4.5 5-9.8 8.5-16.4 9.6-6.8 1.2-13.2.1-19.1-3.6-6.4-4.1-10.1-10-11.1-17.5-1.1-8 1.2-15 6.7-20.9 3.5-3.7 7.8-6 12.8-7 8.5-1.8 16 .1 22.5 5.8 4.5 4 7.2 9.1 8 15 .4 2.8.4 5.6.6 8.4h-36.9c1.1 3.5 3.2 5.9 6.4 7.3 5.8 2.6 10.9 1.1 15.5-3.1 3.7 2 7.3 3.9 11 6zm-32.4-21.3h21.2c-1.7-4.1-5.7-7.6-11.9-7.1-5 .3-8.3 3.8-9.3 7.1zM1315.1 120.8c3.7 2.2 7.4 4.4 11.2 6.6-.9 1.3-1.8 2.6-2.8 3.8-4.6 5.4-10.5 8.4-17.6 8.9-6.6.5-12.8-1-18.2-5-5.8-4.4-9.2-10.3-9.8-17.6-.8-10.5 3.4-18.7 12.4-24.1 3.5-2.1 7.3-3 11.3-3.3 4.3-.3 8.4.2 12.4 1.8 4.7 2 8.2 5.3 11.1 9.4.4.5.7 1 1.1 1.6l-11.1 6.6c-.4-.7-.9-1.3-1.3-1.9-1.9-2.7-4.3-4.6-7.6-5.2-7.1-1.2-13.9 3.1-15 10.6-.8 5.5 1.5 10.6 6 13.2 5.2 3 12.6 2.8 17-4 .3-.4.6-.9.9-1.4zM1395.1 110.4h-5.5c-.4 0-.6-.1-.6-.6 0-3.9.1-7.7.1-11.6 0-.1 0-.2.1-.4h5.8v-.9c.1-2.5 0-5 .3-7.4.8-7.9 6.4-13.9 14.2-15.3 4.9-.9 9.7-.6 14.3 1.4.2.1.3.2.6.3-1.9 4.1-3.7 8.1-5.6 12.2-.5-.2-1-.4-1.4-.6-1.4-.6-2.9-.8-4.4-.7-2 .1-4 1.8-4.2 4.1-.2 2.3 0 4.6 0 7h8.6v12.6h-8c-.6 0-.7.2-.7.7v29.1h-13.4c-.2-10-.2-19.9-.2-29.9zM1536.1 93.6c.5-1.6 1-3 1.5-4.3.5-1.3.5-1.3 2.1-1.2v7h-1.1v-5h-.2c-.1.3-.3.7-.4 1-.4 1.2-.8 2.3-1.2 3.5-.1.4-.2.6-.7.6-.5 0-.6-.3-.7-.6-.5-1.3-.9-2.6-1.4-3.9-.1-.2-.1-.4-.4-.5v5h-1.1v-7h1.7c.6 1.6 1.2 3.4 1.9 5.4zM1528.2 89.1h-2.2v-1h5.6v1h-2.2v6h-1.2v-6z"/></g><g><circle cx="579.8" cy="114.9" r="50.3" fill="#8165ba"/><path class="st2" d="M647.6 114.9c0-37.4-30.4-67.8-67.8-67.8-11.6 0-22.6 2.9-32.1 8.1-14.7-7.3-25.4-8.4-30.8-3-5.9 5.9-3.6 17.5 3.1 30.8-5.1 9.5-8 20.4-8 31.9 0 37.4 30.4 67.8 67.8 67.8 11.5 0 22.3-2.9 31.8-8 7.9 3.9 15.4 6.5 21.4 6.5 3.9 0 7.1-1 9.5-3.4 5.4-5.4 4.4-16.1-3-30.8 5.2-9.5 8.1-20.4 8.1-32.1zM520 55.3c3.6-3.6 11.9-2.6 23.2 2.6a69.75 69.75 0 0 0-20.6 20.6c-5.2-11.4-6-19.7-2.6-23.2zm59.8 123.1c-35 0-63.4-28.5-63.4-63.4 0-9.7 2.2-18.9 6.1-27.1 5.9 10.5 14.1 21.8 23 32.2l-7.7 1.5.9 4.3 12.1-2.4 4.8-12-4.1-1.6-2.9 7.2c-10.8-12.5-18.7-24-23.7-33.7 11-18.9 31.5-31.7 54.9-31.7 35 0 63.4 28.5 63.4 63.4 0 23.4-12.8 43.9-31.7 54.9-7.1-3.7-14.9-8.8-23.1-15.1l-2.7 3.5c6.8 5.2 14 10.1 21.1 14.1-8.1 3.7-17.3 5.9-27 5.9zm59.6-3.6c-3.7 3.7-12.2 2.5-23.2-2.6 8.3-5.3 15.3-12.3 20.7-20.6 5.1 11.2 6.1 19.6 2.5 23.2z"/><path class="st2" d="M601.7 130.3c0-9.7-7.9-17.5-17.5-17.5h-8.8c-7.2 0-13.1-5.9-13.1-13.1s5.9-13.1 13.1-13.1h8.8c7.2 0 13.1 5.9 13.1 13.1v2.2h4.4v-2.2c0-9.7-7.9-17.5-17.5-17.5H582v-8.8h-4.4v8.8h-2.2c-9.7 0-17.5 7.9-17.5 17.5s7.9 17.5 17.5 17.5h8.8c7.2 0 13.1 5.9 13.1 13.1 0 7.2-5.9 13.1-13.1 13.1h-8.8c-7.2 0-13.1-5.9-13.1-13.1v-2.2h-4.4v2.2c0 9.7 7.9 17.5 17.5 17.5h2.2v8.8h4.4v-8.8h2.2c9.7 0 17.5-7.9 17.5-17.5z"/><path d="M675.3 85.4h-8V67.2l-5.3 2.2v-7.7l6.3-3h7.1v26.7zM697.9 85.4h-7.7v-6h-12.5v-5.7l12.2-15h8.1v14.5h3.5v6.2H698v6zm-7.8-17.8l-4.7 5.6h4.7v-5.6zM724.5 85.4h-11.2V58.7h11.2c4.3 0 7.9 1.2 10.7 3.7 2.8 2.5 4.2 5.7 4.2 9.6 0 3.9-1.4 7.1-4.2 9.6-2.7 2.5-6.3 3.8-10.7 3.8zm-3-19.7v12.6h2.5c2.2 0 3.9-.5 5.1-1.6 1.2-1.1 1.8-2.6 1.8-4.7 0-2-.6-3.6-1.8-4.7-1.2-1.1-2.9-1.6-5.1-1.6h-2.5zM747.3 85.4h-8.5l11-26.8h7.8l11 26.8h-8.8l-1.9-5h-8.7l-1.9 5zm6.3-17.5l-2 6.3h3.9l-1.9-6.3zM782.3 85.4h-8.2V73.7l-9.7-15h9.3l4.7 7.5 4.7-7.5h9l-9.8 14.8v11.9zM671.2 131.1h-7.9v-26.7h8.1l5.8 9.5 5.9-9.5h8.1v26.7h-7.9v-14.9l-3.8 6.4h-4.4l-3.9-6.4v14.9zM694.5 117.7c0-3.8 1.3-7.1 4-9.8 2.7-2.7 6.1-4.1 10.3-4.1 4.1 0 7.5 1.4 10.2 4.1 2.7 2.7 4 6 4 9.8 0 3.9-1.3 7.1-4 9.8-2.7 2.7-6.1 4-10.2 4s-7.5-1.4-10.3-4.1c-2.7-2.6-4-5.8-4-9.7zm10 4.7c1.1 1.2 2.5 1.8 4.2 1.8 1.7 0 3.1-.6 4.2-1.8 1.1-1.2 1.7-2.8 1.7-4.6 0-1.9-.6-3.4-1.7-4.6-1.1-1.2-2.5-1.8-4.2-1.8-1.7 0-3.1.6-4.2 1.8-1.1 1.2-1.7 2.7-1.7 4.6.1 1.8.6 3.3 1.7 4.6zM734.2 131.1h-7.9v-26.7h7l10.2 12.9v-12.9h7.8v26.7h-6.7l-10.4-13v13zM776.5 131.1h-21.2v-26.7h20.9v7.1h-12.7v2.4h10v6.5h-10v3.7h13v7zM795.1 131.1h-8.2v-11.7l-9.7-15h9.3l4.7 7.5 4.7-7.5h9l-9.8 14.8v11.9zM820.6 131.1h-14.1v-26.7H820c2.5 0 4.5.6 6.1 1.8 1.6 1.1 2.4 2.8 2.4 5.1 0 1.3-.4 2.4-1.1 3.2-.7.9-1.4 1.5-2.1 1.8 1.2.2 2.3 1 3.4 2.3 1.1 1.3 1.7 2.9 1.7 4.8 0 2.3-.9 4.2-2.7 5.6-1.8 1.4-4.2 2.1-7.1 2.1zm-5.9-20.3v3.6h4.2c.6 0 1-.2 1.4-.5.4-.3.6-.7.6-1.2 0-.6-.2-1-.6-1.4-.4-.3-.8-.5-1.4-.5h-4.2zm0 9.3v4.4h4.3c.7 0 1.3-.2 1.8-.6.4-.4.7-.9.7-1.6s-.2-1.2-.7-1.6c-.5-.4-1-.6-1.8-.6h-4.3zM839.7 131.1h-8.5l11-26.8h7.8l11 26.8h-8.8l-1.9-5h-8.7l-1.9 5zm6.3-17.5l-2 6.3h3.9l-1.9-6.3zM875.7 131.6c-4.4 0-8-1.3-10.9-3.8-2.9-2.6-4.3-5.9-4.3-10s1.4-7.4 4.3-10c2.8-2.6 6.5-3.9 10.9-3.9 2.6 0 4.9.5 6.7 1.4v7.7c-2.2-1.2-4.3-1.8-6.5-1.8-2 0-3.7.6-5 1.9-1.3 1.2-2 2.8-2 4.6 0 1.9.7 3.5 2.1 4.7 1.4 1.2 3.1 1.8 5.3 1.8 2.6 0 4.8-.6 6.6-1.9v7.9c-2 .9-4.4 1.4-7.2 1.4zM894.5 131.1h-8.2v-26.7h8.2v9.9l7.5-9.9h9.6l-9.5 12.4 11.4 14.3h-10.1l-9-11.5v11.5zM677.4 177.4c-4.2 0-7.7-1.3-10.6-3.9-2.8-2.6-4.3-5.9-4.3-10s1.4-7.4 4.3-10c2.8-2.6 6.5-3.9 10.9-3.9 1.3 0 2.3.1 3.2.3 1 .2 1.8.4 2.2.6.6.2 1.3.5 2.1.8v7.5c-1.8-.9-3.5-1.4-5.3-1.6-1.8-.2-3.3-.1-4.7.4-1.3.4-2.4 1.2-3.2 2.3-.8 1.1-1.2 2.3-1.1 3.8 0 2.1.6 3.7 1.9 4.9 1.2 1.2 2.8 1.8 4.5 1.8 1.4 0 2.4-.3 3.2-.8v-8.2h8.2v12c-1.1 1.1-2.6 2.1-4.7 2.9-2 .7-4.2 1.1-6.6 1.1zM691.6 165.8v-15.6h8.2v15.7c0 1.4.4 2.4 1.1 3.1.7.7 1.7 1 2.9 1s2.2-.3 2.9-1c.7-.7 1.1-1.7 1.1-3.1v-15.7h8.2v15.6c0 3.7-1.2 6.6-3.5 8.6s-5.2 3-8.7 3c-3.5 0-6.4-1-8.7-3-2.3-2.1-3.5-4.9-3.5-8.6zM726.2 176.8h-8.5l11-26.8h7.8l11 26.8h-8.8l-1.9-5h-8.7l-1.9 5zm6.3-17.4l-2 6.3h3.9l-1.9-6.3zM767.6 166.4l8 10.4H766l-7.1-9.5h-1.1v9.5h-8.2v-26.7h12.9c3 0 5.5.8 7.3 2.4 1.8 1.6 2.7 3.6 2.7 6.1 0 1.7-.4 3.2-1.3 4.5-.9 1.5-2.1 2.5-3.6 3.3zm-9.9-5.1h3.7c.8 0 1.4-.2 1.8-.6.5-.4.7-.9.7-1.6s-.2-1.2-.7-1.6c-.5-.4-1.1-.6-1.8-.6h-3.7v4.4z"/><path d="M783.7 176.8h-8.5l11-26.8h7.8l11 26.8h-8.8l-1.9-5h-8.7l-1.9 5zm6.2-17.4l-2 6.3h3.9l-1.9-6.3zM814.9 176.8H807v-26.7h7l10.2 12.9v-12.9h7.8v26.7h-6.7l-10.4-13v13zM834.8 157.2v-7.1h23.4v7.1h-7.7v19.6h-8.2v-19.6h-7.5zM882.3 176.8h-21.2v-26.7H882v7.1h-12.7v2.4h10v6.5h-10v3.7h13v7zM906.5 176.8h-21.2v-26.7h20.9v7.1h-12.7v2.4h10v6.5h-10v3.7h13v7z"/></g></svg>