<?xml version="1.0" encoding="utf-8"?>
<!-- Generator: Adobe Illustrator 23.0.3, SVG Export Plug-In . SVG Version: 6.00 Build 0)  -->
<svg version="1.1" id="Layer_1" xmlns="http://www.w3.org/2000/svg" xmlns:xlink="http://www.w3.org/1999/xlink" x="0px" y="0px"
	 viewBox="0 0 678 378.9" style="enable-background:new 0 0 678 378.9;" xml:space="preserve">
<style type="text/css">
	.st0{fill:url(#SVGID_1_);}
	.st1{fill:#535461;}
	.st2{fill:#FFFFFF;}
	.st3{fill:url(#SVGID_2_);}
	.st4{opacity:5.000000e-02;enable-background:new    ;}
	.st5{fill:#E6E8EC;}
	.st6{fill:#2DBF91;}
	.st7{opacity:0.26;enable-background:new    ;}
</style>
<title>hero-2</title>
<linearGradient id="SVGID_1_" gradientUnits="userSpaceOnUse" x1="468.1" y1="-789.11" x2="468.1" y2="-423.29" gradientTransform="matrix(1 0 0 -1 -129.1 -423.29)">
	<stop  offset="0" style="stop-color:#808080;stop-opacity:0.25"/>
	<stop  offset="0.54" style="stop-color:#808080;stop-opacity:0.12"/>
	<stop  offset="1" style="stop-color:#808080;stop-opacity:0.1"/>
</linearGradient>
<path class="st0" d="M672.3,323.6h-64.3c1.5-3,2.2-6.2,2.2-9.6V21.5c0-11.9-9.6-21.5-21.5-21.5c0,0,0,0,0,0H91.5
	C79.6,0,70,9.6,70,21.5l0,0v292.6c0,3.3,0.8,6.6,2.2,9.6H5.7c-3.1,0-5.7,2.5-5.7,5.7l0,0v4.6c0,17.6,14.2,31.8,31.8,31.8
	c0,0,0,0,0,0h614.4c17.6,0,31.8-14.3,31.8-31.8l0,0l0,0v-4.6C678,326.3,675.5,323.7,672.3,323.6L672.3,323.6z M276.4,341.8l-5.5-6.3
	h136.8l-6.1,6.3L276.4,341.8z"/>
<path class="st1" d="M99.3,4.1h481.6c12.8,0,23.3,10.4,23.3,23.3v281.5c0,12.8-10.4,23.3-23.3,23.3H99.3
	c-12.8,0-23.3-10.4-23.3-23.3V27.4C76.1,14.6,86.5,4.1,99.3,4.1z"/>
<rect x="87.2" y="52" width="504.8" height="268"/>
<circle class="st2" cx="339.6" cy="28.6" r="4.5"/>
<path class="st1" d="M417.5,320.5l-17.3,17.8H277.9l-15.7-17.8h-249c-3.1,0-5.6,2.5-5.6,5.5v4.5c0,17.2,13.9,31.1,31.1,31.1
	c0,0,0,0,0,0h600.5c17.2,0,31.1-13.9,31.1-31.1V326c0-3.1-2.5-5.6-5.6-5.6L417.5,320.5z"/>
<image style="overflow:visible;opacity:0.74;enable-background:new    ;" width="738" height="395" xlink:href="hero-21.jpg"  transform="matrix(0.6847 0 0 0.6847 87.2996 51.6085)">
</image>
<linearGradient id="SVGID_2_" gradientUnits="userSpaceOnUse" x1="668.28" y1="-674.36" x2="668.28" y2="-411.8" gradientTransform="matrix(1 0 0 -1 -125.57 -295.49)">
	<stop  offset="0" style="stop-color:#808080;stop-opacity:0.25"/>
	<stop  offset="0.54" style="stop-color:#808080;stop-opacity:0.12"/>
	<stop  offset="1" style="stop-color:#808080;stop-opacity:0.1"/>
</linearGradient>
<path class="st3" d="M626.4,116.3H459c-8.5,0-15.3,6.8-15.4,15.3c0,0,0,0,0,0l0,0v231.9c0,8.5,6.9,15.3,15.3,15.3h0h167.4
	c8.5,0,15.3-6.8,15.3-15.3l0,0V131.6C641.8,123.2,634.9,116.3,626.4,116.3z"/>
<path class="st1" d="M453.3,119.4h179c4,0,7.2,3.2,7.2,7.2v242.6c0,4-3.2,7.2-7.2,7.2h-179c-4,0-7.2-3.2-7.2-7.2V126.7
	C446,122.7,449.3,119.4,453.3,119.4z"/>
<rect x="455.9" y="143.8" class="st2" width="173.7" height="208.4"/>
<circle class="st2" cx="541.9" cy="131.2" r="2.4"/>
<circle class="st2" cx="541.9" cy="363.9" r="7.1"/>
<path class="st4" d="M639.7,336.7c0,0,0.2,0.7-2.8,1.6s-4,1.9-4,1.9"/>
<image style="overflow:visible;enable-background:new    ;" width="341" height="163" xlink:href="hero-22.jpg"  transform="matrix(0.4783 0 0 0.4783 462.0987 248.608)">
</image>
<image style="overflow:visible;enable-background:new    ;" width="216" height="159" xlink:href="hero-23.jpg"  transform="matrix(0.4775 0 0 0.4775 461.7302 168.8289)">
</image>
<image style="overflow:visible;enable-background:new    ;" width="113" height="159" xlink:href="hero-24.jpg"  transform="matrix(0.478 0 0 0.478 568.1232 168.8893)">
</image>
<path class="st1" d="M153.4,203.2h1.6c0.5,0,0.9,0.4,0.9,0.9v25.5c0,0.5-0.4,0.9-0.9,0.9h-1.6c-0.5,0-0.9-0.4-0.9-0.9v-25.5
	C152.6,203.6,152.9,203.2,153.4,203.2z"/>
<path class="st1" d="M43.5,181.9h0.2c0.5,0,0.8,0.4,0.8,0.9v7.3c0,0.5-0.4,0.9-0.8,0.9h-0.2c-0.5,0-0.8-0.4-0.8-0.9v-7.3
	C42.7,182.3,43.1,181.9,43.5,181.9z"/>
<path class="st1" d="M43.4,198.3h0.4c0.5,0,0.8,0.4,0.8,0.9v13.9c0,0.5-0.4,0.9-0.8,0.9h-0.4c-0.5,0-0.8-0.4-0.8-0.9v-13.9
	C42.6,198.7,43,198.3,43.4,198.3z"/>
<path class="st1" d="M43.5,219.4h0.3c0.5,0,0.8,0.4,0.8,0.9v14c0,0.5-0.4,0.9-0.8,0.9h-0.3c-0.5,0-0.8-0.4-0.8-0.9v-14
	C42.6,219.8,43,219.4,43.5,219.4z"/>
<path class="st1" d="M58.3,152.2h81.5c8,0,14.6,6.5,14.6,14.6v195.7c0,8-6.5,14.5-14.6,14.5H58.3c-8,0-14.5-6.5-14.5-14.5V166.8
	C43.7,158.7,50.2,152.2,58.3,152.2z"/>
<path class="st5" d="M89.8,158.9h12.6c0.8,0,1.4,0.6,1.4,1.4v0.3c0,0.8-0.6,1.4-1.4,1.4H89.8c-0.8,0-1.4-0.6-1.4-1.4v-0.3
	C88.4,159.6,89,158.9,89.8,158.9z"/>
<circle class="st5" cx="107.9" cy="160.5" r="1.8"/>
<path class="st2" d="M138.7,158.1h-12.7v1.5c0,4-3.2,7.2-7.2,7.2H78.4c-4,0-7.2-3.2-7.2-7.2l0,0v-1.5H59.3c-4.8,0-8.8,3.9-8.8,8.8
	l0,0v195.5c0,4.8,3.9,8.8,8.8,8.8h79.4c4.9,0,8.8-3.9,8.8-8.8V166.9C147.5,162,143.5,158.1,138.7,158.1z"/>
<path class="st4" d="M144,374l5.9-0.8C149.9,373.2,146.6,376.6,144,374z"/>
<image style="overflow:visible;enable-background:new    ;" width="176" height="369" xlink:href="hero-25.jpg"  transform="matrix(0.4774 0 0 0.4774 58.011 183.3543)">
</image>
<circle class="st2" cx="338.4" cy="172.4" r="31.8"/>
<path class="st6" d="M348.1,171.5l-14-8.5c-0.9-0.5-2.1-0.2-2.6,0.7c-0.2,0.3-0.2,0.6-0.2,0.9v16.5c0,1.1,0.9,1.9,1.9,1.9l0,0
	c0.3,0,0.6-0.1,0.9-0.2l14-8c0.9-0.5,1.3-1.6,0.8-2.6c0,0,0,0,0,0l0,0C348.7,171.9,348.4,171.7,348.1,171.5L348.1,171.5z M372,173.1
	c0-18.3-14.7-33.1-33-33.1c-18.3,0-33.1,14.7-33.1,33c0,18.3,14.7,33.1,33,33.1h0.1C357.2,206,372,191.3,372,173.1z M312.3,173.1
	c0-14.7,11.9-26.7,26.6-26.7s26.6,11.9,26.6,26.6s-11.9,26.6-26.6,26.7l0,0C324.3,199.7,312.4,187.8,312.3,173.1L312.3,173.1
	L312.3,173.1z"/>
<path class="st7" d="M138.7,158.1H126v1.5c0,4-3.3,7.2-7.3,7.2H78.2c-4,0-7.2-3.2-7.3-7.2l0,0v-1.5H59c-4.9,0-8.8,3.9-8.8,8.8
	c0,0,0,0,0,0l0,0v195.5c0,4.9,4,8.8,8.8,8.8c0,0,0,0,0,0h79.7c4.9,0,8.8-3.9,8.8-8.8V166.9C147.5,162,143.5,158.1,138.7,158.1z"/>
<rect x="455.9" y="143.8" class="st7" width="173.7" height="208.4"/>
</svg>
