<svg enable-background="new 218 4.3 1032.2 832.6" viewBox="218 4.3 1032.2 832.6" xmlns="http://www.w3.org/2000/svg"><g fill="#2ebf91"><ellipse cx="749" cy="420.6" opacity=".1" rx="466.5" ry="416.3"/><ellipse cx="378.8" cy="635.3" opacity=".1" rx="160.8" ry="24.9"/><ellipse cx="472.7" cy="773.4" opacity=".1" rx="66.9" ry="13.8"/><ellipse cx="929.8" cy="720.2" opacity=".1" rx="66.9" ry="13.8"/><ellipse cx="702.8" cy="704" opacity=".1" rx="108.8" ry="18.4"/><ellipse cx="1083.2" cy="622.2" opacity=".1" rx="167.1" ry="26.2"/></g><path d="m262 557.9c-9.7 18.9-8.5 41.5 3.1 59.3 1.9 2.8 3.6 4.8 5 5.4 6.6 2.6 19.8 9 19.8 9l31.8-12.5s5.2-27.3 10-50.7c3.3-16 6.5-30.2 7.9-32.7 3.3-6.1 0-72.8 0-72.8s-31.8-2.1-40.5 22.4l-3.8 7.5z" fill="#a8a8a8"/><path d="m304.2 565.3c19.3 22.1 27.5 3 27.5 3 3.3-16 6.5-30.2 7.9-32.7 3.3-6.1 0-72.8 0-72.8s-31.8-2.1-40.5 22.4l-3.8 7.5c-2.6 19.6-5 56.6 8.9 72.6z" fill="#fff" opacity=".1"/><path d="m604.1 474.2v39.2c0 6.4-3.6 10-10 10h-18v34.8c0 6.4-3.6 10-10 10h-44.8c-6.4 0-10-3.6-10-10v-34.8h-121.2c-6.4 0-10-3.6-10-10v-42.8c0-4.4.8-8 2.8-12.4l82.8-162.8c2.4-4.8 6-7.2 11.6-7.2h47.6c7.6 0 10.8 4.8 7.2 12l-83.2 164h62.4v-50c0-6.4 3.6-10 10-10h44.8c6.4 0 10 3.6 10 10v50h18c6.4 0 10 3.6 10 10z" fill="#2ebf91"/><path d="m620.1 428.2c0-86.4 41.6-145.6 114-145.6s114 59.2 114 145.6-41.6 145.6-114 145.6c-72.4-.1-114-59.2-114-145.6zm164 0c0-54-16.4-83.2-50-83.2s-50 29.2-50 83.2 16.4 83.2 50 83.2 50-29.2 50-83.2z" fill="#2ebf91"/><path d="m1092.1 474.2v39.2c0 6.4-3.6 10-10 10h-18v34.8c0 6.4-3.6 10-10 10h-44.8c-6.4 0-10-3.6-10-10v-34.8h-121.2c-6.4 0-10-3.6-10-10v-42.8c0-4.4.8-8 2.8-12.4l82.8-162.8c2.4-4.8 6-7.2 11.6-7.2h47.6c7.6 0 10.8 4.8 7.2 12l-83.2 164h62.4v-50c0-6.4 3.6-10 10-10h44.8c6.4 0 10 3.6 10 10v50h18c6.4 0 10 3.6 10 10z" fill="#2ebf91"/><path d="m308.4 627 112.2-13 20-131.7-15.1-34.2c-6.4-14.6-15.2-27.9-26.2-39.5-7.6-8-16.8-15.8-26.5-19.6-1.3-.5-2.7-1-4-1.4-3.2-1-6.7-.4-9.3 1.7-13.8 9.8-18.8 51.5-20.4 71.6-.7 8.2-1.8 16.5-3.3 24.6z" fill="#a8a8a8"/><path d="m383.1 480.9-23.4 57.5c12.2-9 30.4-57.7 30.4-57.7l16.3 55.6-13-58.6c1.9-12.7 2.4-25.6 1.6-38.5-1-14.7-14.8-38.3-22.3-50.2-1.3-.5-2.7-1-4-1.4-3.2-1-6.7-.4-9.3 1.7 5.9 11.8 20.6 41.4 25.1 50.2 5.6 11-1.4 41.4-1.4 41.4z" fill="#fff" opacity=".1"/><path d="m402.2 631.5h60.8c10.2 0 18.5-8.3 18.5-18.5 0-.3 0-.6 0-.9-1.3-26.1-4.8-72.6-12.9-102.2-4.4-15.9-9.5-24.3-14.2-28.4-2.2-2.1-5-3.4-8-3.8-2.3-.2-4.6.4-6.5 1.6-11.3 10.8-24.5 67.8-24.5 67.8z" fill="#a8a8a8"/><path d="m458.4 580.9c2.5 6.9 3.5 15 0 22.8l-13.6 6.7s-36.5-15.5-32-47.1c0 0 1.2-6.5 13.8-6 14.4.6 26.9 10 31.8 23.6z" fill="#fff" opacity=".1"/><path d="m443.9 497.6c-.4-11.1 5.6-15 10.6-16.2-2.2-2.1-5-3.4-8-3.8-3.5 2.9-5.9 6.8-7 11.2l-12.7 62c-.1.1 17.8-34.5 17.1-53.2z" fill="#fff" opacity=".1"/><path d="m386.2 546.6 30.1 41.2 5.2 34-19.4 9.6-27.9 6.2c-2.7.6-5.5.8-8.2.5l-76.2-6.7 10.4-24 35.8-50.3z" fill="#a8a8a8"/><path d="m374.5 532.5s20.6 1.4 12.8 36.7c-7.7 35.3-87.2 38.2-87.2 38.2s16.9-29.9 42.9-51.3c2.9-2.4 5.7-4.9 8.4-7.6 6-6 17.4-16.5 23.1-16z" fill="#fff" opacity=".1"/><path d="m393 559.1s27.9 25.4 25.2 64.4" opacity=".1"/><path d="m439.9 479.3s-29.2 38.9-32.5 98.7" opacity=".1"/><path d="m339.5 462.8s14.2 64.3-21.2 112.7" opacity=".1"/><path d="m623.7 703.6h163.1c5 0 9.1-4.1 9.1-9.2 0-1.5-.4-3-1.1-4.3l-81.5-151.5c-2.4-4.4-7.9-6.1-12.4-3.7-1.6.8-2.9 2.1-3.7 3.7l-81.6 151.5c-2.4 4.4-.7 10 3.7 12.4 1.4.8 2.9 1.1 4.4 1.1zm92-27.6h-20.8v-20.8h20.8zm0-34.6h-20.8v-41.5h20.8z" fill="#464353"/><path d="m623.7 703.6h163.1c5 0 9.1-4.1 9.1-9.2 0-1.5-.4-3-1.1-4.3l-81.5-151.5c-2.4-4.4-7.9-6.1-12.4-3.7-1.6.8-2.9 2.1-3.7 3.7l-81.6 151.5c-2.4 4.4-.7 10 3.7 12.4 1.4.8 2.9 1.1 4.4 1.1zm92-27.6h-20.8v-20.8h20.8zm0-34.6h-20.8v-41.5h20.8z" opacity=".1"/><path d="m623.7 708.6h163.1c5 0 9.1-4.1 9.1-9.2 0-1.5-.4-3-1.1-4.3l-81.5-151.5c-2.4-4.4-7.9-6.1-12.4-3.7-1.6.8-2.9 2.1-3.7 3.7l-81.6 151.5c-2.4 4.4-.7 10 3.7 12.4 1.4.8 2.9 1.1 4.4 1.1zm92-27.6h-20.8v-20.8h20.8zm0-34.6h-20.8v-41.5h20.8z" fill="#464353"/><path d="m449.7 286.9c-.9-.3-1.9-.6-2.8-.9l1.9.1c.3.3.6.5.9.8z" fill="#fbbebe"/><path d="m481.9 322.5c.4 0 .3 0 0 0-.2.2-.5.2 0 0z" opacity=".1"/><path d="m1002.2 550.4s-17.1 22.5-31.3 22.7-22.5 9.5-15.8 15.3 80.1-3.3 80.1-3.3.7-27.6-5.7-31.7c-6.3-4.1-27.3-3-27.3-3z" fill="#444176"/><path d="m1185.8 577.4s2.6 17.8-5.5 29.9 14.6 16.8 14.6 16.8 16.5 4.6 17.7-11.7.8-28.7-.7-30-2.8-10.5-2.8-10.5z" fill="#444176"/><path d="m927.3 611s-.6-57.6 56.4-81l13.2-25.2 6.3-15.5c4.7-11.4 14.6-19.7 26.6-22.4l10.3-2.3 3.2-13.4c3.5-14.6 15.3-25.8 30-28.4 6.2-1.2 12.6-1.7 18.9-1.8 5.7.1 11 3.2 13.8 8.1s54-.6 56.4 28.8c0 0 5.4 27 13.2 31.8 0 0 13.2-3 26.4 16.2l14.4 49.2s37.8 35.4 26.4 67.7c0 0-15.6 22.2-94.8 7.2 0 0-84.6 25.8-129.6-9.6 0 .2-74.9 14.6-91.1-9.4z" fill="#a8a8a8"/><g fill="none" stroke="#000" stroke-miterlimit="10"><path d="m965.1 602s12-16.8 11.4-28.8 2.8-41.2 2.8-41.2" opacity=".1"/><path d="m1008.8 557s12-22.2 10.8-34.2c0 0 12.6-22.8 22.2-21" opacity=".1"/><path d="m1074.8 494.1s33-12 34.8-21.6" opacity=".1"/><path d="m1086.8 521.7s34.8-15.6 34.8-19.8h17.4s25.2 33 22.2 47.4" opacity=".1"/><path d="m1127.6 545.6s-33.6-2.4-45.6 7.2-33.6 14.4-33.6 14.4-12.6 27-17.4 31.8-12.6 21.6-12.6 21.6" opacity=".1"/><path d="m1127.6 577.4s3.6 12.6 8.4 19.8 12 33 12 33" opacity=".1"/><path d="m1184 614s7.6 21.2 14.3 21.4" opacity=".1"/><path d="m1134.1 523.1s19.8 5.3 28 18.3c8.3 13 33.5 24.7 33.5 24.7" opacity=".1"/><path d="m1142.6 459.3s0 27.6 7.8 27.6 25.2 3 25.2 3" opacity=".1"/><path d="m1104.4 426.5s-2 47.7-12.2 60" opacity=".1"/></g><g opacity=".05"><path d="m1215.2 554.6-14.4-49.2c-13.2-19.2-26.4-16.2-26.4-16.2-7.8-4.8-13.2-31.8-13.2-31.8-2.4-29.4-56.4-28.8-56.4-28.8-2.9-4.9-8.1-8-13.9-8.1-2.5 0-5.2.1-7.8.3 1.5.1 2.9.4 4.2.6l4.2 7.2s54-.6 56.4 28.8c0 0 5.4 27 13.2 31.8 0 0 13.2-3 26.4 16.2l14.4 49.2s37.8 35.4 26.4 67.7c0 0-7.7 10.9-39.7 12.3 43.2 1.6 52.9-12.3 52.9-12.3 11.4-32.3-26.3-67.7-26.3-67.7z"/><path d="m1004 620c-12.7 2.3-25.5 3.7-38.4 4.2 15 .6 30.7-1.1 40.7-2.4-.7-.6-1.5-1.2-2.3-1.8z"/><path d="m1133.6 629.6c-18.5 5.2-37.5 8.2-56.6 9 27.6 1 53.8-4.8 64.6-7.5-2.6-.5-5.3-1-8-1.5z"/></g><path d="m440.9 750s22.4-.7 29.2-5.5 34.5-10.5 36.1-2.8 33.7 38.3 8.4 38.6-58.8-3.9-65.5-8-8.2-22.3-8.2-22.3z" fill="#a8a8a8"/><path d="m515 777.5c-25.3.2-58.8-3.9-65.5-8-5.1-3.1-7.2-14.3-7.9-19.5h-.8s1.4 18.1 8.2 22.2 40.2 8.3 65.5 8c7.3-.1 9.8-2.7 9.7-6.5-1 2.3-3.8 3.8-9.2 3.8z" opacity=".2"/><path d="m987.2 693.8s-26.4-5.3-33.4-12.3-38.7-19.3-42.2-10.5-47.5 38.7-17.6 44 70.4 7 79.2 3.5 14-24.7 14-24.7z" fill="#a8a8a8"/><path d="m894 711.6c29.9 5.3 70.4 7 79.2 3.5 6.7-2.7 11.3-15.5 13.2-21.5l.9.2s-5.3 21.1-14.1 24.6-49.3 1.8-79.2-3.5c-8.6-1.5-11.1-5.1-10.2-9.6.7 2.9 3.7 5.2 10.2 6.3z" opacity=".2"/><path d="m734.5 119.1h-6.3c2.4 0 4.4-2 4.4-4.4s-2-4.4-4.4-4.4h-50.9c-2.4 0-4.4 2-4.4 4.4s2 4.4 4.4 4.4h6.3c-2.4.1-4.3 2.2-4.2 4.6.1 2.3 1.9 4.1 4.2 4.2h-8.8c-2.4 0-4.4 2-4.4 4.4s2 4.4 4.4 4.4h50.9c2.4 0 4.4-2 4.4-4.4s-2-4.4-4.4-4.4h8.8c2.4.1 4.5-1.8 4.6-4.2s-1.8-4.5-4.2-4.6c-.1 0-.3 0-.4 0z" fill="#2ebf91" opacity=".1"/><path d="m932.1 273.9h-6.3c2.4-.1 4.3-2.2 4.2-4.6-.1-2.3-1.9-4.1-4.2-4.2h-50.9c-2.4-.1-4.5 1.8-4.6 4.2s1.8 4.5 4.2 4.6h.4 6.3c-2.4.1-4.3 2.2-4.2 4.6.1 2.3 1.9 4.1 4.2 4.2h-8.8c-2.4 0-4.4 2-4.4 4.4s2 4.4 4.4 4.4h50.9c2.4 0 4.4-2 4.4-4.4s-2-4.4-4.4-4.4h8.8c2.4.1 4.5-1.8 4.6-4.2s-1.8-4.5-4.2-4.6c-.1 0-.2 0-.4 0z" fill="#2ebf91" opacity=".1"/><path d="m639.3 245.3h-6.3c2.4.1 4.5-1.8 4.6-4.2s-1.8-4.5-4.2-4.6c-.1 0-.3 0-.4 0h-50.9c-2.4-.1-4.5 1.8-4.6 4.2s1.8 4.5 4.2 4.6h.4 6.3c-2.4-.1-4.5 1.8-4.6 4.2s1.8 4.5 4.2 4.6h.4-8.8c-2.4 0-4.4 2-4.4 4.4s2 4.4 4.4 4.4h50.9c2.4 0 4.4-2 4.4-4.4s-2-4.4-4.4-4.4h8.8c2.4.1 4.5-1.8 4.6-4.2s-1.8-4.5-4.2-4.6c-.2 0-.3 0-.4 0z" fill="#2ebf91" opacity=".1"/></svg>