<svg id="_x38_f5d7de9-4e20-434b-840c-53dc4e73b3f7" xmlns="http://www.w3.org/2000/svg" viewBox="269 293.1 164.2 266.7"><style>.st0{fill:none;stroke:#535461;stroke-width:2;stroke-miterlimit:10}.st1{fill:#2ebf91}.st2{opacity:.25;enable-background:new}</style><path class="st0" d="M392.6 524.1S381.8 463.2 342 433c-16.7-12.7-29-29.9-34.3-49.5-2.5-9.3-4.1-18.8-4.8-28.4"/><path class="st1" d="M277.8 336c3.4 6.5 25.6 19.7 25.6 19.7s2.8-24.7-.5-31.2-11.7-9.3-18.6-6.1c-6.9 3.2-9.8 11.1-6.5 17.6zM275.8 381.7c6.6 3.8 32.9 3.4 32.9 3.4s-11.9-22.1-18.5-25.9c-6.5-3.8-14.9-1.8-19.1 4.4-3.8 5.9-2 13.8 3.9 17.6.2.2.5.3.8.5zM308.4 443.1c7.7.1 30.2-12.7 30.2-12.7s-22.1-13.5-29.8-13.6-14 5.7-14.1 12.9 6 13.2 13.7 13.4zM344.1 484.2c7.6 1.3 32-7.7 32-7.7s-19.4-16.8-26.9-18.1c-7.5-1.3-14.8 3.4-16.2 10.5s3.6 14 11.1 15.3zM335.5 374.3c-2.6 6.8-23.3 22.1-23.3 22.1s-5.4-24.3-2.8-31.1c2.6-6.8 10.6-10.3 17.8-7.9s10.9 10.1 8.3 16.9zM376.8 423c-4.7 5.8-29.3 14.5-29.3 14.5s2.5-24.7 7.1-30.5c4.9-5.8 13.4-6.9 19.5-2.5 5.8 4 7.2 11.9 3.2 17.6-.1.4-.3.6-.5.9zM409.9 475.5c-3.6 6.4-26.2 19-26.2 19s-2-24.7 1.6-31.2c3.8-6.5 12-8.9 18.8-5.5 6.4 3 9.2 10.6 6.2 17-.2.2-.3.5-.4.7z"/><path class="st2" d="M277.8 336c3.4 6.5 25.6 19.7 25.6 19.7s2.8-24.7-.5-31.2-11.7-9.3-18.6-6.1c-6.9 3.2-9.8 11.1-6.5 17.6zM275.8 381.7c6.6 3.8 32.9 3.4 32.9 3.4s-11.9-22.1-18.5-25.9c-6.5-3.8-14.9-1.8-19.1 4.4-3.8 5.9-2 13.8 3.9 17.6.2.2.5.3.8.5zM308.4 443.1c7.7.1 30.2-12.7 30.2-12.7s-22.1-13.5-29.8-13.6-14 5.7-14.1 12.9 6 13.2 13.7 13.4zM344.1 484.2c7.6 1.3 32-7.7 32-7.7s-19.4-16.8-26.9-18.1c-7.5-1.3-14.8 3.4-16.2 10.5s3.6 14 11.1 15.3zM335.5 374.3c-2.6 6.8-23.3 22.1-23.3 22.1s-5.4-24.3-2.8-31.1c2.6-6.8 10.6-10.3 17.8-7.9s10.9 10.1 8.3 16.9zM376.8 423c-4.7 5.8-29.3 14.5-29.3 14.5s2.5-24.7 7.1-30.5c4.9-5.8 13.4-6.9 19.5-2.5 5.8 4 7.2 11.9 3.2 17.6-.1.4-.3.6-.5.9zM409.9 475.5c-3.6 6.4-26.2 19-26.2 19s-2-24.7 1.6-31.2c3.8-6.5 12-8.9 18.8-5.5 6.4 3 9.2 10.6 6.2 17-.2.2-.3.5-.4.7z"/><path class="st0" d="M391.3 522.5s16.3-59.8-7.2-102.6c-9.9-18-13.7-38.4-10.1-58.4 1.7-9.5 4.3-18.8 7.8-27.8"/><path class="st1" d="M367 306.6c.3 7.3 14.9 27.8 14.9 27.8s13.2-21.5 12.9-28.7c-.3-7.3-6.7-12.9-14.4-12.7s-13.6 6.4-13.4 13.6zM345.5 347.6c4.4 6 28.6 15.7 28.6 15.7s-1.3-24.8-5.7-30.7c-4.6-6-13.1-7.4-19.4-3.3-5.9 3.7-7.7 11.6-4 17.5.2.2.3.5.5.8zM349 416.2c7 3 33.1-.1 33.1-.1s-14.4-20.8-21.4-23.8c-7-3-15.2-.2-18.5 6.4s-.2 14.4 6.8 17.5zM364.1 467.5c6.3 4.1 32.6 5.2 32.6 5.2s-10.5-22.8-16.8-26.9c-6.3-4.1-14.8-2.6-19.4 3.4-4.1 5.6-2.9 13.6 2.7 17.7.3.3.6.5.9.6zM403.3 363.7c-5.3 5.2-30.8 11.3-30.8 11.3s5.4-24.3 10.7-29.5c5.5-5.2 14-5.4 19.7-.4 5.2 4.6 5.7 12.6 1.1 17.8-.2.3-.4.6-.7.8zM420.1 424c-6.7 3.5-33 2.1-33 2.1s12.9-21.6 19.6-25.1c6.7-3.5 14.9-1.2 18.9 5.2 3.5 6.1 1.4 13.9-4.7 17.4-.2.1-.5.2-.8.4zM427.9 484.7c-6 4.5-32.1 7.3-32.1 7.3s8.8-23.4 14.8-27.9c6.1-4.5 14.6-3.6 19.6 2.1 4.5 5.3 3.9 13.3-1.4 17.8-.3.3-.6.5-.9.7z"/><ellipse cx="381.7" cy="554.6" rx="30.9" ry="5.2" opacity=".1" fill="#2ebf91"/><path d="M360.9 530.3s17.6-.5 22.9-4.3 27.1-8.3 28.4-2.2c1.3 6.1 26.5 30.1 6.6 30.3-19.9.2-46.2-3.1-51.5-6.3-5.2-3.3-6.4-17.5-6.4-17.5z" fill="#a8a8a8"/><path d="M419.2 552c-19.9.2-46.2-3.1-51.5-6.3-4-2.5-5.6-11.3-6.2-15.3h-.6s1.1 14.2 6.4 17.4c5.3 3.2 31.6 6.5 51.5 6.3 5.7 0 7.7-2.1 7.6-5.1-.6 1.8-2.9 2.9-7.2 3z" opacity=".2"/></svg>