<svg viewBox="1124.7 406.5 229.7 331" xmlns="http://www.w3.org/2000/svg"><ellipse cx="1257" cy="721.8" fill="#2ebf91" opacity=".1" rx="97.4" ry="15.7"/><path d="m1253.8 422h6.3v141.2h-6.3z" fill="#535461"/><path d="m1299.5 562.8-.4 6.4-.6 9-.2 3.7-.6 9-.2 3.7-.6 9-6.3 102.1c-.6 9.1-8.1 16.2-17.3 16.2h-32.9c-9.1 0-16.7-7.1-17.2-16.2l-6.3-102.1-.5-9-.2-3.7-.6-9-.2-3.7-.6-9-.4-6.4c-.3-5 3.5-9.2 8.5-9.5h67.7c5 0 9 4.1 8.9 9.1z" fill="#565661"/><path d="m1299.1 569.1-.5 9h-83.2l-.6-9zm-.8 12.7-.5 9h-81.6l-.6-9zm-.8 12.7-.5 9h-80l-.6-9z" fill="#9d9cb5"/><path d="m1205.2 474.9c36.5 26.4 51.7 67.7 51.7 67.7s-44-1.5-80.5-27.9-51.7-67.7-51.7-67.7 44 1.5 80.5 27.9z" fill="#2ebf91"/><path d="m1124.7 447s45.7 25.4 60.3 46.3c14.7 21 71.9 49.3 71.9 49.3" fill="none" stroke="#535461" stroke-miterlimit="10" stroke-width="2"/><path d="m1228.8 421.7c19.9 14.4 28.2 36.9 28.2 36.9s-24-.8-43.8-15.2-28.1-36.9-28.1-36.9 23.8.8 43.7 15.2z" fill="#2ebf91"/><path d="m1185 406.5s24.9 13.8 32.8 25.2c8 11.4 39.1 26.9 39.1 26.9" fill="none" stroke="#535461" stroke-miterlimit="10" stroke-width="2"/><path d="m1285.9 457.4c-22.8 25.1-27.7 57.9-27.7 57.9s32.2-7.9 55-33 27.7-57.9 27.7-57.9-32.2 7.9-55 33z" fill="#2ebf91"/><path d="m1340.9 424.4s-29.7 25.7-37.3 43.4-45.4 47.4-45.4 47.4" fill="none" stroke="#535461" stroke-miterlimit="10" stroke-width="2"/></svg>