<svg xmlns="http://www.w3.org/2000/svg" xmlns:xlink="http://www.w3.org/1999/xlink"><linearGradient id="a"><stop offset="0" stop-color="#808080" stop-opacity=".25"/><stop offset=".54" stop-color="#808080" stop-opacity=".12"/><stop offset="1" stop-color="#808080" stop-opacity=".1"/></linearGradient><linearGradient id="b" gradientTransform="matrix(1 0 0 -1 -142.33 764.8101)" gradientUnits="userSpaceOnUse" x1="749.1315" x2="749.1315" xlink:href="#a" y1="-47.7147" y2="616.7841"/><linearGradient id="c" gradientTransform="matrix(1 0 0 -1 -142.33 764.8101)" gradientUnits="userSpaceOnUse" x1="711.3881" x2="711.3881" xlink:href="#a" y1="328.35" y2="330.22"/><ellipse cx="643.9" cy="803.1" fill="#2ebf91" opacity=".1" rx="221.1" ry="16.9"/><path d="m434.7 53.7c31-27.7 79.8-33.3 124.2-31.1 139.4 6.9 265.2 74.2 374 150.3 39.4 27.6 78.2 57.3 103.8 95.2 52.1 77.2 36.6 184.3-35.8 247.9-24.6 21.7-54.5 38.3-85.1 53-54.5 26.2-113.3 47.2-175.2 53.1-44.1 4.3-88.8.8-132.6-5.2-122.5-16.7-242.8-53.4-343.6-116.3-44.2-27.6-85.9-61.8-104.1-106.5-18.2-44.6-6.6-101.1 38.6-127.5 18.7-10.9 41-15.9 62.8-20.5 32.2-6.8 64.9-13.5 93.9-27.4 30-14.3 65.5-42 59.5-73.7-6.4-33.8-11.4-63.7 19.6-91.3z" fill="#2ebf91" opacity=".1"/><path d="m713.1 393.6c-3.2-3.2-6.6-6.3-10.2-9.2.4-5.4 1.4-18.2 1.5-20.7.1-3.1-4.5-7.1-14.4-10.8s-7 13.5-6.9 15.1c.1 1.5 2.3 6.2 6 7.8 1.3.5 1.7 1.2 1.6 1.9h-.3c-8.1-1-11.8-2.9-11.8-2.9s-3 9-3 13.3v.7c-.1.8 0 1.6.2 2.3h.7c.1 1.2-.1 2.3-.5 3.4-.3.8-.6 1.7-1 2.5-.3-2.5-.4-4.9-.5-7.4.2-2.4-3.7-12.2-3.7-12.2s-1.6-.6-4.9-4.5c-3.3-3.8-6-5.4-8.3-6.2s-10.5-11.5-13.9-14c-2.7-2-3.8-.8-4.1-.3l-.2.1c-1.6-2.2-2.7-4.3-2.7-5.7 0-1.1.1-3.3.3-6.2 1.2.9 2.3 1.9 3.3 3 2.3 2.5 4 5.6 6.5 7.9 1.9 1.9 4.5 3 7.2 3.1.9 0 1.8-.1 2.6-.4 3.3-1.3 5.5-5.4 9-5.5 2.8.1 4.8 2.7 7 4.4 1.7 1.3 3.7 2 5.8 2 .8 0 1.7-.1 2.5-.4 2.6-1 4.4-4.2 3.2-6.7-1.8-3.9-8.1-3-10.8-6.4-.6-.7-.9-1.6-.6-2.5.2-.7.9-1.2 1.6-1.2 1.3.1 2.4.7 3.3 1.6 1.3 1.3 3 3 4.6 2.8.5.1.9 0 1.3-.3 0-1.2.1-2.4.2-3.6 1.7 1 3.6 1.5 5.6 1.6h1.1c2.1-.3 4.1-2.2 3.9-4.3.9.8 2.1 1.2 3.3 1.1.5 0 1.1 0 1.6-.2 1.8-.6 3.1-2.3 3.2-4.2.2-2.2-1.2-4.2-2.5-6l-6.5-8.9c-.7-.7-1-1.6-1-2.6.2-.7.6-1.4 1.1-2 1.8-2.6.9-6.4-1.4-8.6s-5.6-3-8.7-2.9c-2.4 0-5 .5-6.9-.9-1.5-1-2.2-2.9-2.7-4.7-1.4-5.3-1.5-10.8-2.4-16.1-1-5.4-3.1-10.9-7.4-14.1-1-.8-2.2-1.3-3.4-1.5-1.1 0-2.1.1-3.2.3-3.6.2-6.8-2.3-9.1-5.1s-4-6.1-6.6-8.6c-3.8-3.9-10.2-5-15.3-3.5-2.3.6-4.2 2.5-6.6 2.6-3.5.2-7.4-.6-10.9-1-3.3-.3-6.7-.6-10 .2-3 .7-5.5 2.5-7 5.2l-.8-7.2s-1.8-13.6-2.5-14.7c-.6-.8-.3-1.9.1-3.2l.2.1c.1-.4.3-.7.4-1.1 0-.3 0-.6 0-.8.3-2.7-4.7-20.1-4.7-20.1h-4.5c0-.2-.1-.4-.1-.6-1.3-7.1-3.5-18.1-5-20.8-1-1.8-1.1-4.4-.9-6.7.3-2.6.3-5.3.2-7.9-.1-1.3 0-2.6.2-3.8.3-1.9-.6-3.8-2.1-5-5.8-4.3-20.1-14.2-28.4-14.5-10.7-.3 3.3 18.4 3.2 20.1s10.7 3.4 10.7 3.4.6 5.4 1.3 8.5c.4 2.1 1.2 17.8 1.6 27.2-2.6-.3-7.2-2.7-7.2-2.7s-12.4-3.4-13.5 0 15.1 19.5 15.1 19.5 5.7 15.2 4 20-.5 27.5-.5 27.5.2 27 1.3 33.9c1.2 6.9-2.2 10.7-2.2 10.7s-1.4 17 0 18.5c1.5 2 2.8 4.1 3.9 6.3l.4.8c-4.7 5.7-9.4 11.2-11.8 12-4.8 1.4-37.4 15-37.4 15s-10.6 10.2-12.3 10.2 9.7 10.9 9.7 10.9 10.2 8.2 11.3 9.4c1.1 1.3 29 16.5 29 16.5s4.8 1.4 5.3 2.9 6.8 5.4 6.8 5.4 4.9 5.6 6.2 9.2c0 .3 0 .5.1.7.1 1 .1 1.5.2 1.2.8 2.3 6.6 8.3 3.8 12.6-1.3 2 0 5.6 2.5 8.5-.7 3.6-1.6 7.7-2.6 9-1.9 2.6-1.1 6.2-3 6.6s-2.5 9.8-2.5 9.8l-1.7 20.7s-.4 4.3-2.8 5.3 0 6.8 0 6.8-2.5 4.9-1 7.7-3 15.6-3 15.6-1.9 24.7 0 28.1c1.7 3.4 2.7 7.1 3 10.9 0 2.1 1.1 42 1.1 42s-2.5 16.2-3.4 19.2 2.3 9.6.2 13-1.7 11.1-1.7 11.1-3.2 30.1-1.3 41.2-.6 13.4-.6 13.4c1.3.7 2.7 1.4 4.1 1.8 0 .4.1.9.2 1.3 1 9.3 2.5 25.3 1.1 29s-1.7 10.6-1.8 14.6v.7l-3.7 6s-.7 5.3-1.7 6.1-8.9 15.3-10 17.2l-.1.2s-8.1 14.8 11.9 15.2 17.4-9.8 17.4-9.8.1-2 .3-4.5c.2-3 .7-6.7 1.5-7.6 1.4-1.7 5.4-9.7 5.4-9.7v-11.7h-1.3c0-.2 0-.4.1-.6.2-2.4.5-4.9 1.1-7.3.6-1.5-1.4-10.5-1.4-10.5s.4-17.2 2.4-28.1c.1-.5.2-1 .3-1.4 1.5-.6 2.9-1.4 4.3-2.2 0 0 0-21.7 2.5-25.6s2-14.7 2-14.7.6-9.6 2.5-11.5 1.5-10.5 1.5-10.5 1.7-5.5 3.6-10 3-17 3-17c.7-2.2 1.7-4.3 3-6.2 2.1-3 0-9.6 0-9.6s-2.3-4.3-.8-8.5 9.8-38.8 9.8-38.8l3.2-12.4 4.7 15.8s-.6 11.3 0 14.5 5.1 10 5.1 10v33.5s.4 22.6 2.1 26.2 2.5 17.1 2.5 17.1 5.7 39.4 2.1 45.2c1.8 1.3 3.8 2.3 5.9 3.2v23.2s-4.2 14.1-2.7 23.6c0 .2.1.4.1.6-.4.3-.8.5-1.1.4l.7 16s.2 8.9-1.5 13.5c-.6 1.6-.9 3.3-1 5.1-.4 6.3 2.1 15 16 14.1 18.5-1.2 15.7-13 15.7-13s0-.5-.1-1.3c-.4-6-2-11.9-4.6-17.4-4.5-8.7-3.8-19.6-3.8-19.6-.4.1-.7.2-1.1.3 0-.2 0-.4 0-.7.2-3 .6-6.9 1-8.7.6-3.2 0-10.7 0-10.7l2.4-23.3.1-1.3c1.2-.6 2.3-1.2 3.3-2-.7-2.1-1.1-4.3-1.2-6.5-.1-1.5.3-3 1.2-4.1 2.8-2.8 4.7-37.5 4.7-37.5s1.5-12.2 1.5-16.4c0-.3 0-.5 0-.7-.2-2.5-1.5-12.2-1.5-17.9-.1-1.2.1-2.4.4-3.6 1.3-3.2 3-63.3 3-63.3l2.1-26.6v-21.9c0-10.5-1.3-20.9-3.8-31.1 5.8 3 15.7 9.8 17.5 8 2.2-2.2 3.3-40.6 2.7-44.5 0-.2-.1-.5-.2-.8-.2-.7-.4-1.6-.6-2.7l.9-1.5c4.3-7.5 11-19.5 11.5-23 .6-4 1.4-14.4 2.9-18.9.1-.4.3-.7.4-1.1.4-.8.8-1.2 1.3-1.1 2.7.6 4.5 2.7 5.9 1.9.1 0 .1-.1.2-.2.1-.2.3-.3.4-.5.1-.2.2-.5.3-.7.1-.3.2-.5.3-.9v-.1c0-.1.1-.3.1-.4v-.1c0-.1 0-.2.1-.3l.1-.3v-.1c.3-1.1.4-2.3.6-3.1 0-.3.1-.5.1-.7v-.4z" fill="url(#b)"/><path d="m569.1 436.4c.1-.6 0-1.2-.2-1.8.1 1.4.2 2.1.2 1.8z" fill="url(#c)"/><path d="m689.1 382.1s3.8-2.6.1-4.1-5.9-6.2-6-7.7-3-18.7 6.9-15 14.5 7.6 14.4 10.8-1.7 22.9-1.7 22.9z" fill="#fbbebe"/><path d="m713.1 395.7s0 .5-.2 1.1c-.3 2-1 6.1-2.1 6.7-1.4.8-3.2-1.3-5.9-1.9-.5-.1-.9.3-1.3 1.1-.2.3-.3.7-.4 1.1-1.5 4.5-2.3 14.9-2.9 18.9-.5 3.5-7.2 15.4-11.5 22.9-.7 1.1-1.3 2.2-1.8 3-1.2 2-2 3.3-2 3.3l-11-20.6v-30.4c.8-1.3 1.5-2.8 2-4.2.4-1.1.6-2.2.5-3.4 0-.4-.2-.7-.5-1-.1-.1-.2-.2-.2-.3s-.1-.2-.1-.3c-.1-.3-.1-.5-.1-.8 0-.2 0-.4 0-.7 0-4.3 3-13.3 3-13.3s3.7 1.9 11.8 2.9c8.2.9 22.7 15.9 22.7 15.9z" fill="#8165ba"/><path d="m712.9 396.8c-.3 2-1 6.1-2.1 6.7-1.4.8-3.2-1.3-5.9-1.9-.5-.1-.9.3-1.3 1.1-.2.3-.3.7-.4 1.1-5.5-2.7-15-7.5-15.6-8.8s-7.3-1.7-11-1.7h-.6c-.3-.7-.3-1.5-.2-2.3.3-4.5 3-12.6 3-12.6s3.7 1.9 11.8 2.9c7.5.7 20.8 14 22.3 15.5z" opacity=".1"/><path d="m713.1 395.7s-.8 7-2.2 7.8-3.2-1.3-5.9-1.9c-.5-.1-.9.3-1.3 1.1-5.4-2.6-15.5-7.7-16-9-.5-1.4-8.1-1.7-11.7-1.8-1.3-2.7 2.8-15 2.8-15s3.7 1.9 11.8 2.9c8 .9 22.5 15.9 22.5 15.9z" fill="#8165ba"/><path d="m686 494.8c-2.2 2.2-16.7-8.6-20.7-9.2s-18.3-61.1-18.3-61.1l2.2-34.1-8.5-31.3-1.1-4.1s.8-2.5 4.2 0 11.7 13.2 13.9 14 4.9 2.4 8.3 6.2 4.9 4.5 4.9 4.5 3.8 9.7 3.7 12.1 1.3 18.6 3 20 4.6 14.5 4.6 14.5 5.3 18.3 6.4 23.6c.1.3.1.6.2.8.6 3.7-.5 41.8-2.8 44.1z" fill="#8165ba"/><path d="m661.2 418.9 10.5 2.8s2 18.1 2.7 19.1 3.3 38.2 3.3 38.2l-16.5-7.5-6.2-20v-22.1z" opacity=".1"/><path d="m582.9 713.4c-.7 2-1.2 4-1.5 6-2 10.8-2.4 28-2.4 28s2 8.9 1.4 10.4c-.6 2.4-.9 4.8-1.1 7.2-.2 1.6-.3 2.8-.3 2.8l-19.4-1.3s0-1.2.1-2.9c.1-3.9.5-10.8 1.8-14.5s-.1-19.6-1.1-28.9c-.4-4-.8-6.7-.8-6.7s26.6-8.6 23.3-.1z" fill="#fbbebe"/><path d="m658.7 718.6-2.4 23.2s.6 7.4 0 10.6c-.4 1.8-.7 5.7-1 8.7-.2 2.3-.3 4.1-.3 4.1s-14.8 10.4-18.2 1.3c-.4-1.1-.7-2.3-.8-3.4-1.4-9.5 2.7-23.5 2.7-23.5v-29.9l20.6 3.4z" fill="#fbbebe"/><path d="m582.9 713.4c-.7 2-1.2 4-1.5 6-6.7 2.8-14.1 3.1-21 .8-.4-4-.8-6.7-.8-6.7s26.6-8.6 23.3-.1z" opacity=".1"/><path d="m659.3 713-.6 5.6c-7.2 3.3-14.9 1.3-20-1v-8z" opacity=".1"/><path d="m576.4 451.8s-1.7 12.5-3.6 15.1-1.1 6.2-3 6.6-2.5 9.8-2.5 9.8l-1.6 20.6s-.4 4.2-2.8 5.3 0 6.8 0 6.8-2.5 4.9-1 7.6-3 15.5-3 15.5-1.9 24.6 0 28c1.7 3.4 2.7 7 3 10.8 0 2.1 1.1 41.8 1.1 41.8s-2.5 16.1-3.4 19.1 2.3 9.5.2 12.9-1.7 11-1.7 11-3.3 30-1.4 41-.6 13.4-.6 13.4c9.5 5 20.9 4.5 29.9-1.3 0 0 0-21.6 2.5-25.5s2.1-14.6 2.1-14.6.6-9.5 2.5-11.5 1.5-10.4 1.5-10.4 1.7-5.5 3.6-10 3-17 3-17c.7-2.2 1.7-4.3 3-6.2 2.1-3 0-9.5 0-9.5s-2.3-4.3-.8-8.5 9.8-38.6 9.8-38.6l3.2-12.3 4.7 15.7s-.6 11.2 0 14.4 5.1 10 5.1 10v33.3s.4 22.5 2.1 26.1 2.5 17 2.5 17 5.7 39.3 2.1 45c0 0 16.3 11.7 29.3 2.1 0 0-2.8-7.8 0-10.6s4.7-37.3 4.7-37.3 1.7-13.8 1.5-17-2.3-18.2-1.1-21.4 3-63 3-63l2.1-26.5v-21.7c0-11.7-1.6-23.4-4.8-34.7-3.6-12.7-8.6-27.2-12.7-28.1-.1-.1-65.9 7.2-78.5-3.2z" fill="#3f3d56"/><path d="m579.3 764.9c-.2 1.6-.3 2.8-.3 2.8l-19.4-1.3s0-1.2.1-2.9c9.1-8.1 18.2 1.4 18.2 1.4z" opacity=".1"/><path d="m580.5 765.6v11.8s-4 8-5.4 9.7c-.8.9-1.2 4.5-1.5 7.6-.2 2.4-.3 4.4-.3 4.4s2.5 10.2-17.4 9.8-11.9-15.2-11.9-15.2l.1-.2c1-1.9 9.1-16.3 10-17.1s1.7-6.1 1.7-6.1l3.7-6c9.1-8.2 18.3 1.4 18.3 1.4z" fill="#3f3d56"/><path d="m573.4 799s2.5 10.2-17.4 9.8-11.9-15.1-11.9-15.1l.1-.2c.5 3 2.9 6.1 10.4 5.7 10.2-.5 16.3-3.1 19-4.5-.1 2.3-.2 4.3-.2 4.3z" opacity=".1"/><path d="m655.4 761.1c-.2 2.3-.3 4.1-.3 4.1s-14.8 10.4-18.2 1.3c-.4-1.1-.7-2.3-.8-3.4.3-.2.6-.5.8-.7 2.4-3.6 15.4-3.7 16-2 .3.9 1.6.9 2.5.7z" opacity=".1"/><path d="m649.2 812.5c-14 .9-16.4-7.7-16-14 .1-1.7.4-3.4 1-5 1.7-4.7 1.5-13.5 1.5-13.5l-.7-15.9c.5.2 1.8-1.1 1.8-1.1 2.4-3.6 15.4-3.7 16-2s3.6.5 3.6.5-.6 10.8 3.8 19.5c2.6 5.4 4.2 11.3 4.6 17.3.1.8.1 1.3.1 1.3s2.9 11.7-15.7 12.9z" fill="#3f3d56"/><path d="m649.2 812.5c-14 .9-16.4-7.7-16-14 0 0 3.6 6.2 16.6 4.7 5.3-.5 10.5-2.2 15.1-4.9.1.8.1 1.3.1 1.3s2.8 11.7-15.8 12.9z" opacity=".1"/><path d="m663.7 470.5c-2.9-8.2-6-15-8.8-15.6l-2.5.3c2.6 1.4 5.5 7.7 8.2 15.3 5.8 16.8 8.7 34.5 8.7 52.2v16.7l-2.1 26.5s-1.7 59.8-3 63 .8 18.2 1.1 21.4-1.5 17-1.5 17-1.9 34.6-4.7 37.3 0 10.6 0 10.6c-2.9 2.2-6.4 3.4-10 3.7 4.7.4 9.4-.9 13.2-3.7 0 0-2.8-7.8 0-10.6s4.7-37.3 4.7-37.3 1.7-13.8 1.5-17-2.3-18.3-1.1-21.4 3-63 3-63l2.1-26.5v-16.7c-.1-17.7-3-35.4-8.8-52.2z" opacity=".1"/><path d="m560 717s2.5-2.3.6-13.4 1.3-40.9 1.3-40.9-.4-7.6 1.7-11-1.1-10-.2-12.9 3.4-19.1 3.4-19.1-1.1-39.7-1.1-41.8c-.3-3.8-1.3-7.4-3-10.8-1.9-3.4 0-28 0-28s4.5-12.7 3-15.5 1-7.6 1-7.6-2.3-5.7 0-6.8 2.8-5.3 2.8-5.3l1.7-20.6s.6-9.3 2.5-9.8 1.1-4 3-6.6c1.4-1.9 2.8-9.4 3.3-13.1-1.3-.5-2.5-1.2-3.5-2 0 0-1.7 12.5-3.6 15.1s-1.1 6.2-3 6.6-2.5 9.8-2.5 9.8l-1.6 20.6s-.4 4.2-2.8 5.3 0 6.8 0 6.8-2.5 4.9-1 7.6-3 15.5-3 15.5-1.9 24.6 0 28c1.7 3.4 2.7 7 3 10.8 0 2.1 1.1 41.8 1.1 41.8s-2.5 16.1-3.4 19.1 2.3 9.5.2 12.9-1.7 11-1.7 11-3.2 30-1.3 41-.6 13.4-.6 13.4c4.8 2.6 10.3 3.7 15.7 3.3-4.2-.3-8.3-1.4-12-3.4z" opacity=".1"/><path d="m641.8 253.7c2.6 2.5 4.3 5.7 6.6 8.5s5.5 5.3 9.1 5.1c1.1-.2 2.1-.2 3.2-.3 1.3.2 2.4.7 3.4 1.5 4.3 3.2 6.4 8.7 7.4 14s1 10.8 2.4 16.1c.5 1.8 1.2 3.6 2.7 4.7 2 1.3 4.5.9 6.9.9 3.1-.1 6.5.7 8.7 2.9 2.3 2.2 3.1 6 1.4 8.6-.5.6-.9 1.2-1.1 1.9 0 1 .3 1.9 1 2.6l6.5 8.9c1.3 1.8 2.7 3.8 2.5 6-.2 2.6-2.4 4.5-5 4.3-1.3-.1-2.4-.7-3.3-1.7.7 2.2-1.5 4.5-3.8 4.8s-4.5-.7-6.6-1.7l-.2 3.8c-1.9 1-4-1-5.5-2.6s-4.7-2.5-5.4-.4c-.2.9 0 1.8.6 2.5 2.7 3.3 8.9 2.5 10.8 6.3 1.2 2.5-.6 5.7-3.2 6.6-2.6 1-5.6 0-7.8-1.6s-4.4-4.4-7.3-4.4c-3.6 0-5.8 4.2-9.2 5.5-3.2 1.2-6.8-.4-9.3-2.7s-4.2-5.4-6.5-7.9c-5.9-6.5-14.9-9.1-23.3-11.9s-17.2-6.6-21.5-14.3c-1.3-2.4-2.2-5-3.8-7.2-2.8-3.7-7.6-5.4-10.7-8.8-3.5-4-4.3-9.8-2.1-14.6 1.5-3.1 4-5.5 6.1-8.2 3.5-4.7 5.4-10.4 5.4-16.2 0-2.2-.2-4.5.5-6.6 1.1-3.2 4.2-5.3 7.4-6.1s6.6-.5 10-.2c3.5.3 7.4 1.1 10.9 1 2.4-.1 4.3-2 6.6-2.6 5.3-1.4 11.7-.3 15.5 3.5z" fill="#3f3d56"/><g opacity=".1"><path d="m669.8 280.1c1 5.3 1 10.8 2.5 16 .3 1.3.8 2.5 1.6 3.6-.1-.4-.2-.7-.3-1.1-1.4-5.2-1.5-10.7-2.4-16.1-.5-3.2-1.6-6.4-3.2-9.2.7 2.2 1.4 4.5 1.8 6.8z"/><path d="m691.9 313.1c-.5.6-.9 1.3-1.1 2 0 1 .3 1.9 1 2.6.1.1.2.2.3.4 0-.1 0-.2 0-.4.2-.7.6-1.4 1.1-1.9 1.6-2.3 1.1-5.5-.6-7.7.5 1.6.3 3.5-.7 5z"/><path d="m682.8 349.1c.1 2.4-1.3 4.6-3.5 5.4-2.6.9-5.6 0-7.8-1.6s-4.4-4.4-7.3-4.4c-3.6 0-5.8 4.2-9.2 5.5-3.2 1.2-6.8-.4-9.3-2.7s-4.2-5.4-6.5-7.9c-5.9-6.5-14.9-9.1-23.3-11.9s-17.2-6.6-21.5-14.2c.4.8.8 1.7 1.2 2.5 4.3 7.7 13.2 11.5 21.5 14.3s17.3 5.4 23.3 11.9c2.3 2.5 4 5.6 6.5 7.9s6.1 3.9 9.3 2.7c3.4-1.3 5.6-5.5 9.2-5.5 2.9 0 5 2.6 7.3 4.4s5.2 2.5 7.8 1.6 4.4-4.1 3.2-6.6c-.2-.5-.5-1-.9-1.4z"/><path d="m700.6 330.5c.2.7.3 1.4.3 2-.2 2.6-2.4 4.5-5 4.4-1.3-.1-2.4-.7-3.2-1.7.7 2.2-1.5 4.5-3.8 4.8s-4.5-.7-6.6-1.7c-.1 1.3-.1 2.5-.2 3.8-1.9 1-4-1-5.5-2.5s-4.7-2.5-5.4-.4c-.2.9 0 1.8.6 2.5.2.2.4.4.5.6 0-.2 0-.4.1-.5.7-2 3.9-1.1 5.4.4s3.5 3.6 5.5 2.6c0-1.3.1-2.5.2-3.8 2.1 1 4.3 2 6.6 1.7s4.5-2.6 3.8-4.8c1.7 2 4.7 2.2 6.6.5 1-.8 1.6-2 1.7-3.2-.1-1.8-.6-3.4-1.6-4.7z"/><path d="m590.5 310.1c-2.8-3.7-7.6-5.4-10.6-8.9-.4-.5-.8-1-1.2-1.5.5 1.5 1.4 2.9 2.4 4.1 3.1 3.5 7.8 5.2 10.6 8.9.4.5.8 1.1 1.1 1.6-.5-1.5-1.3-2.9-2.3-4.2z"/></g><path d="m609.5 308s2.3 25.9-8.3 33.7 22.7 29.3 22.7 29.3l25.3-5.5s-12.3-11.5-12.3-16.3c0-4.9 2.1-32.3 5.5-35.4s-32.9-5.8-32.9-5.8z" fill="#fbbebe"/><path d="m602.1 308-5.8 12.6s-8.6 5.1-9.2 5.6-7.5 8.3-7.5 8.3l-16.9 10.8s-.4-.8-1-1.9c-1.2-2.2-2.5-4.3-3.9-6.3-1.4-1.6 0-18.5 0-18.5s3.3-3.8 2.2-10.7c-1.2-6.8-1.3-33.7-1.3-33.7s-1.3-22.6.5-27.4-4-19.9-4-19.9-16.2-16.1-15.1-19.5 13.5 0 13.5 0 4.9 2.5 7.5 2.7c1.5.1 9.8.1 16.1.1h7.5s5.3 18.3 4.6 20.2c-.1.4-.3.7-.4 1.1-.5 1.5-.9 2.8-.3 3.7.8 1.1 2.5 14.6 2.5 14.6l1.8 14.6s2.7 11.5 2.5 13-4.1 4.9-2.4 8 2.4 12.3 2.4 12.3 2.9 6.8 5.8 9.4c.2.5.6.7.9.9z" fill="#8165ba"/><circle cx="628.9" cy="294.7" opacity=".1" r="30.5"/><circle cx="628.9" cy="293.4" fill="#fbbebe" r="30.5"/><path d="m661.2 418.9c-2.8 3-3.4 32-1.8 34.6s-8.2 7.6-13.9 7.4-21.4 4.7-21.4 4.7-31.4-8.5-38-4.2-15.9-7.6-13.2-11.9-3-10.2-3.8-12.5c-.2-1-.3-2-.3-3-.8-10.7-1.6-44.9-1.6-44.9v-39.3l28.9-20.4c4.6 2.3 9.1 4.9 13.4 7.8 3.1 2 6 4.2 8.7 6.7 7.9 7.4 27.4 15.3 27.4 15.3s21.4 25.7 24.2 28.2-5.8 28.6-8.6 31.5z" fill="#fff"/><path d="m567.2 389v-33.8s.9 61.5 1.6 78.7c-.8-10.7-1.6-44.9-1.6-44.9z" opacity=".1"/><path d="m568.9 436.5c.2.6.3 1.2.2 1.8 0 .2-.1-.4-.2-1.8z" opacity=".1"/><path d="m609.7 348.1c-1.9 1.9-3.4 4.1-4.6 6.5-1.6 3.5-37.8.6-37.8.6v-5.5l28.9-20.4c4.6 2.3 9.1 4.9 13.4 7.8.1 6 .1 11 .1 11z" opacity=".1"/><path d="m568.9 433.9c.2.6.3 1.2.2 1.8 0 .3-.1-.4-.2-1.8z" opacity=".1"/><path d="m602.1 308-5.8 12.6s-8.6 5.1-9.2 5.6-7.5 8.3-7.5 8.3l-16.9 10.8s-.4-.8-1-1.9c4.6-5.6 9.3-11.5 12-13.6 5.4-4.1-.2-4.6 0-5.4s11.9-5.1 15.1-8.1c2.6-2.5 9.8-7.3 12.3-9 .4.3.7.5 1 .7z" opacity=".1"/><path d="m602.1 308s-10.1 6.5-13.3 9.5-15 7.3-15.1 8.1 5.4 1.3 0 5.4-18.6 23.5-23.4 25-37.4 15-37.4 15-10.7 10-12.3 10 9.7 10.8 9.7 10.8 10.2 8.1 11.3 9.4 29 16.3 29 16.3 4.8 1.4 5.3 2.9 6.8 5.4 6.8 5.4 7.1 8.2 6.4 11.1-1.9-83-1.9-83 36.2 2.9 37.8-.6c1.2-2.4 2.7-4.6 4.6-6.5 0 0-.1-29.4-2.1-31.6s-5.4-4.5-5.4-7.2z" fill="#8165ba"/><path d="m517.9 377.8s9.5 10.3 14 12.1c2.8 1.3 5 3.5 6.2 6.4 0 0 5.3 3 8.1 3.5s7.2 4.8 7.2 4.8 10.7 3 10.7 5.3 4.3 5.3 4.3 5.3l-1.1-61.1s-17.7 2.2-22.8 9.7c-5.2 7.4-26.6 14-26.6 14z" opacity=".1"/><path d="m538.7 383.6c.8-.5 22.5-28.5 22.5-28.5l4-.8s-10.3 15.4-10.2 16.7c.2 1.3-16.3 12.6-16.3 12.6z" opacity=".1"/><path d="m547.8 392.8s5.7-13.2 7.3-15.4 10.2-17.2 10.2-17.2c.2 1.3.2 2.6 0 3.8-.5 1.4-17.5 28.8-17.5 28.8z" opacity=".1"/><path d="m586.1 294.3s-12.7 23.2-11.6 24.3 11.6-24.3 11.6-24.3z" opacity=".1"/><path d="m590.6 303.5s-10.5 15.3-9.5 15.1 9.5-15.1 9.5-15.1z" opacity=".1"/><path d="m581 215.9-20 1.4s0-.6-.1-1.8c-.3-6.6-1.3-29.7-1.8-32.3-.6-3-1.3-8.4-1.3-8.4s-10.8-1.6-10.7-3.3-13.8-20.4-3.2-20c8.3.3 22.5 10.1 28.4 14.4 1.5 1.1 2.4 3 2.1 4.9-.2 1.3-.2 2.5-.2 3.8.1 2.6.1 5.3-.2 7.9-.2 2.3-.1 4.9.9 6.7 1.5 2.6 3.7 13.6 5 20.7.7 3.4 1.1 6 1.1 6z" fill="#fbbebe"/><path d="m589.1 231.3-.4 1.1c-4.3-4.3-31.6-7.1-31.6-7.1-2.4-2.8-.3-4 2.3-7.4 1.5-2 10.4-4.8 17.6-6.9h7.5c0 .1 5.3 18.4 4.6 20.3z" opacity=".1"/><path d="m581 215.9-20 1.4s0-.6-.1-1.8c3.2-1.9 10.2-4.1 16.2-5.7h2.9c.6 3.5 1 6.1 1 6.1z" opacity=".1"/><path d="m589.1 230.7c-.1.4-.3.7-.4 1.1-4.3-4.3-31.6-7.1-31.6-7.1-2.4-2.8-.3-4 2.3-7.4 1.5-2 10.4-4.9 17.6-6.9h7.5s5.3 18.4 4.6 20.3z" fill="#8165ba"/><path d="m606.5 388.2s-2.2 42.8 0 44.9 0-44.9 0-44.9z" opacity=".1"/><path d="m622.2 406.2s-.8 47.1 0 47.6c.8.4 0-47.6 0-47.6z" opacity=".1"/><path d="m640.7 411.7s3 32.5 5.7 33.7-5.7-33.7-5.7-33.7z" opacity=".1"/><path d="m688 450.4c-.9-.2-1.8-.5-2.5-1-2.7-1.8-5.7-20.5-9.7-23.1-4-2.5-18.3-27.5-18.3-27.5s-5.6-10-7.8-12.6-1.1-14-1.1-14-5.9-6.8-8.4-12.6c-.6-1.3-1-2.7-1.1-4.1 0 0 .8-2.5 4.2 0s11.7 13.2 13.9 14 4.9 2.4 8.3 6.2 4.9 4.5 4.9 4.5 3.8 9.7 3.7 12.1c-.2 2.4 1.3 18.6 3 20s4.6 14.5 4.6 14.5 5.1 18.4 6.3 23.6z" opacity=".1"/><path d="m675.7 390.9c0-.2 0-.4 0-.7.1.5.2 1 .2 1.4-.1-.2-.2-.5-.2-.7z" opacity=".1"/><path d="m688.8 445.5c-.7 1.1-1.3 2.2-1.8 3-2.6-2.7-5.6-20.4-9.4-22.9-1.4-1.1-2.5-2.5-3.5-3.9v-21c.8-1.3 1.5-2.8 2-4.2.5 5.7 1.5 14.1 2.8 15.1 1.8 1.4 4.6 14.5 4.6 14.5s3.4 12.1 5.3 19.4z" opacity=".1"/><path d="m688.6 449.8c-.9-.1-1.8-.5-2.5-1-2.7-1.8-5.7-20.5-9.7-23.1-4-2.5-18.3-27.5-18.3-27.5s-5.6-10-7.8-12.6-1.1-14-1.1-14-5.9-6.8-8.4-12.6c-.6-1.3-1-2.7-1.1-4.1 0 0 .8-2.5 4.2 0s11.7 13.2 13.9 14 4.9 2.4 8.3 6.2 4.9 4.5 4.9 4.5 3.8 9.7 3.7 12.1 1.3 18.6 3 20 4.6 14.5 4.6 14.5 5.2 18.3 6.3 23.6z" fill="#8165ba"/><circle cx="656.1" cy="388.2" fill="#3f3d56" r="2.1"/><circle cx="670.3" cy="407.5" fill="#3f3d56" r="2.1"/><path d="m686.7 401.8s-10.3-4.7-8.8-2.2c1.6 2.6 8.8 2.2 8.8 2.2z" opacity=".1"/><path d="m686.7 408.7s-10.5-2.9-8.3-1.2 8.3 1.2 8.3 1.2z" opacity=".1"/><path d="m684.9 416.3s-7.2-5.2-5.4-3.3 5.4 3.3 5.4 3.3z" opacity=".1"/><path d="m692.4 421.7s-7.3 14.4-3.8 15.3 3.8-15.3 3.8-15.3z" opacity=".1"/><path d="m588.5 657.4s-16.8 15.9-11.9 15.7 11.9-15.7 11.9-15.7z" opacity=".1"/><path d="m564.9 679.4c.8 0 17.8-1.7 13.4-2.5s-13.4 2.5-13.4 2.5z" opacity=".1"/><path d="m647.4 654.8s18 .6 17.6 2.5-17.6-2.5-17.6-2.5z" opacity=".1"/><path d="m644.5 662s10.4 7.8 12.7 5.3-12.7-5.3-12.7-5.3z" opacity=".1"/><path d="m594.7 549.6c-.1.6-.4 1.1-.7 1.6-.1.2-.3.4-.5.5-2.1 1.5-7.6 4.2-8.5 4-.4-.1-1.9-.6-3.6-1-2-.6-4.1-1.2-4.9-1.3s-1.3-1.4-1.4-2.7 0-2.2.5-2.4c.2-.2.4-.4.5-.7s.2-.6.3-.9l.1-.3c.3-1.2.5-2.6.7-3.8.1-.7.2-1.2.2-1.6 0-.2 0-.4 0-.5v-.1l1.4-.1h1.3c3.6-.2 9.8-.3 12.1.1 1 .2 1.8 1.2 2.2 2.5.3.9.5 1.9.5 2.9.1 1.4 0 2.6-.2 3.8z" fill="#fbbebe"/><path d="m667.3 557v.2c0 2.2-.2 3.8-.2 4.1 0 .8-22.1 6.8-27.6 6.4-3.6-.3-.9-2.8 1.1-5.3.7-.8 1.2-1.7 1.6-2.7.1-.4.1-.7 0-1.1s-.2-.8-.3-1.1c-.5-2.3-.3-3 .3-3.6.3-.4.6-.9.7-1.4.2-.5.3-.9.3-1.4.1-1.1-.2-2.2-.8-3.1-1.7-2.3 6.4-3.5 6.4-3.5h15.3c1.5 0 2.3 2.1 2.7 4.9v.1c.1.8.2 1.7.3 2.5s.1 1.6.1 2.4.1 1.8.1 2.6z" fill="#fbbebe"/><path d="m600.3 621.1s-17 4-15.3 3c.7-.4.8-1.8.7-3.3 0-.8-.1-1.5-.2-2.3-.2-1.8-.5-3.3-.5-3.3s8.9-1.9 12.1-1.1c1.2.4 2.1 1.4 2.4 2.6 0 .1.1.2.1.3.5 1.4.7 2.7.7 4.1z" fill="#fbbebe"/><path d="m613.2 284.9c2.3-.8 4.4-2.2 6.6-3.2s4.8-1.6 7.1-.7c1.2.5 2.2 1.3 3.1 2.2 2 1.8 4 3.5 5.9 5.4 1.8 2.1 3.9 3.9 6.1 5.5 5.3 3.2 11.9 2.5 18 1.5 1.2-.1 2.4-.5 3.5-1 2.7-1.5 3.7-5 3.1-8s-2.5-5.5-4.6-7.8c-5.8-6.5-12.9-11.8-20.9-15.4-8.4-3.9-18.4-5.8-26.8-1.9-2.6 1.2-4.9 2.9-7 4.8-2.9 2.6-10.5 9.2-8.8 13.7 2 5 10.4 6.4 14.7 4.9z" opacity=".1"/><path d="m613.2 284.3c2.3-.8 4.4-2.2 6.6-3.2s4.8-1.6 7.1-.7c1.2.6 2.2 1.3 3.1 2.2 2 1.8 4 3.5 5.9 5.4 1.8 2.1 3.9 3.9 6.1 5.5 5.3 3.2 11.9 2.5 18 1.5 1.2-.1 2.4-.5 3.5-1 2.7-1.5 3.7-5 3.1-8s-2.5-5.5-4.6-7.8c-5.8-6.5-12.9-11.8-20.9-15.4-8.4-3.9-18.4-5.8-26.8-1.9-2.6 1.2-4.9 2.9-7 4.8-2.9 2.6-10.5 9.2-8.8 13.7 2 5 10.4 6.4 14.7 4.9z" fill="#3f3d56"/><path d="m663.7 292.7c-1.1.5-2.3.9-3.5 1-6.1 1-12.7 1.7-18-1.5-2.3-1.6-4.3-3.4-6.2-5.5-1.9-1.9-3.9-3.7-5.9-5.4-.9-.9-2-1.6-3.1-2.2-2.3-.9-4.9-.3-7.1.7s-4.3 2.4-6.6 3.2c-4.3 1.5-12.8.1-14.6-4.9-.1-.2-.2-.5-.2-.8-.1.7 0 1.4.2 2 1.9 5 10.3 6.4 14.6 4.9 2.3-.8 4.4-2.2 6.6-3.2s4.8-1.6 7.1-.7c1.2.5 2.2 1.3 3.1 2.2 2 1.8 4 3.5 5.9 5.4 1.8 2.1 3.9 3.9 6.1 5.5 5.3 3.2 11.9 2.5 18 1.5 1.2-.1 2.4-.5 3.5-1 2.4-1.3 3.4-4.2 3.2-6.9 0 2.3-1.2 4.4-3.1 5.7z" opacity=".1"/><path d="m577.5 541.1c-.2 1.9-.6 3.8-1.1 5.7.5-1.9.8-3.8 1-5.8z" opacity=".1"/><path d="m593.5 551.7c-2.1 1.5-7.6 4.2-8.5 4s-7-2.1-8.5-2.3-1.9-4.7-.9-5.1c.2-.2.4-.4.5-.7-.1.3-.2.6-.4.9-1.2 2.5 1 4.7 1 4.7l8.8 2.3 8.3-4.5c2-2.8-.2-9.1-1.4-10.1s-14.8 0-14.8 0l-.3-.3v-.1l1.4-.1h1.3c3.6-.2 9.8-.3 12.1.1 3.6.6 3.6 9.8 1.4 11.2z" opacity=".1"/><path d="m664.3 544.5h-15.3s-8.1 1.2-6.4 3.5.4 5.2-.2 5.9-.9 1.5 0 4.7-8.2 8.7-2.7 9.1 27.6-5.5 27.6-6.4 1-16.8-3-16.8zm2 16.5c0 .8-20.8 6.4-26 6s3.4-5.6 2.6-8.6-.6-3.8 0-4.4 1.8-3.4.2-5.5 6-3.3 6-3.3h14.5c3.8 0 2.7 15 2.7 15.8z" opacity=".1"/><path d="m597.1 614.1c-3.2-.8-12.1 1.1-12.1 1.1s1.7 7.8 0 8.9 15.3-3 15.3-3 0-6.1-3.2-7zm-11.8 9.8c1.6-1 0-8.6 0-8.6s8.6-1.8 11.7-1 3.1 6.8 3.1 6.8-16.4 3.8-14.8 2.8z" opacity=".1"/><path d="m667.3 554.4-25.3 3 25.2-5.4c.1.8.1 1.6.1 2.4z" opacity=".1"/><path d="m641.8 556.8 26.3-5.6.5 2.4z" fill="#3f3d56"/><path d="m667.3 557v.2l-26.7 5.1c.7-.8 1.2-1.7 1.6-2.7z" opacity=".1"/><path d="m637.8 559.5 32-3.4-31.1 6z" fill="#3f3d56"/><path d="m667 549.4-23.6 1.7c0 .5-.1 1-.3 1.4z" opacity=".1"/><path d="m641.8 550.5 26.8-1.9-27.2 3.5z" fill="#3f3d56"/><path d="m595 545.9-18.5.6c.3-1.2.5-2.6.7-3.8l17.3.4c.3.9.4 1.8.5 2.8z" opacity=".1"/><path d="m575.1 542 25.2.5-3 2.7-22.2.7z" fill="#3f3d56"/><path d="m594.7 549.6c-.1.6-.4 1.1-.7 1.6l-12.5 3.5c-2-.6-4.1-1.2-4.9-1.3s-1.3-1.4-1.4-2.7z" opacity=".1"/><path d="m571.8 550.3 29.4-1.7-26.9 7.5z" fill="#3f3d56"/><path d="m599.7 617-13.9 3.7c0-.8-.1-1.5-.2-2.3 3.9-.5 10.3-1.3 13.9-1.8.1.2.1.3.2.4z" opacity=".1"/><path d="m582.4 618.2c.5-.2 19.8-2.5 19.8-2.5l-19.8 5.3z" fill="#3f3d56"/><circle cx="896" cy="66.5" fill="#2ebf91" opacity=".1" r="21.6"/><circle cx="992.1" cy="119.5" fill="#2ebf91" opacity=".1" r="17"/><circle cx="283.6" cy="119.5" fill="#2ebf91" opacity=".1" r="54.6"/><circle cx="987" cy="43.6" fill="#2ebf91" opacity=".1" r="6"/><path d="m428.2 783.3s17.4-.5 22.6-4.3 26.8-8.2 28-2.2 26.1 29.8 6.5 29.9-45.6-3.1-50.8-6.2c-5.2-3.2-6.3-17.2-6.3-17.2z" fill="#a8a8a8"/><path d="m485.7 804.6c-19.6.2-45.6-3.1-50.8-6.2-4-2.4-5.6-11.1-6.1-15.2h-.6s1.1 14 6.3 17.2 31.2 6.4 50.8 6.2c5.7 0 7.6-2.1 7.5-5-.7 1.9-2.8 3-7.1 3z" opacity=".2"/><path d="m797.9 793.4s13.5-2.7 17.1-6.3 19.8-9.8 21.7-5.4 24.3 19.7 9 22.4-36.1 3.6-40.6 1.8-7.2-12.5-7.2-12.5z" fill="#a8a8a8"/><path d="m845.8 802.5c-15.3 2.7-36.1 3.6-40.6 1.8-3.4-1.4-5.8-7.9-6.8-11l-.5.1s2.7 10.8 7.2 12.5 25.3.9 40.6-1.8c4.4-.8 5.7-2.6 5.2-4.9-.3 1.6-1.9 2.7-5.1 3.3z" opacity=".2"/><path d="m742.1 44.2v.6.5s0 .4 0 .6c0 .5 0 1-.1 1.5v.3c0 .4 0 .9-.1 1.3v.4.2c0 .4-.1.8-.1 1.2s-.1.6-.1.9c-.1.8-.2 1.5-.3 2.3-.1.5-.2 1-.2 1.5v.1c0 .3-.1.5-.1.8s0 .3-.1.4 0 .3-.1.4-.1.5-.2.8-.1.5-.2.8-.1.4-.1.6-.2.7-.2 1v.1l-.2.7-.2.8c-.1.3-.2.7-.3 1 0 .1 0 .2-.1.3l-.3 1c-.3 1.1-.7 2.1-1 3.2l-.4 1-.2.6c-2.4 6.3-5.7 12.2-9.8 17.5-.2.3-.5.7-.8 1-1.9 2.5-4 4.8-6.2 7l-102 102.3-102.2-102.3c-2.9-2.9-5.6-6.1-8-9.5-1.5-2.1-2.9-4.4-4.2-6.6-6.9-12.5-10-26.8-8.7-41.1.1-1.3.3-2.6.4-3.9.3-2.3.8-4.6 1.3-6.9.1-.5.2-.9.4-1.4.1-.2.1-.5.2-.7s.1-.3.1-.4l.3-1c.2-.8.5-1.6.7-2.4l.4-1.1c.5-1.5 1.1-3 1.8-4.5l.4-.9c.2-.4.4-.9.6-1.3.3-.7.7-1.4 1-2.2l.1-.2c.2-.3.3-.6.5-1l.6-1.1c.3-.5.5-.9.8-1.3.1-.2.3-.4.4-.6s.2-.2.2-.4c0 0 0 0 0-.1.2-.3.3-.5.5-.8s.4-.6.6-.9c.4-.7.8-1.3 1.3-1.9l.5-.7.6-.8c.2-.3.4-.6.6-.8l.8-1c.2-.3.5-.6.7-.9l.3-.3.5-.6c.3-.3.5-.6.8-.9l.4-.4.1-.1.6-.7.7-.8c.6-.7 1.3-1.4 2-2l.8-.8 1.2-1.2c.3-.3.5-.5.8-.7s.6-.6 1-.9l.6-.5c.2-.2.4-.4.6-.5.4-.4.9-.7 1.3-1l.7-.5c1.1-.8 2.2-1.7 3.3-2.4l.7-.5.7-.5.7-.4 1-.6.5-.3.7-.4c.9-.5 1.9-1.1 2.8-1.6l.6-.3.9-.5.7-.4.7-.3.7-.3.7-.3.7-.3c1-.4 2-.8 3-1.2l.7-.4.8-.3.7-.3.6-.2 1.4-.4.7-.2.6-.2.6-.2c.3-.1.7-.2 1-.3l1.3-.3c1.4-.3 2.7-.6 4.1-.9l.6-.1.8-.1.8-.1 1-.1.6-.1c1.3-.2 2.6-.3 4-.4h.7.4.6.5.2.7.8 3.2.8.7.2.5.1c.3 0 .7 0 1 .1h.1.6c1.1.1 2.1.2 3.2.3l1.4.2 1 .1.8.1.8.1.5.1c1.4.3 2.7.5 4.1.9l1.7.4.5.1.7.2c.5.1.9.3 1.4.4l.6.2c1 .3 2 .6 3 1l.7.3.9.3 1.3.5c.5.2 1 .4 1.5.7l.6.3.8.4.7.3.7.4.9.5.7.4c.6.3 1.1.6 1.7.9l.2.4c.8.5 1.6 1 2.4 1.5l.7.4.7.5.7.5.5.3c1 .7 1.9 1.4 2.8 2.1l.7.5c.4.3.9.7 1.3 1 .2.2.4.3.6.5l.6.5 1 .9c.3.2.5.5.8.7l1.2 1.2.8.8.8-.8 1.2-1.2c.3-.3.5-.5.8-.7s.6-.6 1-.9l.6-.5c.2-.2.4-.4.6-.5.4-.4.9-.7 1.3-1l.7-.5c1.1-.8 2.2-1.7 3.3-2.4l.7-.5.7-.5.7-.4 1-.6.5-.3.7-.4c.9-.5 1.9-1.1 2.8-1.6l.6-.3.9-.5.7-.4.7-.3.7-.3.7-.3.7-.3c1-.4 2-.8 3-1.2.2-.1.5-.2.7-.3l.8-.3.7-.3.6-.2 1.4-.4.7-.2.6-.2.6-.2c.3-.1.7-.2 1-.3l1.3-.3c1.4-.3 2.7-.6 4.1-.9l.6-.1.8-.1.8-.1 1-.1.6-.1c1.3-.2 2.6-.3 4-.4h.7.4.6.5.2.7.8 3.2.8.7.2.5c.3 0 .7 0 1 .1h.1.6c1.1.1 2.1.2 3.2.3l1.4.2 1 .1.8.1.8.1.5.1c1.4.3 2.7.5 4.1.9l1.7.4.5.1.7.2c.5.1.9.3 1.4.4l.6.2c1 .3 2 .6 3 1l.7.3.9.3 1.3.5c.5.2 1 .4 1.5.7l.6.3.8.4.7.3.7.4.9.5.7.4c.5.3 1.1.6 1.7.9l.7.4c.8.5 1.6 1 2.4 1.5l.7.4.7.5.7.5.5.3c1 .7 1.9 1.4 2.8 2.1l.7.5c.4.3.9.7 1.3 1 .2.2.4.3.6.5l.6.5.8.7c.3.3.6.5.8.8l.5.4s0 0 .1.1c.3.2.5.5.8.8l.4.3c.1.2.3.3.4.4l.8.8c.4.4.8.8 1.2 1.3.2.2.5.5.7.7.4.4.8.8 1.1 1.3l1.2 1.4c1.3 1.7 2.6 3.4 3.8 5.1l.5.7c.2.3.3.5.5.8l.4.7c.2.4.5.8.7 1.2l.6 1.1c.1.2.3.4.4.7l.3.5.3.5.4.8.4.8c.9 1.8 1.8 3.7 2.6 5.6l.3.8c.3.8.6 1.6.9 2.4l.3.7c.1.3.2.7.3 1s.2.6.3.9l.2.6c.1.3.2.6.3.8s.2.7.3 1c.2.6.3 1.1.4 1.7l.2.9c.1.4.2.8.3 1.3 0 .2.1.4.1.5s.1.5.1.7.1.4.1.6l.1.5c0 .2 0 .3.1.4s0 .3.1.4l.2.9c0 .3.1.6.1.9s.1.7.1 1 .1.6.1 1l.1.6c0 .3.1.7.1 1v.5c0 .3.1.7.1 1v.1.6.7 1.1 1.1c-.1.6-.1 1.4-.2 2.1z" fill="#ff6584"/><path d="m742.1 44.2v.6.5s0 .4 0 .6c0 .5 0 1-.1 1.5v.3c0 .4 0 .9-.1 1.3v.4.2c0 .4-.1.8-.1 1.2s-.1.6-.1.9c-.1.8-.2 1.5-.3 2.3-.1.5-.2 1-.2 1.5v.1c0 .3-.1.5-.1.8s0 .3-.1.4 0 .3-.1.4-.1.5-.2.8-.1.5-.2.8-.1.4-.1.6-.2.7-.2 1v.1l-.2.7-.2.8c-.1.3-.2.7-.3 1 0 .1 0 .2-.1.3l-.3 1c-.3 1.1-.7 2.1-1 3.2l-.4 1-.2.6c7.2-30.1-5.4-61.4-31.5-78-1.3-.8-2.6-1.6-3.9-2.3-28.2-15.5-63.4-10.5-86.1 12.4-2.7-2.7-5.7-5.2-8.8-7.5-2.4-1.7-4.9-3.3-7.5-4.7-21.7-11.9-47.9-11.9-69.6 0-3.6 2-7.1 4.3-10.3 6.9-5.3 4.3-10.1 9.2-14 14.8-1.4 2-2.8 4.1-4 6.3v.1c-1.1 2-2.2 4.1-3.1 6.2-.5 1.2-1 2.3-1.5 3.5.1-.5.2-.9.4-1.4.1-.2.1-.5.2-.7s.1-.3.1-.4l.3-1c.2-.8.5-1.6.7-2.4l.4-1.1c.5-1.5 1.1-3 1.8-4.5l.4-.9c.2-.4.4-.9.6-1.3.3-.7.7-1.4 1-2.2l.1-.2c.2-.3.3-.6.5-1l.6-1.1c.3-.5.5-.9.8-1.3.1-.2.3-.4.4-.6s.2-.2.2-.4c0 0 0 0 0-.1.2-.3.3-.5.5-.8s.4-.6.6-.9c.4-.7.8-1.3 1.3-1.9l.5-.7.6-.8c.2-.3.4-.6.6-.8l.8-1c.2-.3.5-.6.7-.9l.3-.3.5-.6c.3-.3.5-.6.8-.9l.4-.4.1-.1.6-.7.7-.8c.6-.7 1.3-1.4 2-2l.8-.8 1.2-1.2c.3-.3.5-.5.8-.7s.6-.6 1-.9l.6-.5c.2-.2.4-.4.6-.5.4-.4.9-.7 1.3-1l.7-.5c1.1-.8 2.2-1.7 3.3-2.4l.7-.5.7-.5.7-.4 1-.6.5-.3.7-.4c.9-.5 1.9-1.1 2.8-1.6l.6-.3.9-.5.7-.4.7-.3.7-.3.7-.3.7-.3c1-.4 2-.8 3-1.2l.7-.4.8-.3.7-.3.6-.2 1.4-.4.7-.2.6-.2.6-.2c.3-.1.7-.2 1-.3l1.3-.3c1.4-.3 2.7-.6 4.1-.9l.6-.1.8-.1.8-.1 1-.1.6-.1c1.3-.2 2.6-.3 4-.4h.7.4.6.5.2.7.8 3.2.8.7.2.5.1c.3 0 .7 0 1 .1h.1.6c1.1.1 2.1.2 3.2.3l1.4.2 1 .1.8.1.8.1.5.1c1.4.3 2.7.5 4.1.9l1.7.4.5.1.7.2c.5.1.9.3 1.4.4l.6.2c1 .3 2 .6 3 1l.7.3.9.3 1.3.5c.5.2 1 .4 1.5.7l.6.3.8.4.7.3.7.4.9.5.7.4c.6.3 1.1.6 1.7.9l.3.2c.8.5 1.6 1 2.4 1.5l.7.4.7.5.7.5.5.3c1 .7 1.9 1.4 2.8 2.1l.7.5c.4.3.9.7 1.3 1 .2.2.4.3.6.5l.6.5 1 .9c.3.2.5.5.8.7l1.2 1.2.8.8.8-.8 1.2-1.2c.3-.3.5-.5.8-.7s.6-.6 1-.9l.6-.5c.2-.2.4-.4.6-.5.4-.4.9-.7 1.3-1l.7-.5c1.1-.8 2.2-1.7 3.3-2.4l.7-.5.7-.5.7-.4 1-.6.5-.3.7-.4c.9-.5 1.9-1.1 2.8-1.6l.6-.3.9-.5.7-.4.7-.3.7-.3.7-.3.7-.3c1-.4 2-.8 3-1.2.2-.1.5-.2.7-.3l.8-.3.7-.3.6-.2 1.4-.4.7-.2.6-.2.6-.2c.3-.1.7-.2 1-.3l1.3-.3c1.4-.3 2.7-.6 4.1-.9l.6-.1.8-.1.8-.1 1-.1.6-.1c1.3-.2 2.6-.3 4-.4h.7.4.6.5.2.7.8 3.2.8.7.2.5c.3 0 .7 0 1 .1h.1.6c1.1.1 2.1.2 3.2.3l1.4.2 1 .1.8.1.8.1.5.1c1.4.3 2.7.5 4.1.9l1.7.4.5.1.7.2c.5.1.9.3 1.4.4l.6.2c1 .3 2 .6 3 1l.7.3.9.3 1.3.5c.5.2 1 .4 1.5.7l.6.3.8.4.7.3.7.4.9.5.7.4c.5.3 1.1.6 1.7.9l.7.4c.8.5 1.6 1 2.4 1.5l.7.4.7.5.7.5.5.3c1 .7 1.9 1.4 2.8 2.1l.7.5c.4.3.9.7 1.3 1 .2.2.4.3.6.5l.6.5.8.7c.3.3.6.5.8.8l.5.4s0 0 .1.1c.3.2.5.5.8.8l.4.3c.1.2.3.3.4.4l.8.8c.4.4.8.8 1.2 1.3.2.2.5.5.7.7.4.4.8.8 1.1 1.3l1.2 1.4c1.3 1.7 2.6 3.4 3.8 5.1l.5.7c.2.3.3.5.5.8l.4.7c.2.4.5.8.7 1.2l.6 1.1c.1.2.3.4.4.7l.3.5.3.5.4.8.4.8c.9 1.8 1.8 3.7 2.6 5.6l.3.8c.3.8.6 1.6.9 2.4l.3.7c.1.3.2.7.3 1s.2.6.3.9l.2.6c.1.3.2.6.3.8s.2.7.3 1c.2.6.3 1.1.4 1.7l.2.9c.1.4.2.8.3 1.3 0 .2.1.4.1.5s.1.5.1.7.1.4.1.6l.1.5c0 .2 0 .3.1.4s0 .3.1.4l.2.9c0 .3.1.6.1.9s.1.7.1 1 .1.6.1 1l.1.6c0 .3.1.7.1 1v.5c0 .3.1.7.1 1v.1.6.7 1.1 1.1c-.1.6-.1 1.4-.2 2.1z" opacity=".1"/><path d="m321.3 57v.4.2.5.1.4.1.1.2.3l-.1.7c0 .2 0 .3-.1.5v.2.1.1.2s0 .2 0 .2 0 .1 0 .2 0 .2-.1.3v.2c0 .1 0 .2-.1.3 0 .1 0 .2-.1.3v.1c0 .1-.1.2-.1.3-.1.3-.2.7-.3 1 0 .1-.1.2-.1.3s0 .1-.1.2c-.7 1.9-1.7 3.7-2.9 5.3l-.2.3c-.6.8-1.2 1.5-1.9 2.1l-31.5 31.2-31.2-31.2c-.9-.9-1.7-1.9-2.4-2.9-.5-.6-.9-1.3-1.3-2-2.1-3.8-3-8.2-2.7-12.5 0-.4.1-.8.1-1.2.1-.7.2-1.4.4-2.1 0-.1.1-.3.1-.4l.1-.2v-.1l.1-.3c.1-.2.1-.5.2-.7s.1-.2.1-.3c.2-.5.3-.9.5-1.4l.1-.3.2-.4.3-.7c0-.1.1-.2.2-.3s.1-.2.2-.3.1-.3.2-.4c0-.1.1-.1.1-.2 0 0 .1-.1.1-.1l.1-.2c.1-.1.1-.2.2-.3l.4-.6.1-.2.2-.3.2-.3.2-.3.2-.3.1-.1.1-.2c.1-.1.2-.2.3-.3 0 0 .1-.1.1-.1l.2-.2.2-.2c.2-.2.4-.4.6-.6l.2-.2.4-.3.3-.2.3-.3.2-.2.2-.2.4-.3.2-.2c.3-.3.7-.5 1-.7l.2-.1.2-.1.2-.1.3-.2.2-.1.2-.1c.3-.2.6-.3.9-.5l.2-.1.3-.1.2-.1.2-.1.2-.1.2-.1.2-.1c.3-.1.6-.3.9-.4l.2-.1.2-.1.2-.1.2-.1.4-.1.3-.2.2-.1h.2l.3-.1.4-.1c.4-.1.8-.2 1.3-.3h.2.2.2.3.2c.4 0 .8-.1 1.2-.1h.2 3.1c.3 0 .7.1 1 .1l.4.1h.3.2.2.2c.4.1.8.2 1.2.3l.5.1h.1l.2.1.4.1.2.1.9.3.2.1.3.1.4.2.5.2.2.1.3.1.2.1.2.1.3.2.2.1.5.3.2.1.7.4.2.1.2.1.2.1.1.1.9.6.2.2.4.3.2.2.2.2.3.3.3.2.4.3.2.2.3-.2c.1-.1.2-.2.4-.3.1-.1.2-.2.3-.2l.3-.3.2-.2.2-.2.4-.3.2-.2c.3-.3.7-.5 1-.7l.2-.1.2-.1.2-.1.3-.2.1-.1.2-.1c.3-.2.6-.3.9-.5l.2-.1.3-.1.2-.1.2-.1.2-.1.2-.1.2-.1c.3-.1.6-.3.9-.4l.2-.1.3-.1.2-.1.2-.1.4-.1.2-.1.2-.1h.2l.3-.1.4-.1c.4-.1.8-.2 1.3-.3h.2.2.2.3.2c.4 0 .8-.1 1.2-.1h.2 3.1l1 .1.4.1h.3.2.2.2c.4.1.8.2 1.2.3l.5.1h.1l.2.1.4.1.2.1.9.3.2.1.3.1.4.2.5.2.2.1.3.1.2.1.2.1.3.2.2.1.5.3.2.1.7.4.2.1.2.1.2.2.1.1c.3.2.6.4.9.6.1 0 .1.1.2.2s.3.2.4.3l.2.2.2.2.3.2.3.2.1.1.2.2.1.1.1.1.2.2.4.4c.1.1.1.1.2.2s.2.3.3.4l.4.4c.4.5.8 1 1.2 1.6.1.1.1.1.2.2s.1.1.2.2l.5.3.2.3.2.3.1.2.1.2.1.2.1.2.1.2c.3.6.5 1.1.8 1.7l.1.3c.1.2.2.5.3.7 0 .1.1.1.1.2s.1.2.1.3l.1.3.1.2c0 .1 0 .2.1.3l.1.3c0 .2.1.3.1.5s0 .2.1.3 0 .3.1.4v.2.2.2.2.1.1.3s0 .2 0 .3 0 .2 0 .3v.3.2.3.2s0 .2 0 .3v.2.2.3.3z" fill="#ff6584"/><path d="m321.3 57v.4.2.5.1.4.1.1.2.3l-.1.7c0 .2 0 .3-.1.5v.2.1.1.2s0 .2 0 .2 0 .1 0 .2 0 .2-.1.3v.2c0 .1 0 .2-.1.3 0 .1 0 .2-.1.3v.1c0 .1-.1.2-.1.3-.1.3-.2.7-.3 1 0 .1-.1.2-.1.3s0 .1-.1.2c1.8-7.5-.4-15.3-5.9-20.8-1.1-1.1-2.4-2.1-3.8-3-.4-.3-.8-.5-1.2-.7-7.5-4.2-16.7-3.7-23.6 1.3-1 .7-2 1.5-2.9 2.4-.8-.8-1.7-1.6-2.7-2.3-.7-.5-1.5-1-2.3-1.4-6.6-3.6-14.6-3.6-21.3 0-1.1.6-2.2 1.3-3.1 2.1-1.6 1.3-3.1 2.8-4.3 4.5-.4.6-.9 1.3-1.2 1.9-.3.6-.7 1.2-.9 1.9-.2.3-.3.7-.4 1.1 0-.1.1-.3.1-.4l.1-.2v-.1l.1-.3c.1-.2.1-.5.2-.7s.1-.2.1-.3c.2-.5.3-.9.5-1.4l.1-.3.2-.4.3-.7c0-.1.1-.2.2-.3s.1-.2.2-.3.1-.3.2-.4c0-.1.1-.1.1-.2 0 0 .1-.1.1-.1l.1-.2c.1-.1.1-.2.2-.3l.4-.6.1-.2.2-.3.2-.3.2-.3.2-.3.1-.1.1-.2c.1-.1.2-.2.3-.3 0 0 .1-.1.1-.1l.2-.2.2-.2c.2-.2.4-.4.6-.6l.2-.2.4-.3.3-.2.3-.3.2-.2.2-.2.4-.3.2-.2c.3-.3.7-.5 1-.7l.2-.1.2-.1.2-.1.3-.2.1-.1.2-.1c.3-.2.6-.3.9-.5l.2-.1.3-.1.2-.1.2-.1.2-.1.2-.1.2-.1c.3-.1.6-.3.9-.4l.2-.1.2-.1.2-.1.2-.1.4-.1.3-.2.2-.1h.2l.3-.1.4-.1c.4-.1.8-.2 1.3-.3h.2.2.2.3.2c.4 0 .8-.1 1.2-.1h.2 3.1c.3 0 .7.1 1 .1l.4.1h.3.2.2.2c.4.1.8.2 1.2.3l.5.1h.1l.2.1.4.1.2.1.9.3.2.1.3.1.4.2.5.2.2.1.3.1.2.1.2.1.3.2.2.1.5.3.2.1.7.4.2.1.2.1.2.1.1.1.9.6.2.2.4.3.2.2.2.2.3.3.3.2.4.3.2.2.3-.2c.1-.1.2-.2.4-.3.1-.1.2-.2.3-.2l.3-.3.2-.2.2-.2.4-.3.2-.2c.3-.3.7-.5 1-.7l.2-.1.2-.1.2-.1.3-.2.1-.1.2-.1c.3-.2.6-.3.9-.5l.2-.1.3-.1.2-.1.2-.1.2-.1.2-.1.2-.1c.3-.1.6-.3.9-.4l.2-.1.3-.1.2-.1.2-.1.4-.1.2-.1.2-.1h.2l.3-.1.4-.1c.4-.1.8-.2 1.3-.3h.2.2.2.3.2c.4 0 .8-.1 1.2-.1h.2 3.1l1 .1.4.1h.3.2.2.2c.4.1.8.2 1.2.3l.5.1h.1l.2.1.4.1.2.1.9.3.2.1.3.1.4.2.5.2.2.1.3.1.2.1.2.1.3.2.2.1.5.3.2.1.7.4.2.1.2.1.2.2.1.1c.3.2.6.4.9.6.1 0 .1.1.2.2s.3.2.4.3l.2.2.2.2.3.2.3.2.1.1.2.2.1.1.1.1.2.2.4.4c.1.1.1.1.2.2s.2.3.3.4l.4.4c.4.5.8 1 1.2 1.6.1.1.1.1.2.2s.1.1.2.2l.6.3.2.3.2.3.1.2.1.2.1.2.1.2.1.2c.3.6.5 1.1.8 1.7l.1.3c.1.2.2.5.3.7 0 .1.1.1.1.2s.1.2.1.3l.1.3.1.2c0 .1 0 .2.1.3l.1.3c0 .2.1.3.1.5s0 .2.1.3 0 .3.1.4v.2.2.2.2.1.1.3s0 .2 0 .3 0 .2 0 .3v.3.2.3.2s0 .2 0 .3v.2.2.3.3z" opacity=".1"/><path d="m469.8 247.5v.2.4.5.1.4.2.4.3c0 .2 0 .5-.1.7 0 .2 0 .3-.1.5v.2.1.1.3l-.1.2v.2c0 .1 0 .2-.1.3v.2c0 .1-.1.2-.1.3l-.1.3v.1l-.1.3c-.1.3-.2.6-.3 1 0 .1-.1.2-.1.3l-.1.2c-.7 1.9-1.7 3.7-2.9 5.3l-.2.3c-.6.7-1.2 1.5-1.9 2.1l-31.2 31.2-31.2-31.2c-.9-.9-1.7-1.9-2.5-2.9-.5-.7-.9-1.3-1.3-2-2.1-3.8-3-8.2-2.7-12.6 0-.4.1-.8.1-1.2.1-.7.2-1.4.4-2.1 0-.1.1-.3.1-.4l.1-.2v-.1c0-.1 0-.2.1-.3.1-.2.1-.5.2-.7s.1-.2.1-.3c.2-.5.3-.9.5-1.4l.1-.3c.1-.1.1-.3.2-.4s.2-.4.3-.6l.2-.3.2-.3.2-.4.1-.2.1-.1.1-.2c0-.1.1-.2.2-.3l.4-.6.1-.2.2-.3c.1-.1.1-.2.2-.3s.1-.2.2-.3l.2-.3.1-.1.2-.2.3-.3.1-.1.2-.2.2-.2.6-.6.2-.2.4-.4.3-.2.3-.3.2-.2.2-.2.4-.3.2-.2c.3-.3.7-.5 1-.7l.2-.1.2-.1.2-.1c.1-.1.2-.1.3-.2l.1-.1.2-.1c.3-.2.6-.3.9-.5l.2-.1.1-.1.2-.1.2-.1.2-.1.2-.1.2-.1.9-.4.2-.1.2-.1.2-.1.2-.1.4-.1.2-.1h.2.2l.3-.1.4-.1c.4-.1.8-.2 1.3-.3h.2.2.3.3.2c.4 0 .8-.1 1.2-.1h2.8.3.2l1 .1h.4.3.3.2.1c.4.1.8.2 1.3.3l.5.1h.1l.2.1.4.1h.2c.3.1.6.2.9.3l.2.1.3.1.4.2.5.2.2.1.3.1.2.1.2.1.3.1.2.1.5.3.2.1c.3.1.5.3.7.5l.2.1.2.1.2.1c.1 0 .1.1.1.1.3.2.6.4.9.6l.2.2.4.3.2.2.2.2.3.3.3.2.4.4.2.2.2-.2.4-.4.3-.2.3-.3.2-.2.2-.2.4-.3.2-.2c.3-.3.7-.5 1-.7l.2-.1.2-.1.2-.1.3-.2.1-.1.2-.1c.3-.2.6-.3.9-.5.1 0 .1-.1.2-.1l.3-.1.2-.1.2-.1.2-.1.2-.1.2-.1.9-.4.2-.1.2-.1.2-.1.2-.1.4-.1.2-.1h.2.2l.3-.1.4-.1c.4-.1.8-.2 1.3-.3h.2.2.2.3.2c.4 0 .8-.1 1.2-.1h2.8.3.2l1 .1h.4.3.2.2.2c.4.1.8.2 1.3.3l.5.1h.1l.2.1.4.1h.2c.3.1.6.2.9.3l.2.1.3.1.4.2.5.2.2.1.3.1.2.1.2.1.3.1.2.1.5.3.2.1c.3.1.5.3.7.5l.2.1.2.1.2.1.1.1.9.6.2.2.4.3.2.2.2.2.3.2c.1.1.2.1.3.2l.2.1.3.2.1.1.1.1.2.3.4.4.2.2.3.4.4.4c.4.5.8 1 1.2 1.6l.1.2.2.2c0 .1.1.1.1.2.1.1.1.2.2.4s.1.2.2.3l.1.2.1.2.1.2.1.2c0 .1.1.2.1.3.3.6.5 1.1.8 1.7l.1.3c.1.2.2.5.3.7l.1.2c0 .1.1.2.1.3l.1.3v.2l.1.3c0 .1.1.2.1.3 0 .2.1.3.1.5l.1.3.1.4v.2.2.2.1.1.1s0 .2 0 .3v.3.3.3.2.3.2.3.2.2s0 .2 0 .3v.3s.8.4.8.6z" fill="#ff6584"/><path d="m469.8 247.5v.2.4.5.1.4.2.4.3c0 .2 0 .5-.1.7 0 .2 0 .3-.1.5v.2.1.1.3l-.1.2v.2c0 .1 0 .2-.1.3v.2c0 .1-.1.2-.1.3l-.1.3v.1l-.1.3c-.1.3-.2.6-.3 1 0 .1-.1.2-.1.3l-.1.2c.9-3.6.8-7.3-.1-10.9-1.5-5.4-5.1-10-9.9-12.8-.4-.3-.8-.5-1.2-.7-6.6-3.6-14.6-3.6-21.3 0-.7.4-1.4.8-2.1 1.3-1 .7-2 1.5-2.9 2.4-.8-.8-1.7-1.6-2.7-2.3-.7-.5-1.5-1-2.3-1.5-6.6-3.6-14.6-3.6-21.3 0-1.1.6-2.2 1.3-3.1 2.1-.6.5-1.3 1.1-1.8 1.6-.9.9-1.7 1.8-2.4 2.9-.4.6-.8 1.3-1.2 1.9-.3.6-.7 1.3-.9 1.9-.2.4-.3.7-.4 1.1 0-.1.1-.3.1-.4l.1-.2v-.1c0-.1 0-.2.1-.3.1-.2.1-.5.2-.7s.1-.2.1-.3c.2-.5.3-.9.5-1.4l.1-.3c.1-.1.1-.3.2-.4s.2-.4.3-.6l.1-.3.2-.3.2-.4.1-.2.1-.1.2-.2c0-.1.1-.2.2-.3l.4-.6.2-.2.2-.3c.1-.1.1-.2.2-.3s.1-.2.2-.3l.2-.3.1-.1.1-.2.3-.3.1-.1.2-.2.2-.2.6-.6.2-.2.4-.4.3-.2.3-.3.2-.2.2-.2.4-.3.2-.2c.3-.3.7-.5 1-.7l.2-.1.2-.1.2-.1c.1-.1.2-.1.3-.2l.1-.1.2-.1c.3-.2.6-.3.9-.5l.2-.1.5-.1.2-.1.2-.1.2-.1.2-.1.2-.1.9-.4.2-.1.2-.1.2-.1.2-.1.4-.1.2-.1h.2.2l.3-.1.4-.1c.4-.1.8-.2 1.3-.3h.2.2.3.3.2c.4 0 .8-.1 1.2-.1h2.8.3.2l1 .1h.4.3.3.2.1c.4.1.8.2 1.3.3l.5.1h.1l.2.1.4.1h.2c.3.1.6.2.9.3l.2.1.3.1.4.2.5.2.2.1.3.1.2.1.2.1.3.1.2.1.5.3.2.1c.3.1.5.3.7.5l.2.1.2.1.2.1c.1 0 .1.1.1.1.3.2.6.4.9.6l.2.2.4.3.2.2.2.2.3.3.3.2.4.4.2.2.2-.2.4-.4.3-.2.3-.3.2-.2.2-.2.4-.3.2-.2c.3-.3.7-.5 1-.7l.2-.1.2-.1.2-.1.3-.2.1-.1.2-.1c.3-.2.6-.3.9-.5.1 0 .1-.1.2-.1l.3-.1.2-.1.2-.1.2-.1.2-.1.2-.1.9-.4.2-.1.2-.1.2-.1.2-.1.4-.1.2-.1h.2.2l.3-.1.4-.1c.4-.1.8-.2 1.3-.3h.2.2.2.3.2c.4 0 .8-.1 1.2-.1h2.8.3.2l1 .1h.4.3.2.2.2c.4.1.8.2 1.3.3l.5.1h.1l.2.1.4.1h.2c.3.1.6.2.9.3l.2.1.3.1.4.2.5.2.2.1.3.1.2.1.2.1.3.1.2.1.5.3.2.1c.3.1.5.3.7.5l.2.1.2.1.2.1.1.1.9.6.2.2.4.3.2.2.2.2.3.2c.1.1.2.1.3.2l.2.1.3.2.1.1.1.1.2.3.4.4.2.2.3.4.4.4c.4.5.8 1 1.2 1.6l.1.2.2.2c0 .1.1.1.1.2.1.1.1.2.2.4s.1.2.2.3l.1.2.1.2.1.2.1.2c0 .1.1.2.1.3.3.6.5 1.1.8 1.7l.1.3c.1.2.2.5.3.7l.1.2c0 .1.1.2.1.3l.1.3v.2l.1.3c0 .1.1.2.1.3 0 .2.1.3.1.5l.1.3.1.4v.2.2.2.1.1.1s0 .2 0 .3v.3.3.3.2.3.2.3.2.2s0 .2 0 .3v.3s.6.3.6.5z" opacity=".1"/><path d="m543.2 304.4v.3.1.3.1.3.1.3.2l-.1.5-.1.3v.2.1.1.2.2.1.2.1.2l-.1.2-.1.2c-.1.2-.2.5-.2.7-.1.2 0 .2-.1.2v.1c-.5 1.3-1.2 2.6-2.1 3.8l-.2.2c-.4.5-.8 1-1.3 1.5l-22 22-22-22c-3.2-3.3-4.9-7.8-4.5-12.4 0-.3.1-.6.1-.8.1-.5.2-1 .3-1.5 0-.1 0-.2.1-.3v-.1-.1l.1-.2c0-.2.1-.4.2-.5l.1-.2c.1-.3.2-.7.4-1l.1-.2c0-.1.1-.2.1-.3l.2-.5c0-.1.1-.1.1-.2l.1-.2c.1-.1.1-.2.2-.3 0 0 0-.1.1-.1v-.1l.1-.2.1-.2.3-.4.1-.2.1-.2.1-.2.2-.2c0-.1.1-.1.1-.2v-.1l.1-.1.2-.2.1-.1.1-.1.2-.2.4-.4.2-.2.3-.3c.1 0 .1-.1.2-.2l.2-.2.1-.1.1-.1.3-.2.1-.1.7-.5.2-.1.1-.1.1-.1.2-.1.1-.1.2-.1.6-.3.1-.1.2-.1.2-.1.2-.1.1-.1.2-.1.2-.1.7-.3.2-.1.2-.1.1-.1h.1l.3-.1h.2.1.1l.2-.1.3-.1c.3-.1.6-.1.9-.2h.1.2.2.2.1c.3 0 .6-.1.9-.1h2.4l.7.1h.3.2.2.2.1c.3 0 .6.1.9.2l.4.1h.1.1l.3.1h.1l.7.2.1.1.2.1.3.1.3.1.1.1.2.1.2.1.2.1.2.1.1.1.4.2.2.1.5.3.1.1.1.1.2.1.1.1c.2.1.4.3.6.5l.1.1.3.2.1.1.1.1.2.2.2.2c.1.1.2.2.3.3l.2.2.2-.2c.1-.1.2-.2.3-.3l.2-.2.2-.2.1-.1.1-.1.3-.2.1-.1c.2-.2.5-.4.7-.5l.1-.1.1-.1.1-.1.2-.1.1-.1.2-.1.6-.3.1-.1.2-.1.1-.1.2-.1.2-.1.2-.1.2-.1.6-.3.2-.1.2-.1.2-.1h.1l.3-.1h.2.1.1l.2-.1.3-.1c.3-.1.6-.1.9-.2h.1.2.2.2.1c.3 0 .6-.1.8-.1h2.4l.7.1h.3.2.2.2.1l.9.2.4.1h.1.2l.3.1h.1l.6.2.2.1.2.1.3.1.3.1.1.1.2.1.2.1.2.1.2.1.2.1.4.2.2.1c.2.1.3.2.5.3l.1.1.2.1.2.1.1.1c.2.1.4.3.6.5l.1.1c.1.1.2.1.3.2l.1.1.1.1.2.2.2.2.1.1.2.2.1.1.1.1.2.2.3.3.1.2.2.3.3.3c.3.4.6.7.8 1.1l.1.1c0 .1.1.1.1.2l.1.1c0 .1.1.2.2.3l.1.2s.1.1.1.1l.1.1.1.1.1.2.1.2c.2.4.4.8.5 1.2l.1.2c.1.2.1.3.2.5v.2c0 .1 0 .1.1.2l.1.2v.1.2l.1.2c0 .1.1.2.1.4s0 .1 0 .2l.1.3v.1.2.1.1.1.1.2.2.2.2.1.2.1.2.1.1.2.2z" fill="#ff6584"/><path d="m543.2 304.4v.3.1.3.1.3.1.3.2l-.1.5-.1.3v.2.1.1.2.2.1.2.1.2l-.1.2-.1.2c-.1.2-.2.5-.2.7-.1.2 0 .2-.1.2v.1c.3-1.2.4-2.5.4-3.8s-.2-2.6-.5-3.9c-.7-2.6-2.1-5.1-4-7-.8-.8-1.7-1.5-2.7-2.1-.3-.2-.6-.3-.8-.5-4.7-2.6-10.3-2.6-15 0-.5.3-1 .6-1.5.9-.7.5-1.4 1.1-2 1.7-.6-.6-1.2-1.1-1.9-1.6-.5-.4-1.1-.7-1.6-1-4.7-2.6-10.3-2.6-15 0-.8.4-1.5.9-2.2 1.5-.5.4-.9.7-1.3 1.2-.6.6-1.2 1.3-1.7 2-.3.4-.6.9-.8 1.4-.2.4-.5.9-.7 1.3-.1.3-.2.5-.3.8 0-.1 0-.2.1-.3v-.1-.2l.1-.2c0-.2.1-.4.2-.5l.1-.2c.1-.3.2-.7.4-1l.1-.2c0-.1.1-.2.1-.3l.2-.5c0-.1.1-.1.1-.2l.1-.2c.1-.1.1-.2.2-.3 0 0 0-.1.1-.1v-.1l.1-.2.1-.2.3-.4.1-.2.1-.2.1-.2.2-.2c0-.1.1-.1.1-.2v-.1l.1-.1c.1-.1.1-.1.2-.2l.1-.1.1-.1.2-.2.4-.4.2-.2.3-.3c.1 0 .1-.1.2-.2l.2-.2.1-.1.1-.1.3-.2.1-.1.7-.5.2-.1.1-.1.1-.1.2-.1.1-.1.2-.1c.2-.1.4-.2.6-.3l.1-.1.2-.1.2-.1.2-.1.1-.1.2-.1.2-.1.7-.3.2-.1.2-.1.1-.1h.1l.3-.1h.2.1.1l.2-.1.3-.1c.3-.1.6-.1.9-.2h.1.2.2.2.1c.3 0 .6-.1.9-.1h2.4l.7.1h.3.2.2.2.1c.3 0 .6.1.9.2l.4.1h.1.1l.3.1h.1l.7.2.1.1.2.1.3.1.3.1.1.1.2.1.2.1.2.1.2.1.1.1.4.2.2.1.5.3.1.1.1.1.2.1.1.1c.2.1.4.3.6.5l.1.1.3.2.1.1.1.1.2.2.2.2c.1.1.2.2.3.3l.2.2.2-.2c.1-.1.2-.2.3-.3l.2-.2.2-.2.1-.1.1-.1.3-.2.1-.1c.2-.2.5-.4.7-.5l.1-.1.1-.1.1-.1.2-.1.1-.1.2-.1c.2-.1.4-.2.6-.3l.1-.1.2-.1.1-.1.2-.1.2-.1.2-.1.2-.1.6-.3.2-.1.2-.1.2-.1h.1l.3-.1h.2.1.1l.2-.1.3-.1c.3-.1.6-.1.9-.2h.1.2.2.2.1c.3 0 .6-.1.8-.1h2.4l.7.1h.3.2.2.2.1l.9.2.4.1h.1.2l.3.1h.1l.6.2.2.1.2.1.3.1.3.1.1.1.2.1.2.1.2.1.2.1.2.1.4.2.2.1c.2.1.3.2.5.3l.1.1.2.1.2.1.1.1c.2.1.4.3.6.5l.1.1c.1.1.2.1.3.2l.1.1.1.1.2.2.2.2.1.1.2.2.1.1.1.1.2.2.3.3.1.2.2.3.3.3c.3.4.6.7.8 1.1l.1.1c0 .1.1.1.1.2l.1.1c0 .1.1.2.2.3l.1.2s.1.1.1.1l.1.1.1.1.1.2.1.2c.2.4.4.8.5 1.2l.1.2c.1.2.1.3.2.5v.2c0 .1 0 .1.1.2l.1.2v.1.2l.1.2c0 .1.1.2.1.4s0 .1 0 .2l.1.3v.1.2.1.1.1.1.2.2.2.2.1.2.1.2.1.1.2.2z" opacity=".1"/><path d="m460.1 406.8v.4.2.5.1.4.1.1.4.3l-.1.7c0 .1 0 .3-.1.5v.2.1.1.3.2.2s0 .2-.1.3l-.1.2-.1.3-.1.3v.1s-.1.2-.1.3c-.1.3-.2.6-.3 1l-.1.3c0 .1 0 .1-.1.2-.7 1.9-1.7 3.7-2.9 5.3l-.2.3c-.6.7-1.2 1.5-1.9 2.1l-31.2 31.2-31.2-31.2c-.9-.9-1.7-1.9-2.5-2.9-.5-.6-.9-1.3-1.3-2-2.1-3.8-3-8.2-2.7-12.5 0-.4.1-.8.1-1.2.1-.7.2-1.4.4-2.1 0-.1.1-.3.1-.4l.1-.2v-.1l.1-.3c.1-.2.1-.5.2-.7l.1-.3c.2-.5.3-.9.5-1.4l-.2-.3.2-.4c.1-.2.2-.4.3-.7l.2-.3.2-.3c.1-.1.2-.3.2-.4l.1-.2.1-.1c0-.1.1-.2.1-.2 0-.1.1-.2.2-.3l.4-.6c0-.1.1-.1.1-.2l.2-.3.2-.3.2-.3.2-.3.1-.1.1-.2.3-.3.1-.1.2-.2.3-.3c.2-.2.4-.4.6-.6l.2-.2.4-.4.3-.2.3-.3.2-.2.2-.2c.1-.1.3-.2.4-.3l.2-.2c.3-.3.7-.5 1-.7l.2-.1c.1-.1.1-.1.2-.1l.2-.1.3-.2.1-.1.2-.1c.3-.2.6-.3.9-.5l.2-.1.3-.1.2-.1.2-.1.2-.1.2-.1.2-.1.9-.4.2-.1.2-.1.2-.1.2-.1.4-.1.2-.1h.2.2l.3-.1.4-.1c.4-.1.8-.2 1.3-.3h.2.2.2.3.2c.4 0 .8-.1 1.2-.1h.2 2.6.3.2l1 .1.4.1h.3.2.2.2c.4.1.8.2 1.3.3l.5.1h.1l.2.1.4.1.2.1.9.3.2.1.3.1.4.2.5.2.2.1.3.1.2.1.2.1.3.1.2.1.5.3.2.1c.3.1.5.3.7.5l.2.1.2.1.2.1.1.1.9.6.2.2.4.3.2.2.2.2.3.3.3.2.4.4.3.2.2-.2.4-.4.3-.2.3-.3.2-.2.2-.2.4-.3.2-.2c.3-.3.7-.5 1-.7l.2-.1.2-.1.2-.1.3-.2.2-.1.2-.1.9-.5.2-.1.3-.1.2-.1.2-.1.2-.1.2-.1.2-.1.9-.4.2-.1.2-.1.2-.1.2-.1.4-.1.2-.1h.2.2l.3-.1.4-.1c.4-.1.8-.2 1.3-.3h.2.2.2.3.2l1.2-.1h.2 2.6.3.2c.3 0 .6 0 1 .1l.4.1h.3.2.2.2c.4.1.8.2 1.2.3l.5.1h.1l.2.1.4.1.2.1c.3.1.6.2.9.3l.2.1.3.1.4.2.5.2.2.1.3.1.2.1.2.1.3.1.2.1c.2.1.3.2.5.3l.2.1.7.5.2.1.2.1.2.1.1.1c.3.2.6.4.9.6l.2.2.4.3.2.2.2.2.3.2.3.2.1.1.2.2.1.1.1.1.2.2.4.4.2.2.3.4.4.4c.4.5.8 1 1.2 1.6l.2.2.1.2.1.2.2.4.2.3.1.2.1.2s0 .1.1.2c0 .1.1.2.1.2 0 .1.1.2.1.2.3.6.5 1.1.8 1.7 0 .1.1.2.1.3l.3.7.1.2c0 .1.1.2.1.3s.1.2.1.3l.1.2.1.3.1.3c0 .2.1.3.1.5 0 .1.1.2.1.3s.1.3.1.4v.2.2.2.1.1.1.3.3.3s0 .2 0 .3v.2.3.2s0 .2 0 .3v.2.2.3.3s1 .2 1 .5z" fill="#ff6584"/><path d="m460.1 406.8v.4.2.5.1.4.1.1.4.3l-.1.7c0 .1 0 .3-.1.5v.2.1.1.3.2.2s0 .2-.1.3l-.1.2-.1.3-.1.3v.1s-.1.2-.1.3c-.1.3-.2.6-.3 1l-.1.3c0 .1 0 .1-.1.2.4-1.8.6-3.5.6-5.3 0-1.9-.3-3.7-.8-5.5-1.4-5.3-4.8-9.9-9.5-12.9-.4-.3-.8-.5-1.2-.7-6.6-3.6-14.6-3.6-21.2 0-.7.4-1.4.8-2.1 1.3-1.1.7-2.2 1.5-3.1 2.4-.8-.8-1.7-1.6-2.7-2.3-.7-.5-1.5-1-2.3-1.4-7.8-4.3-17.4-3.5-24.4 2.1-.6.5-1.3 1.1-1.8 1.7-.9.9-1.7 1.8-2.4 2.9-.4.6-.8 1.3-1.2 1.9-.3.6-.7 1.2-.9 1.9-.2.4-.3.7-.4 1.1 0-.1.1-.3.1-.4l.1-.2v-.1l.1-.3c.1-.2.1-.5.2-.7l.1-.3c.2-.5.3-.9.5-1.4l.1-.2.2-.4.3-.7.2-.3.2-.3c.1-.1.2-.3.2-.4l.1-.2.1-.1c0-.1.1-.2.1-.2 0-.1.1-.2.2-.3l.4-.6c0-.1.1-.1.1-.2l.2-.3.2-.3.2-.3.2-.3.1-.1.1-.2.3-.3.1-.1.2-.2.3-.3.6-.6.2-.2.4-.4.3-.2.3-.3.2-.2.2-.2c.1-.1.3-.2.4-.3s.1-.1.2-.2c.3-.3.7-.5 1-.7l.2-.1c.1-.1.1-.1.2-.1l.2-.1.3-.2.1-.1.2-.1c.3-.2.6-.3.9-.5l.2-.1.3-.1.2-.1.2-.1.2-.1.2-.1.2-.1.9-.4.2-.1.2-.1.2-.1.2-.1.4-.1.2-.1h.2.2l.3-.1.4-.1c.4-.1.8-.2 1.3-.3h.2.2.2.3.2c.4 0 .8-.1 1.2-.1h.2 2.6.3.2l1 .1.4.1h.3.2.2.2c.4.1.8.2 1.3.3l.5.1h.1l.2.1.4.1.2.1c.3.1.6.2.9.3l.2.1.3.1.4.2.5.2.2.1.3.1.2.1.2.1.3.1.2.1.5.3.2.1c.3.1.5.3.7.5l.2.1.2.1.2.1.1.1.9.6.2.2.4.3.2.2.2.2.3.3.3.2.4.4.3.2.2-.2.4-.4.3-.2.3-.3.2-.2.2-.2.4-.3.2-.2c.3-.3.7-.5 1-.7l.2-.1.2-.1.2-.1.3-.2.2-.1.2-.1.9-.5.2-.1.3-.1.2-.1.2-.1.2-.1.2-.1.2-.1.9-.4.2-.1.2-.1.2-.1.2-.1.4-.1.2-.1h.2.2l.3-.1.4-.1c.4-.1.8-.2 1.3-.3h.2.2.2.3.2l1.2-.1h.2 2.6.3.2c.3 0 .6 0 1 .1l.4.1h.3.2.2.2c.4.1.8.2 1.2.3l.5.1h.1l.2.1.4.1.2.1.9.3.2.1.3.1.4.2.5.2.2.1.3.1.2.1.2.1.3.1.2.1c.2.1.3.2.5.3l.2.1.7.5.2.1.2.1.2.1.1.1c.3.2.6.4.9.6l.2.2.4.3.2.2.2.2.3.2.3.2.1.1.2.2.1.1.1.1.2.2.4.4.2.2.3.4.4.4c.4.5.8 1 1.2 1.6l.2.2.1.2.1.2.2.4.2.3.1.2.1.2s0 .1.1.2c0 .1.1.2.1.2 0 .1.1.2.1.2.3.6.5 1.1.8 1.7 0 .1.1.2.1.3l.3.7.1.2c0 .1.1.2.1.3s.1.2.1.3l.1.2.1.3.1.3c0 .2.1.3.1.5 0 .1.1.2.1.3s.1.3.1.4v.2.2.2.1.1.1.3.3.3s0 .2 0 .3v.2.3.2s0 .2 0 .3v.2.2.3.3s.7-.1.7.2z" opacity=".1"/><path d="m764.8 225.6v.2.2.2.5.1.4.2.4.3c0 .2 0 .5-.1.7s0 .3-.1.5v.2.1.1.2l-.1.2v.2c0 .1 0 .2-.1.3v.2c0 .1-.1.2-.1.3l-.1.3v.1l-.1.3c-.1.3-.2.6-.3 1 0 .1-.1.2-.1.3l-.1.2c-.7 1.9-1.7 3.7-2.9 5.3l-.2.3c-.6.8-1.2 1.5-1.9 2.1l-31.2 31.2-31.1-31.2c-.9-.9-1.7-1.9-2.4-2.9-.5-.6-.9-1.3-1.3-2-2.1-3.8-3-8.2-2.7-12.5 0-.4.1-.8.1-1.2.1-.7.2-1.4.4-2.1 0-.1.1-.3.1-.4s0-.1 0-.2v-.1l.1-.3c.1-.2.1-.5.2-.7l.1-.3c.2-.5.3-.9.5-1.4l.1-.3c.1-.1.1-.3.2-.4s.2-.4.3-.7l.2-.3.2-.3.2-.4c0-.1.1-.1.1-.2l.1-.1.2-.2c0-.1.1-.2.2-.3l.4-.6.2-.2.2-.3.2-.3.2-.3c.1-.1.1-.2.2-.3 0 0 0-.1.1-.1l.2-.2.2-.3.1-.1.2-.2.2-.2.6-.6.2-.2.4-.4c.1-.1.2-.2.3-.2l.3-.3.2-.2.2-.2.4-.3.2-.2c.3-.3.7-.5 1-.7l.2-.1.2-.1.2-.1.3-.2.1-.1.2-.1c.3-.2.6-.3.9-.5l.2-.1v-.2l.2-.1.2-.1.2-.1.2-.1.2-.1.9-.4.2-.1.2-.1.2-.1.2-.1.4-.1.2-.1h.2.2l.3-.1.4-.1 1.3-.3h.2.2.3.3.2c.4 0 .8-.1 1.2-.1h.2 3.1c.3 0 .7 0 1 .1l.4.1h.3.2.2.2c.4.1.8.2 1.3.3l.5.1h.1c.1 0 .1 0 .2.1l.4.1.2.1.9.3.2.1.3.1.4.2.5.2.2.1.3.1.2.1.2.1.3.1.2.1.5.3.2.1.7.5.2.1.2.1.2.1.1.1c.3.2.6.4.9.6.1 0 .1.1.2.2s.3.2.4.3l.2.2.2.2.3.3c.1.1.2.1.3.2l.4.4.2.2.2-.2.4-.4.3-.2.3-.3.2-.2.2-.2c.1-.1.3-.2.4-.3s.1-.1.2-.2c.3-.3.7-.5 1-.7l.2-.1.2-.1.2-.1.3-.2.1-.1.2-.1c.3-.2.6-.3.9-.5l.2-.1.3-.1.2-.1.2-.1.2-.1.2-.1.2-.1.9-.4.2-.1.2-.1.2-.1.2-.1.4-.1.2-.1h.2.2l.3-.1.4-.1c.4-.1.8-.2 1.3-.3h.2.2.2.3.2c.4 0 .8-.1 1.2-.1h.2 3.1l1 .1.4.1h.3.2.2.2c.4.1.8.2 1.3.3l.5.1h.1c.1 0 .1 0 .2.1l.4.1.2.1.9.3.2.1.3.1.4.2.5.2.2.1.3.1.2.1.2.1.3.1.2.1.5.3.2.1.7.5.2.1.2.1.2.1.1.1.9.6.2.2.4.3.2.2.2.2.3.2.3.2.1.1.3.2.1.1.1.1.2.2.4.4.2.2c.1.1.2.3.3.4l.4.4c.4.5.8 1 1.2 1.6l.2.2.2.2c0 .1.1.1.1.2.1.1.2.2.2.4s.1.2.2.3l.1.2.1.2.1.2.1.2c0 .1.1.2.1.2.3.6.5 1.1.8 1.7 0 .1.1.2.1.3.1.2.2.5.3.7 0 .1 0 .1.1.2l.1.3.1.3v.2s0 .2.1.3l.1.3c0 .2.1.4.1.5l.1.3.1.4v.2.2.2.1.1.1.3.3.3.3.2.3.1.3.2s0 .1 0 .2 0 .2 0 .3v.3c.7.2.7.5.7.7z" fill="#ff6584"/><path d="m764.8 225.6v.2.2.2.5.1.4.2.4.3c0 .2 0 .5-.1.7s0 .3-.1.5v.2.1.1.2l-.1.2v.2c0 .1 0 .2-.1.3v.2c0 .1-.1.2-.1.3l-.1.3v.1l-.1.3c-.1.3-.2.6-.3 1 0 .1-.1.2-.1.3l-.1.2c.9-3.6.8-7.3-.2-10.9-1.4-5.3-4.8-9.9-9.5-12.9-.4-.3-.8-.5-1.2-.7-6.6-3.6-14.6-3.6-21.3 0-.7.4-1.4.8-2.1 1.3-1 .7-2 1.5-2.9 2.4-.8-.8-1.7-1.6-2.7-2.3-.7-.5-1.5-1-2.3-1.4-8.6-4.7-19.3-3.2-26.2 3.7-1 .9-2 1.8-2.8 2.9-.4.6-.8 1.3-1.2 1.9-.3.6-.7 1.3-.9 1.9-.2.4-.3.7-.4 1.1 0-.1.1-.3.1-.4s0-.1 0-.2v-.1l.1-.3c.1-.2.1-.5.2-.7l.1-.3c.2-.5.3-.9.5-1.4l.1-.3c.1-.1.1-.3.2-.4s.2-.4.3-.7l.2-.3.2-.3.2-.4c0-.1.1-.1.1-.2l.1-.1.2-.2c0-.1.1-.2.2-.3l.4-.6.2-.2.2-.3.2-.3.2-.3c.1-.1.1-.2.2-.3 0 0 0-.1.1-.1l.2-.2.2-.3.1-.1.2-.2.2-.2.6-.6.2-.2.4-.4c.1-.1.2-.2.3-.2l.3-.3.2-.2.2-.2.4-.3.2-.2c.3-.3.7-.5 1-.7l.2-.1.2-.1.2-.1.3-.2.1-.1.2-.1c.3-.2.6-.3.9-.5l.2-.1.4-.2.2-.1.2-.1.2-.1.2-.1.2-.1.9-.4.2-.1.2-.1.2-.1.2-.1.4-.1.2-.1h.2.2l.3-.1.4-.1 1.3-.3h.2.2.3.3.2c.4 0 .8-.1 1.2-.1h.2 3.1c.3 0 .7 0 1 .1l.4.1h.3.2.2.2c.4.1.8.2 1.3.3l.5.1h.1c.1 0 .1 0 .2.1l.4.1.2.1.9.3.2.1.3.1.4.2.5.2.2.1.3.1.2.1.2.1.3.1.2.1.5.3.2.1.7.5.2.1.2.1.2.1.1.1c.3.2.6.4.9.6.1 0 .1.1.2.2s.3.2.4.3l.2.2.2.2.3.3c.1.1.2.1.3.2l.4.4.2.2.2-.2.4-.4.3-.2.3-.3.2-.2.2-.2c.1-.1.3-.2.4-.3s.1-.1.2-.2c.3-.3.7-.5 1-.7l.2-.1.2-.1.2-.1.3-.2.1-.1.2-.1c.3-.2.6-.3.9-.5l.2-.1.3-.1.2-.1.2-.1.2-.1.2-.1.2-.1.9-.4.2-.1.2-.1.2-.1.2-.1.4-.1.2-.1h.2.2l.3-.1.4-.1c.4-.1.8-.2 1.3-.3h.2.2.2.3.2c.4 0 .8-.1 1.2-.1h.2 3.1l1 .1.4.1h.3.2.2.2c.4.1.8.2 1.3.3l.5.1h.1c.1 0 .1 0 .2.1l.4.1.2.1.9.3.2.1.3.1.4.2.5.2.2.1.3.1.2.1.2.1.3.1.2.1.5.3.2.1.7.5.2.1.2.1.2.1.1.1.9.6.2.2.4.3.2.2.2.2.3.2.3.2.1.1.3.2.1.1.1.1.2.2.4.4.2.2c.1.1.2.3.3.4l.4.4c.4.5.8 1 1.2 1.6l.2.2.2.2c0 .1.1.1.1.2.1.1.2.2.2.4s.1.2.2.3l.1.2.1.2.1.2.1.2c0 .1.1.2.1.2.3.6.5 1.1.8 1.7 0 .1.1.2.1.3.1.2.2.5.3.7 0 .1 0 .1.1.2l.1.3.1.3v.2s0 .2.1.3l.1.3c0 .2.1.4.1.5l.1.3.1.4v.2.2.2.1.1.1.3.3.3.3.2.3.1.3.2s0 .1 0 .2 0 .2 0 .3v.3c.8.2.8.5.8.7z" opacity=".1"/><path d="m909.5 267v.4.2s0 .3 0 .5v.1.4.1.1.3.3l-.1.7c0 .2 0 .3-.1.5v.2.1.1.3.2.2s0 .2-.1.3l-.1.2-.1.3-.1.3v.1s-.1.2-.1.3c-.1.3-.2.7-.3 1 0 .1-.1.2-.1.3s0 .1-.1.2c-.7 1.9-1.7 3.7-2.9 5.3l-.2.3c-.6.7-1.2 1.5-1.9 2.1l-31.5 31.2-31.2-31.2c-.9-.9-1.7-1.9-2.5-2.9-.5-.6-.9-1.3-1.3-2-2.1-3.8-3-8.2-2.7-12.5 0-.4.1-.8.1-1.2.1-.7.2-1.4.4-2.1 0-.1.1-.3.1-.4l.1-.2v-.1l.1-.3c.1-.2.2-.5.2-.7s.1-.2.1-.3c.2-.5.3-.9.5-1.4l.1-.3.2-.4c.1-.2.2-.4.3-.6l.2-.3.2-.3c.1-.1.2-.3.2-.4l.1-.2.1-.1c0-.1.1-.2.1-.2s.1-.2.2-.3.3-.4.4-.6l.1-.2.2-.3.2-.3.2-.3.2-.3.1-.1.2-.2.3-.3.1-.1.2-.2c.1-.1.1-.1.2-.2s.4-.4.6-.6l.2-.2.4-.4.3-.2.3-.3.2-.2.2-.2.4-.3.2-.2c.3-.3.7-.5 1-.7l.2-.1.2-.1.2-.1.3-.2.1-.1.2-.1c.3-.2.6-.3.9-.5l.2-.1.3-.1.2-.1.2-.1.2-.1.2-.1.2-.1.9-.4.2-.1.2-.1.2-.1.2-.1.4-.1.2-.1h.2.2l.3-.1.4-.1c.4-.1.8-.2 1.3-.3h.2.2.2.3.2c.4 0 .8-.1 1.2-.1h2.8.3.2l1 .1.4.1h.3.2.2.2c.4.1.8.2 1.3.3l.5.1h.1l.2.1.4.1h.2c.3.1.6.2.9.3l.2.1.3.1.4.2.5.2.2.1.3.1.2.1.2.1.3.1.2.1.5.3.2.1c.3.1.5.3.7.5l.2.1.2.1.2.1.1.1.9.6.2.2.4.3.2.2.2.2.3.3.3.2.4.4c.1.1.2.1.3.2.1-.1.2-.2.2-.2l.4-.4.3-.2.3-.3.2-.2.2-.2.4-.3c.1 0 .1-.1.2-.2l1-.7.2-.1.2-.1.2-.1.3-.2.2-.1.2-.1c.3-.2.6-.3.9-.5l.2-.1.3-.1.2-.1.2-.1.2-.1.2-.1.2-.1.9-.4.2-.1.2-.1.2-.1.2-.1.4-.1.2-.1h.2.2l.3-.1.4-.1c.4-.1.8-.2 1.3-.3h.2.2.2.3.2c.4 0 .8-.1 1.2-.1h2.8.3.2l1 .1c.2 0 .3 0 .4.1h.3.2.2.2l1.2.3.5.1h.1l.2.1.4.1h.2c.3.1.6.2.9.3l.2.1.3.1.4.2.5.2.2.1.3.1.2.1.2.1.3.1.2.1.5.3.2.1c.3.1.5.3.7.5l.2.1.2.1.2.1.1.1c.3.2.6.4.9.6l.2.2.4.3.2.2.2.2.3.2.3.2.1.1.2.2.1.1.1.1.2.3.4.4c.1.1.1.1.2.2l.3.4.4.4c.4.5.8 1 1.2 1.6l.2.2.2.2.1.2.2.4.2.3.1.2.1.2.1.2c0 .1.1.2.1.2l.1.3c.3.6.5 1.1.8 1.7 0 .1.1.2.1.3l.3.7c0 .1 0 .2.1.2s.1.2.1.3.1.2.1.3l.1.2c0 .1 0 .2.1.3l.1.3c0 .2.1.3.1.5 0 .1.1.2.1.3s.1.3.1.4 0 .1 0 .2v.2.2.1.1.1.3.3.3.3.2.3.2s0 .2 0 .3v.2.2.3.3s.9.2.9.4z" fill="#ff6584"/><path d="m909.5 267v.4.2s0 .3 0 .5v.1.4.1.1.3.3l-.1.7c0 .2 0 .3-.1.5v.2.1.1.3.2.2s0 .2-.1.3l-.1.2-.1.3-.1.3v.1s-.1.2-.1.3c-.1.3-.2.7-.3 1 0 .1-.1.2-.1.3s0 .1-.1.2c.4-1.8.6-3.5.6-5.4-.1-7.5-3.9-14.4-10.2-18.4-.4-.3-.8-.5-1.2-.7-6.6-3.6-14.6-3.6-21.2 0-.7.4-1.4.8-2.1 1.3-1 .7-2 1.5-2.9 2.4-.8-.8-1.7-1.6-2.7-2.3-.7-.5-1.5-1-2.3-1.5-7.8-4.3-17.4-3.5-24.4 2.1-.6.5-1.3 1.1-1.8 1.6-.9.9-1.7 1.8-2.4 2.9-.4.6-.8 1.3-1.2 1.9-.3.6-.7 1.2-.9 1.9-.2.4-.3.7-.4 1.1 0-.1.1-.3.1-.4l.1-.2v-.1l.1-.3c.1-.2.2-.5.2-.7s.1-.2.1-.3c.2-.5.3-.9.5-1.4l.1-.3.2-.4c.1-.2.2-.4.3-.7l.2-.3.2-.3c.1-.1.2-.3.2-.4l.1-.2.1-.1c0-.1.1-.2.1-.2s.1-.2.2-.3.3-.4.4-.6l.1-.2.2-.3.2-.3.2-.3.2-.3.1-.1.2-.2.3-.3.1-.1.2-.2c.1-.1.1-.1.2-.2s.4-.4.6-.6l.2-.2.4-.4.3-.2.3-.3.2-.2.2-.2.4-.3.2-.2c.3-.3.7-.5 1-.7l.2-.1.2-.1.2-.1.3-.2.1-.1.2-.1c.3-.2.6-.3.9-.5l.2-.1.3-.1.2-.1.2-.1.2-.1.2-.1.2-.1.9-.4.2-.1.2-.1.2-.1.2-.1.4-.1.2-.1h.2.2l.3-.1.4-.1c.4-.1.8-.2 1.3-.3h.2.2.2.3.2c.4 0 .8-.1 1.2-.1h2.8.3.2l1 .1.4.1h.3.2.2.2c.4.1.8.2 1.3.3l.5.1h.1l.2.1.4.1h.2c.3.1.6.2.9.3l.2.1.3.1.4.2.5.2.2.1.3.1.2.1.2.1.3.1.2.1.5.3.2.1c.3.1.5.3.7.5l.2.1.2.1.2.1.1.1.9.6c.1.1.1.1.2.2l.4.3.2.2.2.2.3.3.3.2.4.4c.1.1.2.1.3.2.1-.1.2-.2.2-.2l.4-.4.3-.2.3-.3.2-.2.2-.2.4-.3c.1 0 .1-.1.2-.2l1-.7.2-.1.2-.1.2-.1.3-.2.2-.1.2-.1c.3-.2.6-.3.9-.5l.2-.1.3-.1.2-.1.2-.1.2-.1.2-.1.2-.1.9-.4.2-.1.2-.1.2-.1.2-.1.4-.1.2-.1h.2.2l.3-.1.4-.1c.4-.1.8-.2 1.3-.3h.2.2.2.3.2c.4 0 .8-.1 1.2-.1h2.8.3.2l1 .1c.2 0 .3 0 .4.1h.3.2.2.2l1.2.3.5.1h.1l.2.1.4.1h.2c.3.1.6.2.9.3l.2.1.3.1.4.2.5.2.2.1.3.1.2.1.2.1.3.1.2.1.5.3.2.1c.3.1.5.3.7.5l.2.1.2.1.2.1.1.1c.3.2.6.4.9.6l.2.2.4.3.2.2.2.2.3.2.3.2.1.1.2.2.1.1.1.1.2.3.4.4c.1.1.1.1.2.2l.3.4.4.4c.4.5.8 1 1.2 1.6l.2.2.2.2.1.2.2.4.2.3.1.2.1.2.1.2c0 .1.1.2.1.2l.1.3c.3.6.5 1.1.8 1.7 0 .1.1.2.1.3l.3.7c0 .1 0 .1.1.2s.1.2.1.3.1.2.1.3l.1.2c0 .1 0 .2.1.3l.1.3c0 .2.1.3.1.5 0 .1.1.2.1.3s.1.3.1.4 0 .1 0 .2v.2.2.1.1.1.3.3.3.3.2.3.2s0 .2 0 .3v.2.2.3.3s.3.4.3.6z" opacity=".1"/><path d="m779.2 388.9v.3.1.3.1.3.1.3.2l-.1.5v.3.2.1.1.2.2.1.2.2.2l-.1.2v.1c0 .1-.1.1-.1.2-.1.2-.1.5-.2.7 0 .1-.1.1-.1.2v.1c-.5 1.3-1.2 2.6-2.1 3.8l-.2.2c-.4.5-.9 1-1.3 1.5l-22 22-22-22c-.6-.6-1.2-1.3-1.7-2-.3-.5-.6-.9-.9-1.4-1.5-2.7-2.1-5.8-1.9-8.9 0-.3 0-.6.1-.8.1-.5.2-1 .3-1.5 0-.1 0-.2.1-.3v-.1-.1l.1-.2c0-.2.1-.3.2-.5 0-.1.1-.2.1-.2.1-.3.3-.7.4-1l.1-.2c0-.1.1-.2.1-.3s.2-.3.2-.5l.1-.2.1-.2c.1-.1.1-.2.2-.3 0 0 0-.1.1-.1 0 0 0 0 0-.1 0-.1.1-.1.1-.2l.1-.2.3-.4.1-.1.1-.2.1-.2.2-.2.2-.2v-.1l.1-.1.2-.2.1-.1.1-.2.2-.2c.1-.2.3-.3.4-.4s.1-.1.2-.2.2-.2.3-.3l.2-.2c.1-.1.1-.1.2-.2l.1-.1.1-.1.3-.2.1-.1c.2-.2.5-.4.7-.5l.2-.1.2-.1.1-.1.2-.1.1-.1.2-.1.6-.3.1-.1.2-.1.2-.1.2-.1.2-.1.2-.1.2-.1.7-.3.2-.1.2-.1h.2.1l.3-.1h.2.1.1l.2-.1.3-.1c.3-.1.6-.1.9-.2h.1.2.2.2.1l.9-.1h2.4l.7.1h.3.2.2.2.1c.3 0 .6.1.9.2l.4.1h.1.2l.3.1h.1l.6.2h.1l.2.1.3.1.3.1.1.1.2.1.2.1.2.1.2.1.2.1.3.2.2.1.5.3.1.1.2.1.1.1.1.1.6.5.2.1.3.2.1.1.1.1.2.2.2.2.3.3.2.2c.1-.1.1-.1.2-.2l.3-.3c.1-.1.1-.1.2-.2l.2-.2.1-.1.1-.1.3-.2.1-.1c.2-.2.5-.4.7-.5l.2-.1.2-.1.1-.1.2-.1.1-.1.2-.1.6-.3.1-.1.2-.1.2-.1.2-.1.2-.1.2-.1.2-.1.6-.3.2-.1.2-.1h.2.1l.3-.1h.2.1.1l.2-.1.3-.1c.3-.1.6-.1.9-.2h.1.2.2.2.1l.8-.1h2.4l.7.1h.3.2.2.2.1c.3 0 .6.1.9.2l.4.1h.1.2l.3.1h.1l.6.2h.2l.2.1.3.1.3.1.1.1.2.1.2.1.2.1.2.1.2.1.4.2.2.1c.2.1.3.2.5.3l.1.1.2.1.2.1.1.1.6.5.1.1.3.2.1.1.1.1.2.2.2.2s.1.1.1.1c0 .1.1.1.2.2l.1.1.1.1.2.2.3.3.1.2c.1.1.2.2.2.3l.3.3c.3.4.6.7.8 1.1 0 0 .1.1.1.2l.1.2.1.1c.1.1.1.2.2.3l.1.2.1.1.1.1.1.1.1.2.1.2c.2.4.4.8.5 1.2 0 .1.1.1.1.2.1.2.1.3.2.5l.1.2c0 .1 0 .1.1.2l.1.2v.1.2l.1.2c0 .1.1.3.1.4s0 .1 0 .2l.1.3v.1.2.1.1.1.1.2.2.2.2.1.2.1s0 .2 0 .2v.1.1.2.2z" fill="#ff6584"/><path d="m779.2 388.9v.3.1.3.1.3.1.3.2l-.1.5v.3.2.1.1.2.2.1.2.2.2l-.1.2v.1c0 .1-.1.1-.1.2-.1.2-.1.5-.2.7 0 .1-.1.1-.1.2v.1c.3-1.2.4-2.5.4-3.8-.1-5.3-2.8-10.2-7.2-13-.3-.2-.6-.4-.8-.5-4.7-2.6-10.3-2.6-15 0-.5.3-1 .6-1.5.9-.7.5-1.4 1.1-2 1.7-.6-.6-1.2-1.1-1.9-1.6-.5-.4-1.1-.7-1.6-1-4.7-2.6-10.3-2.6-15 0-.8.4-1.5.9-2.2 1.5-.5.4-.9.8-1.3 1.2-.6.6-1.2 1.3-1.7 2-.3.4-.6.9-.9 1.4-.3.4-.5.9-.7 1.3-.1.3-.2.5-.3.8 0-.1 0-.2.1-.3 0 0 0-.1 0-.2v-.1l.1-.2c0-.2.1-.3.2-.5 0-.1.1-.2.1-.2.1-.3.3-.6.4-1l.1-.2c0-.1.1-.2.1-.3s.2-.3.2-.5l.1-.2.1-.2c.1-.1.1-.2.2-.3 0 0 0-.1.1-.1 0 0 0 0 0-.1 0-.1.1-.1.1-.2l.1-.2.3-.4.1-.1.1-.2.1-.2.2-.2.2-.2v-.1l.1-.1.2-.2.1-.1.1-.1.2-.2c.1-.1.3-.3.4-.4l.2-.2c.1-.1.2-.2.3-.3l.2-.2c.1-.1.1-.1.2-.2l.1-.1.1-.1.3-.2.1-.1c.2-.2.5-.4.7-.5l.2-.1.2-.1.1-.1.2-.1.1-.1.2-.1.6-.3.1-.1.2-.1.2-.1.2-.1.2-.1.2-.1.2-.1.7-.3.2-.1.2-.1h.2.1l.3-.1h.2.1.1l.2-.1.3-.1c.3-.1.6-.1.9-.2h.1.2.2.2.1l.9-.1h2.4l.7.1h.3.2.2.2.1c.3 0 .6.1.9.2l.4.1h.1.2l.3.1h.1l.6.2h.1l.2.1.3.1.3.1.1.1.2.1.2.1.2.1.2.1.2.1.3.2.2.1.5.3.1.1.2.1.1.1.1.1.6.5.2.1.3.2.1.1.1.1.2.2.2.2.3.3.2.2c.1-.1.1-.1.2-.2l.3-.3c.1-.1.1-.1.2-.2l.2-.2.1-.1.1-.1.3-.2.1-.1c.2-.2.5-.4.7-.5l.2-.1.2-.1.1-.1.2-.1.1-.1.2-.1.6-.3.1-.1.2-.1.2-.1.2-.1.2-.1.2-.1.2-.1.6-.3.2-.1.2-.1h.2.1l.3-.1h.2.1.1l.2-.1.3-.1c.3-.1.6-.1.9-.2h.1.2.2.2.1l.8-.1h2.4l.7.1h.3.2.2.2.1c.3 0 .6.1.9.2l.4.1h.1.2l.3.1h.1l.6.2h.2l.2.1.3.1.3.1.1.1.2.1.2.1.2.1.2.1.2.1.4.2.2.1c.2.1.3.2.5.3l.1.1.2.1.2.1.1.1.6.5.1.1.3.2.1.1.1.1.2.2.2.2s.1.1.1.1c0 .1.1.1.2.2l.1.1.1.1.2.2.3.3.1.2c.1.1.2.2.2.3l.3.3c.3.4.6.7.8 1.1 0 0 .1.1.1.2l.1.2.1.2c.1.1.1.2.2.3l.1.2.1.1.1.1.1.1.1.2.1.2c.2.4.4.8.5 1.2 0 .1.1.1.1.2.1.2.1.3.2.5l.1.2c0 .1 0 .1.1.2l.1.2v.1.2l.1.2c0 .1.1.3.1.4s0 .1 0 .2l.1.3v.1.2.1.1.1.1.2.2.2.2.1.2.1s0 .1 0 .2v.1.1.2.2z" opacity=".1"/><path d="m470.7 733.6s6.2 8.1-2.9 20.4-16.6 22.6-13.5 30.3c0 0 13.7-22.8 24.9-23.1 11.1-.3 3.7-13.9-8.5-27.6z" fill="#2ebf91"/><path d="m470.7 733.6c.5.8 1 1.6 1.3 2.5 10.9 12.8 16.7 24.7 6.2 25-9.8.3-21.5 17.7-24.3 22.1.1.3.2.7.3 1 0 0 13.7-22.8 24.9-23.1s3.8-13.8-8.4-27.5z" opacity=".1"/><path d="m482.2 744c0 2.9-.3 5.2-.7 5.2s-.7-2.3-.7-5.2.4-1.5.8-1.5.6-1.4.6 1.5z" fill="#ffd037"/><path d="m486.2 747.4c-2.5 1.4-4.7 2.2-4.9 1.8s1.7-1.7 4.2-3.1 1.5-.4 1.7 0 1.5-.1-1 1.3z" fill="#ffd037"/><path d="m437.8 733.6s-6.2 8.1 2.9 20.4 16.6 22.6 13.5 30.3c0 0-13.7-22.8-24.9-23.1-11.1-.3-3.8-13.9 8.5-27.6z" fill="#2ebf91"/><path d="m437.8 733.6c-.5.8-1 1.6-1.3 2.5-10.9 12.8-16.7 24.7-6.2 25 9.8.3 21.5 17.7 24.3 22.1-.1.3-.2.7-.3 1 0 0-13.7-22.8-24.9-23.1s-3.9-13.8 8.4-27.5z" opacity=".1"/><path d="m426.2 744c0 2.9.3 5.2.7 5.2s.7-2.3.7-5.2-.4-1.5-.8-1.5-.6-1.4-.6 1.5z" fill="#ffd037"/><path d="m422.3 747.4c2.5 1.4 4.7 2.2 4.9 1.8s-1.7-1.7-4.2-3.1-1.5-.4-1.7 0-1.5-.1 1 1.3z" fill="#ffd037"/><path d="m824.2 795.8s-11.1-37.7 2.1-65.5c5.6-11.6 7.3-24.7 4.8-37.4-1.2-6-3-11.9-5.3-17.5" fill="none" stroke="#535461" stroke-miterlimit="10" stroke-width="2"/><g fill="#2ebf91"><path d="m834 657.8c0 4.6-8.4 18-8.4 18s-8.4-13.4-8.4-18c.2-4.6 4-8.2 8.7-8.1 4.4.2 8 3.7 8.1 8.1z"/><path d="m847.9 683.4c-2.5 3.9-16.9 10.6-16.9 10.6s.3-15.8 2.8-19.7 7.7-5 11.6-2.5c3.9 2.6 5 7.7 2.5 11.6z"/><path d="m847.3 727.2c-4.1 2.1-19.9.6-19.9.6s8.2-13.5 12.3-15.6 9.2-.4 11.3 3.7c2.1 4.2.4 9.2-3.7 11.3z"/><path d="m839.3 760.2c-3.7 2.8-19.5 4-19.5 4s5.8-14.7 9.5-17.5 9-2 11.7 1.7c2.9 3.8 2.1 9-1.7 11.8z"/><path d="m813.5 694.9c3.3 3.2 18.8 6.6 18.8 6.6s-3.8-15.3-7.1-18.6-8.6-3.3-11.8 0-3.3 8.6 0 11.8c0 .1 0 .1.1.2z"/><path d="m804.7 733.6c4.1 2.1 19.9.6 19.9.6s-8.2-13.5-12.3-15.6c-4.2-2-9.2-.1-11.1 4-2 4.1-.4 8.9 3.5 11z"/><path d="m801.3 772.4c3.7 2.8 19.5 4 19.5 4s-5.8-14.7-9.5-17.5-9-2-11.7 1.7-2 9.1 1.7 11.8z"/><path d="m834 657.8c0 4.6-8.4 18-8.4 18s-8.4-13.4-8.4-18c.2-4.6 4-8.2 8.7-8.1 4.4.2 8 3.7 8.1 8.1z"/><path d="m847.9 683.4c-2.5 3.9-16.9 10.6-16.9 10.6s.3-15.8 2.8-19.7 7.7-5 11.6-2.5c3.9 2.6 5 7.7 2.5 11.6z"/><path d="m847.3 727.2c-4.1 2.1-19.9.6-19.9.6s8.2-13.5 12.3-15.6 9.2-.4 11.3 3.7c2.1 4.2.4 9.2-3.7 11.3z"/><path d="m839.3 760.2c-3.7 2.8-19.5 4-19.5 4s5.8-14.7 9.5-17.5 9-2 11.7 1.7c2.9 3.8 2.1 9-1.7 11.8z"/><path d="m813.5 694.9c3.3 3.2 18.8 6.6 18.8 6.6s-3.8-15.3-7.1-18.6-8.6-3.3-11.8 0-3.3 8.6 0 11.8c0 .1 0 .1.1.2z"/><path d="m804.7 733.6c4.1 2.1 19.9.6 19.9.6s-8.2-13.5-12.3-15.6c-4.2-2-9.2-.1-11.1 4-2 4.1-.4 8.9 3.5 11z"/><path d="m801.3 772.4c3.7 2.8 19.5 4 19.5 4s-5.8-14.7-9.5-17.5-9-2-11.7 1.7-2 9.1 1.7 11.8z"/></g></svg>