<svg xmlns="http://www.w3.org/2000/svg" xmlns:xlink="http://www.w3.org/1999/xlink"><linearGradient id="a"><stop offset="0" stop-color="#808080" stop-opacity=".25"/><stop offset=".54" stop-color="#808080" stop-opacity=".12"/><stop offset="1" stop-color="#808080" stop-opacity=".1"/></linearGradient><linearGradient id="b" gradientTransform="matrix(1 0 0 -1 -69 738.46)" gradientUnits="userSpaceOnUse" x1="824.4869" x2="824.4869" xlink:href="#a" y1="63.75" y2="64.32"/><linearGradient id="c" gradientTransform="matrix(1 0 0 -1 -69 738.46)" gradientUnits="userSpaceOnUse" x1="825.0999" x2="825.0999" xlink:href="#a" y1="57.7191" y2="59.0291"/><linearGradient id="d" gradientTransform="matrix(1 0 0 -1 -69 738.46)" gradientUnits="userSpaceOnUse" x1="787.2712" x2="787.2712" xlink:href="#a" y1="58.99" y2="61.2"/><linearGradient id="e" gradientTransform="matrix(1 0 0 -1 -69 738.46)" gradientUnits="userSpaceOnUse" x1="767.455" x2="767.455" xlink:href="#a" y1="163.22" y2="213.64"/><linearGradient id="f" gradientTransform="matrix(1 0 0 -1 0 791.28)" gradientUnits="userSpaceOnUse" x1="747.24" x2="747.24" xlink:href="#a" y1="352.45" y2="394.27"/><linearGradient id="g" gradientTransform="matrix(1 0 0 -1 -69 738.46)" gradientUnits="userSpaceOnUse" x1="812.1285" x2="812.1285" xlink:href="#a" y1="279.26" y2="311.4677"/><linearGradient id="h" gradientTransform="matrix(1 0 0 -1 -69 738.46)" gradientUnits="userSpaceOnUse" x1="809.995" x2="809.995" xlink:href="#a" y1="157.19" y2="172.1366"/><linearGradient id="i" gradientTransform="matrix(1 0 0 -1 -69 738.46)" gradientUnits="userSpaceOnUse" x1="807.865" x2="807.865" xlink:href="#a" y1="158.8018" y2="295.8799"/><linearGradient id="j" gradientTransform="matrix(1 0 0 -1 -69 738.46)" gradientUnits="userSpaceOnUse" x1="765.3112" x2="765.3112" xlink:href="#a" y1="209.9286" y2="259.8886"/><linearGradient id="k" gradientTransform="matrix(1 0 0 -1 -69 738.46)" gradientUnits="userSpaceOnUse" x1="765.2913" x2="765.2913" xlink:href="#a" y1="209.93" y2="220.4614"/><linearGradient id="l" gradientTransform="matrix(1 0 0 -1 -69 738.46)" gradientUnits="userSpaceOnUse" x1="806.215" x2="806.215" xlink:href="#a" y1="210.23" y2="221.78"/><linearGradient id="m" gradientTransform="matrix(1 0 0 -1 -69 738.46)" gradientUnits="userSpaceOnUse" x1="834.7742" x2="834.7742" xlink:href="#a" y1="185.66" y2="203.68"/><linearGradient id="n" gradientTransform="matrix(1 0 0 -1 -69 738.46)" gradientUnits="userSpaceOnUse" x1="792.8981" x2="792.8981" xlink:href="#a" y1="184.6205" y2="187.1824"/><linearGradient id="o" gradientTransform="matrix(1 0 0 -1 -69 738.46)" gradientUnits="userSpaceOnUse" x1="829.8703" x2="829.8703" xlink:href="#a" y1="250.9609" y2="267.76"/><linearGradient id="p" gradientTransform="matrix(1 0 0 -1 -69 738.46)" gradientUnits="userSpaceOnUse" x1="769.434" x2="769.434" xlink:href="#a" y1="267.51" y2="278.72"/><linearGradient id="q" gradientTransform="matrix(1 0 0 -1 -69 738.46)" gradientUnits="userSpaceOnUse" x1="763.8059" x2="763.8059" xlink:href="#a" y1="228.4924" y2="235.09"/><linearGradient id="r" gradientTransform="matrix(1 0 0 -1 -69 738.46)" gradientUnits="userSpaceOnUse" x1="764.0153" x2="764.0153" xlink:href="#a" y1="240.0746" y2="245.41"/><linearGradient id="s" gradientTransform="matrix(1 0 0 -1 -69 738.46)" gradientUnits="userSpaceOnUse" x1="828.195" x2="828.1951" xlink:href="#a" y1="136.66" y2="140.13"/><linearGradient id="t" gradientTransform="matrix(1 0 0 -1 -69 738.46)" gradientUnits="userSpaceOnUse" x1="790.55" x2="790.55" xlink:href="#a" y1="135.5302" y2="138.41"/><linearGradient id="u" gradientTransform="matrix(1 0 0 -1 -69 738.46)" gradientUnits="userSpaceOnUse" x1="824.221" x2="824.221" xlink:href="#a" y1="129.47" y2="129.81"/><linearGradient id="v" gradientTransform="matrix(1 0 0 -1 -69 738.46)" gradientUnits="userSpaceOnUse" x1="783.6503" x2="783.6503" xlink:href="#a" y1="120.9111" y2="125.56"/><linearGradient id="w" gradientTransform="matrix(1 0 0 -1 -69 738.46)" gradientUnits="userSpaceOnUse" x1="807.1038" x2="807.1038" xlink:href="#a" y1="208.0413" y2="358.3287"/><linearGradient id="x" gradientTransform="matrix(1 0 0 -1 -69 738.46)" gradientUnits="userSpaceOnUse" x1="767.9987" x2="767.9987" xlink:href="#a" y1="290.83" y2="315.03"/><linearGradient id="y" gradientTransform="matrix(1 0 0 -1 -69 738.46)" gradientUnits="userSpaceOnUse" x1="772.1855" x2="772.1855" xlink:href="#a" y1="230.21" y2="258.07"/><linearGradient id="z" gradientTransform="matrix(1 0 0 -1 -69 738.46)" gradientUnits="userSpaceOnUse" x1="806.002" x2="806.002" xlink:href="#a" y1="207.81" y2="237.6824"/><linearGradient id="A" gradientTransform="matrix(1 0 0 -1 -69 738.46)" gradientUnits="userSpaceOnUse" x1="843.4209" x2="843.4209" xlink:href="#a" y1="308.45" y2="330.29"/><linearGradient id="B" gradientTransform="matrix(1 0 0 -1 -69 738.46)" gradientUnits="userSpaceOnUse" x1="837.808" x2="837.808" xlink:href="#a" y1="258.38" y2="282.87"/><linearGradient id="C" gradientTransform="matrix(1 0 0 -1 -69 738.46)" gradientUnits="userSpaceOnUse" x1="863.8567" x2="863.8567" xlink:href="#a" y1="261.34" y2="284.76"/><linearGradient id="D" gradientTransform="matrix(1 0 0 -1 -69 738.46)" gradientUnits="userSpaceOnUse" x1="872.5218" x2="872.5218" xlink:href="#a" y1="261.58" y2="284.2401"/><path d="m830.9 110c-64.7-2.2-126.4-23.1-185.2-46-58.9-22.8-117.2-48.2-180.4-60.2-40.6-7.8-87.1-8.9-119.8 12.8-31.5 21-41.7 57.2-47.2 90.7-4.1 25.3-6.5 51.8 4.7 75.5 7.8 16.4 21.7 30.2 31.4 45.9 33.5 54.7 9.8 122.2-26.4 175.6-17 25.1-36.8 49-49.9 75.7s-19.2 57.3-7.7 84.5c11.4 27 38.5 47.2 67.9 61.5 59.7 29 130 37.2 198.6 41.9 151.8 10.4 304.5 5.9 456.7 1.4 56.3-1.7 112.9-3.3 168.3-12.1 30.8-4.8 62.6-12.5 84.9-31.1 28.4-23.5 35.4-63.4 16.4-92.9-31.9-49.5-120-61.8-142.3-114.9-12.3-29.2.3-61.8 18.2-88.9 38.2-58.2 102.3-109.2 105.7-175.7 2.3-45.7-28.5-91.4-76.1-113-49.9-22.7-119.2-19.8-156 17.7-38 38.8-104.7 53.6-161.8 51.6z" fill="#2ebf91" opacity=".1"/><ellipse cx="737.5" cy="781" fill="#2ebf91" opacity=".1" rx="71.4" ry="12"/><path d="m815.8 460.4c-.7-1.4-6-19-6-19l-10.3-26.1s-6.2-34.3-15.5-25.8 5 29.1 5 29.1 5.9 15 5.6 18 3.3 14 3.3 14l-1.2 6.3c-1.5-.1-2.5-.1-2.5-.1s-.9 1.3-1.8 1.4c-.1 0-.3 0-.4-.1-1-.5-4.3-.4-6-.4-1.6-.2-3.1-.7-4.5-1.4-.6-1.2-3.9-1.9-6.8-2.2-2.2-5.5-5.3-10.9-5.8-16.6-.2-1.6.1-3.2.9-4.5.2-.3.4-.6.7-.8.8-.8 1.8-1.5 2.7-2.3.5-.4.9-.8 1.3-1.2 7.6-7.4 6.4-18.9-.5-26.8-8-9.2-44.1-28.9-55-12-1.5 2.4-1.6 5.1-2 7.7-1.1 6.4-4.1 12.3-8.6 17-3.6 3.9-8.4 7.4-10.5 11.8l-.1-.2c-.5.9-.9 2-1.1 3-1 5.3 2.5 10.4 4.4 15.6.6 1.8 1.1 3.6 1.4 5.4l.1-1.1c.5 2.6.6 5.3.5 8-13.1 2.7-13.1 25.3-13.1 25.3s-1.6 9-1.3 12.2.3 10.2.3 11.9-1.6 12.2-1.8 13.5c-.2 1.4-2.7 8 3.3 9.5.4.1.8.2 1.3.3.3 5.4.7 16.7.3 19.2 0 0 2.2 15.2 4 19 1.1 2.3 2.5 4.4 4 6.5-.1.9-.4 1.8-.9 2.6-.9 1.3-.4 2.4 1.1 2.9 0 .5-.1 1-.2 1.6-.7 5.9-1.6 17.5 0 23.4 2.3 8.1 2.4 10.8 2.4 10.8 0 1.3.3 2.6.9 3.8 1 1.3 2.7 13.9 2.7 15.9s4.6 20.2 3.2 24.5-.3 10.4-.3 10.4-.8 10.6-1.8 12.9-1.3 39.2.1 48.8 2.4 17.5 2.4 17.5-1 8.8-.1 10 2.3 8.5 1.2 8.9-1.6 3.4-1.6 3.4c.6.9 1.2 1.7 1.8 2.5-.4-.1-.8-.3-1.2-.5.4.6 1.1 1.5 1.8 2.4l-.7 9.7c-.1.8.4 1.5 1.2 1.7 4.8 1.3 10-.1 13.4-3.8 6.7-6.9 9-5.9 10.2-10.1.1-.5.2-.9.3-1.3.5-2.4-.9-4.7-3.3-5.2-1-.2-2-.1-2.9.3.4-3 .8-6.3.4-8.2-.7-3.9-.5-14.1-.5-14.1l-.9-49s1.8-9.7 3.8-13.5 1.8-17 1.8-17l2.3-43.4 2.3-21s2.2-7.3 4.8.8c0 0-1.5 16.3-.8 20.2s1.6 22.9.9 27.1-3.6 27.1-1.8 32.9 3.9 12.8 3.5 15.1-1.8 52-1.8 52 3.6 9.6.9 12.7-.1 15.5-.1 15.5.3.2.9.6l-.1 1-.8 11.1c-.1.8.4 1.5 1.2 1.7 4.8 1.3 10-.1 13.4-3.8 6.7-6.9 9-5.9 10.2-10.1.1-.5.2-.9.3-1.3.5-2.4-.9-4.7-3.3-5.2-1.3-.3-2.7 0-3.8.9 0 0-.1.1-.2.1-.2.2-.3.3-.5.4l-.3.2c.7-3.1 1.7-8.3 1.2-10.8-.7-3.6.7-14.7.7-14.7s3.9-13.2 4-18.5 1.1-42 1.1-42-.1-17.1.4-21.3 4.8-40.3 9.2-51c3.3-8.3 4.8-29.3 3.9-40 0-.5-.1-1-.2-1.5 5.3-4 5.8-10.5 5.8-10.5s-4.8-9.3-9.5-13.3-5.8-10.8-5.6-13.7c.1-1.8-.5-3.5-1.6-4.8 0 0-2.2-7-3.6-7.7-.1-.1-.2-.1-.3-.2-1-1.1-.2-4.1-.2-4.1v-.1c.2-.7 1.2-5.2.9-6.4s.2-7.2.2-7.2 3.4-10.2 2.9-18.3 7-7.4 7-7.4l23.3-.2h2.7c1.1-1 2.1-2 3-3.2 1.8.3 3.7-.1 5.2-1.3 5-4.6 4.4-13.3 3.7-14.7zm-108.3 70 .2-4.1.9.8c.3 1.1.3 2.2 0 3.3-.3 1-1 1.9-2 2.3-.1.1-.2.1-.3.2l-.2-2.3c.9-.1 1.4-.2 1.4-.2z" opacity=".1"/><path d="m794.9 468.4s13.3 8.5 18.3 4 4.4-13.3 3.7-14.6-6.1-19.1-6.1-19.1l-10.4-26.3s-6.3-34.6-15.8-26 5.1 29.3 5.1 29.3 6 15.1 5.7 18.2 3.3 14.1 3.3 14.1z" fill="url(#D)"/><path d="m770.2 776.5c-.1.4-.2.9-.3 1.3-1.2 4.2-3.6 3.3-10.4 10.2-3.5 3.7-8.7 5.2-13.6 3.8-.8-.2-1.3-.9-1.2-1.7l.9-11.2.4-5.4s10.9 3.1 16.4-.8c.2-.1.4-.3.5-.4l.2-.1c1.9-1.6 4.7-1.3 6.3.6.7 1 1.1 2.4.8 3.7z" fill="url(#p)"/><path d="m736 772.3c-.1.4-.2.9-.3 1.3-1.2 4.2-3.6 3.3-10.4 10.2-3.5 3.7-8.7 5.2-13.6 3.8-.8-.2-1.3-.9-1.2-1.7l.8-11.2.4-5.4s10.9 3.1 16.4-.8c.2-.1.4-.3.5-.4l.2-.1c1.9-1.6 4.7-1.3 6.3.6.9 1 1.2 2.4.9 3.7z" fill="url(#r)"/><path d="m724.7 774 .5 5.8c-6.3 6.2-13.7-3-15.9-6.1 5.7 3 15.4.3 15.4.3z" fill="url(#u)" opacity=".1"/><path d="m761.5 776.4.8-.5c-5.7 8.6-14.2 4.6-16.8 3.1l.4-5.4s10.9 3.1 16.4-.8c-.4 2-.8 3.6-.8 3.6z" fill="url(#v)" opacity=".1"/><path d="m778.9 613.3c-4.4 10.9-8.8 47.3-9.3 51.5s-.4 21.5-.4 21.5l-1.1 42.4c-.1 5.3-4.1 18.6-4.1 18.6s-1.4 11.1-.7 14.8-1.8 13.3-1.8 13.3l.8-.5c-6.8 10.3-17.7 2.6-17.7 2.6s-2.6-12.5.1-15.6-1-12.8-1-12.8 1.4-50.1 1.8-52.4-1.6-9.4-3.6-15.2 1.1-28.9 1.8-33.1-.3-23.3-1-27.3.8-20.4.8-20.4c-2.7-8.1-4.9-.8-4.9-.8l-2.2 21.3-2.3 43.8s.3 13.3-1.8 17.1-3.8 13.6-3.8 13.6l1 49.4s-.1 10.3.5 14.3-1.5 14.1-1.5 14.1c-7.7 17.9-20-1.5-20-1.5s.5-3 1.6-3.4-.4-7.7-1.2-9 .1-10 .1-10-1-8-2.5-17.7-1.1-46.8-.1-49.2 1.8-13 1.8-13-1.1-6.1.3-10.5-3.3-22.7-3.3-24.7-1.8-14.7-2.7-16c-.6-1.2-1-2.5-1-3.8 0 0-.1-2.7-2.5-10.9-1.7-6-.7-17.7 0-23.6.2-2.2.4-3.6.4-3.6s78.6-12.6 81.7-9.8c.7.7 1.2 3 1.5 6.3 1.1 10.7-.4 31.9-3.7 40.2z" fill="url(#D)"/><path d="m749.2 674.4c.4 0 9 .7 12.2.1s-12.2-.1-12.2-.1z" fill="url(#b)" opacity=".1"/><path d="m749.8 679.4s12 2.1 12.6 1-12.6-1-12.6-1z" fill="url(#c)" opacity=".1"/><path d="m713.2 677.3s6.2.3 9.6 1.8-9.6-1.8-9.6-1.8z" fill="url(#d)" opacity=".1"/><path d="m690.7 525s1 18.9.5 22.3c0 0 2.2 15.3 4 19.2 1.6 3.1 3.6 6 5.8 8.8l5.4-37.6-1.3-12.9z" fill="url(#e)"/><ellipse cx="747.2" cy="417.9" fill="url(#f)" rx="21.1" ry="20.9"/><path d="m736.3 427.7s-6.6 12.8-13.1 18.7 39.4 12.8 40.5 12.8-8.2-27.1-6.6-30.4-20.8-1.1-20.8-1.1z" fill="url(#g)"/><path d="m782.8 573c-1 .8-2.2 1.4-3.4 1.9-8.4 3.3-17.5 7.8-23.7 6s-19.3 0-19.3 0-26.5-2.2-31.8-.9c-1.8.5-3.7.6-5.5.1.2-2.2.4-3.6.4-3.6s78.6-12.6 81.7-9.8c.9.7 1.3 3 1.6 6.3z" fill="url(#h)" opacity=".1"/><path d="m788.6 560.9s-.7 9-9.1 12.3-17.5 7.8-23.7 6-19.3 0-19.3 0-26.5-2.2-31.8-.9-8-.4-6.4-2.7 1.5-10.1 1.5-13.4-1.8-16.5-.2-18.8 3.1-11.4 6.4-12.8c1-.4 1.8-1.3 2-2.3.3-1.1.3-2.2 0-3.3 0 0-.5-.5-1.3-1.1-1.9-1.7-5.2-4.9-4.2-5.9 1.5-1.5 0-10.9 0-10.9s-3.5-7.2-2.2-10-11.1-17-11.1-17 0-24.6 15-25.7c0 0 10.6.4 11.9-4.3s9.7-7.4 9.7-7.4l19.2 4.2s17 3.6 20.1 1.5 5.5 2.9 5.5 2.9 10.6.5 11.7 2.7-3.5 23.3-3.5 23.3-7.7-.7-7.1 7.4-2.9 18.5-2.9 18.5-.5 6-.2 7.2-.7 5.7-.9 6.4v.1s-.8 3 .2 4.1c.1.1.2.2.3.2 1.5.7 3.7 7.8 3.7 7.8 1.1 1.4 1.7 3.1 1.7 4.9-.2 2.9.9 9.8 5.7 13.8s9.3 13.2 9.3 13.2z" fill="url(#i)"/><path d="m707.2 519v.8l-.3 8.5s-11.2.9-17.3-.6-3.5-8.2-3.3-9.6c.2-1.3 1.8-11.9 1.8-13.6s0-8.8-.3-12 1.4-12.3 1.4-12.3l1.2-1.5 12.9 4.9z" fill="url(#j)"/><path d="m707.2 519.8-.3 8.5s-11.2.9-17.3-.6-3.5-8.2-3.3-9.6z" fill="url(#k)" opacity=".1"/><path d="m708 528.2c.3-1.1.3-2.2 0-3.3 0 0-.5-.5-1.3-1.1 9.7-1.3 47.9-6.5 60.8-7.1v.1s-.8 3 .2 4.1z" fill="url(#l)" opacity=".1"/><path d="m768.9 534.8s2.4 13.3-6.5 18c0 0 5-6.6 6.5-18z" fill="url(#m)" opacity=".1"/><path d="m710.9 553.2s21.3-3.6 25.5-.8-25.5.8-25.5.8z" fill="url(#n)" opacity=".1"/><path d="m761.5 470.7s-3.3 13.4-.8 16.5.8-16.5.8-16.5z" fill="url(#o)" opacity=".1"/><path d="m699.6 459.7s3 5 1.2 10.1-1.2-10.1-1.2-10.1z" fill="url(#p)" opacity=".1"/><path d="m693.4 503.4s3.8 2.3 2.5 5.8-2.5-5.8-2.5-5.8z" fill="url(#q)"/><path d="m693 493s3.6 1.9 4 4.7-4-4.7-4-4.7z" fill="url(#r)" opacity=".1"/><path d="m745.8 601.3s22.4 2.3 26.8-3c0 0-20.2 4-26.8 3z" fill="url(#s)" opacity=".1"/><path d="m707.2 600s24 5.6 28.7 1.2c0 0-20.6 1.6-28.7-1.2z" fill="url(#t)" opacity=".1"/><path d="m747.5 608.7s10 0 14.7.3-14.7-.3-14.7-.3z" fill="url(#u)" opacity=".1"/><path d="m708.8 612.9s4.9 5.5 10.5 4.5-10.5-4.5-10.5-4.5z" fill="url(#v)" opacity=".1"/><path d="m718.5 386.8c-1.5 2.4-1.6 5.1-2 7.8-1.1 6.5-4.2 12.5-8.8 17.2-4.4 4.6-10.4 8.8-11.5 14.4-1.1 5.4 2.6 10.5 4.5 15.7 5 13.8-2 28.2-4 42.3-.6 3.9.1 8.9 5 10.2 1.5.4 3.3.4 4.6 1 1.8.9 2.4 2.7 2.7 4.3 1.2 5.8 1.6 11.8 1.3 17.7-.2 3.3-.5 7.2 2.7 9.5 1.6 1 3.4 1.7 5.3 2.1 5 1.3 11.5 2.4 14.8-.7 1.4-1.3 2-3.2 3.7-4.2 2.6-1.5 6.4-.5 9.7-.3 6.4.3 12.5-2.9 15.8-8.4 2.7-4.8 2.5-10.3 1.5-15.5s-2.7-10.3-2.8-15.5c-.2-1.8.3-3.7 1.2-5.3 2-3.1 6.8-4.5 10-7 6.1-4.6 6-12.1 3.8-18.5s-6.2-12.3-6.7-18.9c-.2-1.6.1-3.2.9-4.6 1.1-1.3 2.3-2.5 3.7-3.4 8.8-7.4 7.8-19.6.5-27.9-8.2-9.2-44.9-29-55.9-12z" fill="url(#w)"/><g opacity=".1"><path d="m701.8 447.6c.9-5.5.4-11.1-1.4-16.3-1-2.6-2.4-5.3-3.4-7.9-.5.9-.9 2-1.1 3-1.1 5.4 2.6 10.5 4.5 15.7.7 1.8 1.1 3.7 1.4 5.5z" fill="url(#x)"/><path d="m710 506.9c.4-5.9 0-11.9-1.3-17.7-.3-1.6-.9-3.4-2.7-4.3-1.4-.7-3.1-.6-4.6-1-1.9-.5-3.5-1.7-4.3-3.5-.3 1.4-.5 2.8-.7 4.1-.6 3.9.1 8.9 5 10.2 1.5.4 3.3.4 4.6 1 1.8.9 2.4 2.7 2.7 4.3.6 2.7 1 5.4 1.2 8.2 0-.4.1-.8.1-1.3z" fill="url(#y)"/><path d="m762 504.8c-3.3 5.5-9.4 8.7-15.8 8.4-3.3-.2-7.1-1.2-9.7.3-1.8 1-2.3 2.9-3.7 4.2-3.4 3.1-9.8 2.1-14.8.7-1.9-.4-3.6-1.1-5.3-2.1-1.4-1-2.3-2.5-2.6-4.2 0 1.9 0 3.7-.1 5.6-.2 3.3-.5 7.2 2.7 9.5 1.6 1 3.4 1.7 5.3 2.1 5 1.3 11.5 2.4 14.8-.7 1.4-1.3 2-3.2 3.7-4.2 2.6-1.6 6.4-.5 9.7-.3 6.4.3 12.5-3 15.8-8.4 2.6-4.6 2.5-9.9 1.6-14.9-.4 1.4-.9 2.8-1.6 4z" fill="url(#z)"/><path d="m773.6 416.2c-1.4 1-2.6 2.1-3.7 3.4-.8 1.4-1.1 3-.9 4.6.2 2 .6 3.9 1.3 5.8 1-1.1 2.1-2.1 3.3-2.9 6-5 7.4-12.2 5.5-18.9-1 3.1-2.9 5.9-5.5 8z" fill="url(#A)"/><path d="m771.8 461.5c-3.2 2.5-8 3.9-10 7-.9 1.6-1.3 3.4-1.2 5.3.1 2.1.3 4.2.8 6.3.1-.2.3-.5.4-.7 2-3.1 6.8-4.5 10-7 5.5-4.2 6-10.8 4.4-16.8-.9 2.4-2.4 4.4-4.4 5.9z" fill="url(#B)"/></g><path d="m813.5 463.7c-3.7 9.4-8.6 13.1-8.6 13.1h-2.7l-23.7.2-2.7-7.4 3.8-16 2.4.2c1.4.7 3 1.2 4.6 1.5 1.7 0 5.1-.1 6.1.4.1.1.3.1.5.1.9-.1 1.8-1.4 1.8-1.4s22.2-.1 18.5 9.3z" fill="url(#C)"/><path d="m813.5 463.7c-3.7 9.4-8.6 13.1-8.6 13.1h-2.7c1.4-3.7 4.4-11.4 5.5-13.2s-8.8-5.8-14.6-8.1c.9-.1 1.8-1.4 1.8-1.4s22.3.2 18.6 9.6z" fill="url(#D)" opacity=".1"/><path d="m769.9 776.7c-.1.4-.2.9-.3 1.3-1.2 4.2-3.5 3.2-10.2 10.1-3.4 3.6-8.6 5.1-13.4 3.8-.8-.2-1.3-.9-1.2-1.7l.8-11.1.4-5.4s10.7 3 16.2-.8c.2-.1.4-.3.5-.4.1 0 .1-.1.2-.1 1.9-1.5 4.6-1.3 6.2.6.7 1 1.1 2.4.8 3.7z" fill="#2ebf91"/><path d="m736.2 772.5c-.1.4-.2.8-.3 1.3-1.2 4.2-3.5 3.2-10.2 10.1-3.4 3.7-8.6 5.1-13.4 3.8-.8-.2-1.3-.9-1.2-1.7l.8-11.1.4-5.4s10.7 3 16.2-.8c.2-.1.4-.3.5-.4l.2-.1c1.9-1.5 4.6-1.3 6.2.6.8 1 1.1 2.4.8 3.7z" fill="#2ebf91"/><path d="m725.2 774.2.4 5.8c-6.2 6.1-13.5-3-15.6-6 5.6 2.8 15.2.2 15.2.2z" opacity=".1"/><path d="m761.3 776.5.8-.5c-5.6 8.5-14 4.6-16.6 3.1l.4-5.4s10.7 3 16.2-.8c-.4 2.1-.8 3.6-.8 3.6z" opacity=".1"/><path d="m749.2 675.3c.4 0 8.9.7 12 .1s-12-.1-12-.1z" opacity=".1"/><path d="m749.8 680.4s11.8 2.1 12.4 1-12.4-1-12.4-1z" opacity=".1"/><path d="m713.8 678.2s6.1.3 9.4 1.8-9.4-1.8-9.4-1.8z" opacity=".1"/><circle cx="747.3" cy="421" fill="#efb7b9" r="20.7"/><path d="m782.3 574.8c-1 .8-2.1 1.4-3.3 1.9-8.3 3.2-17.2 7.7-23.3 5.9s-19 0-19 0-26-2.2-31.2-.9c-1.8.5-3.6.6-5.4.1.2-2.2.4-3.5.4-3.5s77.3-12.5 80.4-9.7c.7.6 1.1 2.9 1.4 6.2z" opacity=".1"/><path d="m694 495.5s3.5 1.9 4 4.7-4-4.7-4-4.7z" opacity=".1"/><path d="m745.9 602.9s22 2.3 26.4-3c0 0-19.9 3.9-26.4 3z" opacity=".1"/><path d="m707.9 601.6s23.6 5.6 28.3 1.2c0 0-20.3 1.5-28.3-1.2z" opacity=".1"/><path d="m747.6 610.1s9.9 0 14.5.3-14.5-.3-14.5-.3z" opacity=".1"/><path d="m709.5 614.4s4.8 5.5 10.3 4.5-10.3-4.5-10.3-4.5z" opacity=".1"/><g opacity=".1"><path d="m702.6 450.4c.8-5.4.4-11-1.4-16.2-.9-2.6-2.3-5.2-3.3-7.8-.5.9-.9 2-1.1 3-1 5.3 2.5 10.4 4.4 15.6.7 1.8 1.2 3.6 1.4 5.4z"/><path d="m710.7 509.3c.4-5.9 0-11.8-1.2-17.6-.3-1.6-.9-3.4-2.7-4.3-1.3-.7-3.1-.6-4.6-1-1.9-.5-3.4-1.7-4.2-3.5-.3 1.4-.5 2.7-.7 4.1-.6 3.9.1 8.9 4.9 10.2 1.5.4 3.2.3 4.6 1 1.8.9 2.3 2.7 2.7 4.3.6 2.7.9 5.4 1.2 8.1-.1-.5-.1-.9 0-1.3z"/><path d="m761.8 507.1c-3.3 5.4-9.2 8.6-15.5 8.3-3.3-.2-7-1.2-9.6.3-1.7 1-2.3 2.9-3.7 4.2-3.3 3.1-9.7 2-14.6.7-1.8-.4-3.6-1.1-5.2-2.1-1.4-1-2.3-2.5-2.6-4.1 0 1.8 0 3.7-.1 5.5-.2 3.3-.5 7.1 2.7 9.4 1.6 1 3.3 1.7 5.2 2.1 4.9 1.3 11.3 2.4 14.6-.7 1.4-1.3 1.9-3.2 3.7-4.2 2.6-1.5 6.3-.5 9.6-.3 6.3.3 12.3-2.9 15.5-8.3 2.5-4.6 2.4-9.8 1.5-14.7-.2 1.3-.8 2.7-1.5 3.9z"/><path d="m773.2 419.3c-1.4 1-2.6 2.1-3.6 3.4-.8 1.4-1.1 3-.9 4.5.2 2 .6 3.9 1.2 5.8 1-1.1 2.1-2 3.3-2.9 5.9-5 7.3-12.1 5.4-18.8-1 3.1-2.8 5.9-5.4 8z"/><path d="m771.5 464.2c-3.2 2.4-7.8 3.8-9.8 6.9-.9 1.6-1.3 3.4-1.2 5.2.1 2.1.3 4.2.8 6.3.1-.2.2-.5.4-.7 2-3.1 6.7-4.5 9.8-6.9 5.4-4.2 5.9-10.8 4.3-16.6-.8 2.3-2.3 4.3-4.3 5.8z"/></g><path d="m812.5 466.4c-3.7 9.3-8.5 13-8.5 13h-2.7c1.4-3.7 4.3-11.3 5.4-13s-8.7-5.8-14.4-8c.9-.1 1.8-1.4 1.8-1.4s22.1.1 18.4 9.4z" opacity=".1"/><path d="m225 122.1h259.5v259.5h-259.5z" fill="#e8e9ed"/><path d="m370.4 30.7-2.6-2.7c-.1-.1-.3-.2-.4-.2-.2 0-.3.1-.4.2l-17.9 18-6.5-6.5c-.2-.2-.6-.2-.8 0l-2.6 2.6c-.2.2-.2.6 0 .8l8.2 8.2c.4.5 1.1.8 1.7.8.6-.1 1.3-.3 1.7-.8l19.6-19.7c.2-.1.2-.5 0-.7z" fill="#3acc6c" opacity=".5"/><path d="m354.8 13.5c14.6 0 26.4 11.8 26.4 26.4s-11.8 26.4-26.4 26.4-26.4-11.8-26.4-26.4c0-7 2.8-13.7 7.7-18.6 4.9-5 11.6-7.8 18.7-7.8m0-4.1c-16.9 0-30.5 13.7-30.5 30.5s13.7 30.5 30.5 30.5 30.5-13.7 30.5-30.5-13.7-30.5-30.5-30.5z" fill="#2ebf91" opacity=".5"/><path d="m250.9 168.2h96.5v10.7h-96.5z" opacity=".1"/><path d="m570.8 116-3.3-3.3c-.1-.1-.3-.2-.5-.2s-.4.1-.5.2l-22.5 22.7-8.2-8.2c-.1-.1-.3-.2-.5-.2s-.4.1-.5.2l-3.3 3.3c-.3.3-.3.7 0 1l10.3 10.3c.6.6 1.3 1 2.2 1.1.8-.1 1.6-.4 2.1-1l24.7-24.8c.2-.4.2-.8 0-1.1z" fill="#3acc6c" opacity=".8"/><path d="m551.1 94.4c18.4 0 33.2 14.9 33.2 33.3s-14.9 33.2-33.3 33.2-33.2-14.9-33.2-33.3c0-8.8 3.5-17.3 9.7-23.5 6.3-6.2 14.8-9.7 23.6-9.7m0-5.2c-21.2 0-38.4 17.2-38.4 38.4s17.2 38.4 38.4 38.4 38.4-17.2 38.4-38.4c.1-21.2-17.1-38.4-38.4-38.4z" fill="#2ebf91" opacity=".8"/><path d="m406.5 190.1h289.2v289.2h-289.2z" fill="#f3f5f7"/><path d="m443.9 251.9h96.5v10.7h-96.5z" opacity=".1"/><path d="m443.9 289.7h96.5v10.7h-96.5z" opacity=".1"/><path d="m754.3 155.4c24.3 0 43.9 19.7 43.9 44s-19.7 43.9-44 43.9-43.9-19.7-43.9-44c0-11.6 4.6-22.8 12.9-31 8.3-8.3 19.5-13 31.1-12.9m0-6.9c-28.1 0-50.8 22.7-50.8 50.8s22.7 50.8 50.8 50.8 50.8-22.7 50.8-50.8c0-28-22.7-50.8-50.8-50.8z" fill="#2ebf91"/><path d="m911.5 577c3.1 5.1 21.5 14.2 21.5 14.2s.2-20.5-3-25.6c-3.1-5.1-9.8-6.7-14.9-3.6s-6.8 9.9-3.6 15z" fill="#2ebf91"/><path d="m621.6 346.1h57.6v10.7h-57.6z" opacity=".1"/><path d="m621.6 418h85.3v10.7h-85.3z" opacity=".1"/><path d="m740.7 214.3 2.7-3.5c2.6 2.5 6.1 4 9.7 4 4.6 0 7.9-2.2 7.9-5.8 0-3.9-3.2-6.5-12.2-6.5v-4.1c8 0 11-2.6 11-6.1 0-3.1-2.7-5.1-6.7-5.1-3.1.1-6.1 1.3-8.4 3.4l-2.9-3.4c3.2-2.8 7.2-4.4 11.5-4.4 6.9 0 12 3.3 12 9.1 0 4.1-3 6.8-7.3 8.3v.2c4.6 1 8.5 4.1 8.5 8.9 0 6.3-6 10.1-13.1 10.1-6-.1-10.1-2.4-12.7-5.1z" fill="#2ebf91"/><path d="m572.2 282h357.5v357.5h-357.5z" fill="#2ebf91" opacity=".1"/><path d="m584.2 265h357.5v357.5h-357.5z" fill="#fff"/><path d="m621.6 304.6h282.6v10.7h-282.6z" fill="#2ebf91" opacity=".5"/><path d="m621.6 382.1h179.9v10.7h-179.9z" opacity=".1"/><path d="m621.6 454h174.6v10.7h-174.6z" opacity=".1"/><path d="m621.6 490h238v10.7h-238z" opacity=".1"/><path d="m852.5 383-1.2-1.3c-.1-.1-.1-.1-.2-.1s-.1 0-.2.1l-8.5 8.6-3.1-3.1c-.1 0-.1-.1-.2-.1s-.1 0-.2.1l-1.3 1.3c-.1.1-.1.3 0 .4l3.9 3.9c.2.2.5.4.8.4s.6-.2.8-.4l9.3-9.4c.2-.1.2-.3.1-.4z" fill="#3acc6c" opacity=".5"/><path d="m845.1 374.8c7 0 12.6 5.6 12.6 12.6s-5.6 12.6-12.6 12.6-12.6-5.6-12.6-12.6c0-3.3 1.3-6.6 3.7-8.9 2.3-2.4 5.5-3.7 8.9-3.7m0-1.9c-8 0-14.6 6.5-14.6 14.5s6.5 14.6 14.5 14.6 14.6-6.5 14.6-14.5c0-8.1-6.5-14.6-14.5-14.6z" fill="#3acc6c" opacity=".5"/><path d="m852.5 455-1.2-1.3c-.1-.1-.1-.1-.2-.1s-.1 0-.2.1l-8.5 8.6-3.1-3.1c-.1-.1-.1-.1-.2-.1s-.1 0-.2.1l-1.3 1.2c-.1.1-.1.3 0 .4l3.9 3.9c.2.2.5.4.8.4s.6-.2.8-.4l9.3-9.4c.2-.1.2-.2.1-.3z" fill="#3acc6c" opacity=".5"/><path d="m845.1 446.8c7 0 12.6 5.6 12.6 12.6s-5.6 12.6-12.6 12.6-12.6-5.6-12.6-12.6c0-3.3 1.3-6.6 3.7-8.9 2.3-2.4 5.5-3.7 8.9-3.7m0-2c-8 0-14.6 6.5-14.6 14.5s6.5 14.6 14.5 14.6 14.6-6.5 14.6-14.5c0-8.1-6.5-14.6-14.5-14.6z" fill="#3acc6c" opacity=".5"/><path d="m761.5 470.7s-3.3 13.4-.8 16.5.8-16.5.8-16.5z" fill="url(#D)" opacity=".1"/><path d="m699.6 459.7s3 5 1.2 10.1-1.2-10.1-1.2-10.1z" fill="url(#p)" opacity=".1"/><path d="m693 493s3.6 1.9 4 4.7-4-4.7-4-4.7z" fill="url(#r)" opacity=".1"/><path d="m747.5 608.7s10 0 14.7.3-14.7-.3-14.7-.3z" fill="url(#u)" opacity=".1"/><path d="m708.8 612.9s4.9 5.5 10.5 4.5-10.5-4.5-10.5-4.5z" fill="url(#v)" opacity=".1"/><path d="m813.5 463.7c-3.7 9.4-8.6 13.1-8.6 13.1h-2.7c1.4-3.7 4.4-11.4 5.5-13.2s-8.8-5.8-14.6-8.1c.9-.1 1.8-1.4 1.8-1.4s22.3.2 18.6 9.6z" fill="url(#D)" opacity=".1"/><path d="m959.5 94.4c18.4 0 33.3 14.8 33.3 33.2s-14.8 33.3-33.2 33.3-33.3-14.8-33.3-33.2c0-8.8 3.5-17.3 9.7-23.6 6.2-6.2 14.7-9.7 23.5-9.7m0-5.2c-21.2 0-38.4 17.2-38.4 38.4s17.2 38.4 38.4 38.4 38.4-17.2 38.4-38.4c.1-21.2-17.1-38.4-38.4-38.4z" fill="#2ebf91" opacity=".8"/><path d="m814.9 190.1h289.2v289.2h-289.2z" fill="#f3f5f7"/><path d="m877.9 251.9h96.5v10.7h-96.5z" opacity=".1"/><path d="m877.9 289.7h96.5v10.7h-96.5z" opacity=".1"/><path d="m962.7 122.1c0-1.9.2-4.4.3-6.3h-.3c-1.1 1.7-2.3 3.4-3.5 5.1l-8 10.3h21.2v4.1h-26.7v-3.5l16-21h5.9v33.4h-4.9z" fill="#2ebf91" opacity=".8"/><path d="m813.5 463.7c-3.7 9.4-8.6 13.1-8.6 13.1h-2.7c1.4-3.7 4.4-11.4 5.5-13.2s-8.8-5.8-14.6-8.1c.9-.1 1.8-1.4 1.8-1.4s22.3.2 18.6 9.6z" fill="url(#D)" opacity=".1"/><path d="m1027.5 122.1h259.5v259.5h-259.5z" fill="#e8e9ed"/><path d="m1157.2 13.5c14.6 0 26.4 11.8 26.4 26.4s-11.8 26.4-26.4 26.4-26.4-11.8-26.4-26.4c0-7 2.8-13.7 7.7-18.6 5-5 11.7-7.8 18.7-7.8m0-4.1c-16.9 0-30.5 13.7-30.5 30.5s13.7 30.5 30.5 30.5c16.9 0 30.5-13.7 30.5-30.5.1-16.8-13.6-30.5-30.5-30.5.1 0 .1 0 0 0z" fill="#2ebf91" opacity=".5"/><path d="m1074.2 168.2h96.5v10.7h-96.5z" opacity=".1"/><path d="m1146.8 50.5 1.8-2.5c1.7 1.7 4.1 2.7 6.6 2.7 3.2 0 5.8-1.9 5.8-5.1s-2.2-4.8-5.5-4.8c-1.7 0-3.3.5-4.7 1.4l-1.9-1.2.8-11.8h14v3.3h-10.7l-.6 6.5c1.3-.6 2.7-.9 4.1-.9 4.6 0 8.3 2.4 8.3 7.6s-4.4 8.3-9.1 8.3c-3.3 0-6.5-1.2-8.9-3.5z" fill="#2ebf91" opacity=".5"/><path d="m926.2 617s25.1-44.4 62.8-57.2c15.9-5.3 29.6-15.5 39.1-29.3 4.5-6.6 8.3-13.5 11.5-20.8" fill="none" stroke="#535461" stroke-miterlimit="10" stroke-width="2"/><g fill="#2ebf91"><path d="m1063.4 501.7c-4.3 4.2-24.3 8.5-24.3 8.5s4.9-19.9 9.2-24.1 11.2-4.1 15.3.2c4.2 4.3 4.1 11.2-.2 15.4z"/><path d="m1052.1 537.6c-5.9 1.2-25-6.1-25-6.1s14.9-14 20.8-15.2c5.9-1 11.5 2.9 12.6 8.8.9 5.8-2.8 11.3-8.4 12.5z"/><path d="m1010.8 576.6c-5.7-2-18.5-17.9-18.5-17.9s20-4.6 25.6-2.6c5.7 2 8.7 8.1 6.7 13.8-2 5.6-8.1 8.6-13.8 6.7z"/><path d="m973 599c-5.9-1-21.3-14.5-21.3-14.5s18.9-7.9 24.8-6.9c5.9.9 10 6.5 9.1 12.4s-6.5 10-12.4 9.1c-.1-.1-.1-.1-.2-.1z"/><path d="m1010.3 516c0 6 10.8 23.4 10.8 23.4s10.9-17.4 10.9-23.4-4.9-10.9-10.8-10.9-10.9 4.9-10.9 10.9z"/><path d="m966.4 542.8c1.8 5.7 17.3 19.1 17.3 19.1s5.2-19.8 3.4-25.5-7.9-8.9-13.6-7.1c-5.7 1.7-8.9 7.8-7.1 13.5z"/><path d="m927.3 574.7c.8 5.9 13.9 21.7 13.9 21.7s8.4-18.7 7.7-24.6c-.8-5.9-6.3-10.1-12.2-9.3s-10.2 6.3-9.4 12.2z"/></g><path d="m1063.4 501.7c-4.3 4.2-24.3 8.5-24.3 8.5s4.9-19.9 9.2-24.1 11.2-4.1 15.3.2c4.2 4.3 4.1 11.2-.2 15.4z" opacity=".25"/><path d="m1052.1 537.6c-5.9 1.2-25-6.1-25-6.1s14.9-14 20.8-15.2c5.9-1 11.5 2.9 12.6 8.8.9 5.8-2.8 11.3-8.4 12.5z" opacity=".25"/><path d="m1010.8 576.6c-5.7-2-18.5-17.9-18.5-17.9s20-4.6 25.6-2.6c5.7 2 8.7 8.1 6.7 13.8-2 5.6-8.1 8.6-13.8 6.7z" opacity=".25"/><path d="m973 599c-5.9-1-21.3-14.5-21.3-14.5s18.9-7.9 24.8-6.9c5.9.9 10 6.5 9.1 12.4s-6.5 10-12.4 9.1c-.1-.1-.1-.1-.2-.1z" opacity=".25"/><path d="m1010.3 516c0 6 10.8 23.4 10.8 23.4s10.9-17.4 10.9-23.4-4.9-10.9-10.8-10.9-10.9 4.9-10.9 10.9z" opacity=".25"/><path d="m966.4 542.8c1.8 5.7 17.3 19.1 17.3 19.1s5.2-19.8 3.4-25.5-7.9-8.9-13.6-7.1c-5.7 1.7-8.9 7.8-7.1 13.5z" opacity=".25"/><path d="m927.3 574.7c.8 5.9 13.9 21.7 13.9 21.7s8.4-18.7 7.7-24.6c-.8-5.9-6.3-10.1-12.2-9.3s-10.2 6.3-9.4 12.2z" opacity=".25"/><path d="m927.6 616.2s4.9-50.7 34.2-77.7c12.4-11.3 20.8-26.2 23.9-42.6 1.4-7.8 2.1-15.7 2.1-23.7" fill="none" stroke="#535461" stroke-miterlimit="10" stroke-width="2"/><g fill="#2ebf91"><path d="m1006.3 455.1c-2.2 5.6-18.8 17.6-18.8 17.6s-3.6-20.2-1.3-25.7c2.2-5.6 8.6-8.2 14.1-6s8.2 8.5 6 14.1z"/><path d="m1010.5 492.6c-4.9 3.5-25.3 4.6-25.3 4.6s8-18.9 12.9-22.3c5-3.3 11.7-1.9 15 3.1 3.1 4.7 2 11.1-2.6 14.6z"/><path d="m988.6 544.9c-6 .5-24.2-8.8-24.2-8.8s16.4-12.3 22.4-12.8c6-.6 11.3 3.7 11.9 9.7s-3.7 11.3-9.7 11.9c-.2 0-.3 0-.4 0z"/><path d="m963.1 580.7c-5.8 1.5-25.3-4.6-25.3-4.6s14.1-14.9 19.9-16.4c5.8-1.4 11.7 2.2 13.1 8 1.3 5.7-2.1 11.4-7.7 13z"/><path d="m963.6 489.7c2.4 5.5 19.4 17 19.4 17s2.9-20.3.5-25.8-8.8-8-14.3-5.5c-5.6 2.4-8 8.8-5.6 14.3z"/><path d="m934.3 532c4 4.5 23.6 10.4 23.6 10.4s-3.3-20.2-7.3-24.7-10.8-4.9-15.3-1-5 10.8-1 15.3z"/><path d="m911.5 577c3.1 5.1 21.5 14.2 21.5 14.2s.2-20.5-3-25.6c-3.1-5.1-9.8-6.7-14.9-3.6s-6.8 9.9-3.6 15z"/></g><path d="m813.5 463.7c-3.7 9.4-8.6 13.1-8.6 13.1h-2.7c1.4-3.7 4.4-11.4 5.5-13.2s-8.8-5.8-14.6-8.1c.9-.1 1.8-1.4 1.8-1.4s22.3.2 18.6 9.6z" fill="url(#D)" opacity=".1"/><path d="m691.6 527.2s1 18.8.5 22.1c0 0 2.2 15.2 4 19 1.6 3.1 3.5 6 5.7 8.7l5.3-37.2-1.3-12.8z" fill="#efb7b9"/><path d="m736.5 430.7s-6.5 12.6-12.9 18.6 38.8 12.7 39.9 12.7-8.1-26.9-6.5-30.2-20.5-1.1-20.5-1.1z" fill="#efb7b9"/><path d="m778.4 614.8c-4.3 10.8-8.6 46.9-9.2 51s-.4 21.3-.4 21.3l-1.1 42c-.1 5.3-4 18.5-4 18.5s-1.3 11-.7 14.7-1.8 13.2-1.8 13.2l.8-.5c-6.7 10.2-17.4 2.6-17.4 2.6s-2.6-12.4.1-15.5-.9-12.7-.9-12.7 1.3-49.7 1.8-52-1.6-9.3-3.5-15.1 1.1-28.7 1.8-32.9-.3-23.2-.9-27.1.8-20.2.8-20.2c-2.7-8.1-4.8-.8-4.8-.8l-2.2 21.1-2.3 43.4s.3 13.2-1.8 17-3.8 13.4-3.8 13.4l.9 49s-.1 10.2.5 14.1-1.5 14-1.5 14c-7.5 17.8-19.7-1.5-19.7-1.5s.5-3 1.6-3.4-.4-7.7-1.2-8.9.1-10 .1-10-1-8-2.4-17.5-1.1-46.5-.1-48.8 1.8-12.9 1.8-12.9-1.1-6.1.3-10.4-3.2-22.5-3.2-24.5-1.8-14.5-2.7-15.9c-.6-1.2-.9-2.5-.9-3.8 0 0-.1-2.7-2.4-10.8-1.7-5.9-.7-17.5 0-23.4.2-2.2.4-3.5.4-3.5s77.3-12.5 80.4-9.7c.7.7 1.2 3 1.5 6.2.9 11-.6 32-3.9 40.3z" fill="#444053"/><path d="m794.2 471s13 8.5 18 3.9 4.3-13.2 3.7-14.5-6-19-6-19l-10.3-26.1s-6.2-34.3-15.5-25.8 5 29.1 5 29.1 5.9 15 5.6 18 3.3 14 3.3 14z" fill="#efb7b9"/><path d="m788 562.8s-.7 9-9 12.2-17.2 7.7-23.3 5.9-19 0-19 0-26-2.2-31.2-.9-7.9-.4-6.3-2.7 1.4-10 1.4-13.3-1.8-16.3-.2-18.7 3-11.3 6.3-12.8c1-.4 1.7-1.3 2-2.3.3-1.1.3-2.2 0-3.3 0 0-.5-.5-1.3-1.1-1.9-1.7-5.1-4.8-4.1-5.9 1.4-1.4 0-10.8 0-10.8s-3.4-7.2-2.2-9.9-11-16.9-11-16.9 0-24.4 14.7-25.5c0 0 10.4.4 11.7-4.3s9.5-7.4 9.5-7.4l18.8 4.1s16.7 3.6 19.8 1.4 5.3 2.9 5.3 2.9 10.4.5 11.5 2.7c1.1 2.1-3.4 23.2-3.4 23.2s-7.5-.7-7 7.4-2.9 18.3-2.9 18.3-.5 5.9-.2 7.2-.7 5.7-.9 6.4v.1s-.7 3 .2 4.1c.1.1.2.2.3.2 1.4.7 3.6 7.7 3.6 7.7 1.1 1.4 1.7 3.1 1.6 4.8-.2 2.9.9 9.7 5.6 13.7s9.7 13.5 9.7 13.5z" fill="#8165ba"/><path d="m707.9 521.3v.8l-.3 8.4s-11 .9-17-.6-3.5-8.2-3.3-9.5 1.8-11.8 1.8-13.5 0-8.7-.3-11.9 1.3-12.2 1.3-12.2l1.2-1.4 12.7 4.6z" fill="#8165ba"/><path d="m812.5 466.4c-3.7 9.3-8.5 13-8.5 13h-2.7l-23.3.2-2.7-7.4 3.8-15.9 2.3.1c1.4.7 2.9 1.2 4.5 1.4 1.7 0 5-.1 6 .4.1.1.3.1.4.1.9-.1 1.8-1.4 1.8-1.4s22.1.2 18.4 9.5z" fill="#8165ba"/><path d="m707.9 522-.3 8.4s-11 .9-17-.6-3.5-8.2-3.3-9.5z" opacity=".1"/><path d="m708.7 530.4c.3-1.1.3-2.2 0-3.3 0 0-.5-.5-1.3-1.1 9.5-1.3 47.2-6.5 59.9-7v.1s-.7 3 .2 4.1z" opacity=".1"/><path d="m768.6 536.9s2.3 13.2-6.4 17.9c0 0 5-6.6 6.4-17.9z" opacity=".1"/><path d="m711.6 555.1s21-3.6 25.1-.8-25.1.8-25.1.8z" opacity=".1"/><path d="m761.3 473.3s-3.2 13.3-.8 16.3.8-16.3.8-16.3z" opacity=".1"/><path d="m700.4 462.5s3 4.9 1.2 10-1.2-10-1.2-10z" opacity=".1"/><path d="m694.3 505.7s3.8 2.3 2.5 5.8-2.5-5.8-2.5-5.8z" fill="#8165ba"/><path d="m719 390.1c-1.5 2.4-1.6 5.1-2 7.7-1.1 6.4-4.1 12.3-8.6 17-4.3 4.6-10.2 8.7-11.3 14.3-1 5.3 2.5 10.4 4.4 15.6 5 13.6-2 27.9-4 42-.6 3.9.1 8.9 4.9 10.2 1.5.4 3.2.3 4.6 1 1.8.9 2.3 2.7 2.7 4.3 1.2 5.8 1.6 11.7 1.2 17.6-.2 3.3-.5 7.1 2.7 9.4 1.6 1 3.3 1.7 5.2 2.1 4.9 1.3 11.3 2.4 14.6-.7 1.4-1.3 1.9-3.1 3.7-4.2 2.6-1.5 6.3-.5 9.6-.3 6.3.3 12.3-2.9 15.5-8.3 2.7-4.8 2.4-10.2 1.4-15.3s-2.7-10.2-2.8-15.4c-.2-1.8.2-3.6 1.2-5.2 2-3.1 6.7-4.5 9.8-6.9 6-4.6 5.9-12 3.8-18.3s-6.1-12.2-6.5-18.7c-.2-1.6.1-3.2.9-4.5 1.1-1.3 2.3-2.4 3.7-3.3 8.7-7.4 7.7-19.4.5-27.7-8.2-9.6-44.3-29.3-55.2-12.4z" fill="#e3787d"/></svg>