<svg id="fc836297-f37e-43a2-86b4-5406f4a63596" xmlns="http://www.w3.org/2000/svg" viewBox="1124.7 406.5 229.7 331"><style>.st3{fill:#9d9cb5}.st4{fill:#2ebf91}.st5{fill:none;stroke:#535461;stroke-width:2;stroke-miterlimit:10}</style><ellipse cx="1257" cy="721.8" rx="97.4" ry="15.7" opacity=".1" fill="#2ebf91"/><path fill="#535461" d="M1253.8 422h6.3v141.2h-6.3z"/><path d="M1299.5 562.8l-.4 6.4-.6 9-.2 3.7-.6 9-.2 3.7-.6 9-6.3 102.1c-.6 9.1-8.1 16.2-17.3 16.2h-32.9c-9.1 0-16.7-7.1-17.2-16.2l-6.3-102.1-.5-9-.2-3.7-.6-9-.2-3.7-.6-9-.4-6.4c-.3-5 3.5-9.2 8.5-9.5h67.7c5 0 9 4.1 8.9 9.1v.4z" fill="#565661"/><path class="st3" d="M1299.1 569.1l-.5 9h-83.2l-.6-9zM1298.3 581.8l-.5 9h-81.6l-.6-9zM1297.5 594.5l-.5 9h-80l-.6-9z"/><path class="st4" d="M1205.2 474.9c36.5 26.4 51.7 67.7 51.7 67.7s-44-1.5-80.5-27.9-51.7-67.7-51.7-67.7 44 1.5 80.5 27.9z"/><path class="st5" d="M1124.7 447s45.7 25.4 60.3 46.3c14.7 21 71.9 49.3 71.9 49.3"/><path class="st4" d="M1228.8 421.7c19.9 14.4 28.2 36.9 28.2 36.9s-24-.8-43.8-15.2c-19.8-14.4-28.1-36.9-28.1-36.9s23.8.8 43.7 15.2z"/><path class="st5" d="M1185 406.5s24.9 13.8 32.8 25.2c8 11.4 39.1 26.9 39.1 26.9"/><path class="st4" d="M1285.9 457.4c-22.8 25.1-27.7 57.9-27.7 57.9s32.2-7.9 55-33 27.7-57.9 27.7-57.9-32.2 7.9-55 33z"/><path class="st5" d="M1340.9 424.4s-29.7 25.7-37.3 43.4c-7.6 17.7-45.4 47.4-45.4 47.4"/></svg>