<svg xmlns="http://www.w3.org/2000/svg" xmlns:xlink="http://www.w3.org/1999/xlink"><linearGradient id="a" gradientUnits="userSpaceOnUse" x1="879.1845" x2="879.1845" y1="772.9902" y2="204.59"><stop offset="0" stop-color="#808080" stop-opacity=".25"/><stop offset=".54" stop-color="#808080" stop-opacity=".12"/><stop offset="1" stop-color="#808080" stop-opacity=".1"/></linearGradient><path d="m485.8 46.1c30.8-27.4 79.1-33 123.1-30.8 138.2 6.9 262.9 73.6 370.7 149 39 27.3 77.5 56.7 102.9 94.4 51.6 76.6 36.3 182.6-35.5 245.7-24.4 21.5-54 37.9-84.4 52.5-54 25.9-112.3 46.7-173.6 52.7-43.7 4.2-88 .8-131.5-5.1-121.4-16.6-240.6-53.1-340.5-115.4-43.8-27.3-85.2-61.3-103.2-105.5s-6.5-100.2 38.2-126.4c18.5-10.8 40.6-15.7 62.3-20.3 31.9-6.8 64.3-13.4 93.1-27.1 29.7-14.2 64.9-41.6 59-73-6.3-33.7-11.4-63.3 19.4-90.7z" fill="#2ebf91" opacity=".1"/><ellipse cx="559.2" cy="776.5" fill="#2ebf91" opacity=".1" rx="148.7" ry="26.3"/><path d="m902.9 525.2s13.4-2 18.4.2z" opacity=".1"/><path d="m1032.6 439.3-4.4-39.5s-7.9-35.6-9.1-53.4-9.7-19.1-9.8-19.1-10.6-6.2-11.5-8.2c-.7-1.6-6.6-4.9-9.3-6.4l-1.3-.7s-3.3-13.8-7.2-11.8l-.3-.9c-1-3-1.7-6-1.8-9.2 0-.4 0-.8 0-1.1 4.3-4.2 7.4-9.5 9-15.3.5-2 .9-4.1 1-6.3 0-.4 0-.8 0-1.2 1.9-1.4 2.3-4.2 2.8-6.6.9-4.4 3.4-8.3 4.6-12.6.1-.4.2-.8.3-1.1 0-.1 0-.2 0-.3.1-.8.2-1.6.2-2.4 0-.1 0-.1 0-.2 0-3.3-1-6.5-3.7-8.2-.6-.3-1.2-.7-1.7-1.2-.4-.5-.7-1-.9-1.6l-2-4.8c-.2-.6-.6-1.2-1-1.7-.8-.6-1.7-1-2.7-1.3-3-1.1-5-3.9-6.5-6.7s-2.8-5.8-5.1-8c-3.7-3.6-9.2-4.3-14.4-4.9-.4 1.6-.5 3.3-.4 4.9-8.1-1.8-17-3.5-24.5.1-1.3.6-2.4 1.6-3 2.9 0 .2-.1.3-.1.5v.6c.1.4.1.9.1 1.3-.2.6-.6 1.1-1.3 1.3-2.5 1.1-5.4-.3-8 .6-2.3.8-3.7 3.3-4.4 5.6s-1.2 4.9-2.8 6.8c-.8 1-1.8 1.7-2.7 2.6-1.5 1.7-2.2 4.1-1.9 6.4v.2c0 .3.1.6.2.9s.2.7.4 1c.1.3.3.6.5.9 1.1 1.9 2.8 3.5 3.2 5.7v.1c.5 2.8-1.3 5.4-1.7 8.1 0 .2-.1.4-.1.6v.1.7c.2 4 3.8 6.6 6 9.6.6.8 1.7 3.1 2.8 3.9.1.4.1.9.2 1.3.6 3.2 1.7 6.4 3.3 9.3 3.8 7.1 10 12.7 17.5 15.6 0 .4.1.8.1 1.2 0 .7.1 1.5.1 2.2v1.1l-.3-2.5c-1.2-.3-2.5-.3-3.8 0-53.5-50.4-124.2-78.5-197.8-78.6v138.1c-8.3-2.5-15-2.8-14.5 3.1.5 6 7 12.1 14.5 17.1v131.1h144.4c.2 3.3.5 6.3 1 7.1 1.5 1.9 1.4 24.4 1.4 24.4s.8 4.1 1 4.9 2.5 19.9 2.5 20.8 2.1 7.5 1.9 10.1 3.4 11.2 3.4 11.2l.6 15.7s5.8 8.8 6.2 9.4.2 11.6 6.6 16.9c1 1 1.7 2.2 2.1 3.5.5 1.9 16.6 28.9 21.6 37.3l-.6 2.8-4 18.7-.2 7.9s-2.5 6.7-1.7 9.5c.5 1.5.6 3 .4 4.5 0 0-2.6 4.1-.9 6.7s.8 4.1-1.7 10.9c-1.1 3-.2 4.8 1.2 5.9 0 .3-.1.7-.1 1-.3 3-.7 6.4-.7 7.3s-.3 5-.4 8.6c0 2.8.2 5.4.9 5.8 1.7.9 11.1 2 11.3 5.2s3.8 7.9 11.3 7.9 20.6-2.6 23.8-2.3c.5.1.8-.3 1-.9 0-.1.1-.2.1-.3 1.1 1.3 2.7 2.1 4.4 2.3 11.3 2.1 25.1-3 27.7-8 .3-.6.6-1.3.8-2 1.3-5-.8-11.3-.8-11.3-.6-2.5-.7-5.2-.2-7.7.2-1.2.8-2.2 1.6-3.1 1.8-1.9 3.6-7.1 4.7-11.3.9-3.3 1.5-5.9 1.5-5.9s-1.2-1.8-3-4.3c-3.6-5.1-9.8-13-13.6-14.3-.2-.4-.3-.8-.4-1.2-.2-1.9-4.2-8-4.2-8s-5.5-8.8-5.5-9.5-7.5-12.2-7.5-12.2-2.9-6.3-4.8-9.7c.2-.6.4-1.4.7-2.3 2-7.9 4-25.9 3.6-28.3-.6-3-1-6.2 1.9-10.5s2.7-11.2 2.7-11.2-.2-21.2 1.9-25.5 7.9-38.8 7.7-39.5c-.2-.8 1.5-5.5 1.5-5.5l.3-13.6v-1s1.3-11.8 3-14.4c.4-.8.5-1.7.5-2.6h31.1c0-1.9-.1-3.8-.1-5.6h.1c-.1-13.1-1.1-26.2-3-39.2 2.9-3.5 6.4-6 6.6-6.8.5-2.3 1.2-4.6 2.1-6.8 1-3.7-.5-11.2-.5-11.2zm-62.8 293.1s.8-.5 2.1-1.2c.1.3.2.7.2 1 .8 3.6 1.8 8.6 1.6 11-.4 3.9-1 10.1-1 10.1-1.1 2.2-1.9 4.6-2.4 7-.6-2.5-1.2-4.4-1.2-4.4s-12.8-8.6-12.8-12.9c-.1-2.2-.4-4.3-.9-6.4-.1-.5-.2-1.1-.3-1.6.6.7 1 1.4 1.4 2.2 0 0 3.8-9.3 4.8-13 .2-.5.2-.9.2-1.4-.3-1.3-.4-2.6-.2-3.8.9 1 1.6 2 1.4 2.7-.7 1.7 7.1 10.7 7.1 10.7z" fill="url(#a)"/><path d="m970.8 771.7c-3.2-.4-16 2.2-23.5 2.2s-11-4.6-11.2-7.8-9.5-4.3-11.2-5.2c-.7-.4-.9-3-.9-5.8 0-3.6.4-7.6.4-8.5s.4-4.3.7-7.3c.3-2.6.6-4.8.6-4.8 8.8-10.6 28.7-2.8 28.7-2.8s.8 3 1.5 6.3c.5 2.1.8 4.2.9 6.4 0 4.3 12.7 12.8 12.7 12.8.9 2.9 1.6 5.9 2.1 8.8.5 3.1.6 5.8-.8 5.7z" fill="#53517c"/><path d="m970.8 771.6c-3.2-.4-16 2.2-23.5 2.2s-11-4.7-11.2-7.8-9.5-4.3-11.2-5.2c-.7-.4-.9-3-.9-5.8 3.6 1.1 8.5 2.8 10.2 4.7 2.8 3 3.5 6.3 5.4 6.7s3.7 3 12.7.7c5.6-1.4 13.8-1.4 19.2-1.2.6 3.2.7 5.9-.7 5.7z" opacity=".1"/><path d="m1004.9 740.8c-3.2 3.3-1.3 10.8-1.3 10.8s2.6 8.2 0 13.2-16.2 10-27.4 8c-2.2-.2-4.1-1.5-5.1-3.5-2.7-5.4 1.9-14.8 1.9-14.8s.6-6.1.9-10c.2-2.4-.8-7.3-1.6-11-.5-2.4-1-4.1-1-4.1s17-24.4 22.2-24.6c.2 0 .5 0 .7.1 3.7.9 10.1 9.2 13.8 14.4 1.8 2.5 3 4.3 3 4.3s-2.9 13.8-6.1 17.2z" fill="#53517c"/><path d="m1004.9 740.8c-3.2 3.3-1.3 10.8-1.3 10.8s2.6 8.2 0 13.2-16.2 10.1-27.4 8c-2.2-.2-4.1-1.5-5.1-3.5 3.2-.7 8.3-1.5 16.3-2.5 19.2-2.2 14.1-14.9 14.1-14.9s-2.2-8.9.6-13.4c2-3.2 4.6-13.5 6-19.2 1.8 2.5 2.9 4.3 2.9 4.3s-2.9 13.8-6.1 17.2z" opacity=".1"/><path d="m956 737.9c-2.7-3.7-10.6-10.7-26.5 3.1-1.6-.2-3-.8-4.3-1.7.3-2.6.6-4.8.6-4.8 8.8-10.6 28.7-2.8 28.7-2.8s.8 2.9 1.5 6.2z" opacity=".1"/><path d="m992.6 528.3v.8l-.4 13.5s-1.7 4.7-1.5 5.4-5.6 35-7.6 39.3-1.9 25.3-1.9 25.3.2 6.9-2.6 11.2-2.4 7.5-1.8 10.5c.5 2.4-1.5 20.3-3.5 28.1-.2 1.2-.7 2.4-1.3 3.5-.2.3-.4.5-.5.9-2.7 6.9-9.6 49.6-9.6 49.6s-.1.8-.1 1.9c-.1 2.1-.2 5.2.1 5.9.1.5 0 1-.2 1.4-.9 3.7-4.7 12.9-4.7 12.9s-7.3-16.2-27.6 1.3c0 0-7.8-.8-5.4-7.5s3.3-8.2 1.7-10.8.9-6.7.9-6.7c.2-1.5.1-3-.4-4.5-.8-2.8 1.7-9.5 1.7-9.5l.2-7.8 3.9-18.6 1.2-5.6 1.2-5.8 6.5-112.9.3-4.2 1.8-31.7 43.9-7.3 1.5 11.5 2.4 5.7z" fill="#b3d7f7"/><path d="m971.8 526.6-26.9 17.7 1 15.5s2.8 25 2.8 27.5-1.3 23.8-1.3 23.8 6.7 10 6 12.5 5.8 9.3 5.8 9.3l11.1 21.2s1.9 6.9 3 8.2c-.2 1.2-.7 2.4-1.3 3.5-2.2 2.2-10 50.5-10 50.5s-.1.8-.1 1.9c-.6-.5-1-.8-1-.8s-5.4-8.9-5.4-9.9-5.8-8.4-5.8-8.4l-13.2-25.1-3.1-5.2 1.2-5.8 8.6-148.7 43.9-7.3 1.5 11.5-40 10.2z" opacity=".1"/><path d="m990.4 528.3-49.1 17.8 1.8-31.7 43.9-7.3 1.5 11.5 2.4 5.7c-.3 2.3-.5 4-.5 4z" opacity=".1"/><path d="m961.9 724.2c.1.5 0 1-.2 1.4-.7-1.2-1.1-2.1-1-2.5.6-1.7-4.5-5.6-4.5-5.6s-5.4-8.9-5.4-9.9-5.8-8.4-5.8-8.4l-13-24.7 1.2-5.6 1.2-5.8 6.5-112.8.4 9.5s2.8 24.9 2.8 27.5-1.3 23.8-1.3 23.8 6.7 10 6 12.5 5.8 9.3 5.8 9.3l11.2 21.2s2 7.6 3.2 8.4c1 1.3 1.9 2.7 2.5 4.2-2.7 6.9-9.6 49.6-9.6 49.6s-.1.8-.1 1.9c-.2 2.2-.3 5.3.1 6z" opacity=".1"/><path d="m999.5 713.9s-8.4 15.1-14.7 15.5c-4.3.3-9.5 2.6-12.4 4.1-.5-2.4-1-4.1-1-4.1s17-24.4 22.2-24.6c.2 0 .5 0 .7.1v.1c.2 1.9 5.2 8.9 5.2 8.9z" opacity=".1"/><path d="m999.5 712.8s-8.4 15.1-14.7 15.5-14.7 5.4-14.7 5.4-7.6-8.9-7.1-10.6-4.5-5.6-4.5-5.6-5.4-8.9-5.4-9.9-5.8-8.4-5.8-8.4l-13.2-25.1s-22.2-37.3-22.7-39.5c-.3-1.3-1.1-2.6-2.1-3.5-6.3-5.2-6.1-16.2-6.5-16.8l-6.1-9.3-.6-15.6s-3.5-8.6-3.3-11.2-1.9-9.1-1.9-10.1-2.2-19.9-2.4-20.7-.9-4.8-.9-4.8.2-22.3-1.3-24.2c-.8-1-1.1-6.3-1.1-10.8-.1-3.8 0-7.2 0-7.2l109.7-11.4s.7 6.3 1.1 12.5c.3 5.6.5 11.2-.3 12.4-1.7 2.6-3 14.3-3 14.3l-49.5 17.9.5 13.6s2.8 25 2.8 27.5-1.3 23.8-1.3 23.8 6.7 10 6 12.5 5.8 9.3 5.8 9.3l11.2 21.2s2.1 7.6 3.2 8.4 6.2 11.8 6.2 11.8 7.4 11.4 7.4 12.1 5.4 9.5 5.4 9.5 3.9 6.1 4.1 8 5 9 5 9z" fill="#b3d7f7"/><path d="m932.5 619s9.1 10.4 13.8 10.6-13.8-10.6-13.8-10.6z" opacity=".1"/><path d="m967.3 721.4s27.6-14.2 24-7.6c-3.5 6.5-13.6 10-13.6 10z" opacity=".1"/><path d="m931.3 718.2s16.9 1.1 19.2 3.9c0 0-18-3.7-19.2-3.9z" opacity=".1"/><path d="m931.5 724s15.5.6 20.5 2.8c0 0-16.4-.6-20.5-2.8z" opacity=".1"/><path d="m779.2 399.3-4.9-2.2-7.8-3.5s-36.9-14.7-38-29.4 43 9.7 43 9.7c1.2 1.9 2.6 3.8 4.1 5.5 1.4 1.6 3 2.9 4.3 3.1 3.4.2-.7 16.8-.7 16.8z" fill="#c37871"/><path d="m984.2 319.6-12.1 14-29.4-9.7-7.3-5.8 4.6-6.1c1.6-2.1 2.1-5.3 2-8.6 0-.7 0-1.5-.1-2.2-.3-3.7-1-7.4-2.1-10.9 0 0 41.9-10.6 38.9-1.9-.6 1.8-.8 3.7-.7 5.6.2 3.1.8 6.2 1.8 9.1.9 2.6 1.9 5.1 3.2 7.6z" fill="#c37871"/><path d="m978.8 288.3c-.6 1.8-.8 3.7-.7 5.6-9.5 9.4-23.7 12.2-36.1 7.2-.3-3.7-1-7.4-2.1-10.9 0 0 41.9-10.6 38.9-1.9z" opacity=".1"/><path d="m988.1 269c0 .8 0 1.6-.1 2.4-1.3 18.5-17.3 32.4-35.8 31-11.6-.8-21.9-7.6-27.3-17.9-1.5-2.9-2.6-6-3.2-9.2-.4-2.1-.6-4.2-.6-6.3 0-1.8.2-3.7.5-5.5 3-18.3 20.3-30.6 38.5-27.6 15.7 2.6 27.5 16 28 31.9z" fill="#c37871"/><path d="m984.2 319.6-12.1 14-29.4-9.7-7.3-5.8 4.6-6.1c1.6-2.1 2.1-5.3 2-8.6l1.3 10.3.3.3 1.9 1.9h2.4l4.7 6.3s6.7-5.4 7.3-4.1 9.7-2.2 9.7-2.2h.3c8.3-.4 9.7-12.6 9.7-12.6s.1-.1.2-.1c.9 2.6 1.9 5.1 3.2 7.6z" opacity=".1"/><path d="m995.9 501.5c-.2.8-.4 1.6-.7 2.4-7.3 23.1-59.6 23.6-59.6 23.6l-1.5-14.3-5 9.7s-32.4-8.9-44-15.3c-.1-3.8 0-7.2 0-7.2l109.7-11.4s.7 6.3 1.1 12.5z" opacity=".1"/><path d="m779.2 399.3-4.9-2.2c1.1-5.3 1.3-15.9 1.4-17.8 1.4 1.6 3 2.9 4.3 3.1 3.3.3-.8 16.9-.8 16.9z" opacity=".1"/><path d="m994.3 449.2s8.2 29.4.9 52.5-59.6 23.6-59.6 23.6l-1.5-14.3-5 9.7s-39.1-10.8-46.7-17.1-3.7-15.8-3.7-15.8 2.6-12.3 4.8-14.9 2.6-11.7 1.9-13 2.6-13.6 3.7-15.5-.2-51.6-.2-51.6-16.6 7.4-17.5 9.7-20.5 13-20.5 13-18.4 2.2-21.8 2.2-21.8-2.2-21.8-2.2-5-.2-6.5-1.3c-1.5-.9-3.1-1.6-4.8-2 0 0-5.2-1.1-6.7-3.2s-14-8.9-14-8.9c2.4-1.5 2.6-21 2.6-21l23.6 5.8s1.5-3.2 3.7-1.9 15.8 2.4 15.8 2.4 11.4-2.2 11.9-1.3 2.2.8 2.2.8 2.2-.2 2.2-.9 2 .2 2 .2l3.7.6s-.6-4.8 1.1-5.2c1-.2 1.7-1.1 1.9-2 0 0 5-6.7 7.5-6.7s4.1-6.7 4.1-6.7l8.9-9.1s-1.1-4.7 0-4.9 1.3-2.2 1.3-2.2.4-4.1 2.4-5 3.2-6.3 3.2-6.3 9.5-10.6 10.2-14.3 4.7-4.5 4.7-4.5c2.1-1.4 4.4-2.4 6.9-3 3.2-.6 11.5-1.5 11.5-1.5s15.3-1.3 16.8-3 4.1-1.5 5.8-1.5c.4 0 .7-.2 1-.4 1.5-.9 3.3-3.6 5.1-5.2 2.2-2 6.1-1.1 6.1-1.1l1.7 12.9.3.3 1.9 1.9h2.4l4.7 6.3s6.7-5.4 7.3-4.1 9.7-2.2 9.7-2.2h.3c8.3-.4 9.7-12.6 9.7-12.6 4.1-3.5 7.6 11.4 7.6 11.4l1.3.7c2.6 1.5 8.4 4.8 9.1 6.4.9 2 11.4 8.2 11.4 8.2z" fill="#53517c"/><path d="m999.1 493.9-5.5 4.4-6.2 5s-11.5 27-27.4 19.4 21.2-35.9 21.2-35.9l5.1-2.5 5.7-2.7z" fill="#c37871"/><path d="m942.6 317.3c-5.8 2.4-13 8.1-13 8.1l-.3-14.9c1.5-1 3.3-3.6 5.1-5.2 2.2-2 6.1-1.1 6.1-1.1l1.7 12.8z" opacity=".1"/><path d="m943.8 315.1c-5.8 2.4-13 8.1-13 8.1l-.2-14.9c1.5-.9 3.3-3.6 5.1-5.2 2.2-2 6.1-1.1 6.1-1.1l1.7 12.9z" fill="#e6eaed"/><path d="m988.7 319.8c-2.9 7.7-6.4 16.1-7.1 12.9-.8-3.9-7.5-9.3-11.6-12.3 8.3-.3 9.7-12.6 9.7-12.6 4.1-3.5 7.6 11.4 7.6 11.4z" opacity=".1"/><path d="m988.7 316.4c-2.9 7.7-6.4 16.1-7.1 12.9-.8-3.9-7.5-9.3-11.6-12.3 8.3-.4 9.7-12.6 9.7-12.6 4.1-3.5 7.6 11.4 7.6 11.4z" fill="#e6eaed"/><path d="m950.7 610.4s21.2-3 20.3 1.5-20.3-1.5-20.3-1.5z" opacity=".1"/><path d="m916.4 537.3s8.4-4.5 15.8-2.6z" opacity=".1"/><path d="m902.9 525.2s13.4-2 18.4.2z" opacity=".1"/><path d="m961.5 555.9s-11.7 12.5-11 15.8z" opacity=".1"/><path d="m847 388.5s-1.9 6.7 9.5 9.5z" opacity=".1"/><path d="m843.7 400s14 12.5 7.5 12.9-7.5-12.9-7.5-12.9z" opacity=".1"/><path d="m874.8 350s17.1 11.9 16 14.7-16-14.7-16-14.7z" opacity=".1"/><path d="m999.1 493.9-5.5 4.4c-1.2-3.9-3.5-10.5-7.3-14l5.7-2.7z" opacity=".1"/><path d="m1001.7 335.6 7.4-4.6s8.6 1.3 9.7 19 8.9 53.1 8.9 53.1l4.3 39.3s1.5 7.5.2 11.2c-.9 2.2-1.5 4.4-2 6.7-.2 1.3-10.4 7.6-10.2 15.8s-13 15.8-13 15.8-8.6 5-11.4 8.6c0 0-3.2-14.9-10-18.6-6.9-3.7 14.5-33.3 14.5-33.3z" fill="#53517c"/><path d="m988.8 449s-22.3 9.3-20.5 12.3 20.5-12.3 20.5-12.3z" opacity=".1"/><path d="m988.8 460.9s-9.3 4.1-8.5 5.4 8.5-5.4 8.5-5.4z" opacity=".1"/><path d="m983.6 468.7s-9.3 4.1-8.5 5.4 8.5-5.4 8.5-5.4z" opacity=".1"/><path d="m742.9 229.4v282h283.8c-1.3-155.8-127.8-281.7-283.8-282z" fill="#8165ba"/><path d="m742.9 229.4v282h283.8c-1.3-155.8-127.8-281.7-283.8-282z" opacity=".1"/><path d="m742.9 223.8v282h283.8c-1.3-155.8-127.8-281.7-283.8-282z" fill="#8165ba"/><path d="m961.6 513.7c0-1.5.4-3.1 1.3-4.3.9-.9 2-1.5 3.2-1.8 1.1-.3 2.1-.7 3.2-1 .8-.3 1.7-.4 2.6-.4 1.8.1 3.3 1.2 4.8 2.2.3.2.5.4.7.7.3.7-.4 1.5-1 2-2.2 2-4.6 3.7-7.1 5.2-1.8 1-4.1 2.1-6.2 2.2-2.7.1-1.7-2.9-1.5-4.8z" fill="#c37871"/><path d="m988.1 269c0 .8 0 1.6-.1 2.4-.1.1-.3.2-.4.3-.6.2-1.1.4-1.7.7-1.6 1.1-1.3 3.5-1.1 5.5.2 2.8-.4 5.7-1.7 8.2-1.3-.1-2.4-1.1-2.6-2.4s-.2-2.6-.2-3.8c-.2-3.4-2-6.5-3.2-9.7-2.2-6.2-1.7-13-3.2-19.4-.4-1.9-1.1-3.9-2.7-5-2.1-1.5-5.1-.8-7.3.4s-4.3 2.9-6.8 3.7c-3.8 1.1-7.9-.2-11.7-1.4s-8.1-2.2-11.6-.4c-3.7 1.9-5.4 6.3-6.5 10.3-.4 1.1-.6 2.3-.5 3.4.1 1 .5 2 .4 3.1 0 2.2-1.9 4-2.7 6.1-.5 1.3-.3 4.5-2.3 4.5-.2 0-.4-.1-.6-.2-.4-2.1-.6-4.2-.6-6.3 0-1.8.2-3.7.5-5.5 3-18.3 20.3-30.6 38.5-27.6 15.7 2.6 27.5 16 28 31.9.1.4.1.8.1 1.2z" opacity=".1"/><path d="m912.8 260.6c-.1-3.2 2.3-6.3 1.8-9.4-.4-2.5-2.6-4.3-3.7-6.6-1.2-2.8-.7-6.1 1.3-8.4.8-.9 1.8-1.6 2.6-2.6 1.6-1.9 2-4.4 2.8-6.8s2-4.8 4.3-5.6c2.5-.9 5.5.5 7.9-.6.6-.2 1.1-.7 1.2-1.3 0-.4 0-.9-.1-1.3-.2-1.8 1.5-3.2 3.1-3.9 7.4-3.6 16.1-1.9 24.2-.1-.1-1.6 0-3.3.3-4.9 5.1.6 10.5 1.3 14.2 4.8 2.3 2.2 3.5 5.2 5 7.9s3.5 5.5 6.4 6.7c1 .2 1.9.7 2.6 1.3.4.5.8 1.1 1 1.7l1.9 4.7c.2.6.5 1.1.9 1.6.5.5 1.1.9 1.7 1.2 3.7 2.4 4.3 7.8 3.1 12.1s-3.6 8.2-4.5 12.5c-.5 2.6-.8 5.7-3.2 6.9-.6.2-1.1.5-1.7.7-1.6 1.1-1.3 3.5-1.1 5.5.2 2.8-.4 5.7-1.7 8.2-1.3-.1-2.4-1.1-2.6-2.4s-.2-2.6-.2-3.8c-.2-3.4-2-6.5-3.2-9.7-2.2-6.2-1.7-13-3.2-19.4-.4-1.9-1.2-3.9-2.8-5-2.1-1.5-5.1-.8-7.3.4s-4.3 2.9-6.8 3.7c-3.8 1.1-7.9-.2-11.7-1.4s-8.1-2.2-11.6-.4c-3.7 1.9-5.4 6.3-6.5 10.3-.4 1.1-.6 2.3-.5 3.4.1 1 .5 2.1.4 3.1 0 2.3-1.9 4-2.7 6.1-.5 1.3-.3 4.5-2.3 4.5-1.4 0-2.9-3.3-3.6-4.2-2-2.9-5.6-5.5-5.7-9.5z" fill="#4b3e3c"/><g opacity=".1"><path d="m914.5 248.9c-.4-2.5-2.6-4.3-3.7-6.6-.3-.7-.5-1.3-.6-2.1-.2 1.5 0 2.9.6 4.3 1 2.3 3.2 4.1 3.6 6.5.2-.6.3-1.4.1-2.1z"/><path d="m931 217.1c0-.1 0-.1 0-.2-.1.2-.1.3-.1.5 0-.1.1-.2.1-.3z"/><path d="m958.1 211.7c0-.1 0-.2 0-.2z"/><path d="m995.3 248.8c-1.2 4.3-3.6 8.2-4.5 12.5-.5 2.6-.8 5.7-3.2 6.9-.6.2-1.1.5-1.7.7-1.3.9-1.3 2.7-1.2 4.5 0-.9.5-1.7 1.2-2.2.5-.3 1.1-.5 1.7-.7 2.4-1.2 2.7-4.3 3.2-6.9.9-4.4 3.3-8.3 4.5-12.5.5-1.7.6-3.4.5-5.2-.1 1-.2 2-.5 2.9z"/><path d="m983.1 282.7c-1.3-.1-2.4-1.1-2.6-2.4s-.2-2.6-.2-3.8c-.2-3.4-2-6.5-3.2-9.7-2.2-6.2-1.7-13-3.2-19.4-.4-1.9-1.2-3.9-2.8-5-2.1-1.5-5.1-.8-7.3.4s-4.3 2.9-6.8 3.7c-3.8 1.1-7.9-.2-11.7-1.4s-8.1-2.2-11.6-.4c-3.7 1.9-5.4 6.3-6.5 10.3-.4 1.1-.6 2.3-.5 3.5 0 .2.1.5.1.7.1-.6.3-1.3.5-1.9 1.1-4 2.8-8.4 6.5-10.3 3.5-1.8 7.8-.8 11.6.4s7.8 2.6 11.7 1.4c2.5-.8 4.5-2.5 6.8-3.7s5.2-1.8 7.3-.4c1.6 1.1 2.3 3.1 2.8 5 1.5 6.4 1 13.2 3.2 19.4 1.2 3.2 3 6.3 3.2 9.7-.1 1.3 0 2.6.2 3.8.2 1.3 1.3 2.3 2.6 2.4 1.3-2.5 1.9-5.3 1.7-8.1-.2 2-.8 4-1.8 5.8z"/><path d="m924.6 267.6c-.5 1.3-.3 4.5-2.3 4.5-1.4 0-2.9-3.3-3.6-4.2-2-2.7-5.3-5.2-5.8-8.7-.1.5-.1.9-.1 1.4.2 4 3.8 6.6 5.9 9.5.7 1 2.2 4.2 3.6 4.2 1.9 0 1.8-3.2 2.3-4.5.7-2.1 2.6-3.9 2.7-6.1 0-.4 0-.9-.1-1.3-.6 1.8-2 3.4-2.6 5.2z"/></g><path d="m265.6 461.4h3.4v3.4h-3.4z" fill="#2ebf91"/><path d="m265.6 461.4h3.4v3.4h-3.4z" opacity=".25"/><path d="m550.3 179.7h3.3v3.8h-3.3z" fill="#2ebf91"/><path d="m550.3 179.7h3.3v3.8h-3.3z" opacity=".25"/><path d="m553.6 464.8v-282h-.6c-156.3 0-283.2 126.1-284.4 282.1z" fill="#fff" opacity=".2"/><path d="m553.6 464.8v-282h-.6c-156.3 0-283.2 126.1-284.4 282.1z" fill="#2ebf91"/><path d="m553.6 464.8v-282h-.6c-156.3 0-283.2 126.1-284.4 282.1z" opacity=".25"/><path d="m550.6 461.8v-282h-.6c-156.3 0-283.2 126.1-284.4 282.1z" fill="#2ebf91"/><path d="m550.6 461.8v-282h-.6c-156.3 0-283.2 126.1-284.4 282.1z" opacity=".15"/><path d="m902.9 525.2s13.4-2 18.4.2z" opacity=".1"/><path d="m543 474.1 7.7-.4v2l-12.9 1.3 1.1-2.6z" fill="#5e5a6b"/><path d="m543 474.1 7.7-.4v2l-12.9 1.3 1.1-2.6z" opacity=".1"/><path d="m550.7 473.7-277.3 63.2c-4.3-20-6.5-40.3-6.5-60.8 0-.8 0-1.6 0-2.4z" fill="#8165ba"/><path d="m902.9 525.2s13.4-2 18.4.2z" opacity=".1"/><path d="m273.8 543.3c5.8 26.9 15.6 52.7 28.9 76.8l248.4-139.9z" fill="#8165ba" opacity=".66"/><path d="m902.9 525.2s13.4-2 18.4.2z" opacity=".1"/><path d="m555.1 485.2-248 139.7.1.2c12.6 22.7 28.2 43.6 46.4 62.1l202-202z" fill="#8165ba" opacity=".33"/><path d="m902.9 525.2s13.4-2 18.4.2z" opacity=".1"/><g fill="#2ebf91"><path d="m360.7 694.2-1.5.4v5l5.3-1.1-1.3-4.9z"/><path d="m565.5 500.8-206.4 198.8c110.1 112 290.2 113.5 402.2 3.4 1.1-1.1 2.2-2.1 3.2-3.2z"/><path d="m578.3 484.3-6.2-1.8.3 4.5 13.8 5.3-2.5-7.5z"/></g><path d="m578.3 484.3-6.2-1.8.3 4.5 13.8 5.3-2.5-7.5z" opacity=".03"/><path d="m774.4 684.6c52.5-53.2 81.9-124.9 81.8-199.6 0-.8 0-1.6 0-2.4h-283.8z" fill="#2ebf91"/><path d="m902.9 525.2s13.4-2 18.4.2z" opacity=".1"/></svg>