<svg xmlns="http://www.w3.org/2000/svg" xmlns:xlink="http://www.w3.org/1999/xlink"><linearGradient id="a"><stop offset="0" stop-color="#808080" stop-opacity=".25"/><stop offset=".54" stop-color="#808080" stop-opacity=".12"/><stop offset="1" stop-color="#808080" stop-opacity=".1"/></linearGradient><linearGradient id="b" gradientTransform="matrix(1 0 0 -1 -11.09 710.2601)" gradientUnits="userSpaceOnUse" x1="599.8719" x2="599.8719" xlink:href="#a" y1="250.4196" y2="441.2592"/><linearGradient id="c" gradientTransform="matrix(1 0 0 -1 -11.09 710.2601)" gradientUnits="userSpaceOnUse" x1="835.69" x2="905.29" xlink:href="#a" y1="53.01" y2="53.01"/><path d="m1460.8 500.2c0 19.6-2.4 39.2-7.1 58.2-1.6 6.4-3.4 12.7-5.5 18.9-2.6 7.6-5.6 15-8.9 22.3-1.7 3.7-3.5 7.3-5.4 10.8 0 20.1-4.1 40-12.2 58.5-14.6 33.1-40.5 59.8-73.2 75.4-20.4 9.7-42.8 14.9-65.4 15h-776.5c-34.6.1-68.5-9-98.4-26.3-4.4-2.6-8.7-5.3-12.9-8.2-9.1-6.3-17.7-13.3-25.6-21.1-10.7-10.5-20.1-22.2-28.1-34.9-18.7-29.7-28.6-64.1-28.6-99.2-18.9-33.3-30-73.1-30-115.9 0-54 17.6-103.3 46.4-140.5 6-7.8 12.6-15.1 19.7-21.9 7-6.7 14.5-12.9 22.5-18.5 6.4-4.4 13.1-8.5 20-12 2.9-1.5 5.8-2.9 8.7-4.2 2.6-1.1 5.2-2.2 7.9-3.2 3.2-1.2 6.4-2.3 9.7-3.3s6.5-1.9 9.6-2.7c4.7-1.1 9.4-2.1 14.2-2.8 4-.6 8-1 12-1.3 3.2-.2 6.4-.4 9.6-.4h1.8c3.6 0 7.1.1 10.6.4.4-.7.8-1.5 1.1-2.2 1.4-2.7 2.9-5.3 4.3-7.9v-.1c.3-.5.5-.9.8-1.3 1.2-2.1 2.4-4.2 3.7-6.3.6-1 1.1-1.9 1.7-2.9.1-.2.3-.5.4-.7.6-1 1.2-2 1.8-3 3.1-4.9 6.3-9.8 9.6-14.5.3-.4.6-.8.9-1.2.5-.7 1-1.5 1.6-2.2 1.4-1.9 2.8-3.9 4.2-5.8 1-1.4 2-2.7 3.1-4 2.6-3.4 5.3-6.7 8-10s5.6-6.6 8.5-9.9c.4-.4.8-.9 1.2-1.3l4.3-4.6c.2-.2.4-.4.6-.6.5-.6 1-1.1 1.5-1.6 2.3-2.4 4.6-4.8 7-7.2 12.1-12 24.9-23.1 38.4-33.4.5-.4 1.1-.8 1.6-1.2 2.5-1.9 5.1-3.8 7.7-5.7 14.2-10.2 29-19.4 44.4-27.7 1.1-.6 2.1-1.2 3.2-1.7 13.8-7.3 28-13.8 42.5-19.6 7.9-3.1 16-6 24.1-8.8 5.4-1.8 10.9-3.5 16.4-5 8.5-2.4 17.1-4.7 25.9-6.6 25.7-5.8 51.9-9.3 78.2-10.7 8-.4 16.1-.6 24.3-.6 39.5-.1 78.8 4.9 117 14.8.8 1.2 2.2 1.9 3.6 1.9h3.4c1.5.4 2.9.8 4.4 1.2 8.2 2.4 16.2 4.9 24.1 7.7l2 .7c19.5 7 38.6 15.3 56.9 25 16.5 8.7 32.5 18.6 47.7 29.4 2.3 1.7 4.6 3.4 6.9 5.1 2.8-1.8 5.6-3.5 8.4-5.1 11-6.3 22.7-11.3 34.9-14.9 25.4-7.5 52.3-8.6 78.2-3.1 33.3 7.1 63.4 24.6 87.7 49.4 9.9 10.2 18.7 21.3 26.3 33.3.6.9 1.1 1.7 1.6 2.6 6.5 10.6 12.1 21.8 16.7 33.4.2.4.3.8.5 1.3 4.3 10.8 7.7 22 10.3 33.4.1.6.3 1.1.4 1.7 2.4 11 4.1 22.1 4.9 33.4 0 .4 0 .8.1 1.2.4 5.8.6 11.7.6 17.6 0 5.3-.2 10.6-.5 15.8 0 .6-.1 1.2-.1 1.8-.1 1.5-.2 3-.3 4.5 7.6 6.2 14.8 12.9 21.4 20.2 2.9 3.2 5.7 6.5 8.5 9.9 8.3 10.4 15.6 21.6 21.8 33.4 17 31.8 26.7 69.4 26.7 109.6z" fill="#2ebf91" opacity=".1"/><path d="m171 404.9v.1-.1h.1z"/><circle cx="171" cy="404.9" r="0"/><path d="m171.1 404.9v.1z"/><circle cx="171.1" cy="404.9" r="0"/><path d="m171.2 404.9h-.1v.1h.1z"/><circle cx="171.2" cy="404.9" r="0"/><path d="m1347.8 697c0 22.7-23.6 44-64.7 62.3h-776.5c-35.9 0-69.6-13-98.4-35.7-7.3-8.6-11.1-17.5-11.1-26.7 0-24.2 26.6-46.7 72.7-65.8l1.3-.5c13-5.3 27.5-10.4 43.4-15.1.4-.1.8-.2 1.2-.4 12.6-3.7 26-7.2 40.2-10.5.5-.1.9-.2 1.3-.3 5.5-1.3 11.1-2.5 16.8-3.7l2.2-.5c41.5-8.6 88.8-15.5 140-20.1h.1c7.2-.7 14.4-1.3 21.8-1.8 8.1-.7 16.4-1.2 24.7-1.7 6.4-.4 12.8-.8 19.3-1.1h.2c29.2-1.5 59.3-2.2 90.2-2.2 76.3 0 148.3 4.7 212.2 13h.2c9.8 1.3 19.5 2.6 28.9 4.1 2.7.4 5.4.8 8 1.3 10.6 1.7 20.9 3.5 31 5.4 118.2 22.6 195 59 195 100z" fill="#2ebf91" opacity=".1"/><path d="m678.2 260.4h384.2v193.9h-384.2z" fill="#33323d"/><path d="m558.5 513.3h624.8v127.7h-624.8z" fill="#33323d"/><path d="m707.7 545.2h320.3l63.9 214.8h-451.7z" fill="#fff"/><path d="m540.7 437.2v66.3 13.9 123.5h119.7v-117.8h421v117.8h119.7v-123.5-13.9-66.3z" fill="#504f60"/><path d="m540.7 437.2h660.4v66.3h-660.4z" fill="#33323d" opacity=".1"/><circle cx="1165.5" cy="470.3" fill="#8ccf4d" opacity=".8" r="9.8"/><circle cx="1121.3" cy="470.3" fill="#fa5959" opacity=".8" r="9.8"/><path d="m692.3 213.8h356v211.1h-356z" fill="#fff"/><path d="m1102.4 521.9c.8 8.2-5.4 16.1-3.6 24.1.4 1.7 1.1 3.3 1.4 5 .7 4.8-2.1 9.3-4.8 13.2l-23.2 34.2c-.9 1.5-2 2.9-3.3 4.1-4.4 4-11.1 3.5-16.9 4.7-4.1.8-8 2.5-11.3 5-.3.2-.4.7-.2 1 2 2.7 5.1 4.2 8.4 4 .6.8 0 2-.8 2.6-1.3.9-3 1.1-3.2 3.2-.1.7.1 1.5.4 2.1.9 1.4 2.4 2.4 4.1 2.8 8 2.5 16.7-1.9 22.8-7.7s10.3-13.3 16.3-19.3c3.3-3.3 7-6.2 10.4-9.4 6.7-6.4 12-14.2 17-22 1.7-2.3 2.9-4.8 3.7-7.5.6-2.7.3-5.5 1.1-8.1.9-3.5 3.5-6.2 5.6-9.1 4.1-5.7 6.9-12.6 6.3-19.6-.5-7-4.9-13.9-11.5-16.3-2-.8-4.3-1-6.4-.4-2.7.8-4.7 3.1-6.6 5.2l-4.4 5.1c-1.1 1.1-2 2.5-2.6 3.9-.6 1.5-.2 3.2.9 4.3" fill="#fbbebe"/><path d="m1102.4 521.9c.8 8.2-5.4 16.1-3.6 24.1.4 1.7 1.1 3.3 1.4 5 .7 4.8-2.1 9.3-4.8 13.2l-23.2 34.2c-.9 1.5-2 2.9-3.3 4.1-4.4 4-11.1 3.5-16.9 4.7-4.1.8-8 2.5-11.3 5-.3.2-.4.7-.2 1 2 2.7 5.1 4.2 8.4 4 .6.8 0 2-.8 2.6-1.3.9-3 1.1-3.2 3.2-.1.7.1 1.5.4 2.1.9 1.4 2.4 2.4 4.1 2.8 8 2.5 16.7-1.9 22.8-7.7s10.3-13.3 16.3-19.3c3.3-3.3 7-6.2 10.4-9.4 6.7-6.4 12-14.2 17-22 1.7-2.3 2.9-4.8 3.7-7.5.6-2.7.3-5.5 1.1-8.1.9-3.5 3.5-6.2 5.6-9.1 4.1-5.7 6.9-12.6 6.3-19.6-.5-7-4.9-13.9-11.5-16.3-2-.8-4.3-1-6.4-.4-2.7.8-4.7 3.1-6.6 5.2l-4.4 5.1c-1.1 1.1-2 2.5-2.6 3.9-.6 1.5-.2 3.2.9 4.3" opacity=".05"/><path d="m1120 732.2c-5.1 3.1-11.4 3.3-17.3 2.6-1-.1-2.1-.2-2.7.5-.9 1.1.2 2.6 1.2 3.5 3.5 2.6 7.6 4.3 11.9 4.9 3.8.5 7.7.8 11.6.8 10.6.2 21.3.4 31.8-1.2.6 0 1.2-.2 1.7-.5.7-.5 1.1-1.2 1.3-2 .7-2.7-.7-5.7-2.8-7.5-2.1-1.9-4.8-3-7.4-4l-9.2-3.6c-2.2-.8-5.6-3.1-8-2.9-4.2.3-8.4 7.3-12.1 9.4z" fill="#3f3d56"/><path d="m1120 732.2c-5.1 3.1-11.4 3.3-17.3 2.6-1-.1-2.1-.2-2.7.5-.9 1.1.2 2.6 1.2 3.5 3.5 2.6 7.6 4.3 11.9 4.9 3.8.5 7.7.8 11.6.8 10.6.2 21.3.4 31.8-1.2.6 0 1.2-.2 1.7-.5.7-.5 1.1-1.2 1.3-2 .7-2.7-.7-5.7-2.8-7.5-2.1-1.9-4.8-3-7.4-4l-9.2-3.6c-2.2-.8-5.6-3.1-8-2.9-4.2.3-8.4 7.3-12.1 9.4z" opacity=".05"/><path d="m1126.5 609.8c-3.8 5.1-7.8 11-6.9 17.3.5 3.4 2.4 6.4 3.8 9.6 1.8 4.3 3 8.8 3.9 13.4 1.4 6.7 2.9 13.4 3.8 20.2 1 7.7-3.7 29.9-4.1 37.6-.1 1.9-.3 3.9-1.6 5.2-.5.5-1.2 1-1.4 1.7-.1.7 0 1.4.3 1.9 2.2 4.9 6.6 8.5 11.5 10.6s16.9 5.7 22.2 5.8c.7.1 1.4 0 2.1-.3.7-.4 1.3-1.1 1.6-1.8 3.9-7.4.2-33.6.2-41.9 0-7 1.7-13.8 1.4-20.8-.3-5.6-1.7-11-2.3-16.6-.9-9.1.8-18.3 2.5-27.3 1.3-6.9 2.6-13.8 4.2-20.6 1-4.2 2.2-8.3 4.4-12 1.8-2.9 4.3-5.3 6.3-8 5.7-7.5 8.3-17 7.1-26.4-.1-.9-13.3 3.3-14.5 3.8-4.7 2-9.1 4.8-12.9 8.3-3 2.9-5.4 6.8-8.1 10-3.8 4.6-7.5 9.2-11.2 13.9-4.1 5.5-8.3 10.9-12.3 16.4z" fill="#464353"/><path d="m1126.5 609.4c-3.8 5.1-7.8 11-6.9 17.3.5 3.4 2.4 6.4 3.8 9.6 1.8 4.3 3 8.8 3.9 13.4 1.4 6.7 2.9 13.4 3.8 20.2 1 7.7-3.7 29.9-4.1 37.6-.1 1.8-.3 3.9-1.6 5.2-.5.5-1.2 1-1.4 1.7s0 1.4.3 2c2.2 4.9 6.6 8.5 11.5 10.6s16.9 4 22.2 4.2c.7.1 1.4 0 2.1-.3.7-.4 1.3-1.1 1.6-1.8 3.9-7.4.2-31.9.2-40.3 0-7 1.7-13.8 1.4-20.8-.3-5.6-1.7-11-2.3-16.6-.9-9.1.8-18.3 2.5-27.2 1.3-6.9 2.6-13.8 4.2-20.6 1-4.2 2.2-8.3 4.4-12 1.8-2.9 4.3-5.3 6.3-7.9 5.7-7.5 8.3-17 7.1-26.4-.1-.9-13.3 3.3-14.5 3.8-4.7 2-9.1 4.8-12.9 8.3-3 2.9-5.5 6.8-8.1 10-3.8 4.6-7.5 9.2-11.2 13.9-4.1 5.4-8.3 10.7-12.3 16.1z" opacity=".05"/><circle cx="1083.8" cy="475.7" fill="#fbbebe" r="21.5"/><path d="m1103.2 474.8c4 6.4 10.5 10.9 17.9 12.5l-1.6 5.9c-2.8 10.1-6 20.8-13.8 27.9.8-3.4-.3-7.1-2.2-10.1-2.1-2.9-4.5-5.4-7.3-7.6l-12.4-10.8c-.4-.3-.7-.6-.9-1-.3-.8-.3-1.6 0-2.4 1.6-4.9 6.1-8 9.7-11.3 1.8-1.7 3.5-3.6 4.9-5.7 2.5-3.5 4 0 5.7 2.6z" fill="#fbbebe"/><path d="m1055.4 454.1-.5-4c3.4.9 6.6-2 8.8-5s4.2-6.5 7.5-7.8c4-1.5 8.3.9 12.1 2.9 4.3 2.4 9 3.9 13.9 4.5.8 0 1.6.2 2.3.4 2.5.9 3.7 4 4.1 6.9s.3 5.9 1.5 8.4c.9 1.9 2.5 3.3 3.5 5.2 2.6 5.1.1 12.1 2.9 17.1l-6.9-6.3c-.6-.6-1.5-1.2-2.2-.7s-.6 1.2-.8 1.9c-.7 2-3.1 2.6-4.9 1.8s-3.1-2.5-4.4-4c-3.1-3.6-6.7-6.8-11-8.3-3.8-1.5-8-1.2-11.6.7-3.2 1.8-5.6 6.1-9.5 6.2-5.4.2-7.7-9.9-10.2-13.8 1.9-1.4 2.5-4 1.4-6.1.4-.2 3.9-.7 4 0z" fill="#464353"/><path d="m1145.2 732c-4.3 3.8-9.8 5.9-15.5 5.8-1.5 0-3.5.3-3.5 1.7 0 .4.2.8.4 1.2 1.8 3 4.7 5.2 8 6.3 3.1.9 6.4.8 9.7.6l9.4-.5c1.8-.1 3.6-.2 5.3-.4 1.8-.2 3.7-.6 5.6-.9 4.6-.7 9.2-.9 13.8-.7 1.2 0 2.6 0 3.4-.9s.3-2.6.1-3.9c-.6-2.7 0-5.6-.5-8.4-.9-4.8-5.1-8.5-9.6-10.3-4.3-1.6-11.8-3.5-15.8-.8-4.4 3.1-7 7.8-10.8 11.2z" fill="#3f3d56"/><path d="m1154.5 570.4c.8 4 4.7 7 4.8 11 .1 3.2-2.2 6-3.9 8.8-1.6 2.9-2.9 5.9-4 9-3.2 8.1-7.1 15.8-11.7 23.2-2.2 3.5-4.7 7.3-4.2 11.5.3 1.9 1 3.8 2 5.5l6.7 13.2c1.5 2.6 2.6 5.4 3.4 8.3.6 2.5.6 5.1 1 7.7 1.1 8.1 4.8 16.3 2.6 24.1-.2.7-.9 1.5-1.4 1 2.2 4.1 4 8.2 3.8 12.9-.1 2.4-.8 5 .1 7.3.5.9.9 1.9 1 2.9 0 .7-.3 1.3-.4 2-.2 1.9 1.5 3.4 3.3 4s3.7.5 5.5 1.1c3.5 1 5.9 4 8.9 6.1s6.6 3.2 10.2 3.3c.5.1 1 0 1.5-.3.5-.5.8-1.1.8-1.8.3-3.4-1-6.7-3.7-8.8-.6-.4-1-.8-1.3-1.4-.2-.5-.2-1.1-.1-1.6.5-7.3.4-14.6-.4-21.8-.4-2.3-.5-4.6-.3-6.9.2-1.9.8-3.8.6-5.8-.2-1.9-1.2-3.7-1.8-5.5-1-3.3-.7-6.8-.8-10.3-.2-6-1.6-11.9-2.9-17.7-.5-2.3-1.1-4.7-2.8-6.4-1.4-1.4-3.6-2.8-3.1-4.8.3-.7.7-1.4 1.3-1.9 1.3-1.6 1.9-3.7 1.6-5.8 1.2.3 2.5-.3 3-1.4 10.8-5.1 19.6-15.3 23.4-26.6.2-.8.6-1.6 1-2.4 1-1.4 2.7-2 4.3-2.8 4.8-2.4 8.2-7 11.3-11.5 1.8-2.6 3.6-5.3 4.3-8.3.4-2 .6-4 .6-6l.3-10.4c.1-.7 0-1.4-.2-2-.3-.6-.6-1.2-1.1-1.7-2.9-3.1-6.8-5.2-11-6-2.8-.5-5.7-.4-8.6-.7-5.6-.5-11.1-2.2-16.6-1.8-8.8.6-16.5 6.7-20.7 14.5-1.7 2.6-3.2 5-6.3 5z" fill="#464353"/><path d="m1105.9 502.7c.1 1.6-.1 3.2-.6 4.7-.7 1.5-2.4 2.6-3.9 2 .4-1-.8-2.2-1.9-2.1-1.1.2-2 1-2.5 2.1-.7 1.5-1 3.2-.7 4.8.3 2 1.5 4 1.2 6-.3 1.7-1.5 3.4-.8 5 .4.7 1 1.4 1.6 1.9 1.8 2.2 1.6 5.5-.6 7.5l16.8.3c-.6 2.8.6 5.7 2.1 8.2 8.2 13.9 22.4 23.1 38.3 25-1.6.9-2.1 3-1.2 4.6.1.2.2.4.4.5 1.4 1.3 3.7 1.2 5.4.3s3.1-2.3 4.6-3.5c2.8-2 6.1-2.9 9.5-2.6 2.1.2 4.1.9 6.3 1 6.2.3 11.6-4.1 17.5-6 4.4-1.3 9.3-1.3 13-4.1 1.6-1.2 2.9-3.1 2.4-5-.4-1.1-1-2.1-1.8-2.9-2.1-2.7-3.3-6-4.8-9.1-3-6.1-7.1-11.6-12.1-16.2-3.8-3.3-7.8-6.4-12-9.1-1-.8-2.1-1.4-3.3-2-1.5-.5-3-1.1-4.5-1.8-2-1.2-3.1-3.4-4.6-5.2-3.3-3.9-8.4-5.7-12.5-8.7-2.8-2-5.2-4.7-8.5-5.7-1.6-.5-3.3-.5-4.9-1-3.6-1.1-6.3-4.3-9.8-5.6-2.8-1-5.9-.8-8.9-1.1-3.3-.4-6.4-1.6-9.1-3.5-.9-.7-1.9-1.3-3-1.7-4.5-1.4-4.9 7-5.3 9.9-.7 4.4-1.8 8.7-1.8 13.1z" fill="#8165ba"/><path d="m1110.3 530.8c.8 8.2-5.4 16.1-3.6 24.1.4 1.7 1.1 3.3 1.4 5 .8 4.8-2.1 9.3-4.8 13.2l-23.2 34.1c-.9 1.5-2 2.9-3.3 4.1-4.5 4-11.1 3.5-16.9 4.7-4.1.8-8 2.5-11.3 5-.3.2-.4.7-.2 1 1.9 2.7 5.1 4.2 8.4 4 .6.8 0 2-.8 2.6-1.3.9-3 1.1-3.2 3.2-.1.7.1 1.5.4 2.1.9 1.4 2.4 2.4 4.1 2.8 8 2.5 16.7-1.9 22.8-7.7s10.3-13.3 16.3-19.3c3.3-3.3 7-6.2 10.3-9.4 6.7-6.4 11.9-14.2 17-22 1.6-2.3 2.9-4.8 3.7-7.5.6-2.7.3-5.5 1.1-8.1.9-3.5 3.5-6.2 5.6-9.1 4.1-5.7 6.9-12.6 6.3-19.6s-4.9-13.9-11.5-16.3c-2-.8-4.3-1-6.4-.4-2.7.8-4.7 3.1-6.5 5.2l-4.4 5.1c-1.1 1.1-2 2.5-2.6 3.9-.6 1.5-.2 3.2.9 4.3" fill="#fbbebe"/><path d="m1122.1 497.2c-3.1.2-6.4.5-8.6 2.7-.9 1-1.6 2.1-2.2 3.4-2.1 4.3-4.1 8.7-4.3 13.5-.1 3.8 1 7.5 1.5 11.3.5 3.1-.7 6.3-1 9.5 3.8-1.2 8.8-2.7 12.2-4.7 2.3-1.5 4.6-2.7 7.2-3.7 3.7-1.2 9.8.9 13.2 2.6.2-2.4-1.6-6.7-1.4-9.1 0-1 .2-2 .5-3 .5-1 1.1-2 1.8-2.9 2.7-4.4 2.3-10.1-1.1-14-3.1-3.5-7.9-4.8-12.5-5.3-2.9-.3-5.8-.4-8.7-.3" fill="#8165ba"/><path d="m669 427.2-19.7-28.6s-.4-7.1-1.7-8.7c-1.3-1.7-.3-5.3-.3-5.3s1.4-2 .2-2.2-.2-4.7-.2-4.7l-.1-7.2s1.1-6.9.2-8.5c-.6-.9-.5-2.1.1-3 0 0 1.1-4 0-5s-.8-7.2-.6-12c.3-4.9-1.9-7.6-1.9-8.4s-7.3-7.9-7.3-8.6c0-.6-4.6-3.3-7.4-4s-4.1-1.3-4-1.7-4.3-1.8-4.3-1.8-3.9-.3-5.3-2.2c-1.5-1.9-6-2.5-6.1-2.5l-.1-.4c0-.1 0-.3-.1-.4.4-.6.7-1.2 1-1.8l.3-.6c1.6 0 3.2-.5 4.5-1.4 1.3-1.1 2.1-2.7 2.2-4.4s-.3-3.4-1.1-4.9c-.8-1.7-2-3.4-1.6-5.2.2-.8.6-1.5.9-2.2.4-1.5.1-3-.7-4.4-.7-1.3-1.7-2.5-2.5-3.8-1-1.7-1.7-3.5-2-5.4-.1-1-.3-2-.7-2.9-.4-.7-1-1.2-1.6-1.6-2.9-2.1-6.4-3.1-9.9-3-2.5.1-5 .8-7.5.5-1.5-.3-3-.6-4.4-1.1-3.1-.9-6.7-1.3-9.3.5s-3.8 5.3-5.6 8c-1.6 2.4-4 4.4-5.2 7v-.1c-.3.6-.5 1.2-.7 1.9-.3 2-.2 4.1.4 6.1.1 1.1.7 2 1.5 2.7.9.6 2.2.5 3.2.6l-.1.5c-2.2 10.7 4.1 21.4 14.6 24.5v.6c0 .5 0 1.1-.1 1.6s-9.3-1.9-11.8-.6-7.4 2.3-8.1 3-2.6.2-4.2 4.5c-1.7 4.3-1.8 8.7-4 10.8-2.2 2-3.2 3.4-3.3 4.9s.3 1.8-.5 2.3-2 2.4-1.7 3.1c.3 1-.1 2.1-1 2.8-.9.6-1.4 1.7-1.3 2.8 0 0-.6 2-1.8 2.5-1.3.5-2.1 3.5-2.1 3.5l-4.2 4.8-8.3-9.2c-1.3-1.4-3.5-1.5-4.9-.3l-4.1 3.7c-1.6.4-3 1.2-4.1 2.4-.9.9-1.6 2-2.1 3.1l-2.2 2c-1.4 1.8-1.7 4.2-.6 6.3l5.3 5.9c-1.9.2-3.7.9-5.1 2.1-7.9 7-8 13.4-6.8 16.4s11.2 14.3 11.2 14.3 5.8 7.6 14.3 11.6l-.1.1c-.2.2-.3.4-.5.6l-.1.2-.1.2-.2.2c0 .1-.1.1-.1.2l-.2.3c0 .1-.1.1-.1.2-.1.1-.1.2-.2.4 0 0 0 .1-.1.1-.1.2-.2.3-.2.5l-.1.2c0 .1-.1.2-.1.4 0 .1-.1.2-.1.2l-.1.4c0 .1-.1.2-.1.3s-.1.3-.1.4 0 .2-.1.3c0 .1-.1.4-.1.7v.3c0 .1 0 .3-.1.5v.3l-.1.5v.4.5s0 .2 0 .3v.9c-.2 10.8.5 12.3.5 12.3.8 2 2.7 3.4 4.9 3.7.5 0 1.1 0 1.6-.1 4.8-.8 16-2.8 20-2 2.4.4 6.8-.2 9.9-.8l.8-.2.6 1.8 1.8-.5 1.5.9 1 .6c1.8 6.2 9.2 4.1 9.2 4.1l1.8 1 17.8.5c2 1.2 4.1 2.2 6.3 3 .3.1.6.2.9.2 1.7.1 3.3.2 5 .1 1.4 0 2.4-.1 2.4-.1s-.2-4.8-.4-10.2c5.5-.1 11-.6 16.5-1.4 9.5-1.7 13.5-10.3 14.9-14.9.4 1.9.7 3.8.9 5.7.4 1.7.9 3.4 1.5 5 .5 1.3 1.2 2.5 2 3.7 7-2.4 2.8-6 1.3-7.5s1-2.9 1-2.9 1.9-1.3 1.8-2.5-.3-2.5 6-2.4c6.2-.7 5.8-5.9 5.8-5.9zm-97.3-58.7c.1.5 1 6.2 1.7 7.7.2 1 .3 2 .2 3-3.7-.3-7.6-.5-7.6-.5.1.1.2.3.2.5l-.6-.1-.8-.2zm-13.6 21.6 6.4 1 .5.1c-.2 1-.3 2-.3 3 0 .1.1.2.3.3-.1.5-.1 1-.1 1.5.1.5 3.1 1.6 6.5 2.5 0 .2-.1.4-.1.5-3-1.6-7.8-2.3-8.4-3.5-.5-1.2-16.9-6.9-16.9-6.9l-1.6-.8 4.3.8 1.2-.1c2.8.7 5.5 1.2 8.2 1.6z" fill="url(#b)"/><path d="m648 431.2s-2.5 15.4-15.5 17.7-56.3 1.8-56.3 1.8-24.8-3.6-33.7-24.5c-9-20.9-14.7-29.2-7-29.6s49.1 14 51.4 14.2c2.4.2 63.4-31.7 61.1 20.4z" fill="#65617d"/><path d="m648 431.2s-2.5 15.4-15.5 17.7-56.3 1.8-56.3 1.8-24.8-3.6-33.7-24.5c-9-20.9-14.7-29.2-7-29.6s49.1 14 51.4 14.2c2.4.2 63.4-31.7 61.1 20.4z" opacity=".05"/><path d="m531.9 448.4c.8 2 2.7 3.4 4.8 3.6.5 0 1.1 0 1.6-.1 4.8-.8 15.9-2.7 19.8-2 2.4.4 6.7-.2 9.8-.8 2.1-.4 3.6-.8 3.6-.8s-3.7-12.2-4.1-12.5c-.5-.4-16.5-10-16.5-10l-12.7-.9c-1.7.3-3.2 1.2-4.3 2.5-1.3 1.6-2.5 4.3-2.6 8.6 0 10.9.6 12.4.6 12.4z" fill="#3f3d56"/><path d="m531.9 448.4c.8 2 2.7 3.4 4.8 3.6-1.2-1.6-2.4-3.3-3.4-5l.1-8.9c-.5-4.9 1.3-9.8 5-13.1s-6.7.5-6.9 11.1c-.2 10.8.4 12.3.4 12.3z" opacity=".05"/><path d="m586.8 429 11.8-9.2 18.5-18.3-5-.2c-.8.5-2.9 2-2.9 3.8-.1 2.2-5 .2-7.6 1.4-2.6 1.3-15.1 17.3-17.3 17.2s-3.9-1.1-4.9.5l-.1.1z" opacity=".1"/><path d="m534 427.5c.4.2.9.4 1.3.6 9 3.8 20 11.9 20.8 13.3.5.9 6.9 4.8 11.9 7.7 2.1-.4 3.6-.8 3.6-.8s-3.7-12.2-4.1-12.5c-.4-.4-16.5-10-16.5-10l-12.7-.9c-1.7.3-3.2 1.3-4.3 2.6z" opacity=".1"/><path d="m509.2 401.4c1.2 2.9 11.1 14.2 11.1 14.2s6.3 8.2 15.3 12 20 11.9 20.8 13.3c.5.9 7.7 5.2 12.7 8.2l1.1.7 2.5 1.5 1.3.8s3.1-2.5 6.1-4.9c3-2.5 6-4.9 6-5s1.3-3.4 1-3.6-.8-1.4-1.9-2.8c-1.2-1.6-2.8-2.9-4.7-3.8-2.7-1.4-4.8-3.6-6-6.3 0 0-.4-.3-1-.7-1.2-.9-2.6-1.5-4.1-1.8-2-.3-5.8-4.4-5.8-4.4-1.5-1-2.7-2.2-3.6-3.7-1-2-15.1-11.7-16.4-12.6l34.3 22.1 8.2 5.3 11.8-9.2 18.5-18.3-6.1-.3c-9-.4-25-1-27-.5-1.6.4-3.3.5-5 .3 0 0-4.6.2-7.6-1.4s-7.8-2.3-8.3-3.5-16.7-6.8-16.7-6.8-22-11.7-29.9-4.8-7.8 13-6.6 16z" fill="#65617d"/><path d="m580.1 334.3 2.8 9.4 3.7 21.2 13.4.9 3.8-6.4 3.9-6.4s2.4-8.6 4.2-16.8c1.5-7.3 2.5-14.5.9-15.2-1.5-.7-2.5-3.2-3.1-5.8-.1-.3-.1-.7-.2-1-.4-2.2-.7-4.5-.9-6.8 0 0-28.1-1.5-24.2 10.1.7 2 1.1 4.1 1.1 6.2 0 .5 0 1.1-.1 1.6-.4 3.5-2.3 6.8-5.3 9z" fill="#ee8e9e"/><path d="m574.3 332.8 1 16 2.3 13.6 2.6 6.3 2.3 34.5s22 2.5 27.4 0c.4-.2.7-.4 1-.8 6.5-9.8 4.3-38.1 4.3-38.1l2.5-18.3-1.6-9.5-4-.4-3.1-.3s-.7.8-1.7 2.2c-2.7 3.6-7.7 10.6-7.4 13.5.5 4-.5 8.1-2.1 8.8-1.6.6-2.8 1.7-3.1.6-.4-.9-.5-1.9-.3-2.9.3-1.6-1.2-6.3-1.2-6.3s-2.5-5.6-2.3-7.9-.3-5.1-1-5.8c-.7-.6-1.7-1.3-.9-4.2s-3.6-8.6-3.6-8.6z" fill="#e3e8f4"/><path d="m603.4 372.7.9 27.3 5.3 2.9c.4-.2.7-.4 1-.8 6.5-9.8 4.4-38.1 4.4-38.1l2.5-18.3-1.6-9.5-4-.4c1.5-7.3 2.5-14.4.9-15.2-1.5-.7-2.5-3.2-3.1-5.8l-2.8 19.3s.2 1.7.3 3.5c.1 1.1 0 2.3-.2 3.4-.4 1.5-.4 3.1-.2 4.6-1.6 2.9-2.5 8.3-2.9 13.5-.7 7-.5 13.6-.5 13.6z" opacity=".1"/><path d="m609.6 314.4s4.6.6 6.1 2.5 5.3 2.2 5.3 2.2 4.4 1.5 4.3 1.8c-.1.4 1.3.9 4 1.6s7.3 3.4 7.3 4 7.2 7.8 7.2 8.5 2.2 3.5 1.9 8.3-.5 11 .5 12 0 4.9 0 4.9c-.6.9-.6 2-.1 2.9.9 1.6-.2 8.5-.2 8.5l.1 7.1s-1 4.5.2 4.7-.2 2.2-.2 2.2-1 3.6.3 5.3c1.3 1.6 1.6 8.7 1.6 8.7l19.5 28.4s.3 5.2-5.9 5.1-6.1 1.2-5.9 2.4-1.7 2.5-1.7 2.5-2.5 1.3-1 2.8 5.7 5.1-1.3 7.5c-.8-1.1-1.5-2.4-2-3.7-.6-1.6-1.1-3.3-1.5-4.9 0 0-.6-7-1.9-7.9s-1.1-5.3-1.1-5.3 1.8-3.6-.7-5-39.6-22-39.6-22l-.9-27.3s-.6-20.2 3.2-27c-.3-1.5-.2-3.1.2-4.6.6-1.6-.1-6.9-.1-6.9z" fill="#3f3d56"/><path d="m585.7 325.4s-9.2-1.9-11.7-.6-7.3 2.3-8 3-2.5.2-4.2 4.5-1.8 8.7-3.9 10.7-3.2 3.4-3.3 4.8c-.1 1.5.3 1.8-.5 2.3s-2 2.4-1.7 3.1c.4.7 19 16.8 19 16.8s.9 6.1 1.7 7.7c.8 1.5-.9 22.9-2.7 24.4s12.3 1.3 12.3 1.3.6-14 1.2-14.8-.4-15.7-.4-15.7-.1-12.8 1.1-16.2 1-14.6 1-14.6 1-6.7 2.3-8.3c1.3-1.5-2.2-8.4-2.2-8.4z" opacity=".1"/><path d="m585.4 325.2s-9.2-1.9-11.6-.6c-2.5 1.3-7.3 2.3-8 3s-2.6.2-4.2 4.5-1.8 8.7-3.9 10.7-3.2 3.4-3.3 4.8c-.1 1.5.3 1.8-.5 2.3s-2 2.4-1.6 3.1 19 16.8 19 16.8.9 6.1 1.7 7.7c.8 1.5-.9 22.9-2.8 24.4-1.8 1.5 12.3 1.3 12.3 1.3s.6-14 1.2-14.8-.4-15.7-.4-15.7-.1-12.8 1.1-16.2 1-14.6 1-14.6 1-6.7 2.3-8.3c1.4-1.6-2.3-8.4-2.3-8.4z" fill="#3f3d56"/><path d="m584.5 317.4c.7 2 1.1 4.1 1.1 6.2 9.2 2.7 19.1-1.2 24-9.5-.4-2.2-.7-4.5-.9-6.8-.1 0-28.2-1.5-24.2 10.1z" opacity=".1"/><path d="m570.6 303c0 11.6 9.4 20.9 20.9 20.9s20.9-9.4 20.9-20.9-9.4-20.9-20.9-20.9c-9.9 0-18.4 6.9-20.5 16.6-.3 1.4-.4 2.8-.4 4.3z" fill="#ee8e9e"/><path d="m557.1 351.4-5 1.5c.3 1-.1 2.1-1 2.7s-1.4 1.7-1.3 2.7c0 0-.5 2-1.8 2.5s-2.1 3.5-2.1 3.5l-4.2 4.8s-1.6 1.3-1.3 1.9-1.7.8-1.7.8l1 16.3 8.7 1.6 5.4-.5 4.4-1.6 3.8-2.3 1.7-4.5 7.7-11.7z" fill="#3f3d56"/><path d="m540 373.2s-11.1-16.1-19.5-7.4c-8.3 8.7 3.4 22.8 6.1 22.3s15.8-1.2 15.8-1.2z" fill="#ee8e9e"/><path d="m517.1 341.2 49.2 25.1c.8.4 1.1 1.3.7 2.1l-19.2 37.6c-.4.8-1.3 1.1-2.1.7l-49.2-25.1c-.8-.4-1.1-1.3-.7-2.1l19.2-37.6c.4-.8 1.3-1.1 2.1-.7z" fill="#3f3d56"/><path d="m507 355.3h49v37h-49z" fill="#8165ba" transform="matrix(-.8907 -.4546 .4546 -.8907 834.9281 948.3871)"/><circle cx="508" cy="361.8" fill="#e6e8ec" r=".8"/><circle cx="555.2" cy="386" fill="#e6e8ec" r="1.3"/><path d="m532.8 376.6c-.1 12.1 24.8 14.6 24.8 14.6l6.4 1 2.9.5 1.2-11.8s-1.3-.2-2.9-.6c-2.4-.6-5.5-1.5-6.2-2.9-1.1-2.3-26.1-12.9-26.2-.8z" fill="#ee8e9e"/><path d="m571 298.6c.6 0 1.1.3 1.5.7.7.8.7 2.1 1.7 2.5.3.1.7.2 1.1.1 2.4-.3 3.8-3.1 6.2-3.8 1.4-.3 2.8-.2 4.1.4.5.2 1 .5 1.4.9.8 1 .2 2.5.6 3.7.5 1.7 2.5 2.4 4.3 2.6s3.7.3 4.9 1.7c.8 1 1.1 2.3.9 3.5-.1.4-.1.9 0 1.3.5 1.4 2.9 1.2 3.5.1.5-.8.3-1.4 1.4-1.7.8-.1 1.5.1 2.2.4 1.9.6 3.8.9 5.8.9 4.9-10.5.4-22.9-10.1-27.8s-22.9-.4-27.8 10.1c-.8 1.4-1.3 2.9-1.7 4.4z" opacity=".1"/><path d="m597.5 311.6c-.1-.4-.1-.9 0-1.3.2-1.2-.1-2.5-.9-3.5-1.2-1.3-3.1-1.5-4.9-1.7s-3.8-.9-4.3-2.6c-.4-1.2.2-2.7-.6-3.7-.4-.4-.8-.7-1.4-.9-1.3-.6-2.7-.7-4.1-.4-2.3.8-3.7 3.5-6.2 3.8-.4.1-.7 0-1.1-.1-.9-.5-1-1.8-1.7-2.5-1.1-1.2-3.2-.4-4.6-1.3-.8-.7-1.3-1.7-1.5-2.7-.6-2-.7-4-.4-6.1.8-3.4 3.8-5.7 5.8-8.6 1.8-2.7 2.8-6.1 5.5-7.9s6.2-1.4 9.3-.5c1.4.5 2.9.9 4.3 1.1 2.5.3 5-.4 7.4-.5 3.5-.1 7 .9 9.8 3 .6.4 1.2 1 1.6 1.6.4.9.7 1.9.7 2.9.3 1.9.9 3.7 1.9 5.3.8 1.3 1.7 2.5 2.4 3.8.8 1.3 1 2.9.7 4.3-.2.8-.7 1.4-.9 2.2-.4 1.8.8 3.5 1.6 5.1.8 1.5 1.1 3.2 1.1 4.9-.1 1.7-.9 3.3-2.2 4.4-1.4.9-3 1.4-4.6 1.4-2 .1-4-.2-5.9-.9-.7-.3-1.5-.4-2.2-.4-1.1.2-.9.9-1.4 1.7-.3 1.3-2.7 1.5-3.2.1z" fill="#3f3d56"/><path d="m586.3 429.6 11.8-9.2 18.5-18.3-6.1-.3c-.7.6-1.2 1.5-1.3 2.5-.1 2.2-5 .1-7.6 1.4s-15.1 17.3-17.3 17.2-3.9-1.1-4.9.4l-.1.1c-.4.4-.9.7-1.4.8z" opacity=".1"/><path d="m562.5 428.9 5.9 18.9.9 3 2.8-.8 6.2-1.7 27.7-7.6c3.5-.2 6.9-1.1 10-2.7 5.2-2.9 11.2-4.2 17.2-3.8 3.7.3 7.7-1.2 11.1-7.5 0 0 7.7-22.6-11.7-29.1s-20.3 3.5-20.3 3.5l-.3.2c-.8.5-2.8 2-2.9 3.8-.1 2.2-5 .2-7.6 1.4-2.6 1.3-15.1 17.3-17.3 17.2s-3.9-1.1-4.8.5l-.1.1c-.7.9-2.7 1.1-4.1 1.2-.4 0-.8 0-1.3 0h-.2l-1.4.4z" fill="#65617d"/><path d="m564 392.2 2.9.5 1.2-11.8s-1.3-.2-2.9-.6c.4 1.7-.6 8-1.2 11.9z" opacity=".1"/><path d="m638.8 337.2s8.5-2.5 6.4 21.6c-1.5 14.7-7.7 28.6-17.8 39.4 0 0-18.1 7.9-26.2 6.7-8.1-1.3-14.1-1.5-14.1-1.5-2.6-1.3-5.4-2-8.2-2.2-4.6-.2-14.2-3-14.3-3.9s2.4-14.3 1.3-15.3c0 0 12.8.5 14.1 1.4s3.1.3 4.5 0 5.6-3.9 13.9-.7c0 0 2.8.3 3.9-.5.9-.4 1.9-.5 2.9-.2.7-.2 1.4-.6 2-1 .3-.4 2.5 0 2.5 0 .5.2 1.1 0 1.3-.5v-.1c.3-.7.7-1.4 1.3-2 0 0 2.5-13.9 7.1-19.1.8-.7 1.1-1.7 1-2.7-.6-1.5 7.4-22.4 18.4-19.4z" opacity=".1"/><path d="m638.5 335.3s8.5-2.5 6.4 21.6c-1.5 14.7-7.7 28.6-17.8 39.4 0 0-18.1 8-26.2 6.7s-14.1-1.6-14.1-1.6c-2.6-1.3-5.4-2-8.2-2.2-4.6-.2-14.2-3-14.3-3.9s2.4-14.3 1.3-15.4c0 0 12.8.5 14.1 1.5 1.3.9 3.1.3 4.5 0s5.6-3.9 13.9-.7c0 0 2.8.3 3.9-.5.9-.4 1.9-.5 2.9-.2.7-.2 1.4-.6 2-1 .3-.4 2.5 0 2.5 0 .5.2 1.1 0 1.3-.5v-.1c.3-.7.7-1.4 1.3-2 0 0 2.5-13.9 7.1-19.1.8-.7 1.1-1.7 1-2.6-.5-1.5 7.5-22.3 18.4-19.4z" fill="#3f3d56"/><path d="m572.5 425.9 12.1 14.6.1-.1c.1-.3 1.3-3.4 1-3.6s-2.4-4.8-6.6-6.7c-2.1-1-3.9-2.7-5.2-4.7z" opacity=".1"/><path d="m572.7 451.2 1.3.8s3.1-2.5 6.1-4.9c3-2.5 6-4.9 6-5s1.3-3.4 1-3.6-.8-1.4-1.9-2.8c-8.2-2.3-3 3.4-2.3 3.7 0 0-10-2.3-10.5 8.6 0 1 .1 2.1.3 3.2z" opacity=".1"/><path d="m582.8 455.8 1.7 1 17.6.5c2 1.2 4.1 2.2 6.2 3 .3.1.6.1.9.2 1.6.1 3.3.2 4.9.1 1.3 0 2.4-.1 2.4-.1s-.8-22.2-1.5-24.6c-.3-1.1-1.8-.9-3.2-.3-1.1.4-2.2 1-3.2 1.6 0 0-7.5.7-8.7 1.4-1.2.6-4.6-.4-6.7 0s-5.9-2.5-5.9-2.5c-10.2-3.4-4.5 2.9-3.7 3.2 0 0-10-2.3-10.5 8.6-.3 10.8 9.7 7.9 9.7 7.9z" fill="#3f3d56"/><path d="m608.3 447.2c.2 4.6 3.8 10.3 5.9 13.3 1.3 0 2.4-.1 2.4-.1s-.8-22.2-1.5-24.6c-.3-1.1-1.8-.9-3.2-.3-1.8 3.4-3.8 8-3.6 11.7z" fill="#565387"/><path d="m608.3 447.2c.2 4.6 3.8 10.3 5.9 13.3 1.3 0 2.4-.1 2.4-.1s-.8-22.2-1.5-24.6c-.3-1.1-1.8-.9-3.2-.3-1.8 3.4-3.8 8-3.6 11.7z" opacity=".1"/><path d="m605.3 447.8c1.2 4.4 1.2 9.4 3.1 12.4.3.1.6.1.9.2 1.6.1 3.3.2 4.9.1 1.3 0 2.4-.1 2.4-.1s-.8-22.2-1.5-24.6c-.3-1.1-1.8-.9-3.2-.3-1.1.4-2.2 1-3.2 1.6 0 .1-5 5-3.4 10.7z" opacity=".05"/><path d="m544.5 402.8s8.8 2.8 16.2 12.9z" opacity=".1"/><g opacity=".1"><path d="m615.6 293.1v.2c-.1.3-.2.5-.3.8 0-.3.2-.6.3-1z"/><path d="m566.1 288.7c.1-.6.4-1.3.7-1.8 0 .1-.1.3-.1.5-.3 2-.2 4.1.4 6.1.1 1.1.7 2 1.5 2.7 1.4.9 3.5.1 4.6 1.3.7.8.7 2.1 1.7 2.5.3.1.7.2 1.1.1 2.4-.3 3.8-3.1 6.2-3.8 1.4-.4 2.8-.2 4.1.4.5.2 1 .5 1.4.9.8 1 .2 2.5.6 3.7.5 1.7 2.5 2.4 4.3 2.6s3.7.4 4.9 1.7c.8 1 1.1 2.3.9 3.5-.1.4-.1.9 0 1.3.5 1.4 2.8 1.2 3.5.1.5-.8.3-1.4 1.4-1.7.8-.1 1.5.1 2.2.4 1.9.6 3.9 1 5.9.9 1.7 0 3.3-.5 4.6-1.4.6-.5 1.1-1.1 1.4-1.7-.3 1.2-1 2.3-2 3.1-1.4.9-3 1.4-4.6 1.4-2 .1-4-.2-5.9-.9-.7-.3-1.5-.4-2.2-.4-1.1.2-.9.9-1.4 1.7-.6 1.1-3 1.3-3.5-.1-.1-.4-.1-.9 0-1.3.2-1.2-.1-2.5-.9-3.5-1.2-1.3-3.1-1.5-4.9-1.7s-3.8-.9-4.3-2.6c-.4-1.2.2-2.7-.6-3.7-.4-.4-.8-.7-1.4-.9-1.3-.6-2.7-.7-4.1-.4-2.3.8-3.7 3.5-6.2 3.8-.4.1-.7 0-1.1-.1-.9-.5-1-1.8-1.7-2.5-1.1-1.2-3.2-.4-4.6-1.3-.8-.7-1.3-1.7-1.5-2.7-.7-2.1-.8-4.2-.4-6.2z"/></g><path d="m617 361.8c-1.7 2.3-3.6 4.4-5.1 6.7-1.6 2.3-2.4 5.2-2.2 8 1.5-1.6 2.2-3.8 3.2-5.7 1.6-3.3 4.1-6.2 6.1-9.2.4-.6 2.9-4 1.6-4.1-.9-.2-3 3.6-3.6 4.3z" opacity=".1"/><path d="m626 575.8c1.2 3.9 2.4 7.8 3.9 11.5 2.7 6.6 6.1 12.8 10.2 18.6 2.6 3.8 5.4 7.5 8.4 11.1 3.8 4.4 8 8.9 9.3 14.5.8 3.3.5 6.7.8 10s1.4 6.9 4.1 8.9c1.9 1.4 4.4 1.9 6.8 2.2 1.7.3 3.8.4 4.7-1.1.3-.6.5-1.3.5-1.9l.4-4.9c.1-1.1.5-2.4 1.5-2.5s1.6 1.4 2.5 2c1.2.8 3 0 3.7-1.3.5-1.4.6-2.9.1-4.3-1.5-5.6-5.3-10.4-10.5-13-1.8-.7-3.5-1.6-5.1-2.7-1.6-1.4-3-3.1-4-5.1-9.3-15.3-18.6-30.6-25.2-47.3-1.3-3-2.2-6.1-2.6-9.3-.3-3.3.2-6.6.4-9.8.4-5.9-.2-11.8-1.6-17.5-.3-1.5-.9-2.9-1.7-4.3-2.7-4.1-9-4.7-13-1.9-3 2.3-4.9 5.7-5.2 9.5-.3 3.3 1.6 6.8 2.6 9.8 3.1 9.7 6.1 19.3 9 28.8z" fill="#a1616a"/><path d="m626 575.8c1.2 3.9 2.4 7.8 3.9 11.5 2.7 6.6 6.1 12.8 10.2 18.6 2.6 3.8 5.4 7.5 8.4 11.1 3.8 4.4 8 8.9 9.3 14.5.8 3.3.5 6.7.8 10s1.4 6.9 4.1 8.9c1.9 1.4 4.4 1.9 6.8 2.2 1.7.3 3.8.4 4.7-1.1.3-.6.5-1.3.5-1.9l.4-4.9c.1-1.1.5-2.4 1.5-2.5s1.6 1.4 2.5 2c1.2.8 3 0 3.7-1.3.5-1.4.6-2.9.1-4.3-1.5-5.6-5.3-10.4-10.5-13-1.8-.7-3.5-1.6-5.1-2.7-1.6-1.4-3-3.1-4-5.1-9.3-15.3-18.6-30.6-25.2-47.3-1.3-3-2.2-6.1-2.6-9.3-.3-3.3.2-6.6.4-9.8.4-5.9-.2-11.8-1.6-17.5-.3-1.5-.9-2.9-1.7-4.3-2.7-4.1-9-4.7-13-1.9-3 2.3-4.9 5.7-5.2 9.5-.3 3.3 1.6 6.8 2.6 9.8 3.1 9.7 6.1 19.3 9 28.8z" opacity=".05"/><path d="m567.7 739.2c1.8.6 3.7.9 5.6.7.1-1.6 2.2-1.9 3.8-1.8.8 0 1.5.1 2.2.5.4.3.7.6 1.1.9.7.4 1.4.6 2.2.6l8.1.7c3.6.3 7.4.6 10.8-.7.7-.2 1.3-.6 1.7-1.2.9-1.3 0-3.2-1.3-4.2s-2.9-1.4-4.2-2.4c-2.8-2.2-3.2-6.2-4.7-9.4-1.1-2-2.4-3.9-3.9-5.6-1.1-1.5-2.4-2.8-3.8-3.9-3.3-2.3-7-2.3-10.8-2.6-2.7-.2-5.2-.4-7.2 2-2.4 3-1.4 9-1.3 12.5.3 4.6.8 9.3 1.7 13.9z" fill="#514e7f"/><path d="m567.7 739.2c1.8.6 3.7.9 5.6.7.1-1.6 2.2-1.9 3.8-1.8.8 0 1.5.1 2.2.5.4.3.7.6 1.1.9.7.4 1.4.6 2.2.6l8.1.7c3.6.3 7.4.6 10.8-.7.7-.2 1.3-.6 1.7-1.2.9-1.3 0-3.2-1.3-4.2s-2.9-1.4-4.2-2.4c-2.8-2.2-3.2-6.2-4.7-9.4-1.1-2-2.4-3.9-3.9-5.6-1.1-1.5-2.4-2.8-3.8-3.9-3.3-2.3-7-2.3-10.8-2.6-2.7-.2-5.2-.4-7.2 2-2.4 3-1.4 9-1.3 12.5.3 4.6.8 9.3 1.7 13.9z" opacity=".05"/><path d="m571 581.2c-2.5.8-3.6 3.9-3.1 6.5s2 4.8 3.3 7.1c3.6 6.5 5.2 13.9 8.2 20.6 2.3 5 5.3 9.7 7.6 14.8s3.6 10.8 2.3 16.1c-.7 2.6-1.9 5-2.8 7.6-.8 2.8-1.4 5.7-1.6 8.5-1.1 9.8-1.3 19.8-.6 29.7 0 1.2.3 2.4.7 3.5.5 1 1.4 2 1 3-.2.4-.5.7-.7 1.1-.5 1.1.5 2.3 1.5 3.1-.3.6-.9 1.1-1.6 1.2 1.4.9 2 2.6 1.6 4.2-.8.1-.9 1.4-.4 2.1s1.4 1.1 1.8 1.9c.5 1.3-.2 2.7-1.4 3.3-1.2.5-2.6.6-3.9.3-2.2-.3-4.4-.8-6.5-1.4-2.3-.5-3.9-2.5-3.8-4.9-.5-4.1-.6-8.2-.5-12.3.3-19.8 0-39.7-.9-59.5-.4-8-2.8-15.8-5.8-23.1-1.7-3.8-3.6-7.4-5.7-11-4.5-8.2-8.4-17.2-7.4-26.5.1-1 .5-2.2 1.5-2.3.4 0 .8 0 1.1.2 2.1 1 4 2.1 6 3.3 2.9 1.7 6.5 2.8 10.1 2.9z" fill="#464353"/><path d="m571 581.2c-2.5.8-3.6 3.9-3.1 6.5s2 4.8 3.3 7.1c3.6 6.5 5.2 13.9 8.2 20.6 2.3 5 5.3 9.7 7.6 14.8s3.6 10.8 2.3 16.1c-.7 2.6-1.9 5-2.8 7.6-.8 2.8-1.4 5.7-1.6 8.5-1.1 9.8-1.3 19.8-.6 29.7 0 1.2.3 2.4.7 3.5.5 1 1.4 2 1 3-.2.4-.5.7-.7 1.1-.5 1.1.5 2.3 1.5 3.1-.3.6-.9 1.1-1.6 1.2 1.4.9 2 2.6 1.6 4.2-.8.1-.9 1.4-.4 2.1s1.4 1.1 1.8 1.9c.5 1.3-.2 2.7-1.4 3.3-1.2.5-2.6.6-3.9.3-2.2-.3-4.4-.8-6.5-1.4-2.3-.5-3.9-2.5-3.8-4.9-.5-4.1-.6-8.2-.5-12.3.3-19.8 0-39.7-.9-59.5-.4-8-2.8-15.8-5.8-23.1-1.7-3.8-3.6-7.4-5.7-11-4.5-8.2-8.4-17.2-7.4-26.5.1-1 .5-2.2 1.5-2.3.4 0 .8 0 1.1.2 2.1 1 4 2.1 6 3.3 2.9 1.7 6.5 2.8 10.1 2.9z" opacity=".05"/><path d="m537.5 557.1c-1.3-.8-2.8-1.3-4.3-1.4-1.8.1-3.3 1.3-4.7 2.4-1.6 1.3-3.2 2.6-4.7 4.1-6.2 6.6-8.3 16.1-5.6 24.7 1.5 4.4 4.2 8.3 6.8 12.1l5.4 7.8c8.2 11.8 16.5 23.7 25.1 35.2 0 .6.4 1.1.9 1.3.3.1.7.1.9.3.1.2.1.3.1.5 0 .9-.2 1.7-.5 2.5-.1.3-.2.6-.1.9.3.7 1.5.3 1.8.9.3.4-.1.9-.4 1.3s-.7.7-.7 1.2.9 1 .8 1.6c0 .3-.3.6-.5.9-.6.9-.5 2.1.3 2.8.6 5.6-2.5 11-3.1 16.6-1 8.9 3 17.5 3.5 26.5 0 1 .2 2 .6 2.9.8 1.5 3 2.5 2.9 4.2-.2.7-.4 1.4-.6 2.1-.2 1 .3 2 .3 3s-.9 2.2-1.8 1.8c.7 2.4 1.3 4.7 1.9 7.1l18.9 1.6c.2-1.7.1-3.4-.2-5.1-.4-1.8-1.2-3.5-1.6-5.3-.6-1.8-.3-3.8.7-5.3-1 0-1.9-.7-2.1-1.7s-.1-2 0-2.9c.5-4.9-1.6-9.8-1.5-14.7.1-3.9 1.4-7.7 2.1-11.5 1.5-8.2-.1-17.1 3.6-24.6 2.2-4.5 5.3-9.5 2.8-13.9-1.2-2.2-3.4-3.6-4.8-5.7-1.1-1.9-2-4-2.6-6.2-2.9-9-7.6-17.4-11.8-25.9-1.1-2.1-2-4.4-2.5-6.8-.3-2.1-.4-4.2-.3-6.3 0-3.8-.2-7.5-.7-11.3-.1-1.6-.6-3.2-1.4-4.7-.8-1.1-1.8-2-3-2.7-5.8-4.3-13.2-6.8-19.9-10.3z" fill="#464353"/><path d="m560.1 746.1c1.8.6 3.7.8 5.6.7.1-1.6 2.2-1.9 3.8-1.8.8 0 1.5.1 2.2.5.4.3.7.6 1.1.9.7.4 1.4.6 2.2.6l8.1.7c3.6.3 7.4.6 10.8-.7.7-.2 1.3-.6 1.7-1.2.9-1.3 0-3.2-1.3-4.2s-2.9-1.4-4.2-2.4c-2.8-2.2-3.2-6.2-4.7-9.4-1-2-2.4-3.9-3.9-5.6-1.1-1.5-2.4-2.8-3.8-3.9-3.3-2.4-7-2.3-10.8-2.7-2.7-.2-5.3-.4-7.2 2-2.4 3-1.4 9-1.3 12.5.3 4.7.8 9.4 1.7 14z" fill="#514e7f"/><circle cx="643.9" cy="505.7" fill="#a1616a" r="18.7"/><path d="m626.2 511.2c-2.7 2.3-6.5 2.5-10 2.8-7.5.8-14.9 2.9-21.6 6.3-.9.4-1.8 1-2.5 1.7-.6.8-1 1.7-1.3 2.7-.6 2.1-.9 4.3-.7 6.5.2 2.1.9 4.2 1.8 6.1 2.6 5.4 6.6 10 11.6 13.2.9.7 1.9 1.1 2.9 1.4 2.5.5 4.8-.9 7.3-1.5 2.2-.6 4.5-.5 6.7.2 2 .7 4.2 1.9 6.2 1.1 1.3-.7 2.3-1.8 2.8-3.2 1.9-3.6 3.6-7.3 5.1-11.1.5-1.5 1.2-2.9 1.9-4.4 2.2-4.1 5.9-7.3 7.8-11.6.4-.7.5-1.5.2-2.2-.3-.5-.8-.8-1.4-1-2.8-1.6-5.3-3.6-7.5-5.9-1.2-1.2-3.5-4.4-5.3-4.7-2-.2-2.6 2.5-4 3.6z" fill="#a1616a"/><path d="m626.7 549.3c-2.2 1-4.7.6-7.1.1-6.1-1.3-12.2-2.5-17.8-5.2-1.8-.7-3.3-1.8-4.4-3.4-.7-1.3-1.1-2.7-1.2-4.2l-1-7c-.4-2.4.3-4.7.3-7.1.1-.6-.1-1.1-.4-1.5-.3-.3-.8-.4-1.2-.4-2.8 0-4.5 3-6.5 5-1.1 1.2-2.5 2.1-4 2.7-1.8.7-4 1.3-4.8 3.1-.3.8-.3 1.6-.6 2.3-1.3 3-6.6 2-8 5-.4.8-.4 1.9-1 2.5s-1.8.7-2.8.8c-3.9.6-5.8 5.2-9.1 7.3-2.8 1.8-6.4 1.8-9.5 3.2-1.7.8-3.2 2-5 2.5s-3.8.2-5.7.3c-.4 0-.8.1-1.1.4-.2.4-.3.8-.2 1.2 1.9 12 10 22.2 21.3 26.7.6.2 1.3.5 1.8.9 1.7 1.3 2 4 3.9 4.9 1.4.5 3 .2 4.1-.9 1.1-1 2.1-2.1 3-3.3 1.8-1.8 4.1-3.1 6.6-3.5 2.3-.4 4.9-.1 6.8-1.5.8-.7 1.5-1.5 2.1-2.3 1.4-1.3 3-2.3 4.8-2.9 4.9-1.9 10.1-3.1 15.4-3.4 4.9-.3 10 .2 14.7-1.4 1.2-.4 2.3-1 3.3-1.8 1-1.1 1.7-2.4 2.2-3.8 1.8-5 2.1-10.3 1.1-15.3z" fill="#8165ba"/><path d="m602.5 521.7c1.4-.1 2.8 0 4.2 0 1.6 0 3.2-.4 4.9-.4 5.3.1 9.9 3.6 11.4 8.7.1.4.2.8.1 1.2s-.5.7-.9.6c-.5-1.5-1.2-2.9-2.1-4.2-1.5-2.1-3.8-3.7-6.3-4.4s-5.2-.8-7.7-.3c-1.1.2-2.1.5-3.1.8l-5 1.4c-.9.3-1.9.5-2.7.8-.7.3-1.9 1.2-2.5 1.3-.9 0-.2-.8.2-1.3.8-1.1 2-1.9 3.3-2.4 1.9-.9 4-1.5 6.2-1.8z" fill="#8165ba"/><path d="m615.2 577.9c1.2 3.9 2.4 7.8 3.9 11.5 2.7 6.6 6.1 12.8 10.2 18.6 2.6 3.8 5.4 7.5 8.4 11.1 3.8 4.4 7.9 8.9 9.3 14.5.8 3.3.5 6.7.8 10s1.4 6.9 4.1 8.9c1.9 1.4 4.4 1.8 6.8 2.2 1.7.3 3.8.4 4.7-1.1.3-.6.5-1.3.5-1.9l.4-4.9c.1-1.1.5-2.4 1.5-2.5s1.6 1.4 2.5 2c1.2.8 3 0 3.7-1.3.5-1.4.6-2.9.1-4.3-1.5-5.6-5.3-10.4-10.5-13-1.8-.7-3.5-1.6-5.1-2.7-1.6-1.4-3-3.1-4-5.1-9.3-15.3-18.6-30.6-25.2-47.3-1.3-3-2.2-6.1-2.6-9.3-.3-3.3.2-6.6.4-9.8.4-5.9-.2-11.8-1.6-17.5-.3-1.5-.9-2.9-1.7-4.3-2.7-4.1-9-4.7-13-1.9-3 2.3-4.9 5.7-5.2 9.5-.3 3.3 1.6 6.8 2.6 9.8 3 9.7 6 19.3 9 28.8z" fill="#a1616a"/><path d="m671.1 492.4c.1-1.6-1.3-3-2.8-4-1.7-.9-3.3-1.8-4.8-2.9-1.4-1.2-2.2-2.8-3.6-4.1-1.6-1.2-3.4-2.1-5.4-2.7-4.2-1.5-8.5-2.2-12.9-2.3-4.5 0-9 1-12.3 3.3-.8.5-1.5 1.2-2.1 2-.5 1-.9 2-1 3.1-.8 3.4-1.9 6.6-3.2 9.8-1.4 3.5-2.9 7.2-6.1 9.9-3.5 2.9-8.9 4.6-11.2 8.1-.5.6-.7 1.5-.5 2.3.3.9 1.4 1.5 2.4 2.1 5.7 3.3 10.6 7.5 13.1 12.5s2.5 11-1.1 15.7c-1.3 1.7-3.1 3.8-1.9 5.5 2 2.6 8.7 1.1 10.3 3.9.5.9.2 1.9.2 2.9 0 2.9 2.8 5.5 6.2 6.9 3.4 1.3 7.4 1.7 11.2 1.8 1-2.3 1.1-4.9.3-7.3-.3-.5-.4-1.1-.3-1.7.3-.6.7-1.2 1.3-1.6 4.1-3.9 3.2-9.6.8-14.2s-6.3-8.8-7.7-13.7c-.7-2.4-.7-5.1 1.2-7.1 1.1-1 2.3-1.8 3.5-2.6 2.2-1.5 4-3.7 4.9-6.2 1.1-3.2 1-7 4.3-9.2 3.2-2 7.7-1.4 11.3-2.8 2.5-.9 5.7-5.1 5.9-7.4z" fill="#464353"/><path d="m865 649.1c-15.3-6.3-19.7-10.9-19.7-20 0-7 3.1-15.1 16.6-15.1 7.5-.1 14.8 2 21.1 6l4.4-11.6c-5.1-3-12.3-5.8-22.8-6.1v-17h-8.9v17.7c-16.1 2.6-25.5 13.7-25.5 28.2 0 15.3 9 23.3 26.9 30.3 13 5.3 19.8 11.3 19.8 20.9 0 10-8.4 17.2-20.9 17.2-9.8 0-20.9-3.3-27.2-7.5l-4.2 11.7c6.1 4.4 16.7 7.5 26.8 7.7v17.7h15.1v-18.2c18-3 27.7-16 27.7-29.8 0-15.6-11.1-24.7-29.2-32.1z" fill="url(#c)"/><path d="m851.5 725.2v-17.7c-10.2-.2-20.7-3.3-26.8-7.7l4.2-11.7c6.3 4.2 17.4 7.5 27.2 7.5 12.5 0 20.8-7.2 20.8-17.2 0-9.6-6.8-15.6-19.8-20.9-17.9-7-26.9-15.1-26.9-30.3 0-14.5 9.3-25.6 25.5-28.2v-17.7h8.9v17c10.5.3 17.7 3.2 22.8 6.1l-4.4 11.6c-6.3-4-13.6-6.1-21.1-6-13.5 0-16.6 8.1-16.6 15.1 0 9.1 4.5 13.7 19.7 20 18.1 7.4 29.2 16.5 29.2 32.1 0 13.8-9.6 26.8-27.7 29.8v18.2z" fill="#2ebf91"/><path d="m171 404.9v.1-.1h.1z"/><circle cx="171" cy="404.9" r="0"/><path d="m171.1 404.9v.1z"/><circle cx="171.1" cy="404.9" r="0"/><path d="m171.2 404.9h-.1v.1h.1z"/><circle cx="171.2" cy="404.9" r="0"/><path d="m1154.5 278.1s-10.6-4.3-44.2 11.1c-33.7 15.4-37.9 13.5-46.6 11.2s-13.6-2.9-22.9-15.8c0 0-6.6-35.7-13-41.3-6.4-5.5-33.5 3.2-33.5 3.2s-32.5 7.5-38.7-36c0 0 4.4-32.7-1.6-42.8 0 0 12.1 5.2 32-3.2s35.9 9 35.9 9 5 13 4.5 20.8 2.7 10.7 12.2 6.9c0 0 4.7-6.6-1.9-17.6s-11.3-19.1-9.5-27.7c1.8-8.5 7.2-20.4 24.2-26.3 17.1-5.9 40.2-7 51.3-11.7s13.8-7.7 13.8-7.7-6.8 6.9 9.3 35.9 5.8 41.6 5.8 41.6-8.6 20.4-46.4 18.8c0 0-36.5 1.3-16.6 16.8 0 0 12.7-2.6 31.8-8.6s32.8 18.9 36.2 36.3c3.4 17.5 17.9 27.1 17.9 27.1z" fill="#2ebf91"/><path d="m1105.5 132.4.2-.1c1.5 5.5-14.8 27.8-28.8 45.5l-.2-.1c19.7-24.9 29.9-41 28.8-45.3z" fill="#444053"/><path d="m1077.1 177.4.1.2c-11.1 14.1-25.1 31-36.3 43.5-1.1 1.2-2.1 2.4-3.2 3.7l-.3-.3c1-1.3 2.1-2.5 3.2-3.7 11.1-12.4 25.3-29.2 36.5-43.4z" fill="#444053"/><path d="m1037.6 224.3.2.4c-20.4 25.5-21.7 65-21.8 65.3l-4.3-5c.1-.3 5.4-35.1 25.9-60.7z" fill="#444053"/><g fill="none" stroke="#444053" stroke-miterlimit="10"><path d="m1130.9 264.3s-24-12.5-42.8-8-61-15.9-61-15.9-17.9-7.3-21.5-15.6c0 0-12.3-13-13-19.7s-12.7-23.6-20.5-24.3"/><path d="m1127.4 276.4s-12.1-8.2-10.7-17.7"/><path d="m1108.8 286.9s-17.3-6.3-19-30.9"/><path d="m1080.9 293.3s-16.5-13.7-11.1-37.7"/><path d="m1047.3 286.6s-11-23.1-1.2-38.1"/><path d="m1131.1 249.1s-12.5 4-9.8 10.6"/><path d="m1116 226.4s-16.8 5.3-17.1 29"/><path d="m1092.7 220.9s-15.3 18.8-14.1 35.9"/><path d="m1066 228.3s-15.1 14.5-13.2 22.5"/><path d="m1056.8 223.2s-14.2 2.5-16.2-2.1"/><path d="m1038.4 206s7.2 9.5 9 7.4"/><path d="m1109.5 200s-35.8 2.6-43.9-8.2"/><path d="m1030.9 158.2s16.8 36.1 29 40.6"/><path d="m1048.5 141s10.3 33.2 23.1 43.5"/><path d="m1124.6 172.7s-27.2 11.7-43.6-.1" stroke-width=".75"/><path d="m1072.7 133.9s6.2 24.4 14.6 30.3" stroke-width=".75"/><path d="m1120.5 145.3s-15.3 5.8-21 1.4" stroke-width=".75"/><path d="m1025.3 214s0 21.3-5.8 22.8"/><path d="m978 241.5s23 2 33.6-9.9"/><path d="m1019.4 188.9s-5.6 21.5-20.9 27.4"/><path d="m964.2 218.8s16.3 5.6 30.3-8.7"/><path d="m1001.3 170.4s-1.5 18.3-11.5 26.9"/><path d="m964.8 190.9s13.5.1 16.7-4.3"/></g><path d="m171 404.9v.1-.1h.1z"/><circle cx="171" cy="404.9" r="0"/><path d="m171.1 404.9v.1z"/><circle cx="171.1" cy="404.9" r="0"/><path d="m171.2 404.9h-.1v.1h.1z"/><circle cx="171.2" cy="404.9" r="0"/></svg>