<svg viewBox="269 293.1 164.2 266.7" xmlns="http://www.w3.org/2000/svg"><path d="m392.6 524.1s-10.8-60.9-50.6-91.1c-16.7-12.7-29-29.9-34.3-49.5-2.5-9.3-4.1-18.8-4.8-28.4" fill="none" stroke="#535461" stroke-miterlimit="10" stroke-width="2"/><path d="m277.8 336c3.4 6.5 25.6 19.7 25.6 19.7s2.8-24.7-.5-31.2-11.7-9.3-18.6-6.1-9.8 11.1-6.5 17.6zm-2 45.7c6.6 3.8 32.9 3.4 32.9 3.4s-11.9-22.1-18.5-25.9c-6.5-3.8-14.9-1.8-19.1 4.4-3.8 5.9-2 13.8 3.9 17.6.2.2.5.3.8.5zm32.6 61.4c7.7.1 30.2-12.7 30.2-12.7s-22.1-13.5-29.8-13.6-14 5.7-14.1 12.9 6 13.2 13.7 13.4zm35.7 41.1c7.6 1.3 32-7.7 32-7.7s-19.4-16.8-26.9-18.1-14.8 3.4-16.2 10.5 3.6 14 11.1 15.3zm-8.6-109.9c-2.6 6.8-23.3 22.1-23.3 22.1s-5.4-24.3-2.8-31.1 10.6-10.3 17.8-7.9 10.9 10.1 8.3 16.9zm41.3 48.7c-4.7 5.8-29.3 14.5-29.3 14.5s2.5-24.7 7.1-30.5c4.9-5.8 13.4-6.9 19.5-2.5 5.8 4 7.2 11.9 3.2 17.6-.1.4-.3.6-.5.9zm33.1 52.5c-3.6 6.4-26.2 19-26.2 19s-2-24.7 1.6-31.2c3.8-6.5 12-8.9 18.8-5.5 6.4 3 9.2 10.6 6.2 17-.2.2-.3.5-.4.7z" fill="#2ebf91"/><path d="m277.8 336c3.4 6.5 25.6 19.7 25.6 19.7s2.8-24.7-.5-31.2-11.7-9.3-18.6-6.1-9.8 11.1-6.5 17.6zm-2 45.7c6.6 3.8 32.9 3.4 32.9 3.4s-11.9-22.1-18.5-25.9c-6.5-3.8-14.9-1.8-19.1 4.4-3.8 5.9-2 13.8 3.9 17.6.2.2.5.3.8.5zm32.6 61.4c7.7.1 30.2-12.7 30.2-12.7s-22.1-13.5-29.8-13.6-14 5.7-14.1 12.9 6 13.2 13.7 13.4zm35.7 41.1c7.6 1.3 32-7.7 32-7.7s-19.4-16.8-26.9-18.1-14.8 3.4-16.2 10.5 3.6 14 11.1 15.3zm-8.6-109.9c-2.6 6.8-23.3 22.1-23.3 22.1s-5.4-24.3-2.8-31.1 10.6-10.3 17.8-7.9 10.9 10.1 8.3 16.9zm41.3 48.7c-4.7 5.8-29.3 14.5-29.3 14.5s2.5-24.7 7.1-30.5c4.9-5.8 13.4-6.9 19.5-2.5 5.8 4 7.2 11.9 3.2 17.6-.1.4-.3.6-.5.9zm33.1 52.5c-3.6 6.4-26.2 19-26.2 19s-2-24.7 1.6-31.2c3.8-6.5 12-8.9 18.8-5.5 6.4 3 9.2 10.6 6.2 17-.2.2-.3.5-.4.7z" opacity=".25"/><path d="m391.3 522.5s16.3-59.8-7.2-102.6c-9.9-18-13.7-38.4-10.1-58.4 1.7-9.5 4.3-18.8 7.8-27.8" fill="none" stroke="#535461" stroke-miterlimit="10" stroke-width="2"/><path d="m367 306.6c.3 7.3 14.9 27.8 14.9 27.8s13.2-21.5 12.9-28.7c-.3-7.3-6.7-12.9-14.4-12.7s-13.6 6.4-13.4 13.6zm-21.5 41c4.4 6 28.6 15.7 28.6 15.7s-1.3-24.8-5.7-30.7c-4.6-6-13.1-7.4-19.4-3.3-5.9 3.7-7.7 11.6-4 17.5.2.2.3.5.5.8zm3.5 68.6c7 3 33.1-.1 33.1-.1s-14.4-20.8-21.4-23.8-15.2-.2-18.5 6.4-.2 14.4 6.8 17.5zm15.1 51.3c6.3 4.1 32.6 5.2 32.6 5.2s-10.5-22.8-16.8-26.9-14.8-2.6-19.4 3.4c-4.1 5.6-2.9 13.6 2.7 17.7.3.3.6.5.9.6zm39.2-103.8c-5.3 5.2-30.8 11.3-30.8 11.3s5.4-24.3 10.7-29.5c5.5-5.2 14-5.4 19.7-.4 5.2 4.6 5.7 12.6 1.1 17.8-.2.3-.4.6-.7.8zm16.8 60.3c-6.7 3.5-33 2.1-33 2.1s12.9-21.6 19.6-25.1 14.9-1.2 18.9 5.2c3.5 6.1 1.4 13.9-4.7 17.4-.2.1-.5.2-.8.4zm7.8 60.7c-6 4.5-32.1 7.3-32.1 7.3s8.8-23.4 14.8-27.9c6.1-4.5 14.6-3.6 19.6 2.1 4.5 5.3 3.9 13.3-1.4 17.8-.3.3-.6.5-.9.7z" fill="#2ebf91"/><ellipse cx="381.7" cy="554.6" fill="#2ebf91" opacity=".1" rx="30.9" ry="5.2"/><path d="m360.9 530.3s17.6-.5 22.9-4.3 27.1-8.3 28.4-2.2 26.5 30.1 6.6 30.3-46.2-3.1-51.5-6.3c-5.2-3.3-6.4-17.5-6.4-17.5z" fill="#a8a8a8"/><path d="m419.2 552c-19.9.2-46.2-3.1-51.5-6.3-4-2.5-5.6-11.3-6.2-15.3h-.6s1.1 14.2 6.4 17.4 31.6 6.5 51.5 6.3c5.7 0 7.7-2.1 7.6-5.1-.6 1.8-2.9 2.9-7.2 3z" opacity=".2"/></svg>