<?xml version="1.0" encoding="utf-8"?>
<!-- Generator: Adobe Illustrator 23.0.3, SVG Export Plug-In . SVG Version: 6.00 Build 0)  -->
<svg version="1.1" id="b73a925f-84d4-42fb-b5d6-6e87d8bd3a11"
	 xmlns="http://www.w3.org/2000/svg" xmlns:xlink="http://www.w3.org/1999/xlink" x="0px" y="0px" viewBox="0 0 1300 929.3"
	 style="enable-background:new 0 0 1300 929.3;" xml:space="preserve">
<style type="text/css">
	.st0{opacity:0.1;fill:#2EBF91;enable-background:new    ;}
	.st1{fill:#535461;}
	.st2{opacity:0.1;enable-background:new    ;}
	.st3{opacity:0.15;enable-background:new    ;}
	.st4{opacity:0.7;enable-background:new    ;}
	.st5{font-family:'Lato-Light';}
	.st6{font-size:38.32px;}
	.st7{opacity:0.7;}
	.st8{fill:url(#SVGID_1_);}
	.st9{fill:#FDB797;}
	.st10{fill:#4D8AF0;}
	.st11{opacity:5.000000e-02;}
	.st12{fill:#8165BA;}
	.st13{fill:#333333;}
	.st14{fill:url(#SVGID_2_);}
	.st15{opacity:0.1;}
	.st16{fill:url(#SVGID_3_);}
	.st17{fill:url(#SVGID_4_);}
	.st18{fill:url(#SVGID_5_);}
	.st19{fill:url(#SVGID_6_);}
	.st20{fill:url(#SVGID_7_);}
	.st21{fill:url(#SVGID_8_);}
	.st22{fill:url(#SVGID_9_);}
	.st23{fill:url(#SVGID_10_);}
	.st24{fill:url(#SVGID_11_);}
	.st25{fill:url(#SVGID_12_);}
	.st26{fill:url(#SVGID_13_);}
	.st27{fill:url(#SVGID_14_);}
	.st28{fill:url(#SVGID_15_);}
	.st29{font-size:37.97px;}
	.st30{fill:url(#SVGID_16_);}
	.st31{fill:url(#SVGID_17_);}
	.st32{fill:url(#SVGID_18_);}
	.st33{fill:url(#SVGID_19_);}
	.st34{fill:url(#SVGID_20_);}
	.st35{fill:url(#SVGID_21_);}
	.st36{fill:#2EBF91;}
	.st37{fill:#814E4D;}
	.st38{fill:url(#SVGID_22_);}
	.st39{fill:#FDD835;}
	.st40{opacity:0.2;fill:#FFFFFF;enable-background:new    ;}
	.st41{fill:url(#SVGID_23_);}
	.st42{fill:url(#SVGID_24_);}
	.st43{fill:url(#SVGID_25_);}
	.st44{fill:url(#SVGID_26_);}
	.st45{fill:url(#SVGID_27_);}
	.st46{fill:url(#SVGID_28_);}
	.st47{fill:url(#SVGID_29_);}
	.st48{fill:url(#SVGID_30_);}
	.st49{fill:url(#SVGID_31_);}
	.st50{fill:url(#SVGID_32_);}
	.st51{fill:url(#SVGID_33_);}
	.st52{fill:url(#SVGID_34_);}
	.st53{fill:url(#SVGID_35_);}
	.st54{fill:url(#SVGID_36_);}
	.st55{fill:#FBC02D;}
	.st56{fill:url(#SVGID_37_);}
	.st57{fill:url(#SVGID_38_);}
	.st58{fill:url(#SVGID_39_);}
	.st59{fill:url(#SVGID_40_);}
	.st60{fill:url(#SVGID_41_);}
	.st61{fill:url(#SVGID_42_);}
	.st62{fill:url(#SVGID_43_);}
	.st63{fill:url(#SVGID_44_);}
	.st64{fill:url(#SVGID_45_);}
	.st65{fill:url(#SVGID_46_);}
	.st66{fill:url(#SVGID_47_);}
	.st67{fill:url(#SVGID_48_);}
	.st68{fill:url(#SVGID_49_);}
	.st69{fill:url(#SVGID_50_);}
	.st70{fill:url(#SVGID_51_);}
	.st71{fill:url(#SVGID_52_);}
	.st72{fill:url(#SVGID_53_);}
	.st73{fill:url(#SVGID_54_);}
	.st74{fill:url(#SVGID_55_);}
	.st75{fill:url(#SVGID_56_);}
	.st76{fill:url(#SVGID_57_);}
	.st77{fill:url(#SVGID_58_);}
	.st78{fill:url(#SVGID_59_);}
	.st79{fill:url(#SVGID_60_);}
	.st80{fill:url(#SVGID_61_);}
	.st81{fill:url(#SVGID_62_);}
	.st82{fill:url(#SVGID_63_);}
	.st83{fill:url(#SVGID_64_);}
	.st84{fill:url(#SVGID_65_);}
	.st85{fill:url(#SVGID_66_);}
	.st86{fill:url(#SVGID_67_);}
	.st87{fill:url(#SVGID_68_);}
	.st88{fill:url(#SVGID_69_);}
	.st89{fill:url(#SVGID_70_);}
	.st90{fill:url(#SVGID_71_);}
	.st91{fill:url(#SVGID_72_);}
	.st92{fill:url(#SVGID_73_);}
	.st93{fill:url(#SVGID_74_);}
	.st94{fill:url(#SVGID_75_);}
	.st95{fill:url(#SVGID_76_);}
	.st96{fill:url(#SVGID_77_);}
	.st97{fill:url(#SVGID_78_);}
	.st98{fill:url(#SVGID_79_);}
	.st99{fill:url(#SVGID_80_);}
	.st100{fill:url(#SVGID_81_);}
	.st101{fill:#FFFFFF;}
	.st102{fill:url(#SVGID_82_);}
	.st103{fill:url(#SVGID_83_);}
	.st104{fill:url(#SVGID_84_);}
	.st105{fill:url(#SVGID_85_);}
	.st106{fill:url(#SVGID_86_);}
	.st107{fill:url(#SVGID_87_);}
	.st108{fill:url(#SVGID_88_);}
	.st109{fill:url(#SVGID_89_);}
	.st110{fill:url(#SVGID_90_);}
	.st111{fill:url(#SVGID_91_);}
	.st112{fill:url(#SVGID_92_);}
	.st113{fill:url(#SVGID_93_);}
	.st114{fill:url(#SVGID_94_);}
	.st115{fill:url(#SVGID_95_);}
	.st116{fill:url(#SVGID_96_);}
	.st117{font-size:39.81px;}
	.st118{fill:url(#SVGID_97_);}
	.st119{fill:#3AD29F;}
	.st120{fill:#FFCF51;}
	.st121{opacity:2.000000e-02;enable-background:new    ;}
	.st122{fill:url(#SVGID_98_);}
	.st123{fill:#F2F2F2;}
	.st124{clip-path:url(#SVGID_100_);}
	.st125{fill:url(#SVGID_101_);}
	.st126{fill:url(#SVGID_102_);}
	.st127{fill:url(#SVGID_103_);}
	.st128{fill:#2EBF91;stroke:#FFFFFF;stroke-miterlimit:10;}
	.st129{fill:#FDFFFE;}
	.st130{fill:url(#SVGID_104_);}
	.st131{opacity:0.5;fill:#FFFFFF;enable-background:new    ;}
	.st132{fill:#3F2B3B;}
	.st133{fill:none;stroke:#3F2B3B;stroke-miterlimit:10;}
</style>
<g>
	<path class="st0" d="M24.9,515.9c20.4,87.2,63.6,162.6,131.9,199.2c141.9,75.9,461.9,36.8,700.7-8.2
		c120.7-22.7,230.2-85.3,311-177.8L24.9,515.9z"/>
	<path class="st0" d="M1277.2,105.3h-131c-6.3,0-11.3-5.1-11.3-11.3c0-6.3,5.1-11.3,11.3-11.3l0,0h22.7c-6.3-0.2-11.2-5.4-11-11.7
		c0.2-6,5-10.8,11-11h-16.2c-6.3-0.2-11.2-5.4-11-11.7c0.2-6,5-10.8,11-11h68.4c-15.2-7.1-32.9-12.1-53.4-14.7
		c-186.5-24-253.1-8.1-276.5,8.2c-29,20.1-61.3,34.9-95.9,42C680.2,96.6,465.1,125.2,270,63.8c-96.9-30.6-169,21.1-212.2,107.3H1300
		c-1.6-25.1-6.5-48.2-15.4-68.5C1282.5,104.4,1279.9,105.3,1277.2,105.3z"/>
	<path class="st0" d="M13.8,333.8c-5,50.7-3.3,101.9,5.1,152.2l1150.4,42.1c32-36.8,58.9-77.8,79.9-121.9L13.8,333.8z M468.8,442.4
		h-22.7c6.3,0,11.3,5.1,11.3,11.3c0,6.3-5.1,11.3-11.3,11.3l0,0h-131c-6.3,0-11.3-5.1-11.3-11.3c0-6.3,5.1-11.3,11.3-11.3h22.7
		c-6.3-0.2-11.2-5.4-11-11.7c0.2-6,5-10.8,11-11h-16.2c-6.3-0.2-11.2-5.4-11-11.7c0.2-6,5-10.8,11-11h131c6.3,0.2,11.2,5.4,11,11.7
		c-0.2,6-5,10.8-11,11h16.2c6.3,0.2,11.2,5.4,11,11.7C479.6,437.4,474.8,442.2,468.8,442.4L468.8,442.4z"/>
	<path class="st0" d="M1300,171.8L44,202.4C28.7,241.7,18.7,286.1,14,332.1H1278c8.2-27,14.4-54.7,18.3-82.7
		C1300,222.4,1301.5,196.2,1300,171.8z M269,272h-22.7c6.3,0,11.3,5.1,11.3,11.3c0,6.3-5.1,11.3-11.3,11.3c0,0,0,0,0,0h-131
		c-6.3,0-11.3-5.1-11.3-11.3c0-6.2,5.1-11.3,11.3-11.3h22.7c-6.3-0.2-11.2-5.4-11-11.7c0.2-6,5-10.8,11-11h-16.2
		c-6.3-0.2-11.2-5.4-11-11.7c0.2-6,5-10.8,11-11h131c6.3,0.2,11.2,5.4,11,11.7c-0.2,6-5,10.8-11,11H269c6.3,0.2,11.2,5.4,11,11.7
		C279.7,267,274.9,271.8,269,272z"/>
</g>
<title>fans</title>
<g>
	<path class="st1" d="M238.6,487.6h722.1c14.4,0,26.1,11.7,26.1,26.1v259.1l0,0H212.5l0,0V513.7
		C212.5,499.3,224.2,487.6,238.6,487.6L238.6,487.6z"/>
	<path class="st2" d="M180.6,630.2h63.8c6.8,0,12.3,5.5,12.3,12.3l0,0v130.3l0,0h-80.4c-4.4,0-8-3.6-8-8V642.5
		C168.3,635.7,173.8,630.2,180.6,630.2L180.6,630.2z"/>
	<path class="st1" d="M173.2,630.2H237c6.8,0,12.3,5.5,12.3,12.3l0,0v130.3l0,0h-80.4c-4.4,0-8-3.6-8-8V642.5
		C160.9,635.7,166.4,630.2,173.2,630.2L173.2,630.2z"/>
	<path class="st2" d="M1023.1,772.7h-80.5l0,0V642.5c0-6.8,5.5-12.3,12.3-12.3l0,0h63.8c6.8,0,12.3,5.5,12.3,12.3l0,0v122.2
		C1031.1,769.2,1027.5,772.7,1023.1,772.7z"/>
	<path class="st1" d="M1030.5,772.7H950l0,0V642.5c0-6.8,5.5-12.3,12.3-12.3h63.8c6.8,0,12.3,5.5,12.3,12.3l0,0v122.2
		C1038.5,769.2,1034.9,772.7,1030.5,772.7L1030.5,772.7z"/>
	<path class="st1" d="M268.2,675.6h662.9c10.4,0,18.8,8.4,18.8,18.8l0,0v78.3l0,0H249.4l0,0v-78.3
		C249.4,684.1,257.8,675.6,268.2,675.6L268.2,675.6z"/>
	<path class="st3" d="M268.2,675.6h662.9c10.4,0,18.8,8.4,18.8,18.8l0,0v78.3l0,0H249.4l0,0v-78.3
		C249.4,684.1,257.8,675.6,268.2,675.6L268.2,675.6z"/>
	<rect x="199" y="772.8" class="st1" width="27" height="28.3"/>
	<rect x="199" y="772.8" class="st3" width="27" height="28.3"/>
	<rect x="199" y="772.8" class="st2" width="27" height="1.2"/>
	<rect x="973.3" y="772.7" class="st1" width="27" height="28.3"/>
	<rect x="973.3" y="772.7" class="st3" width="27" height="28.3"/>
	<rect x="973.3" y="772.7" class="st2" width="27" height="1.2"/>
	<text transform="matrix(1 0 0 1 365.1689 592.1833)" class="st4 st5 st6">1</text>
	<g class="st7">
		
			<linearGradient id="SVGID_1_" gradientUnits="userSpaceOnUse" x1="536.2338" y1="924.0333" x2="536.2338" y2="396.5334" gradientTransform="matrix(1 0 0 1 -161.21 -54)">
			<stop  offset="0" style="stop-color:#808080;stop-opacity:0.25"/>
			<stop  offset="0.54" style="stop-color:#808080;stop-opacity:0.12"/>
			<stop  offset="1" style="stop-color:#808080;stop-opacity:0.1"/>
		</linearGradient>
		<path class="st8" d="M443.7,651l-4-0.8l8-29.3c12.5-93.9-34.8-103.4-52.5-103.7c-2-0.7-4.1-1.4-6.2-1.9v-11.1
			c22.8-5.7,40-24.3,43.8-47.5h0.2c2.8,0,5.1-4.3,5.1-9.6c0.1-2.8-0.7-5.6-2.2-7.9c0.2-2,0.3-4,0.3-6.1c0-16.7-6.8-32.7-18.9-44.3
			c-0.8-4.1-2.3-8-4.3-11.7c-4.4-7.7-11.6-15.7-8.6-24l-19.1,2l-0.2-12.6c-6,1.1-8.5,8-12,12.9c-8.5,11.9-25.6,13.5-36.9,22.7
			c-3.8,3.1-12.5,12.7-10.9,18.9c-7.6,10.5-11.7,23.1-11.7,36c0,2.1,0.1,4.1,0.3,6.1c-1.6,2.3-2.3,5.1-2.2,7.9
			c0,5.3,2.3,9.6,5.1,9.6h0.1c3.9,23.2,21.1,41.8,43.9,47.4v11.3c-2.1,0.5-4.2,1.1-6.2,1.9c-17.7,0.3-65.1,9.8-52.5,103.7l8,29.3
			l-1.9,0.3c-11.8,2.2-19.6,13.6-17.4,25.4l0,0l31.4,168c0.7,3.6,4.1,5.9,7.7,5.3l0,0l5.5-1v3.3c-6.3,3.1-10.2,9.5-10.2,16.4v2.1h37
			v-2.1c0-6.5-3.4-12.4-8.9-15.7v-7.3l5-0.9c3.6-0.7,5.9-4.1,5.3-7.7l0,0l-29.7-157.9h81.7l-29.5,157.8c-0.7,3.6,1.7,7,5.3,7.7l0,0
			l5,0.9v7.3c-5.5,3.3-8.9,9.3-8.9,15.7v2.1h37v-2.1c0-7-4-13.3-10.2-16.4v-3.3l5.5,1c3.6,0.7,7-1.7,7.7-5.3l0,0l31.8-170.1
			C461.3,663.2,454.3,653,443.7,651z"/>
	</g>
	<rect x="336.7" y="826.8" class="st9" width="17.2" height="23.3"/>
	<rect x="395.7" y="826.8" class="st9" width="17.2" height="23.3"/>
	<rect x="318.2" y="635.1" class="st10" width="113.1" height="40.6"/>
	<g class="st11">
		<rect x="318.2" y="635.1" width="113.1" height="40.6"/>
	</g>
	<path class="st2" d="M318.2,642.5c0,0,42.2,9.8,56.5,9.8c14.3,0,56.5-9.8,56.5-9.8v-6.2h-113V642.5z"/>
	<path class="st12" d="M431.3,641.2c0,0-42.2,9.8-56.5,9.8c-14.3,0-56.5-9.8-56.5-9.8v-67.6c0-31.2,25.3-56.5,56.5-56.5l0,0l0,0
		c31.2,0,56.5,25.3,56.5,56.5l0,0V641.2z"/>
	<path class="st9" d="M361.2,488.8h27l0,0v33.3c0,6.1-4.9,11-11,11h-5c-6.1,0-11-4.9-11-11V488.8L361.2,488.8z"/>
	<path class="st10" d="M359.9,834.7l-29.7,5.6c-2.8,0.5-5.5-1.3-6-4.1l-31.1-166.7c-1.7-9.3,4.4-18.2,13.6-19.9l0,0l18-3.4
		c2.8-0.5,5.5,1.3,6,4.1L364,828.6C364.5,831.5,362.7,834.2,359.9,834.7z"/>
	<path class="st10" d="M389.6,834.7l29.7,5.6c2.8,0.5,5.5-1.3,6-4.1l31.4-168.3c1.6-8.3-3.9-16.4-12.3-17.9l-19.7-3.7
		c-2.8-0.5-5.5,1.3-6,4.1l-33.3,178.3C385,831.5,386.8,834.2,389.6,834.7z"/>
	<path class="st2" d="M361.2,509.3c8.9,2.2,18.1,2.2,27,0V490h-27V509.3z"/>
	<circle class="st13" cx="374.8" cy="439.7" r="59"/>
	<circle class="st9" cx="374.8" cy="453.2" r="56.5"/>
	<path class="st13" d="M337.4,386.8c10.9-8.9,27.3-10.5,35.5-21.9c3.4-4.7,5.8-11.4,11.6-12.4l0.2,12.1l18.4-1.9
		c-2.8,8,4.1,15.7,8.3,23.1c3.1,5.5,4.8,11.6,4.9,17.9c-6.4,3.8-14.3-0.4-21.4-2.6c-6.9-2.2-14.3-2.4-21.5-2.6
		c-3.7-0.3-7.4-0.1-11.1,0.6c-3.1,0.9-6.2,2-9.2,3.4c-4.9,2-20.4,9.8-24.9,4.8C323,401.7,333.2,390.3,337.4,386.8z"/>
	<path class="st2" d="M340.5,424.8c3.1,1.7,6.5,2.7,10,3c14.5,2,29.2,0.3,42.9-4.8c2.2,5.7,7.7,9.6,13.5,11.4c5.8,1.8,12,2,18.1,2
		c1.3,0.1,2.7-0.1,3.9-0.8c2.7-1.8,1.4-6-0.2-8.9l-7.9-14.3c-2.3-4.2-4.7-8.5-8.3-11.7c-4.5-4-10.5-5.9-16.4-7.1
		c-14-2.8-28.4-2.3-42.2,1.4C339.2,399.2,320.3,412.6,340.5,424.8z"/>
	<path class="st13" d="M340.5,423.6c3.1,1.7,6.5,2.7,10,3c14.5,2,29.2,0.3,42.9-4.8c2.2,5.7,7.7,9.6,13.5,11.4c5.8,1.8,12,2,18.1,2
		c1.3,0.1,2.7-0.1,3.9-0.8c2.7-1.8,1.4-6-0.2-8.9l-7.8-14.2c-2.3-4.2-4.7-8.5-8.3-11.7c-4.5-4-10.5-5.9-16.4-7.1
		c-14-2.8-28.4-2.3-42.2,1.4C339.2,397.9,320.3,411.4,340.5,423.6z"/>
	<ellipse class="st9" cx="430.7" cy="453.2" rx="4.9" ry="9.2"/>
	<ellipse class="st9" cx="318.8" cy="453.2" rx="4.9" ry="9.2"/>
	<path class="st12" d="M361.5,520.9c0,0-71.5-11.1-56.8,99.4l8.6,31.7l24.6-1c0,0-16-36.9-6.1-61.5
		C341.7,564.9,361.5,520.9,361.5,520.9z"/>
	<path class="st12" d="M388.1,520.9c0,0,71.5-11.1,56.8,99.5l-8.6,31.7l-24.6-1c0,0,16-36.9,6.1-61.5
		C407.9,565,388.1,520.9,388.1,520.9z"/>
	<circle class="st9" cx="326.8" cy="656" r="13.5"/>
	<ellipse class="st9" cx="425.2" cy="656" rx="13.5" ry="13.5"/>
	<path class="st13" d="M341.2,840.3h6.9c7.9,0,14.4,6.4,14.4,14.4v5.3l0,0h-35.6l0,0v-5.3C326.8,846.7,333.3,840.3,341.2,840.3
		L341.2,840.3z"/>
	<path class="st13" d="M401.4,840.3h6.9c7.9,0,14.4,6.4,14.4,14.4l0,0v5.3l0,0h-35.6l0,0v-5.3C387,846.7,393.5,840.3,401.4,840.3
		L401.4,840.3z"/>
	<path class="st2" d="M330.5,579.8c0,0-4.9,25.8,3.7,36.9"/>
	<path class="st2" d="M419,579.8c0,0,4.9,25.8-3.7,36.9"/>
	<g class="st7">
		<linearGradient id="SVGID_2_" gradientUnits="userSpaceOnUse" x1="579.5889" y1="622.9833" x2="695.989" y2="622.9833">
			<stop  offset="0" style="stop-color:#808080;stop-opacity:0.25"/>
			<stop  offset="0.54" style="stop-color:#808080;stop-opacity:0.12"/>
			<stop  offset="1" style="stop-color:#808080;stop-opacity:0.1"/>
		</linearGradient>
		<rect x="579.6" y="579.9" class="st14" width="116.4" height="86.1"/>
		<g class="st15">
			
				<linearGradient id="SVGID_3_" gradientUnits="userSpaceOnUse" x1="740.7989" y1="648.5333" x2="857.1989" y2="648.5333" gradientTransform="matrix(1 0 0 1 -161.21 -54)">
				<stop  offset="0" style="stop-color:#808080;stop-opacity:0.25"/>
				<stop  offset="0.54" style="stop-color:#808080;stop-opacity:0.12"/>
				<stop  offset="1" style="stop-color:#808080;stop-opacity:0.1"/>
			</linearGradient>
			<path class="st16" d="M579.6,602.7c0,0,43.5,5.1,58.2,5.1s58.2-5.1,58.2-5.1v-21.5H579.6V602.7z"/>
		</g>
		
			<linearGradient id="SVGID_4_" gradientUnits="userSpaceOnUse" x1="740.7988" y1="586.5834" x2="857.1989" y2="586.5834" gradientTransform="matrix(1 0 0 1 -161.21 -54)">
			<stop  offset="0" style="stop-color:#808080;stop-opacity:0.25"/>
			<stop  offset="0.54" style="stop-color:#808080;stop-opacity:0.12"/>
			<stop  offset="1" style="stop-color:#808080;stop-opacity:0.1"/>
		</linearGradient>
		<path class="st17" d="M696,601.5c0,0-43.5,5.1-58.2,5.1s-58.2-5.1-58.2-5.1v-84.8c0-32.2,26.1-58.2,58.2-58.2l0,0
			c32.2,0,58.2,26.1,58.2,58.2V601.5z"/>
		
			<linearGradient id="SVGID_5_" gradientUnits="userSpaceOnUse" x1="785.0689" y1="506.1333" x2="812.9189" y2="506.1333" gradientTransform="matrix(1 0 0 1 -161.21 -54)">
			<stop  offset="0" style="stop-color:#808080;stop-opacity:0.25"/>
			<stop  offset="0.54" style="stop-color:#808080;stop-opacity:0.12"/>
			<stop  offset="1" style="stop-color:#808080;stop-opacity:0.1"/>
		</linearGradient>
		<path class="st18" d="M640.7,474.9h-5.8c-6.1,0-11-4.9-11-11v-34.6h27.8v34.6C651.7,469.9,646.8,474.9,640.7,474.9L640.7,474.9z"
			/>
		<linearGradient id="SVGID_6_" gradientUnits="userSpaceOnUse" x1="579.5889" y1="777.3833" x2="621.3889" y2="777.3833">
			<stop  offset="0" style="stop-color:#808080;stop-opacity:0.25"/>
			<stop  offset="0.54" style="stop-color:#808080;stop-opacity:0.12"/>
			<stop  offset="1" style="stop-color:#808080;stop-opacity:0.1"/>
		</linearGradient>
		<rect x="579.6" y="635.6" class="st19" width="41.8" height="283.5"/>
		<linearGradient id="SVGID_7_" gradientUnits="userSpaceOnUse" x1="654.2389" y1="777.3833" x2="696.0389" y2="777.3833">
			<stop  offset="0" style="stop-color:#808080;stop-opacity:0.25"/>
			<stop  offset="0.54" style="stop-color:#808080;stop-opacity:0.12"/>
			<stop  offset="1" style="stop-color:#808080;stop-opacity:0.1"/>
		</linearGradient>
		<rect x="654.3" y="635.6" class="st20" width="41.8" height="283.5"/>
		<g class="st15">
			
				<linearGradient id="SVGID_8_" gradientUnits="userSpaceOnUse" x1="785.0689" y1="495.3958" x2="812.9189" y2="495.3958" gradientTransform="matrix(1 0 0 1 -161.21 -54)">
				<stop  offset="0" style="stop-color:#808080;stop-opacity:0.25"/>
				<stop  offset="0.54" style="stop-color:#808080;stop-opacity:0.12"/>
				<stop  offset="1" style="stop-color:#808080;stop-opacity:0.1"/>
			</linearGradient>
			<path class="st21" d="M623.9,450.4c9.1,2.3,18.7,2.3,27.8,0v-19.8h-27.8V450.4z"/>
		</g>
		<linearGradient id="SVGID_9_" gradientUnits="userSpaceOnUse" x1="576.9889" y1="378.7333" x2="698.5889" y2="378.7333">
			<stop  offset="0" style="stop-color:#808080;stop-opacity:0.25"/>
			<stop  offset="0.54" style="stop-color:#808080;stop-opacity:0.12"/>
			<stop  offset="1" style="stop-color:#808080;stop-opacity:0.1"/>
		</linearGradient>
		<circle class="st22" cx="637.8" cy="378.7" r="60.8"/>
		<linearGradient id="SVGID_10_" gradientUnits="userSpaceOnUse" x1="579.5889" y1="392.6333" x2="695.9889" y2="392.6333">
			<stop  offset="0" style="stop-color:#808080;stop-opacity:0.25"/>
			<stop  offset="0.54" style="stop-color:#808080;stop-opacity:0.12"/>
			<stop  offset="1" style="stop-color:#808080;stop-opacity:0.1"/>
		</linearGradient>
		<circle class="st23" cx="637.8" cy="392.6" r="58.2"/>
		<g class="st15">
			
				<linearGradient id="SVGID_11_" gradientUnits="userSpaceOnUse" x1="754.6414" y1="406.4823" x2="856.4313" y2="406.4823" gradientTransform="matrix(1 0 0 1 -161.21 -54)">
				<stop  offset="0" style="stop-color:#808080;stop-opacity:0.25"/>
				<stop  offset="0.54" style="stop-color:#808080;stop-opacity:0.12"/>
				<stop  offset="1" style="stop-color:#808080;stop-opacity:0.1"/>
			</linearGradient>
			<path class="st24" d="M602.5,363.4c3.1,1.9,6.7,2.6,10.3,3.1c14.9,2,30.1,0.3,44.2-5c2.3,5.9,7.9,9.9,13.9,11.8
				c6,1.9,12.4,2,18.7,2.1c1.4,0.2,2.8-0.1,4-0.8c2.8-1.9,1.5-6.2-0.2-9.2l-8.1-14.7c-2.4-4.3-4.9-8.8-8.6-12.1
				c-4.7-4.1-10.8-6-16.9-7.3c-14.4-2.9-29.3-2.4-43.5,1.4C601.2,337,581.7,350.8,602.5,363.4z"/>
		</g>
		
			<linearGradient id="SVGID_12_" gradientUnits="userSpaceOnUse" x1="754.6414" y1="405.1823" x2="856.4313" y2="405.1823" gradientTransform="matrix(1 0 0 1 -161.21 -54)">
			<stop  offset="0" style="stop-color:#808080;stop-opacity:0.25"/>
			<stop  offset="0.54" style="stop-color:#808080;stop-opacity:0.12"/>
			<stop  offset="1" style="stop-color:#808080;stop-opacity:0.1"/>
		</linearGradient>
		<path class="st25" d="M602.5,362.1c3.1,1.9,6.7,2.6,10.3,3.1c14.9,2,30.1,0.3,44.2-5c2.3,5.9,7.9,9.9,13.9,11.8
			c6,1.9,12.4,2,18.7,2.1c1.4,0.2,2.8-0.1,4-0.8c2.8-1.9,1.5-6.2-0.2-9.2l-8.1-14.7c-2.4-4.3-4.9-8.8-8.6-12.1
			c-4.7-4.1-10.8-6-16.9-7.3c-14.4-2.9-29.3-2.4-43.5,1.4C601.2,335.7,581.7,349.6,602.5,362.1z"/>
		<linearGradient id="SVGID_13_" gradientUnits="userSpaceOnUse" x1="690.3089" y1="392.6333" x2="700.4289" y2="392.6333">
			<stop  offset="0" style="stop-color:#808080;stop-opacity:0.25"/>
			<stop  offset="0.54" style="stop-color:#808080;stop-opacity:0.12"/>
			<stop  offset="1" style="stop-color:#808080;stop-opacity:0.1"/>
		</linearGradient>
		<ellipse class="st26" cx="695.4" cy="392.6" rx="5.1" ry="9.5"/>
		<linearGradient id="SVGID_14_" gradientUnits="userSpaceOnUse" x1="575.1289" y1="392.6333" x2="585.2489" y2="392.6333">
			<stop  offset="0" style="stop-color:#808080;stop-opacity:0.25"/>
			<stop  offset="0.54" style="stop-color:#808080;stop-opacity:0.12"/>
			<stop  offset="1" style="stop-color:#808080;stop-opacity:0.1"/>
		</linearGradient>
		<ellipse class="st27" cx="580.2" cy="392.6" rx="5.1" ry="9.5"/>
		<linearGradient id="SVGID_15_" gradientUnits="userSpaceOnUse" x1="779.5489" y1="317.9333" x2="807.3889" y2="317.9333">
			<stop  offset="0" style="stop-color:#808080;stop-opacity:0.25"/>
			<stop  offset="0.54" style="stop-color:#808080;stop-opacity:0.12"/>
			<stop  offset="1" style="stop-color:#808080;stop-opacity:0.1"/>
		</linearGradient>
		<circle class="st28" cx="793.5" cy="317.9" r="13.9"/>
		<text transform="matrix(1 0 0 1 615.7589 532.5034)" class="st5 st29">00</text>
		
			<linearGradient id="SVGID_16_" gradientUnits="userSpaceOnUse" x1="742.0989" y1="480.2067" x2="856.5989" y2="480.2067" gradientTransform="matrix(1 0 0 1 -161.21 -54)">
			<stop  offset="0" style="stop-color:#808080;stop-opacity:0.25"/>
			<stop  offset="0.54" style="stop-color:#808080;stop-opacity:0.12"/>
			<stop  offset="1" style="stop-color:#808080;stop-opacity:0.1"/>
		</linearGradient>
		<path class="st30" d="M639.1,415.4c0,0-32.9,11.4-58.2-13.9c0,0,2,8.4,5.6,18.5c15.1,28.4,50.4,39.1,78.8,24
			c16.1-8.6,27.2-24.1,30.1-42.1C689.3,405.2,646.1,425.9,639.1,415.4z M637.8,430.6c-6.3,0-11.4-4.8-11.4-7.6s5.1-2.5,11.4-2.5
			s11.4-0.3,11.4,2.5S644.1,430.6,637.8,430.6z"/>
		
			<linearGradient id="SVGID_17_" gradientUnits="userSpaceOnUse" x1="829.8989" y1="465.6833" x2="959.6989" y2="465.6833" gradientTransform="matrix(1 0 0 1 -161.21 -54)">
			<stop  offset="0" style="stop-color:#808080;stop-opacity:0.25"/>
			<stop  offset="0.54" style="stop-color:#808080;stop-opacity:0.12"/>
			<stop  offset="1" style="stop-color:#808080;stop-opacity:0.1"/>
		</linearGradient>
		<path class="st31" d="M668.7,467.3c0,0,67.8-38,109.5-149.4l20.3,12.7c0,0-33.5,142-117.7,174.8L668.7,467.3z"/>
		<linearGradient id="SVGID_18_" gradientUnits="userSpaceOnUse" x1="468.1889" y1="317.9333" x2="496.0289" y2="317.9333">
			<stop  offset="0" style="stop-color:#808080;stop-opacity:0.25"/>
			<stop  offset="0.54" style="stop-color:#808080;stop-opacity:0.12"/>
			<stop  offset="1" style="stop-color:#808080;stop-opacity:0.1"/>
		</linearGradient>
		<circle class="st32" cx="482.1" cy="317.9" r="13.9"/>
		
			<linearGradient id="SVGID_19_" gradientUnits="userSpaceOnUse" x1="638.1989" y1="465.6333" x2="767.9989" y2="465.6333" gradientTransform="matrix(1 0 0 1 -161.21 -54)">
			<stop  offset="0" style="stop-color:#808080;stop-opacity:0.25"/>
			<stop  offset="0.54" style="stop-color:#808080;stop-opacity:0.12"/>
			<stop  offset="1" style="stop-color:#808080;stop-opacity:0.1"/>
		</linearGradient>
		<path class="st33" d="M606.8,467.3c0,0-67.8-38-109.5-149.4L477,330.6c0,0,33.5,141.9,117.7,174.7L606.8,467.3z"/>
		
			<linearGradient id="SVGID_20_" gradientUnits="userSpaceOnUse" x1="743.2989" y1="973.1833" x2="780.0089" y2="973.1833" gradientTransform="matrix(1 0 0 1 -161.21 -54)">
			<stop  offset="0" style="stop-color:#808080;stop-opacity:0.25"/>
			<stop  offset="0.54" style="stop-color:#808080;stop-opacity:0.12"/>
			<stop  offset="1" style="stop-color:#808080;stop-opacity:0.1"/>
		</linearGradient>
		<path class="st34" d="M618.8,929.3h-36.7v-5.9c0-7.9,6.4-14.4,14.4-14.4h8c7.9,0,14.4,6.4,14.4,14.4l0,0L618.8,929.3z"/>
		
			<linearGradient id="SVGID_21_" gradientUnits="userSpaceOnUse" x1="817.9988" y1="973.1833" x2="854.7088" y2="973.1833" gradientTransform="matrix(1 0 0 1 -161.21 -54)">
			<stop  offset="0" style="stop-color:#808080;stop-opacity:0.25"/>
			<stop  offset="0.54" style="stop-color:#808080;stop-opacity:0.12"/>
			<stop  offset="1" style="stop-color:#808080;stop-opacity:0.1"/>
		</linearGradient>
		<path class="st35" d="M693.5,929.3h-36.7v-5.9c0-7.9,6.4-14.4,14.4-14.4l0,0h8c7.9,0,14.4,6.4,14.4,14.4l0,0L693.5,929.3z"/>
	</g>
	<rect x="581.3" y="581" class="st10" width="113.1" height="83.6"/>
	<path class="st2" d="M581.2,603.1c0,0,42.2,4.9,56.5,4.9s56.5-4.9,56.5-4.9v-20.9h-113V603.1z"/>
	<path class="st36" d="M694.3,601.9c0,0-42.2,4.9-56.5,4.9s-56.5-4.9-56.5-4.9v-82.3c0-31.2,25.3-56.5,56.5-56.5l0,0
		c31.2,0,56.5,25.3,56.5,56.5V601.9z"/>
	<path class="st9" d="M624.3,434.7h27l0,0V468c0,6.1-4.9,11-11,11l0,0h-5c-6.1,0-11-4.9-11-11l0,0V434.7L624.3,434.7z"/>
	<rect x="581.3" y="635.1" class="st10" width="40.6" height="275.3"/>
	<rect x="653.8" y="635.1" class="st10" width="40.6" height="275.3"/>
	<path class="st2" d="M624.3,455.2c8.9,2.2,18.1,2.2,27,0v-19.3h-27V455.2z"/>
	<ellipse transform="matrix(0.1091 -0.994 0.994 0.1091 184.8648 977.5349)" class="st37" cx="637.8" cy="385.6" rx="59" ry="59"/>
	
		<ellipse transform="matrix(0.7071 -0.7071 0.7071 0.7071 -95.4169 567.8874)" class="st9" cx="637.8" cy="399.1" rx="56.5" ry="56.5"/>
	<path class="st2" d="M603.5,370.8c3.1,1.7,6.5,2.7,10,3c14.5,2,29.2,0.3,42.9-4.8c2.2,5.7,7.7,9.6,13.5,11.4s12,2,18.1,2
		c1.3,0.1,2.7-0.1,3.9-0.8c2.7-1.8,1.4-6-0.2-8.9l-7.9-14.3c-2.3-4.2-4.7-8.5-8.3-11.7c-4.5-4-10.5-5.9-16.4-7.1
		c-14-2.8-28.4-2.3-42.2,1.4C602.3,345.1,583.3,358.5,603.5,370.8z"/>
	<path class="st37" d="M603.5,369.5c3.1,1.7,6.5,2.7,10,3c14.5,2,29.2,0.3,42.9-4.8c2.2,5.7,7.7,9.6,13.5,11.4s12,2,18.1,2
		c1.3,0.1,2.7-0.1,3.9-0.8c2.7-1.8,1.4-6-0.2-8.9l-7.9-14.3c-2.3-4.2-4.7-8.5-8.3-11.7c-4.5-4-10.5-5.9-16.4-7.1
		c-14-2.8-28.4-2.3-42.2,1.4C602.3,343.8,583.3,357.3,603.5,369.5z"/>
	<ellipse class="st9" cx="693.7" cy="399.1" rx="4.9" ry="9.2"/>
	<ellipse class="st9" cx="581.9" cy="399.1" rx="4.9" ry="9.2"/>
	<circle class="st9" cx="789" cy="326.6" r="13.5"/>
	<path class="st37" d="M639,421.2c0,0-32,11.1-56.5-13.5c0,0,2,8.1,5.4,18c14.7,27.6,48.9,38,76.5,23.3
		c15.6-8.3,26.4-23.4,29.2-40.9C687.9,411.3,645.9,431.5,639,421.2z M637.8,436c-6.1,0-11.1-4.7-11.1-7.4s5-2.5,11.1-2.5
		c6.1,0,11.1-0.3,11.1,2.5S643.9,436,637.8,436L637.8,436z"/>
	<path class="st36" d="M667.8,471.7c0,0,65.8-36.9,106.4-145.1l19.7,12.3c0,0-32.6,137.8-114.3,169.6L667.8,471.7z"/>
	<circle class="st9" cx="486.6" cy="326.6" r="13.5"/>
	<path class="st36" d="M607.7,471.7c0,0-65.8-36.9-106.4-145.1l-19.6,12.3c0,0,32.6,137.8,114.3,169.6L607.7,471.7z"/>
	<path class="st13" d="M598.1,900.6h6.9c7.9,0,14.4,6.4,14.4,14.4v5.3l0,0h-35.6l0,0V915C583.7,907,590.1,900.6,598.1,900.6
		L598.1,900.6z"/>
	<path class="st13" d="M670.6,900.6h6.9c7.9,0,14.4,6.4,14.4,14.3c0,0,0,0,0,0.1v5.3l0,0h-35.7l0,0V915
		C656.2,907,662.7,900.6,670.6,900.6L670.6,900.6z"/>
	<linearGradient id="SVGID_22_" gradientUnits="userSpaceOnUse" x1="510.0889" y1="615.8833" x2="510.0889" y2="607.8734">
		<stop  offset="0" style="stop-color:#808080;stop-opacity:0.25"/>
		<stop  offset="0.54" style="stop-color:#808080;stop-opacity:0.12"/>
		<stop  offset="1" style="stop-color:#808080;stop-opacity:0.1"/>
	</linearGradient>
	<circle class="st38" cx="510.1" cy="611.8" r="4"/>
	<circle class="st39" cx="510.1" cy="611.8" r="3.6"/>
	<path class="st40" d="M507.5,612.9c0-2,1.6-3.5,3.6-3.5c0.9,0,1.7,0.4,2.4,1c-0.8-1.8-2.9-2.6-4.7-1.7c-1.8,0.8-2.6,2.9-1.7,4.7
		c0.2,0.4,0.4,0.8,0.8,1.1C507.6,613.9,507.4,613.4,507.5,612.9z"/>
	<linearGradient id="SVGID_23_" gradientUnits="userSpaceOnUse" x1="521.6889" y1="615.8833" x2="521.6889" y2="607.8734">
		<stop  offset="0" style="stop-color:#808080;stop-opacity:0.25"/>
		<stop  offset="0.54" style="stop-color:#808080;stop-opacity:0.12"/>
		<stop  offset="1" style="stop-color:#808080;stop-opacity:0.1"/>
	</linearGradient>
	<circle class="st41" cx="521.7" cy="611.8" r="4"/>
	<circle class="st39" cx="521.7" cy="611.8" r="3.6"/>
	<path class="st40" d="M519,612.9c0-2,1.6-3.5,3.6-3.5c0.9,0,1.7,0.4,2.4,1c-0.8-1.8-2.9-2.6-4.7-1.7c-1.8,0.8-2.6,2.9-1.7,4.7
		c0.2,0.4,0.4,0.8,0.8,1.1C519.1,613.9,519,613.4,519,612.9z"/>
	<linearGradient id="SVGID_24_" gradientUnits="userSpaceOnUse" x1="488.7889" y1="615.8833" x2="488.7889" y2="607.8734">
		<stop  offset="0" style="stop-color:#808080;stop-opacity:0.25"/>
		<stop  offset="0.54" style="stop-color:#808080;stop-opacity:0.12"/>
		<stop  offset="1" style="stop-color:#808080;stop-opacity:0.1"/>
	</linearGradient>
	<circle class="st42" cx="488.8" cy="611.8" r="4"/>
	<circle class="st39" cx="488.8" cy="611.8" r="3.6"/>
	<path class="st40" d="M486.1,612.9c0-2,1.6-3.5,3.6-3.5c0.9,0,1.7,0.4,2.4,1c-0.8-1.8-2.9-2.6-4.7-1.7c-1.8,0.9-2.6,2.9-1.7,4.7
		c0.2,0.4,0.4,0.8,0.8,1.1C486.2,613.9,486.1,613.4,486.1,612.9z"/>
	<linearGradient id="SVGID_25_" gradientUnits="userSpaceOnUse" x1="503.8889" y1="605.7933" x2="503.8889" y2="597.7933">
		<stop  offset="0" style="stop-color:#808080;stop-opacity:0.25"/>
		<stop  offset="0.54" style="stop-color:#808080;stop-opacity:0.12"/>
		<stop  offset="1" style="stop-color:#808080;stop-opacity:0.1"/>
	</linearGradient>
	<circle class="st43" cx="503.9" cy="601.8" r="4"/>
	<circle class="st39" cx="503.9" cy="601.8" r="3.6"/>
	<path class="st40" d="M501.2,602.8c0-2,1.6-3.5,3.6-3.5c0.9,0,1.7,0.4,2.4,1c-0.8-1.8-2.9-2.6-4.7-1.7c-1.8,0.8-2.6,2.9-1.7,4.7
		c0.2,0.4,0.4,0.8,0.8,1.1C501.3,603.8,501.2,603.3,501.2,602.8z"/>
	<linearGradient id="SVGID_26_" gradientUnits="userSpaceOnUse" x1="527.4889" y1="607.4233" x2="527.4889" y2="599.4233">
		<stop  offset="0" style="stop-color:#808080;stop-opacity:0.25"/>
		<stop  offset="0.54" style="stop-color:#808080;stop-opacity:0.12"/>
		<stop  offset="1" style="stop-color:#808080;stop-opacity:0.1"/>
	</linearGradient>
	<circle class="st44" cx="527.5" cy="603.4" r="4"/>
	<circle class="st39" cx="527.5" cy="603.4" r="3.6"/>
	<path class="st40" d="M524.8,604.4c0-2,1.6-3.5,3.6-3.5c0.9,0,1.7,0.4,2.4,1c-0.8-1.8-2.9-2.6-4.7-1.7c-1.8,0.8-2.6,2.9-1.7,4.7
		c0.2,0.4,0.4,0.8,0.8,1.1C524.9,605.5,524.8,604.9,524.8,604.4z"/>
	<linearGradient id="SVGID_27_" gradientUnits="userSpaceOnUse" x1="521.6889" y1="603.8734" x2="521.6889" y2="595.8633">
		<stop  offset="0" style="stop-color:#808080;stop-opacity:0.25"/>
		<stop  offset="0.54" style="stop-color:#808080;stop-opacity:0.12"/>
		<stop  offset="1" style="stop-color:#808080;stop-opacity:0.1"/>
	</linearGradient>
	<circle class="st45" cx="521.7" cy="599.8" r="4"/>
	<circle class="st39" cx="521.7" cy="599.8" r="3.6"/>
	<path class="st40" d="M519,600.9c0-2,1.6-3.5,3.6-3.5c0.9,0,1.7,0.4,2.4,1c-0.8-1.8-2.9-2.6-4.7-1.7c-1.8,0.8-2.6,2.9-1.7,4.7
		c0.2,0.4,0.4,0.8,0.8,1.1C519.1,601.9,519,601.4,519,600.9z"/>
	<linearGradient id="SVGID_28_" gradientUnits="userSpaceOnUse" x1="524.4889" y1="612.3233" x2="524.4889" y2="604.3134">
		<stop  offset="0" style="stop-color:#808080;stop-opacity:0.25"/>
		<stop  offset="0.54" style="stop-color:#808080;stop-opacity:0.12"/>
		<stop  offset="1" style="stop-color:#808080;stop-opacity:0.1"/>
	</linearGradient>
	<circle class="st46" cx="524.5" cy="608.3" r="4"/>
	<circle class="st39" cx="524.5" cy="608.3" r="3.6"/>
	<path class="st40" d="M521.8,609.3c0-2,1.6-3.5,3.6-3.5c0.9,0,1.7,0.4,2.4,1c-0.8-1.8-2.9-2.6-4.7-1.7c-1.8,0.8-2.6,2.9-1.7,4.7
		c0.2,0.4,0.4,0.8,0.8,1.1C521.9,610.3,521.8,609.8,521.8,609.3z"/>
	<linearGradient id="SVGID_29_" gradientUnits="userSpaceOnUse" x1="514.0889" y1="605.7933" x2="514.0889" y2="597.7933">
		<stop  offset="0" style="stop-color:#808080;stop-opacity:0.25"/>
		<stop  offset="0.54" style="stop-color:#808080;stop-opacity:0.12"/>
		<stop  offset="1" style="stop-color:#808080;stop-opacity:0.1"/>
	</linearGradient>
	<circle class="st47" cx="514.1" cy="601.8" r="4"/>
	<circle class="st39" cx="514.1" cy="601.8" r="3.6"/>
	<path class="st40" d="M511.5,602.8c0-2,1.6-3.5,3.6-3.5c0.9,0,1.7,0.4,2.4,1c-0.8-1.8-2.9-2.6-4.7-1.7c-1.8,0.8-2.6,2.9-1.7,4.7
		c0.2,0.4,0.4,0.8,0.8,1.1C511.6,603.8,511.5,603.3,511.5,602.8z"/>
	<linearGradient id="SVGID_30_" gradientUnits="userSpaceOnUse" x1="513.6889" y1="594.5333" x2="513.6889" y2="586.5233">
		<stop  offset="0" style="stop-color:#808080;stop-opacity:0.25"/>
		<stop  offset="0.54" style="stop-color:#808080;stop-opacity:0.12"/>
		<stop  offset="1" style="stop-color:#808080;stop-opacity:0.1"/>
	</linearGradient>
	<circle class="st48" cx="513.7" cy="590.5" r="4"/>
	<circle class="st39" cx="513.7" cy="590.5" r="3.6"/>
	<path class="st40" d="M511,591.5c0-2,1.6-3.5,3.6-3.5c0.9,0,1.7,0.4,2.4,1c-0.8-1.8-2.9-2.6-4.7-1.7c-1.8,0.8-2.6,2.9-1.7,4.7
		c0.2,0.4,0.4,0.8,0.8,1.1C511.1,592.6,511,592,511,591.5z"/>
	<linearGradient id="SVGID_31_" gradientUnits="userSpaceOnUse" x1="533.3889" y1="600.3134" x2="533.3889" y2="592.3033">
		<stop  offset="0" style="stop-color:#808080;stop-opacity:0.25"/>
		<stop  offset="0.54" style="stop-color:#808080;stop-opacity:0.12"/>
		<stop  offset="1" style="stop-color:#808080;stop-opacity:0.1"/>
	</linearGradient>
	<circle class="st49" cx="533.4" cy="596.3" r="4"/>
	<circle class="st39" cx="533.4" cy="596.3" r="3.6"/>
	<path class="st40" d="M530.7,597.3c0-2,1.6-3.5,3.6-3.5c0.9,0,1.7,0.4,2.4,1c-0.8-1.8-2.9-2.6-4.7-1.7c-1.8,0.8-2.6,2.9-1.7,4.7
		c0.2,0.4,0.4,0.8,0.8,1.1C530.8,598.3,530.7,597.8,530.7,597.3z"/>
	<linearGradient id="SVGID_32_" gradientUnits="userSpaceOnUse" x1="531.4889" y1="607.8734" x2="531.4889" y2="599.8633">
		<stop  offset="0" style="stop-color:#808080;stop-opacity:0.25"/>
		<stop  offset="0.54" style="stop-color:#808080;stop-opacity:0.12"/>
		<stop  offset="1" style="stop-color:#808080;stop-opacity:0.1"/>
	</linearGradient>
	<circle class="st50" cx="531.5" cy="603.8" r="4"/>
	<circle class="st39" cx="531.5" cy="603.8" r="3.6"/>
	<path class="st40" d="M528.8,604.9c0-2,1.6-3.5,3.6-3.5c0.9,0,1.7,0.4,2.4,1c-0.8-1.8-2.9-2.6-4.7-1.7c-1.8,0.8-2.6,2.9-1.7,4.7
		c0.2,0.4,0.4,0.8,0.8,1.1C528.9,605.9,528.8,605.4,528.8,604.9z"/>
	<linearGradient id="SVGID_33_" gradientUnits="userSpaceOnUse" x1="540.3889" y1="606.3933" x2="540.3889" y2="598.3833">
		<stop  offset="0" style="stop-color:#808080;stop-opacity:0.25"/>
		<stop  offset="0.54" style="stop-color:#808080;stop-opacity:0.12"/>
		<stop  offset="1" style="stop-color:#808080;stop-opacity:0.1"/>
	</linearGradient>
	<circle class="st51" cx="540.4" cy="602.3" r="4"/>
	<circle class="st39" cx="540.4" cy="602.3" r="3.6"/>
	<path class="st40" d="M537.7,603.4c0-2,1.6-3.5,3.6-3.5c0.9,0,1.7,0.4,2.4,1c-0.8-1.8-2.9-2.6-4.7-1.7c-1.8,0.8-2.6,2.9-1.7,4.7
		c0.2,0.4,0.4,0.8,0.8,1.1C537.8,604.4,537.7,603.9,537.7,603.4z"/>
	<linearGradient id="SVGID_34_" gradientUnits="userSpaceOnUse" x1="536.3889" y1="610.0933" x2="536.3889" y2="602.0933">
		<stop  offset="0" style="stop-color:#808080;stop-opacity:0.25"/>
		<stop  offset="0.54" style="stop-color:#808080;stop-opacity:0.12"/>
		<stop  offset="1" style="stop-color:#808080;stop-opacity:0.1"/>
	</linearGradient>
	<circle class="st52" cx="536.4" cy="606.1" r="4"/>
	<circle class="st39" cx="536.4" cy="606.1" r="3.6"/>
	<path class="st40" d="M533.7,607.1c0-2,1.6-3.5,3.6-3.5c0.9,0,1.7,0.4,2.4,1c-0.8-1.8-2.9-2.6-4.7-1.7c-1.8,0.8-2.6,2.9-1.7,4.7
		c0.2,0.4,0.4,0.8,0.8,1.1C533.8,608.1,533.7,607.6,533.7,607.1z"/>
	<linearGradient id="SVGID_35_" gradientUnits="userSpaceOnUse" x1="509.6889" y1="600.3134" x2="509.6889" y2="592.3033">
		<stop  offset="0" style="stop-color:#808080;stop-opacity:0.25"/>
		<stop  offset="0.54" style="stop-color:#808080;stop-opacity:0.12"/>
		<stop  offset="1" style="stop-color:#808080;stop-opacity:0.1"/>
	</linearGradient>
	<circle class="st53" cx="509.7" cy="596.3" r="4"/>
	<circle class="st39" cx="509.7" cy="596.3" r="3.6"/>
	<path class="st40" d="M507,597.3c0-2,1.6-3.5,3.6-3.5c0.9,0,1.7,0.4,2.4,1c-0.8-1.8-2.9-2.6-4.7-1.7c-1.8,0.8-2.6,2.9-1.7,4.7
		c0.2,0.4,0.4,0.8,0.8,1.1C507.1,598.3,507,597.8,507,597.3z"/>
	<linearGradient id="SVGID_36_" gradientUnits="userSpaceOnUse" x1="503.8889" y1="615.4333" x2="503.8889" y2="607.4233">
		<stop  offset="0" style="stop-color:#808080;stop-opacity:0.25"/>
		<stop  offset="0.54" style="stop-color:#808080;stop-opacity:0.12"/>
		<stop  offset="1" style="stop-color:#808080;stop-opacity:0.1"/>
	</linearGradient>
	<circle class="st54" cx="503.9" cy="611.4" r="4"/>
	<circle class="st55" cx="503.9" cy="611.4" r="3.6"/>
	<path class="st40" d="M501.2,612.4c0-2,1.6-3.5,3.6-3.5c0.9,0,1.7,0.4,2.4,1c-0.8-1.8-2.9-2.6-4.7-1.7c-1.8,0.8-2.6,2.9-1.7,4.7
		c0.2,0.4,0.4,0.8,0.8,1.1C501.3,613.5,501.2,613,501.2,612.4z"/>
	<linearGradient id="SVGID_37_" gradientUnits="userSpaceOnUse" x1="494.8889" y1="615.8833" x2="494.8889" y2="607.8734">
		<stop  offset="0" style="stop-color:#808080;stop-opacity:0.25"/>
		<stop  offset="0.54" style="stop-color:#808080;stop-opacity:0.12"/>
		<stop  offset="1" style="stop-color:#808080;stop-opacity:0.1"/>
	</linearGradient>
	<circle class="st56" cx="494.9" cy="611.8" r="4"/>
	<circle class="st55" cx="494.9" cy="611.8" r="3.6"/>
	<path class="st40" d="M492.2,612.9c0-2,1.6-3.5,3.6-3.5c0.9,0,1.7,0.4,2.4,1c-0.8-1.8-2.9-2.6-4.7-1.7c-1.8,0.8-2.6,2.9-1.7,4.7
		c0.2,0.4,0.4,0.8,0.8,1.1C492.3,613.9,492.2,613.4,492.2,612.9z"/>
	<linearGradient id="SVGID_38_" gradientUnits="userSpaceOnUse" x1="499.4889" y1="613.3633" x2="499.4889" y2="605.3533">
		<stop  offset="0" style="stop-color:#808080;stop-opacity:0.25"/>
		<stop  offset="0.54" style="stop-color:#808080;stop-opacity:0.12"/>
		<stop  offset="1" style="stop-color:#808080;stop-opacity:0.1"/>
	</linearGradient>
	<circle class="st57" cx="499.5" cy="609.3" r="4"/>
	<circle class="st55" cx="499.5" cy="609.3" r="3.6"/>
	<path class="st40" d="M496.8,610.4c0-2,1.6-3.5,3.6-3.5c0.9,0,1.7,0.4,2.4,1c-0.8-1.8-2.9-2.6-4.7-1.7c-1.8,0.9-2.6,2.9-1.7,4.7
		c0.2,0.4,0.4,0.8,0.8,1.1C496.9,611.4,496.8,610.9,496.8,610.4z"/>
	<linearGradient id="SVGID_39_" gradientUnits="userSpaceOnUse" x1="518.9889" y1="608.9133" x2="518.9889" y2="600.9033">
		<stop  offset="0" style="stop-color:#808080;stop-opacity:0.25"/>
		<stop  offset="0.54" style="stop-color:#808080;stop-opacity:0.12"/>
		<stop  offset="1" style="stop-color:#808080;stop-opacity:0.1"/>
	</linearGradient>
	<circle class="st58" cx="519" cy="604.9" r="4"/>
	<circle class="st55" cx="519" cy="604.9" r="3.6"/>
	<path class="st40" d="M516.4,605.9c0-2,1.6-3.5,3.6-3.5c0.9,0,1.7,0.4,2.4,1c-0.8-1.8-2.9-2.6-4.7-1.7c-1.8,0.8-2.6,2.9-1.7,4.7
		c0.2,0.4,0.4,0.8,0.8,1.1C516.5,606.9,516.3,606.4,516.4,605.9z"/>
	<linearGradient id="SVGID_40_" gradientUnits="userSpaceOnUse" x1="518.9889" y1="599.4233" x2="518.9889" y2="591.4133">
		<stop  offset="0" style="stop-color:#808080;stop-opacity:0.25"/>
		<stop  offset="0.54" style="stop-color:#808080;stop-opacity:0.12"/>
		<stop  offset="1" style="stop-color:#808080;stop-opacity:0.1"/>
	</linearGradient>
	<circle class="st59" cx="519" cy="595.4" r="4"/>
	<circle class="st55" cx="519" cy="595.4" r="3.6"/>
	<path class="st40" d="M516.4,596.4c0-2,1.6-3.5,3.6-3.5c0.9,0,1.7,0.4,2.4,1c-0.8-1.8-2.9-2.6-4.7-1.7c-1.8,0.8-2.6,2.9-1.7,4.7
		c0.2,0.4,0.4,0.8,0.8,1.1C516.5,597.5,516.3,596.9,516.4,596.4z"/>
	<linearGradient id="SVGID_41_" gradientUnits="userSpaceOnUse" x1="523.4889" y1="606.9833" x2="523.4889" y2="598.9733">
		<stop  offset="0" style="stop-color:#808080;stop-opacity:0.25"/>
		<stop  offset="0.54" style="stop-color:#808080;stop-opacity:0.12"/>
		<stop  offset="1" style="stop-color:#808080;stop-opacity:0.1"/>
	</linearGradient>
	<circle class="st60" cx="523.5" cy="602.9" r="4"/>
	<circle class="st55" cx="523.5" cy="602.9" r="3.6"/>
	<path class="st40" d="M520.8,604c0-2,1.6-3.5,3.6-3.5c0.9,0,1.7,0.4,2.4,1c-0.8-1.8-2.9-2.6-4.7-1.7c-1.8,0.8-2.6,2.9-1.7,4.7
		c0.2,0.4,0.4,0.8,0.8,1.1C520.9,605,520.8,604.5,520.8,604z"/>
	<linearGradient id="SVGID_42_" gradientUnits="userSpaceOnUse" x1="519.4889" y1="591.8633" x2="519.4889" y2="583.8533">
		<stop  offset="0" style="stop-color:#808080;stop-opacity:0.25"/>
		<stop  offset="0.54" style="stop-color:#808080;stop-opacity:0.12"/>
		<stop  offset="1" style="stop-color:#808080;stop-opacity:0.1"/>
	</linearGradient>
	<circle class="st61" cx="519.5" cy="587.8" r="4"/>
	<circle class="st55" cx="519.5" cy="587.8" r="3.6"/>
	<path class="st40" d="M516.8,588.9c0-2,1.6-3.5,3.6-3.5c0.9,0,1.7,0.4,2.4,1c-0.8-1.8-2.9-2.6-4.7-1.7c-1.8,0.8-2.6,2.9-1.7,4.7
		c0.2,0.4,0.4,0.8,0.8,1.1C516.9,589.9,516.8,589.4,516.8,588.9z"/>
	<linearGradient id="SVGID_43_" gradientUnits="userSpaceOnUse" x1="520.3889" y1="595.8633" x2="520.3889" y2="587.8533">
		<stop  offset="0" style="stop-color:#808080;stop-opacity:0.25"/>
		<stop  offset="0.54" style="stop-color:#808080;stop-opacity:0.12"/>
		<stop  offset="1" style="stop-color:#808080;stop-opacity:0.1"/>
	</linearGradient>
	<circle class="st62" cx="520.4" cy="591.8" r="4"/>
	<circle class="st55" cx="520.4" cy="591.8" r="3.6"/>
	<path class="st40" d="M517.7,592.9c0-2,1.6-3.5,3.6-3.5c0.9,0,1.7,0.4,2.4,1c-0.8-1.8-2.9-2.6-4.7-1.7c-1.8,0.8-2.6,2.9-1.7,4.7
		c0.2,0.4,0.4,0.8,0.8,1.1C517.8,593.9,517.7,593.4,517.7,592.9z"/>
	<linearGradient id="SVGID_44_" gradientUnits="userSpaceOnUse" x1="525.0889" y1="598.5333" x2="525.0889" y2="590.5233">
		<stop  offset="0" style="stop-color:#808080;stop-opacity:0.25"/>
		<stop  offset="0.54" style="stop-color:#808080;stop-opacity:0.12"/>
		<stop  offset="1" style="stop-color:#808080;stop-opacity:0.1"/>
	</linearGradient>
	<circle class="st63" cx="525.1" cy="594.5" r="4"/>
	<circle class="st55" cx="525.1" cy="594.5" r="3.6"/>
	<path class="st40" d="M522.4,595.5c0-2,1.6-3.5,3.6-3.5c0.9,0,1.7,0.4,2.4,1c-0.8-1.8-2.9-2.6-4.7-1.7c-1.8,0.8-2.6,2.9-1.7,4.7
		c0.2,0.4,0.4,0.8,0.8,1.1C522.5,596.6,522.4,596,522.4,595.5z"/>
	<linearGradient id="SVGID_45_" gradientUnits="userSpaceOnUse" x1="529.9889" y1="597.7933" x2="529.9889" y2="589.7833">
		<stop  offset="0" style="stop-color:#808080;stop-opacity:0.25"/>
		<stop  offset="0.54" style="stop-color:#808080;stop-opacity:0.12"/>
		<stop  offset="1" style="stop-color:#808080;stop-opacity:0.1"/>
	</linearGradient>
	<circle class="st64" cx="530" cy="593.8" r="4"/>
	<circle class="st55" cx="530" cy="593.8" r="3.6"/>
	<path class="st40" d="M527.3,594.8c0-2,1.6-3.5,3.6-3.5c0.9,0,1.7,0.4,2.4,1c-0.8-1.8-2.9-2.6-4.7-1.9c-1.8,0.7-2.6,2.9-1.9,4.7
		c0.2,0.5,0.5,0.9,0.9,1.3C527.5,595.8,527.3,595.3,527.3,594.8z"/>
	<linearGradient id="SVGID_46_" gradientUnits="userSpaceOnUse" x1="528.6889" y1="601.7933" x2="528.6889" y2="593.7833">
		<stop  offset="0" style="stop-color:#808080;stop-opacity:0.25"/>
		<stop  offset="0.54" style="stop-color:#808080;stop-opacity:0.12"/>
		<stop  offset="1" style="stop-color:#808080;stop-opacity:0.1"/>
	</linearGradient>
	<circle class="st65" cx="528.7" cy="597.8" r="4"/>
	<circle class="st55" cx="528.7" cy="597.8" r="3.6"/>
	<path class="st40" d="M526,598.8c0-2,1.6-3.5,3.6-3.5c0.9,0,1.7,0.4,2.4,1c-0.8-1.8-2.9-2.6-4.7-1.7c-1.8,0.8-2.6,2.9-1.7,4.7
		c0.2,0.4,0.4,0.8,0.8,1.1C526.1,599.8,526,599.3,526,598.8z"/>
	<linearGradient id="SVGID_47_" gradientUnits="userSpaceOnUse" x1="511.8889" y1="596.6033" x2="511.8889" y2="588.6033">
		<stop  offset="0" style="stop-color:#808080;stop-opacity:0.25"/>
		<stop  offset="0.54" style="stop-color:#808080;stop-opacity:0.12"/>
		<stop  offset="1" style="stop-color:#808080;stop-opacity:0.1"/>
	</linearGradient>
	<circle class="st66" cx="511.9" cy="592.6" r="4"/>
	<circle class="st55" cx="511.9" cy="592.6" r="3.6"/>
	<path class="st40" d="M509.2,593.6c0-2,1.6-3.5,3.6-3.5c0.9,0,1.7,0.4,2.4,1c-0.8-1.8-2.9-2.6-4.7-1.7c-1.8,0.8-2.6,2.9-1.7,4.7
		c0.2,0.4,0.4,0.8,0.8,1.1C509.3,594.6,509.2,594.1,509.2,593.6z"/>
	<linearGradient id="SVGID_48_" gradientUnits="userSpaceOnUse" x1="500.3889" y1="608.7633" x2="500.3889" y2="600.7534">
		<stop  offset="0" style="stop-color:#808080;stop-opacity:0.25"/>
		<stop  offset="0.54" style="stop-color:#808080;stop-opacity:0.12"/>
		<stop  offset="1" style="stop-color:#808080;stop-opacity:0.1"/>
	</linearGradient>
	<circle class="st67" cx="500.4" cy="604.7" r="4"/>
	<circle class="st55" cx="500.4" cy="604.7" r="3.6"/>
	<path class="st40" d="M497.7,605.8c0-2,1.6-3.5,3.6-3.5c0.9,0,1.7,0.4,2.4,1c-0.8-1.8-2.9-2.6-4.7-1.7c-1.8,0.8-2.6,2.9-1.7,4.7
		c0.2,0.4,0.4,0.8,0.8,1.1C497.8,606.8,497.7,606.3,497.7,605.8z"/>
	<linearGradient id="SVGID_49_" gradientUnits="userSpaceOnUse" x1="507.2889" y1="602.0933" x2="507.2889" y2="594.0833">
		<stop  offset="0" style="stop-color:#808080;stop-opacity:0.25"/>
		<stop  offset="0.54" style="stop-color:#808080;stop-opacity:0.12"/>
		<stop  offset="1" style="stop-color:#808080;stop-opacity:0.1"/>
	</linearGradient>
	<circle class="st68" cx="507.3" cy="598.1" r="4"/>
	<circle class="st55" cx="507.3" cy="598.1" r="3.6"/>
	<path class="st40" d="M504.7,599.1c0-2,1.6-3.5,3.6-3.5c0.9,0,1.7,0.4,2.4,1c-0.8-1.8-2.9-2.6-4.7-1.7c-1.8,0.8-2.6,2.9-1.7,4.7
		c0.2,0.4,0.4,0.8,0.8,1.1C504.8,600.1,504.7,599.6,504.7,599.1z"/>
	<linearGradient id="SVGID_50_" gradientUnits="userSpaceOnUse" x1="493.0889" y1="613.5034" x2="493.0889" y2="605.5034">
		<stop  offset="0" style="stop-color:#808080;stop-opacity:0.25"/>
		<stop  offset="0.54" style="stop-color:#808080;stop-opacity:0.12"/>
		<stop  offset="1" style="stop-color:#808080;stop-opacity:0.1"/>
	</linearGradient>
	<circle class="st69" cx="493.1" cy="609.5" r="4"/>
	<circle class="st55" cx="493.1" cy="609.5" r="3.6"/>
	<path class="st40" d="M490.4,610.5c0-2,1.6-3.5,3.6-3.5c0.9,0,1.7,0.4,2.4,1c-0.8-1.8-2.9-2.6-4.7-1.7c-1.8,0.9-2.6,2.9-1.7,4.7
		c0.2,0.4,0.4,0.8,0.8,1.1C490.5,611.5,490.4,611,490.4,610.5z"/>
	<linearGradient id="SVGID_51_" gradientUnits="userSpaceOnUse" x1="531.4889" y1="610.3933" x2="531.4889" y2="602.3833">
		<stop  offset="0" style="stop-color:#808080;stop-opacity:0.25"/>
		<stop  offset="0.54" style="stop-color:#808080;stop-opacity:0.12"/>
		<stop  offset="1" style="stop-color:#808080;stop-opacity:0.1"/>
	</linearGradient>
	<circle class="st70" cx="531.5" cy="606.4" r="4"/>
	<circle class="st55" cx="531.5" cy="606.4" r="3.6"/>
	<path class="st40" d="M528.8,607.4c0-2,1.6-3.5,3.6-3.5c0.9,0,1.7,0.4,2.4,1c-0.8-1.8-2.9-2.6-4.7-1.7c-1.8,0.8-2.6,2.9-1.7,4.7
		c0.2,0.4,0.4,0.8,0.8,1.1C528.9,608.4,528.8,607.9,528.8,607.4z"/>
	<linearGradient id="SVGID_52_" gradientUnits="userSpaceOnUse" x1="513.4889" y1="587.8533" x2="513.4889" y2="579.8533">
		<stop  offset="0" style="stop-color:#808080;stop-opacity:0.25"/>
		<stop  offset="0.54" style="stop-color:#808080;stop-opacity:0.12"/>
		<stop  offset="1" style="stop-color:#808080;stop-opacity:0.1"/>
	</linearGradient>
	<circle class="st71" cx="513.5" cy="583.8" r="4"/>
	<circle class="st55" cx="513.5" cy="583.8" r="3.6"/>
	<path class="st40" d="M510.9,584.9c0-2,1.6-3.5,3.6-3.5c0.9,0,1.7,0.4,2.4,1c-0.8-1.8-2.9-2.6-4.7-1.7c-1.8,0.8-2.6,2.9-1.7,4.7
		c0.2,0.4,0.4,0.8,0.8,1.1C511,585.9,510.9,585.4,510.9,584.9z"/>
	<linearGradient id="SVGID_53_" gradientUnits="userSpaceOnUse" x1="506.2889" y1="597.0533" x2="506.2889" y2="589.0433">
		<stop  offset="0" style="stop-color:#808080;stop-opacity:0.25"/>
		<stop  offset="0.54" style="stop-color:#808080;stop-opacity:0.12"/>
		<stop  offset="1" style="stop-color:#808080;stop-opacity:0.1"/>
	</linearGradient>
	<circle class="st72" cx="506.3" cy="593" r="4"/>
	<circle class="st55" cx="506.3" cy="593" r="3.6"/>
	<path class="st40" d="M503.6,594.1c0-2,1.6-3.5,3.6-3.5c0.9,0,1.7,0.4,2.4,1c-0.8-1.8-2.9-2.6-4.7-1.7c-1.8,0.8-2.6,2.9-1.7,4.7
		c0.2,0.4,0.4,0.8,0.8,1.1C503.7,595.1,503.6,594.6,503.6,594.1z"/>
	<linearGradient id="SVGID_54_" gradientUnits="userSpaceOnUse" x1="500.4889" y1="603.8734" x2="500.4889" y2="595.8633">
		<stop  offset="0" style="stop-color:#808080;stop-opacity:0.25"/>
		<stop  offset="0.54" style="stop-color:#808080;stop-opacity:0.12"/>
		<stop  offset="1" style="stop-color:#808080;stop-opacity:0.1"/>
	</linearGradient>
	<circle class="st73" cx="500.5" cy="599.8" r="4"/>
	<circle class="st55" cx="500.5" cy="599.8" r="3.6"/>
	<path class="st40" d="M497.8,600.9c0-2,1.6-3.5,3.6-3.5c0.9,0,1.7,0.4,2.4,1c-0.8-1.8-2.9-2.6-4.7-1.7c-1.8,0.8-2.6,2.9-1.7,4.7
		c0.2,0.4,0.4,0.8,0.8,1.1C497.9,601.9,497.8,601.4,497.8,600.9z"/>
	<linearGradient id="SVGID_55_" gradientUnits="userSpaceOnUse" x1="504.6889" y1="611.4333" x2="504.6889" y2="603.4233">
		<stop  offset="0" style="stop-color:#808080;stop-opacity:0.25"/>
		<stop  offset="0.54" style="stop-color:#808080;stop-opacity:0.12"/>
		<stop  offset="1" style="stop-color:#808080;stop-opacity:0.1"/>
	</linearGradient>
	<circle class="st74" cx="504.7" cy="607.4" r="4"/>
	<circle class="st55" cx="504.7" cy="607.4" r="3.6"/>
	<path class="st40" d="M502,608.4c0-2,1.6-3.5,3.6-3.5c0.9,0,1.7,0.4,2.4,1c-0.8-1.8-2.9-2.6-4.7-1.7c-1.8,0.9-2.6,2.9-1.7,4.7
		c0.2,0.4,0.4,0.8,0.8,1.1C502.1,609.5,502,608.9,502,608.4z"/>
	<linearGradient id="SVGID_56_" gradientUnits="userSpaceOnUse" x1="510.2889" y1="606.3933" x2="510.2889" y2="598.3833">
		<stop  offset="0" style="stop-color:#808080;stop-opacity:0.25"/>
		<stop  offset="0.54" style="stop-color:#808080;stop-opacity:0.12"/>
		<stop  offset="1" style="stop-color:#808080;stop-opacity:0.1"/>
	</linearGradient>
	<circle class="st75" cx="510.3" cy="602.3" r="4"/>
	<circle class="st55" cx="510.3" cy="602.3" r="3.6"/>
	<path class="st40" d="M507.6,603.4c0-2,1.6-3.5,3.6-3.5c0.9,0,1.7,0.4,2.4,1c-0.8-1.8-2.9-2.6-4.7-1.7c-1.8,0.8-2.6,2.9-1.7,4.7
		c0.2,0.4,0.4,0.8,0.8,1.1C507.7,604.4,507.6,603.9,507.6,603.4z"/>
	<linearGradient id="SVGID_57_" gradientUnits="userSpaceOnUse" x1="513.1889" y1="611.4333" x2="513.1889" y2="603.4233">
		<stop  offset="0" style="stop-color:#808080;stop-opacity:0.25"/>
		<stop  offset="0.54" style="stop-color:#808080;stop-opacity:0.12"/>
		<stop  offset="1" style="stop-color:#808080;stop-opacity:0.1"/>
	</linearGradient>
	<circle class="st76" cx="513.2" cy="607.4" r="4"/>
	<circle class="st55" cx="513.2" cy="607.4" r="3.6"/>
	<path class="st40" d="M510.6,608.4c0-2,1.6-3.5,3.6-3.5c0.9,0,1.7,0.4,2.4,1c-0.8-1.8-2.9-2.6-4.7-1.7c-1.8,0.8-2.6,2.9-1.7,4.7
		c0.2,0.4,0.4,0.8,0.8,1.1C510.7,609.5,510.6,608.9,510.6,608.4z"/>
	<linearGradient id="SVGID_58_" gradientUnits="userSpaceOnUse" x1="543.8889" y1="615.8833" x2="543.8889" y2="607.8734">
		<stop  offset="0" style="stop-color:#808080;stop-opacity:0.25"/>
		<stop  offset="0.54" style="stop-color:#808080;stop-opacity:0.12"/>
		<stop  offset="1" style="stop-color:#808080;stop-opacity:0.1"/>
	</linearGradient>
	<circle class="st77" cx="543.9" cy="611.8" r="4"/>
	<circle class="st55" cx="543.9" cy="611.8" r="3.6"/>
	<path class="st40" d="M541.3,612.9c0-2,1.6-3.5,3.6-3.5c0.9,0,1.7,0.4,2.4,1c-0.8-1.8-2.9-2.6-4.7-1.7c-1.8,0.8-2.6,2.9-1.7,4.7
		c0.2,0.4,0.4,0.8,0.8,1.1C541.4,613.9,541.3,613.4,541.3,612.9z"/>
	<linearGradient id="SVGID_59_" gradientUnits="userSpaceOnUse" x1="538.2889" y1="614.9933" x2="538.2889" y2="606.9833">
		<stop  offset="0" style="stop-color:#808080;stop-opacity:0.25"/>
		<stop  offset="0.54" style="stop-color:#808080;stop-opacity:0.12"/>
		<stop  offset="1" style="stop-color:#808080;stop-opacity:0.1"/>
	</linearGradient>
	<circle class="st78" cx="538.3" cy="610.9" r="4"/>
	<circle class="st55" cx="538.3" cy="610.9" r="3.6"/>
	<path class="st40" d="M535.6,612c0-2,1.6-3.5,3.6-3.5c0.9,0,1.7,0.4,2.4,1c-0.8-1.8-2.9-2.6-4.7-1.7c-1.8,0.8-2.6,2.9-1.7,4.7
		c0.2,0.4,0.4,0.8,0.8,1.1C535.7,613,535.6,612.5,535.6,612z"/>
	<linearGradient id="SVGID_60_" gradientUnits="userSpaceOnUse" x1="527.4889" y1="615.4333" x2="527.4889" y2="607.4233">
		<stop  offset="0" style="stop-color:#808080;stop-opacity:0.25"/>
		<stop  offset="0.54" style="stop-color:#808080;stop-opacity:0.12"/>
		<stop  offset="1" style="stop-color:#808080;stop-opacity:0.1"/>
	</linearGradient>
	<circle class="st79" cx="527.5" cy="611.4" r="4"/>
	<circle class="st55" cx="527.5" cy="611.4" r="3.6"/>
	<circle class="st55" cx="528.2" cy="607.3" r="3.6"/>
	<path class="st40" d="M524.8,612.4c0-2,1.6-3.5,3.6-3.5c0.9,0,1.7,0.4,2.4,1c-0.8-1.8-2.9-2.6-4.7-1.7c-1.8,0.8-2.6,2.9-1.7,4.7
		c0.2,0.4,0.4,0.8,0.8,1.1C524.9,613.5,524.8,613,524.8,612.4z"/>
	<linearGradient id="SVGID_61_" gradientUnits="userSpaceOnUse" x1="515.4889" y1="615.8833" x2="515.4889" y2="607.8734">
		<stop  offset="0" style="stop-color:#808080;stop-opacity:0.25"/>
		<stop  offset="0.54" style="stop-color:#808080;stop-opacity:0.12"/>
		<stop  offset="1" style="stop-color:#808080;stop-opacity:0.1"/>
	</linearGradient>
	<circle class="st80" cx="515.5" cy="611.8" r="4"/>
	<circle class="st55" cx="515.5" cy="611.8" r="3.6"/>
	<path class="st40" d="M512.8,612.9c0-2,1.6-3.5,3.6-3.5c0.9,0,1.7,0.4,2.4,1c-0.8-1.8-2.9-2.6-4.7-1.7c-1.8,0.8-2.6,2.9-1.7,4.7
		c0.2,0.4,0.4,0.8,0.8,1.1C512.9,613.9,512.8,613.4,512.8,612.9z"/>
	<linearGradient id="SVGID_62_" gradientUnits="userSpaceOnUse" x1="514.2889" y1="599.8633" x2="514.2889" y2="591.8633">
		<stop  offset="0" style="stop-color:#808080;stop-opacity:0.25"/>
		<stop  offset="0.54" style="stop-color:#808080;stop-opacity:0.12"/>
		<stop  offset="1" style="stop-color:#808080;stop-opacity:0.1"/>
	</linearGradient>
	<circle class="st81" cx="514.3" cy="595.8" r="4"/>
	<circle class="st39" cx="514.3" cy="595.8" r="3.6"/>
	<path class="st40" d="M511.6,596.9c0-2,1.6-3.5,3.6-3.5c0.9,0,1.7,0.4,2.4,1c-0.8-1.8-2.9-2.6-4.7-1.7c-1.8,0.8-2.6,2.9-1.7,4.7
		c0.2,0.4,0.4,0.8,0.8,1.1C511.7,597.9,511.6,597.4,511.6,596.9z"/>
	<linearGradient id="SVGID_63_" gradientUnits="userSpaceOnUse" x1="518.2889" y1="604.9033" x2="518.2889" y2="596.9033">
		<stop  offset="0" style="stop-color:#808080;stop-opacity:0.25"/>
		<stop  offset="0.54" style="stop-color:#808080;stop-opacity:0.12"/>
		<stop  offset="1" style="stop-color:#808080;stop-opacity:0.1"/>
	</linearGradient>
	<circle class="st82" cx="518.3" cy="600.9" r="4"/>
	<circle class="st39" cx="518.3" cy="600.9" r="3.6"/>
	<path class="st40" d="M515.6,601.9c0-2,1.6-3.5,3.6-3.5c0.9,0,1.7,0.4,2.4,1c-0.8-1.8-2.9-2.6-4.7-1.7c-1.8,0.8-2.6,2.9-1.7,4.7
		c0.2,0.4,0.4,0.8,0.8,1.1C515.7,602.9,515.6,602.4,515.6,601.9z"/>
	<linearGradient id="SVGID_64_" gradientUnits="userSpaceOnUse" x1="511.5889" y1="592.6033" x2="511.5889" y2="584.5933">
		<stop  offset="0" style="stop-color:#808080;stop-opacity:0.25"/>
		<stop  offset="0.54" style="stop-color:#808080;stop-opacity:0.12"/>
		<stop  offset="1" style="stop-color:#808080;stop-opacity:0.1"/>
	</linearGradient>
	<circle class="st83" cx="511.6" cy="588.6" r="4"/>
	<circle class="st39" cx="511.6" cy="588.6" r="3.6"/>
	<path class="st40" d="M508.9,589.6c0-2,1.6-3.5,3.6-3.5c0.9,0,1.7,0.4,2.4,1c-0.8-1.8-2.9-2.6-4.7-1.7c-1.8,0.8-2.6,2.9-1.7,4.7
		c0.2,0.4,0.4,0.8,0.8,1.1C509,590.6,508.9,590.1,508.9,589.6z"/>
	<linearGradient id="SVGID_65_" gradientUnits="userSpaceOnUse" x1="516.0889" y1="593.0433" x2="516.0889" y2="585.0433">
		<stop  offset="0" style="stop-color:#808080;stop-opacity:0.25"/>
		<stop  offset="0.54" style="stop-color:#808080;stop-opacity:0.12"/>
		<stop  offset="1" style="stop-color:#808080;stop-opacity:0.1"/>
	</linearGradient>
	<circle class="st84" cx="516.1" cy="589" r="4"/>
	<circle class="st39" cx="516.1" cy="589" r="3.6"/>
	<path class="st40" d="M513.4,590.1c0-2,1.6-3.5,3.6-3.5c0.9,0,1.7,0.4,2.4,1c-0.8-1.8-2.9-2.6-4.7-1.7c-1.8,0.8-2.6,2.9-1.7,4.7
		c0.2,0.4,0.4,0.8,0.8,1.1C513.5,591.1,513.4,590.6,513.4,590.1z"/>
	<linearGradient id="SVGID_66_" gradientUnits="userSpaceOnUse" x1="523.4889" y1="595.1234" x2="523.4889" y2="587.1133">
		<stop  offset="0" style="stop-color:#808080;stop-opacity:0.25"/>
		<stop  offset="0.54" style="stop-color:#808080;stop-opacity:0.12"/>
		<stop  offset="1" style="stop-color:#808080;stop-opacity:0.1"/>
	</linearGradient>
	<circle class="st85" cx="523.5" cy="591.1" r="4"/>
	<circle class="st39" cx="523.5" cy="591.1" r="3.6"/>
	<path class="st40" d="M520.8,592.1c0-2,1.6-3.5,3.6-3.5c0.9,0,1.7,0.4,2.4,1c-0.8-1.8-2.9-2.6-4.7-1.7c-1.8,0.8-2.6,2.9-1.7,4.7
		c0.2,0.4,0.4,0.8,0.8,1.1C520.9,593.2,520.8,592.6,520.8,592.1z"/>
	<linearGradient id="SVGID_67_" gradientUnits="userSpaceOnUse" x1="503.4889" y1="601.6433" x2="503.4889" y2="593.6433">
		<stop  offset="0" style="stop-color:#808080;stop-opacity:0.25"/>
		<stop  offset="0.54" style="stop-color:#808080;stop-opacity:0.12"/>
		<stop  offset="1" style="stop-color:#808080;stop-opacity:0.1"/>
	</linearGradient>
	<circle class="st86" cx="503.5" cy="597.6" r="4"/>
	<circle class="st39" cx="503.5" cy="597.6" r="3.6"/>
	<path class="st40" d="M500.8,598.6c0-2,1.6-3.5,3.6-3.5c0.9,0,1.7,0.4,2.4,1c-0.8-1.8-2.9-2.6-4.7-1.7c-1.8,0.8-2.6,2.9-1.7,4.7
		c0.2,0.4,0.4,0.8,0.8,1.1C500.9,599.7,500.8,599.2,500.8,598.6z"/>
	<linearGradient id="SVGID_68_" gradientUnits="userSpaceOnUse" x1="506.2889" y1="606.8333" x2="506.2889" y2="598.8333">
		<stop  offset="0" style="stop-color:#808080;stop-opacity:0.25"/>
		<stop  offset="0.54" style="stop-color:#808080;stop-opacity:0.12"/>
		<stop  offset="1" style="stop-color:#808080;stop-opacity:0.1"/>
	</linearGradient>
	<circle class="st87" cx="506.3" cy="602.8" r="4"/>
	<circle class="st39" cx="506.3" cy="602.8" r="3.6"/>
	<path class="st40" d="M503.6,603.8c0-2,1.6-3.5,3.6-3.5c0.9,0,1.7,0.4,2.4,1c-0.8-1.8-2.9-2.6-4.7-1.7c-1.8,0.9-2.6,2.9-1.7,4.7
		c0.2,0.4,0.4,0.8,0.8,1.1C503.7,604.9,503.6,604.4,503.6,603.8z"/>
	<linearGradient id="SVGID_69_" gradientUnits="userSpaceOnUse" x1="508.1889" y1="612.9133" x2="508.1889" y2="604.9033">
		<stop  offset="0" style="stop-color:#808080;stop-opacity:0.25"/>
		<stop  offset="0.54" style="stop-color:#808080;stop-opacity:0.12"/>
		<stop  offset="1" style="stop-color:#808080;stop-opacity:0.1"/>
	</linearGradient>
	<circle class="st88" cx="508.2" cy="608.9" r="4"/>
	<circle class="st39" cx="508.2" cy="608.9" r="3.6"/>
	<path class="st40" d="M505.5,609.9c0-2,1.6-3.5,3.6-3.5c0.9,0,1.7,0.4,2.4,1c-0.8-1.8-2.9-2.6-4.7-1.7c-1.8,0.9-2.6,2.9-1.7,4.7
		c0.2,0.4,0.4,0.8,0.8,1.1C505.6,611,505.5,610.4,505.5,609.9z"/>
	<linearGradient id="SVGID_70_" gradientUnits="userSpaceOnUse" x1="519.4889" y1="610.9833" x2="519.4889" y2="602.9833">
		<stop  offset="0" style="stop-color:#808080;stop-opacity:0.25"/>
		<stop  offset="0.54" style="stop-color:#808080;stop-opacity:0.12"/>
		<stop  offset="1" style="stop-color:#808080;stop-opacity:0.1"/>
	</linearGradient>
	<circle class="st89" cx="519.5" cy="606.9" r="4"/>
	<circle class="st39" cx="519.5" cy="606.9" r="3.6"/>
	<path class="st40" d="M516.8,608c0-2,1.6-3.5,3.6-3.5c0.9,0,1.7,0.4,2.4,1c-0.8-1.8-2.9-2.6-4.7-1.7c-1.8,0.8-2.6,2.9-1.7,4.7
		c0.2,0.4,0.4,0.8,0.8,1.1C516.9,609,516.8,608.5,516.8,608z"/>
	<linearGradient id="SVGID_71_" gradientUnits="userSpaceOnUse" x1="530.9889" y1="607.4233" x2="530.9889" y2="599.4233">
		<stop  offset="0" style="stop-color:#808080;stop-opacity:0.25"/>
		<stop  offset="0.54" style="stop-color:#808080;stop-opacity:0.12"/>
		<stop  offset="1" style="stop-color:#808080;stop-opacity:0.1"/>
	</linearGradient>
	<circle class="st90" cx="531" cy="603.4" r="4"/>
	<circle class="st39" cx="531" cy="603.4" r="3.6"/>
	<path class="st40" d="M528.4,604.4c0-2,1.6-3.5,3.6-3.5c0.9,0,1.7,0.4,2.4,1c-0.8-1.8-2.9-2.6-4.7-1.7c-1.8,0.8-2.6,2.9-1.7,4.7
		c0.2,0.4,0.4,0.8,0.8,1.1C528.5,605.5,528.4,604.9,528.4,604.4z"/>
	<linearGradient id="SVGID_72_" gradientUnits="userSpaceOnUse" x1="534.6889" y1="604.3134" x2="534.6889" y2="596.3134">
		<stop  offset="0" style="stop-color:#808080;stop-opacity:0.25"/>
		<stop  offset="0.54" style="stop-color:#808080;stop-opacity:0.12"/>
		<stop  offset="1" style="stop-color:#808080;stop-opacity:0.1"/>
	</linearGradient>
	<circle class="st91" cx="534.7" cy="600.3" r="4"/>
	<circle class="st39" cx="534.7" cy="600.3" r="3.6"/>
	<circle class="st39" cx="525.7" cy="600" r="3.6"/>
	<path class="st40" d="M532.1,601.3c0-2,1.6-3.5,3.6-3.5c0.9,0,1.7,0.4,2.4,1c-0.8-1.8-2.9-2.6-4.7-1.7c-1.8,0.8-2.6,2.9-1.7,4.7
		c0.2,0.4,0.4,0.8,0.8,1.1C532.2,602.3,532.1,601.8,532.1,601.3z"/>
	<linearGradient id="SVGID_73_" gradientUnits="userSpaceOnUse" x1="540.4889" y1="611.4333" x2="540.4889" y2="603.4233">
		<stop  offset="0" style="stop-color:#808080;stop-opacity:0.25"/>
		<stop  offset="0.54" style="stop-color:#808080;stop-opacity:0.12"/>
		<stop  offset="1" style="stop-color:#808080;stop-opacity:0.1"/>
	</linearGradient>
	<circle class="st92" cx="540.5" cy="607.4" r="4"/>
	<circle class="st39" cx="540.5" cy="607.4" r="3.6"/>
	<path class="st40" d="M537.9,608.4c0-2,1.6-3.5,3.6-3.5c0.9,0,1.7,0.4,2.4,1c-0.8-1.8-2.9-2.6-4.7-1.7c-1.8,0.8-2.6,2.9-1.7,4.7
		c0.2,0.4,0.4,0.8,0.8,1.1C538,609.5,537.8,608.9,537.9,608.4z"/>
	<linearGradient id="SVGID_74_" gradientUnits="userSpaceOnUse" x1="521.7889" y1="616.3233" x2="521.7889" y2="608.3134">
		<stop  offset="0" style="stop-color:#808080;stop-opacity:0.25"/>
		<stop  offset="0.54" style="stop-color:#808080;stop-opacity:0.12"/>
		<stop  offset="1" style="stop-color:#808080;stop-opacity:0.1"/>
	</linearGradient>
	<circle class="st93" cx="521.8" cy="612.3" r="4"/>
	<circle class="st39" cx="521.8" cy="612.3" r="3.6"/>
	<path class="st40" d="M519.2,613.3c0-2,1.6-3.5,3.6-3.5c0.9,0,1.7,0.4,2.4,1c-0.8-1.8-2.9-2.6-4.7-1.7c-1.8,0.8-2.6,2.9-1.7,4.7
		c0.2,0.4,0.4,0.8,0.8,1.1C519.3,614.3,519.2,613.8,519.2,613.3z"/>
	<linearGradient id="SVGID_75_" gradientUnits="userSpaceOnUse" x1="501.1889" y1="614.5433" x2="501.1889" y2="606.5433">
		<stop  offset="0" style="stop-color:#808080;stop-opacity:0.25"/>
		<stop  offset="0.54" style="stop-color:#808080;stop-opacity:0.12"/>
		<stop  offset="1" style="stop-color:#808080;stop-opacity:0.1"/>
	</linearGradient>
	<circle class="st94" cx="501.2" cy="610.5" r="4"/>
	<circle class="st39" cx="501.2" cy="610.5" r="3.6"/>
	<path class="st40" d="M498.6,611.6c0-2,1.6-3.5,3.6-3.5c0.9,0,1.7,0.4,2.4,1c-0.8-1.8-2.9-2.6-4.7-1.7c-1.8,0.8-2.6,2.9-1.7,4.7
		c0.2,0.4,0.4,0.8,0.8,1.1C498.7,612.6,498.6,612.1,498.6,611.6z"/>
	<linearGradient id="SVGID_76_" gradientUnits="userSpaceOnUse" x1="495.3889" y1="609.3533" x2="495.3889" y2="601.3533">
		<stop  offset="0" style="stop-color:#808080;stop-opacity:0.25"/>
		<stop  offset="0.54" style="stop-color:#808080;stop-opacity:0.12"/>
		<stop  offset="1" style="stop-color:#808080;stop-opacity:0.1"/>
	</linearGradient>
	<circle class="st95" cx="495.4" cy="605.3" r="4"/>
	<circle class="st39" cx="495.4" cy="605.3" r="3.6"/>
	<path class="st40" d="M492.8,606.4c0-2,1.6-3.5,3.6-3.5c0.9,0,1.7,0.4,2.4,1c-0.8-1.8-2.9-2.6-4.7-1.7c-1.8,0.9-2.6,2.9-1.7,4.7
		c0.2,0.4,0.4,0.8,0.8,1.1C492.9,607.4,492.8,606.9,492.8,606.4z"/>
	<linearGradient id="SVGID_77_" gradientUnits="userSpaceOnUse" x1="502.9889" y1="606.8333" x2="502.9889" y2="598.8333">
		<stop  offset="0" style="stop-color:#808080;stop-opacity:0.25"/>
		<stop  offset="0.54" style="stop-color:#808080;stop-opacity:0.12"/>
		<stop  offset="1" style="stop-color:#808080;stop-opacity:0.1"/>
	</linearGradient>
	<circle class="st96" cx="503" cy="602.8" r="4"/>
	<circle class="st39" cx="503" cy="602.8" r="3.6"/>
	<path class="st40" d="M500.4,603.8c0-2,1.6-3.5,3.6-3.5c0.9,0,1.7,0.4,2.4,1c-0.7-1.8-2.8-2.7-4.6-1.9c-1.8,0.7-2.7,2.8-1.9,4.6
		c0.2,0.5,0.5,0.9,0.9,1.3C500.5,604.8,500.4,604.3,500.4,603.8z"/>
	<linearGradient id="SVGID_78_" gradientUnits="userSpaceOnUse" x1="498.8889" y1="600.7534" x2="498.8889" y2="592.7534">
		<stop  offset="0" style="stop-color:#808080;stop-opacity:0.25"/>
		<stop  offset="0.54" style="stop-color:#808080;stop-opacity:0.12"/>
		<stop  offset="1" style="stop-color:#808080;stop-opacity:0.1"/>
	</linearGradient>
	<circle class="st97" cx="498.9" cy="596.7" r="4"/>
	<circle class="st39" cx="498.9" cy="596.7" r="3.6"/>
	<path class="st40" d="M496.2,597.8c0-2,1.6-3.5,3.6-3.5c0.9,0,1.7,0.4,2.4,1c-0.8-1.8-2.9-2.6-4.7-1.7c-1.8,0.8-2.6,2.9-1.7,4.7
		c0.2,0.4,0.4,0.8,0.8,1.1C496.3,598.8,496.2,598.3,496.2,597.8z"/>
	<linearGradient id="SVGID_79_" gradientUnits="userSpaceOnUse" x1="502.3889" y1="595.1234" x2="502.3889" y2="587.1133">
		<stop  offset="0" style="stop-color:#808080;stop-opacity:0.25"/>
		<stop  offset="0.54" style="stop-color:#808080;stop-opacity:0.12"/>
		<stop  offset="1" style="stop-color:#808080;stop-opacity:0.1"/>
	</linearGradient>
	<circle class="st98" cx="502.4" cy="591.1" r="4"/>
	<circle class="st39" cx="502.4" cy="591.1" r="3.6"/>
	<path class="st40" d="M499.7,592.1c0-2,1.6-3.5,3.6-3.5c0.9,0,1.7,0.4,2.4,1c-0.8-1.8-2.9-2.6-4.7-1.7c-1.8,0.8-2.6,2.9-1.7,4.7
		c0.2,0.4,0.4,0.8,0.8,1.1C499.8,593.2,499.7,592.6,499.7,592.1z"/>
	<linearGradient id="SVGID_80_" gradientUnits="userSpaceOnUse" x1="533.3889" y1="615.8833" x2="533.3889" y2="607.8734">
		<stop  offset="0" style="stop-color:#808080;stop-opacity:0.25"/>
		<stop  offset="0.54" style="stop-color:#808080;stop-opacity:0.12"/>
		<stop  offset="1" style="stop-color:#808080;stop-opacity:0.1"/>
	</linearGradient>
	<circle class="st99" cx="533.4" cy="611.8" r="4"/>
	<circle class="st39" cx="533.4" cy="611.8" r="3.6"/>
	<path class="st40" d="M530.7,612.9c0-2,1.6-3.5,3.6-3.5c0.9,0,1.7,0.4,2.4,1c-0.8-1.8-2.9-2.6-4.7-1.7c-1.8,0.8-2.6,2.9-1.7,4.7
		c0.2,0.4,0.4,0.8,0.8,1.1C530.8,613.9,530.7,613.4,530.7,612.9z"/>
	<linearGradient id="SVGID_81_" gradientUnits="userSpaceOnUse" x1="516.8389" y1="678.0333" x2="516.8389" y2="611.9034">
		<stop  offset="0" style="stop-color:#808080;stop-opacity:0.25"/>
		<stop  offset="0.54" style="stop-color:#808080;stop-opacity:0.12"/>
		<stop  offset="1" style="stop-color:#808080;stop-opacity:0.1"/>
	</linearGradient>
	<polygon class="st100" points="538.9,678 494.7,678 483.4,611.8 550.3,611.8 	"/>
	<polygon class="st101" points="538.3,677.1 495.6,677.1 484.8,612.9 549.3,612.9 	"/>
	<polygon class="st36" points="484.8,612.9 495.8,612.9 506.1,677.1 495.4,677.1 	"/>
	<polygon class="st36" points="549.3,612.9 538.2,612.9 527.5,677.1 538.3,677.1 	"/>
	<rect x="511.5" y="612.9" class="st36" width="10.7" height="64.2"/>
	<linearGradient id="SVGID_82_" gradientUnits="userSpaceOnUse" x1="496.7889" y1="604.9033" x2="496.7889" y2="596.9033">
		<stop  offset="0" style="stop-color:#808080;stop-opacity:0.25"/>
		<stop  offset="0.54" style="stop-color:#808080;stop-opacity:0.12"/>
		<stop  offset="1" style="stop-color:#808080;stop-opacity:0.1"/>
	</linearGradient>
	<circle class="st102" cx="496.8" cy="600.9" r="4"/>
	<circle class="st55" cx="496.8" cy="600.9" r="3.6"/>
	<path class="st40" d="M494.1,601.9c0-2,1.6-3.5,3.6-3.5c0.9,0,1.7,0.4,2.4,1c-0.8-1.8-2.9-2.6-4.7-1.7c-1.8,0.8-2.6,2.9-1.7,4.7
		c0.2,0.4,0.4,0.8,0.8,1.1C494.2,602.9,494.1,602.4,494.1,601.9z"/>
	<linearGradient id="SVGID_83_" gradientUnits="userSpaceOnUse" x1="506.8889" y1="593.6433" x2="506.8889" y2="585.6333">
		<stop  offset="0" style="stop-color:#808080;stop-opacity:0.25"/>
		<stop  offset="0.54" style="stop-color:#808080;stop-opacity:0.12"/>
		<stop  offset="1" style="stop-color:#808080;stop-opacity:0.1"/>
	</linearGradient>
	<circle class="st103" cx="506.9" cy="589.6" r="4"/>
	<circle class="st55" cx="506.9" cy="589.6" r="3.6"/>
	<path class="st40" d="M504.2,590.6c0-2,1.6-3.5,3.6-3.5c0.9,0,1.7,0.4,2.4,1c-0.8-1.8-2.9-2.6-4.7-1.7c-1.8,0.8-2.6,2.9-1.7,4.7
		c0.2,0.4,0.4,0.8,0.8,1.1C504.3,591.7,504.2,591.2,504.2,590.6z"/>
	<linearGradient id="SVGID_84_" gradientUnits="userSpaceOnUse" x1="492.7889" y1="610.9833" x2="492.7889" y2="602.9833">
		<stop  offset="0" style="stop-color:#808080;stop-opacity:0.25"/>
		<stop  offset="0.54" style="stop-color:#808080;stop-opacity:0.12"/>
		<stop  offset="1" style="stop-color:#808080;stop-opacity:0.1"/>
	</linearGradient>
	<circle class="st104" cx="492.8" cy="606.9" r="4"/>
	<circle class="st55" cx="492.8" cy="606.9" r="3.6"/>
	<path class="st40" d="M490.1,608c0-2,1.6-3.5,3.6-3.5c0.9,0,1.7,0.4,2.4,1c-0.8-1.8-2.9-2.6-4.7-1.7c-1.8,0.8-2.6,2.9-1.7,4.7
		c0.2,0.4,0.4,0.8,0.8,1.1C490.2,609,490.1,608.5,490.1,608z"/>
	<linearGradient id="SVGID_85_" gradientUnits="userSpaceOnUse" x1="487.9889" y1="583.7933" x2="487.9889" y2="575.7833">
		<stop  offset="0" style="stop-color:#808080;stop-opacity:0.25"/>
		<stop  offset="0.54" style="stop-color:#808080;stop-opacity:0.12"/>
		<stop  offset="1" style="stop-color:#808080;stop-opacity:0.1"/>
	</linearGradient>
	<circle class="st105" cx="488" cy="579.8" r="4"/>
	<circle class="st55" cx="488" cy="579.8" r="3.6"/>
	<path class="st40" d="M485.3,580.8c0-2,1.6-3.5,3.6-3.5c0.9,0,1.7,0.4,2.4,1c-0.8-1.8-2.9-2.7-4.7-1.9c-1.8,0.8-2.7,2.9-1.9,4.7
		c0.2,0.5,0.5,0.9,0.9,1.3C485.5,581.8,485.3,581.3,485.3,580.8z"/>
	<linearGradient id="SVGID_86_" gradientUnits="userSpaceOnUse" x1="504.7889" y1="560.8533" x2="504.7889" y2="552.8433">
		<stop  offset="0" style="stop-color:#808080;stop-opacity:0.25"/>
		<stop  offset="0.54" style="stop-color:#808080;stop-opacity:0.12"/>
		<stop  offset="1" style="stop-color:#808080;stop-opacity:0.1"/>
	</linearGradient>
	<circle class="st106" cx="504.8" cy="556.8" r="4"/>
	<circle class="st55" cx="504.8" cy="556.8" r="3.6"/>
	<path class="st40" d="M502.2,557.8c0-2,1.6-3.5,3.6-3.5c0.9,0,1.7,0.4,2.4,1c-0.8-1.8-2.9-2.6-4.7-1.7c-1.8,0.8-2.6,2.9-1.7,4.7
		c0.2,0.4,0.4,0.8,0.8,1.1C502.3,558.9,502.1,558.4,502.2,557.8z"/>
	<linearGradient id="SVGID_87_" gradientUnits="userSpaceOnUse" x1="519.3889" y1="543.4333" x2="519.3889" y2="535.4233">
		<stop  offset="0" style="stop-color:#808080;stop-opacity:0.25"/>
		<stop  offset="0.54" style="stop-color:#808080;stop-opacity:0.12"/>
		<stop  offset="1" style="stop-color:#808080;stop-opacity:0.1"/>
	</linearGradient>
	<circle class="st107" cx="519.4" cy="539.4" r="4"/>
	<circle class="st39" cx="519.4" cy="539.4" r="3.6"/>
	<path class="st40" d="M516.7,540.4c0-2,1.6-3.5,3.6-3.5c0.9,0,1.7,0.4,2.4,1c-0.8-1.8-2.9-2.6-4.7-1.7c-1.8,0.8-2.6,2.9-1.7,4.7
		c0.2,0.4,0.4,0.8,0.8,1.1C516.8,541.5,516.7,540.9,516.7,540.4z"/>
	<linearGradient id="SVGID_88_" gradientUnits="userSpaceOnUse" x1="547.4889" y1="580.8933" x2="547.4889" y2="572.8833">
		<stop  offset="0" style="stop-color:#808080;stop-opacity:0.25"/>
		<stop  offset="0.54" style="stop-color:#808080;stop-opacity:0.12"/>
		<stop  offset="1" style="stop-color:#808080;stop-opacity:0.1"/>
	</linearGradient>
	<circle class="st108" cx="547.5" cy="576.8" r="4"/>
	<circle class="st39" cx="547.5" cy="576.8" r="3.6"/>
	<path class="st40" d="M544.8,577.9c0-2,1.6-3.5,3.6-3.5c0.9,0,1.7,0.4,2.4,1c-0.8-1.8-2.9-2.6-4.7-1.7c-1.8,0.8-2.6,2.9-1.7,4.7
		c0.2,0.4,0.4,0.8,0.8,1.1C544.9,578.9,544.8,578.4,544.8,577.9z"/>
	<linearGradient id="SVGID_89_" gradientUnits="userSpaceOnUse" x1="569.8889" y1="609.3433" x2="569.8889" y2="601.3433">
		<stop  offset="0" style="stop-color:#808080;stop-opacity:0.25"/>
		<stop  offset="0.54" style="stop-color:#808080;stop-opacity:0.12"/>
		<stop  offset="1" style="stop-color:#808080;stop-opacity:0.1"/>
	</linearGradient>
	<circle class="st109" cx="569.9" cy="605.3" r="4"/>
	<circle class="st39" cx="569.9" cy="605.3" r="3.6"/>
	<path class="st40" d="M567.2,606.3c0-2,1.6-3.5,3.6-3.5c0.9,0,1.7,0.4,2.4,1c-0.8-1.8-2.9-2.6-4.7-1.7c-1.8,0.8-2.6,2.9-1.7,4.7
		c0.2,0.4,0.4,0.8,0.8,1.1C567.3,607.3,567.2,606.8,567.2,606.3z"/>
	<linearGradient id="SVGID_90_" gradientUnits="userSpaceOnUse" x1="486.7889" y1="678.7433" x2="486.7889" y2="670.7433">
		<stop  offset="0" style="stop-color:#808080;stop-opacity:0.25"/>
		<stop  offset="0.54" style="stop-color:#808080;stop-opacity:0.12"/>
		<stop  offset="1" style="stop-color:#808080;stop-opacity:0.1"/>
	</linearGradient>
	<circle class="st110" cx="486.8" cy="674.7" r="4"/>
	<circle class="st55" cx="486.8" cy="674.7" r="3.6"/>
	<path class="st40" d="M484.2,675.8c0-2,1.6-3.5,3.6-3.5c0.9,0,1.7,0.4,2.4,1c-0.8-1.8-2.9-2.6-4.7-1.7s-2.6,2.9-1.7,4.7
		c0.2,0.4,0.4,0.8,0.8,1.1C484.3,676.8,484.1,676.3,484.2,675.8z"/>
	<linearGradient id="SVGID_91_" gradientUnits="userSpaceOnUse" x1="481.2889" y1="671.4833" x2="481.2889" y2="663.4833">
		<stop  offset="0" style="stop-color:#808080;stop-opacity:0.25"/>
		<stop  offset="0.54" style="stop-color:#808080;stop-opacity:0.12"/>
		<stop  offset="1" style="stop-color:#808080;stop-opacity:0.1"/>
	</linearGradient>
	<circle class="st111" cx="481.3" cy="667.5" r="4"/>
	<circle class="st39" cx="481.3" cy="667.5" r="3.6"/>
	<path class="st40" d="M478.7,668.5c0-2,1.6-3.5,3.6-3.5c0.9,0,1.7,0.4,2.4,1c-0.8-1.8-2.9-2.6-4.7-1.7c-1.8,0.8-2.6,2.9-1.7,4.7
		c0.2,0.4,0.4,0.8,0.8,1.1C478.8,669.5,478.7,669,478.7,668.5z"/>
	<linearGradient id="SVGID_92_" gradientUnits="userSpaceOnUse" x1="477.7889" y1="632.2833" x2="477.7889" y2="624.2833">
		<stop  offset="0" style="stop-color:#808080;stop-opacity:0.25"/>
		<stop  offset="0.54" style="stop-color:#808080;stop-opacity:0.12"/>
		<stop  offset="1" style="stop-color:#808080;stop-opacity:0.1"/>
	</linearGradient>
	<circle class="st112" cx="477.8" cy="628.3" r="4"/>
	<circle class="st55" cx="477.8" cy="628.3" r="3.6"/>
	<path class="st40" d="M475.2,629.3c0-2,1.6-3.5,3.6-3.5c0.9,0,1.7,0.4,2.4,1c-0.8-1.8-2.9-2.6-4.7-1.7c-1.8,0.9-2.6,2.9-1.7,4.7
		c0.2,0.4,0.4,0.8,0.8,1.1C475.3,630.3,475.1,629.8,475.2,629.3z"/>
	<linearGradient id="SVGID_93_" gradientUnits="userSpaceOnUse" x1="553.2889" y1="675.5533" x2="553.2889" y2="667.5433">
		<stop  offset="0" style="stop-color:#808080;stop-opacity:0.25"/>
		<stop  offset="0.54" style="stop-color:#808080;stop-opacity:0.12"/>
		<stop  offset="1" style="stop-color:#808080;stop-opacity:0.1"/>
	</linearGradient>
	<circle class="st113" cx="553.3" cy="671.5" r="4"/>
	<circle class="st55" cx="553.3" cy="671.5" r="3.6"/>
	<path class="st40" d="M550.7,672.6c0-2,1.6-3.5,3.6-3.5c0.9,0,1.7,0.4,2.4,1c-0.8-1.8-2.9-2.6-4.7-1.7c-1.8,0.8-2.6,2.9-1.7,4.7
		c0.2,0.4,0.4,0.8,0.8,1.1C550.8,673.6,550.7,673.1,550.7,672.6z"/>
	<linearGradient id="SVGID_94_" gradientUnits="userSpaceOnUse" x1="560.5889" y1="670.9033" x2="560.5889" y2="662.9033">
		<stop  offset="0" style="stop-color:#808080;stop-opacity:0.25"/>
		<stop  offset="0.54" style="stop-color:#808080;stop-opacity:0.12"/>
		<stop  offset="1" style="stop-color:#808080;stop-opacity:0.1"/>
	</linearGradient>
	<circle class="st114" cx="560.6" cy="666.9" r="4"/>
	<circle class="st55" cx="560.6" cy="666.9" r="3.6"/>
	<path class="st40" d="M557.9,667.9c0-2,1.6-3.5,3.6-3.5c0.9,0,1.7,0.4,2.4,1c-0.8-1.8-2.9-2.6-4.7-1.7c-1.8,0.8-2.6,2.9-1.7,4.7
		c0.2,0.4,0.4,0.8,0.8,1.1C558,668.9,557.9,668.4,557.9,667.9z"/>
	<linearGradient id="SVGID_95_" gradientUnits="userSpaceOnUse" x1="561.3889" y1="676.4233" x2="561.3889" y2="668.4133">
		<stop  offset="0" style="stop-color:#808080;stop-opacity:0.25"/>
		<stop  offset="0.54" style="stop-color:#808080;stop-opacity:0.12"/>
		<stop  offset="1" style="stop-color:#808080;stop-opacity:0.1"/>
	</linearGradient>
	<circle class="st115" cx="561.4" cy="672.4" r="4"/>
	<circle class="st39" cx="561.4" cy="672.4" r="3.6"/>
	<path class="st40" d="M558.8,673.4c0-2,1.6-3.5,3.6-3.5c0.9,0,1.7,0.4,2.4,1c-0.8-1.8-2.9-2.6-4.7-1.7c-1.8,0.8-2.6,2.9-1.7,4.7
		c0.2,0.4,0.4,0.8,0.8,1.1C558.9,674.5,558.8,673.9,558.8,673.4z"/>
	<linearGradient id="SVGID_96_" gradientUnits="userSpaceOnUse" x1="546.3889" y1="676.4233" x2="546.3889" y2="668.4133">
		<stop  offset="0" style="stop-color:#808080;stop-opacity:0.25"/>
		<stop  offset="0.54" style="stop-color:#808080;stop-opacity:0.12"/>
		<stop  offset="1" style="stop-color:#808080;stop-opacity:0.1"/>
	</linearGradient>
	<circle class="st116" cx="546.4" cy="672.4" r="4"/>
	<circle class="st39" cx="546.4" cy="672.4" r="3.6"/>
	<path class="st40" d="M543.7,673.4c0-2,1.6-3.5,3.6-3.5c0.9,0,1.7,0.4,2.4,1c-0.8-1.8-2.9-2.6-4.7-1.7c-1.8,0.8-2.6,2.9-1.7,4.7
		c0.2,0.4,0.4,0.8,0.8,1.1C543.8,674.5,543.7,673.9,543.7,673.4z"/>
	<text transform="matrix(1 0 0 1 825.7489 610.1533)" class="st4 st5 st117">9</text>
	<g class="st7">
		
			<linearGradient id="SVGID_97_" gradientUnits="userSpaceOnUse" x1="997.3489" y1="947.8333" x2="997.3489" y2="411.3637" gradientTransform="matrix(1 0 0 1 -161.21 -54)">
			<stop  offset="0" style="stop-color:#808080;stop-opacity:0.25"/>
			<stop  offset="0.54" style="stop-color:#808080;stop-opacity:0.12"/>
			<stop  offset="1" style="stop-color:#808080;stop-opacity:0.1"/>
		</linearGradient>
		<path class="st118" d="M957.3,524.5c-21.7-18.7-45.3-34.9-63.4-46.5c0.9-2.8,1.5-5.7,2-8.6h0.2c2.9,0,5.3-4.5,5.3-10
			c0.1-2.9-0.7-5.7-2.3-8.1c0.2-2.1,0.3-4.2,0.3-6.4c0-5.4-0.7-10.7-2-15.9c0.6-1.9,1-3.9,1.1-5.9c0-1.6,0.2-3.2,0.6-4.8
			c0.6-1.5,1.4-2.8,2.4-4.1c4.5-7,5.3-15.7,2.3-23.4c-1.1-2.6-2.8-5.3-5.5-6.2c-0.7-0.1-1.4-0.4-2-0.8c-0.7-0.7-1-1.7-1-2.6
			c-0.2-3.3,0.8-6.6,0.9-9.9s-0.9-7-3.8-8.7c-1.8-0.8-3.7-1.2-5.6-1c-4.1,0.1-8.3,0.7-12.3,1.7c-6.3,1.6-13.3,4.4-18.9,1
			c-1.5-1.1-2.9-2.2-4.3-3.5c-7.3-5.7-19.1-4.2-24.7,3.2c-2.8,3.7-4.2,8.6-8.1,11.1c-7.2,4.5-17.9-2-24.5,3.4c-4.9,4-4,12-8,17
			s-9.3,7.2-9.8,14.5c-0.3,2.7,0.4,5.4,2,7.6c-4.1,8.6-6.2,17.9-6.2,27.4c0,2.2,0.1,4.3,0.3,6.4c-1.6,2.4-2.4,5.3-2.3,8.2
			c0,5.5,2.4,10,5.3,10h0.2c0.5,3.1,1.2,6.1,2.2,9c-18,11.6-41.3,27.7-62.7,46.1c6.6,39.8,59.7,65,59.7,65v79.6l-9,1.6
			c-11.9,2.2-19.8,13.7-17.6,25.7l32.7,175.3c0.7,3.6,4.2,6,7.8,5.3l5.9-1.1v3.2c-6.3,3-10.6,4.4-10.6,11.8v2.7h38.5v-2.7
			c0-6.9-3.7-7.9-9.3-11.1v-7.3l5.4-1c3.6-0.7,6-4.2,5.3-7.8l-30.6-164.2h84.9l-30.7,164.2c-0.7,3.6,1.7,7.1,5.3,7.8l5.4,1v7.3
			c-5.5,3.2-9.3,4.3-9.3,11.1v2.7h38.5v-2.7c0-7.4-4.3-8.8-10.6-11.8v-3.2l5.9,1.2c3.6,0.7,7.1-1.7,7.8-5.3l33.1-177.6
			c2-10.7-5.1-21.1-15.8-23.1l0,0l-11.1-2v-79.7c0-0.6,0-1.3,0-1.9l0.9,1.9C897.7,589.6,950.7,564.3,957.3,524.5z M764,532.5
			l34.9-24.2c6.6,5,14.1,8.6,22.1,10.5v11.5c-9.2,2.3-17.7,6.6-24.8,12.7L764,532.5z M850.3,530.3v-11.5c8.2-2,15.9-5.7,22.5-10.8
			l35.4,24.5L876,543l0.6,1.2C869.1,537.5,860.1,532.7,850.3,530.3z"/>
	</g>
	<rect x="796.5" y="852.1" class="st9" width="17.7" height="24"/>
	<rect x="857.2" y="852.1" class="st9" width="17.7" height="24"/>
	<rect x="777.5" y="654.6" class="st10" width="116.5" height="41.8"/>
	<g class="st11">
		<rect x="777.5" y="654.6" width="116.5" height="41.8"/>
	</g>
	<path class="st2" d="M777.5,662.2c0,0,43.5,10.1,58.2,10.1s58.2-10.1,58.2-10.1v-6.3H777.5V662.2z"/>
	<path class="st119" d="M894,661c0,0-43.5,10.1-58.3,10.1S777.5,661,777.5,661v-69.7c0-32.1,26.1-58.2,58.2-58.2l0,0
		c32.2,0,58.2,26,58.3,58.2l0,0V661z"/>
	<path class="st9" d="M821.8,504h27.8l0,0v34.6c0,6.1-4.9,11-11,11h-5.8c-6.1,0-11-4.9-11-11V504L821.8,504z"/>
	<path class="st10" d="M820.6,860.2l-30.9,5.8c-2.8,0.5-5.5-1.3-6-4.1l-32.2-172.3c-1.7-9.3,4.4-18.2,13.6-19.9l0,0l19.2-3.6
		c2.8-0.5,5.5,1.3,6,4.1l34.3,184C825.2,857,823.3,859.6,820.6,860.2z"/>
	<path class="st10" d="M850.9,860.2l30.9,5.8c2.8,0.5,5.5-1.3,6-4.1L920.3,688c1.6-8.3-3.9-16.4-12.3-17.9l-20.9-3.9
		c-2.8-0.5-5.5,1.3-6,4.1l-34.3,184C846.3,857,848.1,859.7,850.9,860.2z"/>
	<path class="st2" d="M821.8,525.1c9.1,2.3,18.7,2.3,27.8,0v-19.8h-27.8V525.1z"/>
	<circle class="st120" cx="835.7" cy="453.4" r="60.8"/>
	<circle class="st9" cx="835.7" cy="467.3" r="58.2"/>
	<ellipse class="st9" cx="893.3" cy="467.3" rx="5.1" ry="9.5"/>
	<ellipse class="st9" cx="778.1" cy="467.3" rx="5.1" ry="9.5"/>
	<path class="st13" d="M800.7,866h8c7.9,0,14.4,6.4,14.4,14.4l0,0v5.9l0,0h-36.8l0,0v-5.9C786.3,872.5,792.8,866,800.7,866
		L800.7,866z"/>
	<path class="st13" d="M862.8,866h8c7.9,0,14.4,6.4,14.4,14.4l0,0v5.9l0,0h-36.8l0,0v-5.9C848.4,872.5,854.8,866,862.8,866
		C862.7,866,862.7,866,862.8,866z"/>
	<path class="st2" d="M782.6,435.6c0,0-2.5,16.5,11.4,7.6s62-5.1,77.2,7.6s20.3,2.5,22.8,0s-27.4-44.8-44.3-48.1
		C804.1,393.9,782.6,435.6,782.6,435.6z"/>
	<path class="st120" d="M782.6,434.4c0,0-2.5,16.5,11.4,7.6s62-5.1,77.2,7.6s20.3,2.5,22.8,0s-27.4-44.8-44.3-48.1
		C804.1,392.6,782.6,434.4,782.6,434.4z"/>
	<path class="st120" d="M788.3,406.1c3.8-4.7,3-12.4,7.7-16.2c6.3-5.1,16.6,1.1,23.4-3.2c3.7-2.4,5.1-7,7.8-10.5
		c5.3-7,16.6-8.5,23.5-3.1c1.3,1.2,2.7,2.3,4.1,3.3c5.3,3.2,12,0.6,18-0.9c3.8-1,7.8-1.5,11.7-1.6c1.9-0.2,3.7,0.2,5.4,1
		c2.7,1.6,3.7,5.1,3.6,8.3c-0.1,3.2-1,6.3-0.9,9.4c-0.1,0.9,0.3,1.8,0.9,2.5c0.6,0.4,1.2,0.6,1.9,0.8c2.6,0.9,4.2,3.4,5.3,5.9
		c2.9,7.4,2.1,15.7-2.2,22.4c-0.9,1.2-1.7,2.5-2.3,3.9c-0.4,1.5-0.6,3-0.5,4.6c-0.3,5.4-2.6,11.2-7.5,13.5
		c-6.3,2.9-13.4-1.1-19.7-4.2c-14.1-7-30.1-9.5-45.8-11.1c-7-0.8-14.1-1.3-21.2-1.3c-5.3,0.1-12.4,2.3-17.4,0.2
		c-4-1.7-5.4-5.5-5.1-9.7C779.5,413,784.4,410.9,788.3,406.1z"/>
	<path class="st119" d="M798.1,546.9l-30.7-10l62-43l-19-26.6c0,0-48.5,26.5-89.9,62c6.3,38,57,62,57,62L798.1,546.9z"/>
	<path class="st119" d="M874.2,546.9l30.7-10l-62-43l19-26.6c0,0,48.5,26.5,89.9,62c-6.3,38-57,62-57,62L874.2,546.9z"/>
	<path class="st2" d="M811.7,468.6c0,0,31.6-22.8,39.2-8.9s-20.2,35.4-20.2,35.4L811.7,468.6z"/>
	<path class="st9" d="M810.4,467.3c0,0,31.6-22.8,39.2-8.9s-20.3,35.4-20.3,35.4L810.4,467.3z"/>
	<path class="st121" d="M810.4,467.3c0,0,31.6-22.8,39.2-8.9s-20.3,35.4-20.3,35.4L810.4,467.3z"/>
	<path class="st2" d="M859.8,468.6c0,0-31.6-22.8-39.2-8.9s20.3,35.4,20.3,35.4L859.8,468.6z"/>
	<path class="st9" d="M861,467.3c0,0-31.6-22.8-39.2-8.9s20.3,35.4,20.3,35.4L861,467.3z"/>
	<path class="st121" d="M861,467.3c0,0-31.6-22.8-39.2-8.9s20.3,35.4,20.3,35.4L861,467.3z"/>
	<g id="f6e51fcf-3a26-4c81-b90c-a65f1d2dd7ad">
		
			<linearGradient id="SVGID_98_" gradientUnits="userSpaceOnUse" x1="916.5489" y1="652.6333" x2="916.5489" y2="609.0333" gradientTransform="matrix(1 0 0 1 -161.21 -54)">
			<stop  offset="0" style="stop-color:#808080;stop-opacity:0.25"/>
			<stop  offset="0.54" style="stop-color:#808080;stop-opacity:0.12"/>
			<stop  offset="1" style="stop-color:#808080;stop-opacity:0.1"/>
		</linearGradient>
		<path class="st122" d="M770.9,561l-2.5-6l-26.6,10.9c-1.2,0.5-2,1.7-2,3v28.8l7.7,0.9v-27.4L770.9,561z"/>
	</g>
	<path class="st123" d="M769.6,560.9l-1.9-4.5l-24.9,10.2c-1.2,0.5-1.9,1.6-1.9,2.8v26.9h4.9v-25.6L769.6,560.9z"/>
	<g>
		<g>
			<defs>
				<path id="SVGID_99_" d="M769.6,560.9l-1.9-4.5l-24.9,10.2c-1.2,0.5-1.9,1.6-1.9,2.8v26.9h4.9v-25.6L769.6,560.9z"/>
			</defs>
			<clipPath id="SVGID_100_">
				<use xlink:href="#SVGID_99_"  style="overflow:visible;"/>
			</clipPath>
			<g class="st124">
				<rect x="761" y="551.4" class="st36" width="5.4" height="17"/>
				<rect x="752.5" y="555" class="st36" width="5.4" height="17"/>
				<polygon class="st36" points="749.6,569.5 745.8,570.6 744.3,552.5 749.6,552.5 				"/>
				<rect x="735.8" y="571.5" class="st36" width="17" height="5.4"/>
				<rect x="735.8" y="578.9" class="st36" width="17" height="5.4"/>
				<rect x="735.8" y="586.3" class="st36" width="17" height="5.4"/>
			</g>
		</g>
	</g>
	<linearGradient id="SVGID_101_" gradientUnits="userSpaceOnUse" x1="744.3889" y1="677.2333" x2="744.3889" y2="591.6333">
		<stop  offset="0" style="stop-color:#808080;stop-opacity:0.25"/>
		<stop  offset="0.54" style="stop-color:#808080;stop-opacity:0.12"/>
		<stop  offset="1" style="stop-color:#808080;stop-opacity:0.1"/>
	</linearGradient>
	<polygon class="st125" points="774.2,591.6 714.6,591.6 714.6,601.1 718.6,601.1 726.9,677.2 762.6,677.2 769.9,600.6 774.2,600.6 
			"/>
	<polygon class="st36" points="761,675.7 728.2,675.7 720.1,595.2 768.2,595.2 	"/>
	<rect x="716.8" y="593.9" class="st36" width="55" height="5.4"/>
	<linearGradient id="SVGID_102_" gradientUnits="userSpaceOnUse" x1="744.2889" y1="644.6334" x2="744.2889" y2="617.3734">
		<stop  offset="0" style="stop-color:#000000;stop-opacity:0.12"/>
		<stop  offset="0.55" style="stop-color:#000000;stop-opacity:9.000000e-02"/>
		<stop  offset="1" style="stop-color:#000000;stop-opacity:2.000000e-02"/>
	</linearGradient>
	<circle class="st126" cx="744.3" cy="631" r="13.6"/>
	<circle class="st101" cx="744.3" cy="631" r="12.5"/>
	<g class="st7">
		
			<linearGradient id="SVGID_103_" gradientUnits="userSpaceOnUse" x1="976.8866" y1="395.2964" x2="976.8866" y2="191.358" gradientTransform="matrix(1 0 0 1 -161.21 -54)">
			<stop  offset="0" style="stop-color:#808080;stop-opacity:0.25"/>
			<stop  offset="0.54" style="stop-color:#808080;stop-opacity:0.12"/>
			<stop  offset="1" style="stop-color:#808080;stop-opacity:0.1"/>
		</linearGradient>
		<path class="st127" d="M885.9,242.6c-3.8-2.1-8.3-2.2-12.2-0.3l0.5-1c3.5-6.5,1.1-14.6-5.4-18.2l0,0l0,0c-6.5-3.5-14.6-1-18.1,5.5
			l-4.6,8.4l0,0l9.4-17.4c3.2-5.9,1-13.3-4.9-16.4l0,0l-2.3-1.2c-5.9-3.2-13.3-1-16.4,4.9l0,0l22.1-40.8c5.1-9.4,1.6-21.2-7.8-26.3
			l0,0l-1.5-0.8c-6.5-3.6-14.6-1.2-18.2,5.3l0,0l-34.4,63.4l0,0l-53.6,98.8l52.2,28.3c25.7,14,57.9,4.5,71.9-21.2v-0.1l19.2-35.4
			l0,0l9.4-17.4C894.8,254.3,892.4,246.1,885.9,242.6L885.9,242.6z"/>
	</g>
	<path class="st36" d="M800.1,335.8L741.5,304l0,0l51.6-95l0,0l95.1,51.6l0,0l-31.8,58.6C845.4,339.3,820.2,346.8,800.1,335.8
		L800.1,335.8z"/>
	<path class="st36" d="M879.4,276.7l-22.7-12.3l0,0l10.2-18.9c2.8-5.1,9.1-7,14.2-4.2l4.2,2.3c5.1,2.8,7,9.1,4.2,14.2L879.4,276.7
		L879.4,276.7z"/>
	<path class="st36" d="M862.9,258l-22.7-12.3l0,0l10.2-18.9c2.8-5.1,9.1-7,14.2-4.2l4.2,2.3c5.1,2.8,7,9.1,4.2,14.2L862.9,258
		L862.9,258z"/>
	<path class="st36" d="M844.4,238.2l-22.7-12.3l0,0l10.7-19.7c2.5-4.6,8.3-6.3,12.9-3.8l0,0l6,3.2c4.6,2.5,6.3,8.3,3.8,12.9l0,0
		L844.4,238.2L844.4,238.2z"/>
	<path class="st36" d="M821.7,225.9l-29.2-15.8l0,0l34.9-64.2c2.8-5.1,9.1-7,14.2-4.2l6.6,3.6c7.4,4,10.1,13.2,6.1,20.6L821.7,225.9
		L821.7,225.9z"/>
	<path class="st128" d="M850.1,306.4l-2.4-1.3c-2.9-1.6-4-5.2-2.4-8.1l23.6-43.5c1.6-2.9,5.2-4,8.1-2.4l2.4,1.3
		c2.9,1.6,4,5.2,2.4,8.1L858.2,304C856.7,306.9,853.1,307.9,850.1,306.4z"/>
	<path class="st128" d="M834.3,286.6l-2.4-1.3c-2.9-1.6-4-5.2-2.4-8.1l23.6-43.5c1.6-2.9,5.2-4,8.1-2.4l2.4,1.3
		c2.9,1.6,4,5.2,2.4,8.1l-23.6,43.5C840.9,287.1,837.2,288.2,834.3,286.6z"/>
	<path class="st128" d="M816.9,264.5l-2.4-1.3c-2.9-1.6-4-5.2-2.4-8.1l23.6-43.5c1.6-2.9,5.2-4,8.1-2.4l2.4,1.3
		c2.9,1.6,4,5.2,2.4,8.1L825,262.1C823.5,265,819.8,266.1,816.9,264.5z"/>
	<path class="st128" d="M810.9,213.7l-2.4-1.3c-2.9-1.6-4-5.2-2.4-8.1l23.6-43.5c1.6-2.9,5.2-4,8.1-2.4l2.4,1.3
		c2.9,1.6,4,5.2,2.4,8.1l-23.5,43.5C817.5,214.2,813.8,215.3,810.9,213.7z"/>
	<path class="st128" d="M784.6,305.7c0,0,19.1-12-0.5-35.2l39.2-20.7c0,0,8.3-17.9-17.7-13.8c-26,4.1-24.5,9.1-24.5,9.1"/>
	<g>
		<path class="st129" d="M375.9,549.4c1.3,2.6,2.6,5.2,3.9,7.8c2.1,4.1,4.1,8.1,6.1,12.3c-6.4-3.6-12.9-7.2-19.3-10.8
			c0-0.3,0.3-0.4,0.4-0.5c2.7-2.7,5.5-5.5,8.2-8.2c0.2-0.2,0.4-0.3,0.5-0.6C375.8,549.4,375.9,549.4,375.9,549.4z"/>
		<path class="st129" d="M387.3,583.3c1.7-1.1,3.5-2.1,5.2-3.2c0.8-0.5,1.7-1,2.5-1.6c0.3-0.2,0.4-0.2,0.5,0.2c1,3.9,2,7.8,3,11.7
			c0.1,0.3,0.2,0.6-0.4,0.5c-7.2-0.3-14.4-0.6-21.6-0.9c0,0,0,0-0.1,0c0.1-0.3,0.3-0.3,0.5-0.4c3.1-1.9,6.1-3.8,9.2-5.7
			c0.5-0.3,0.8-0.6,0.7-1.3c-0.2-3.3-0.3-6.6-0.4-9.8c-0.1-3.7-0.3-7.4-0.4-11.1c0-0.9,0-0.9,0.8-0.7c3.7,1,7.3,1.9,11,2.8
			c0.6,0.2,0.6,0.3,0.3,0.8c-3.6,5.9-7.2,11.9-10.8,17.8c-0.2,0.3-0.3,0.5-0.5,0.8C387.2,583.2,387.3,583.3,387.3,583.3z"/>
		<path class="st129" d="M352,562.3c7.4,0.4,14.8,0.8,22.2,1.2c-0.1,0.3-0.4,0.4-0.6,0.5c-5.9,3.6-11.9,7.1-17.8,10.7
			c-0.5,0.3-0.7,0.4-0.8-0.3c-0.9-3.8-1.9-7.7-2.8-11.5C352,562.7,352,562.5,352,562.3z"/>
		<path class="st129" d="M374.3,604.3c-3.6-6.7-7.1-13.3-10.7-20.1c0.4,0.2,0.5,0.3,0.7,0.4c6.1,3.3,12.2,6.6,18.4,9.9
			c0.5,0.3,0.6,0.4,0.2,0.9c-2.7,2.7-5.4,5.5-8.1,8.3C374.6,603.9,374.5,604.1,374.3,604.3z"/>
		<path class="st129" d="M350.8,589.7c4.1-6.2,8.2-12.4,12.3-18.7c0.2,0.2,0.1,0.4,0.1,0.6c0,7.1,0,14.2,0,21.2c0,0.5,0,0.7-0.6,0.5
			c-3.8-1.2-7.7-2.3-11.5-3.5C350.9,589.8,350.9,589.8,350.8,589.7z"/>
	</g>
	<g>
		<path class="st129" d="M638.9,493.1c1.3,2.6,2.6,5.2,3.9,7.8c2.1,4.1,4.1,8.1,6.1,12.3c-6.4-3.6-12.9-7.2-19.3-10.8
			c0-0.3,0.3-0.4,0.4-0.5c2.7-2.7,5.5-5.5,8.2-8.2c0.2-0.2,0.4-0.3,0.5-0.6C638.8,493.1,638.9,493.1,638.9,493.1z"/>
		<path class="st129" d="M650.3,527c1.7-1.1,3.5-2.1,5.2-3.2c0.8-0.5,1.7-1,2.5-1.6c0.3-0.2,0.4-0.2,0.5,0.2c1,3.9,2,7.8,3,11.7
			c0.1,0.3,0.2,0.6-0.4,0.5c-7.2-0.3-14.4-0.6-21.6-0.9c0,0,0,0-0.1,0c0.1-0.3,0.3-0.3,0.5-0.4c3.1-1.9,6.1-3.8,9.2-5.7
			c0.5-0.3,0.8-0.6,0.7-1.3c-0.2-3.3-0.3-6.6-0.4-9.8c-0.1-3.7-0.3-7.4-0.4-11.1c0-0.9,0-0.9,0.8-0.7c3.7,1,7.3,1.9,11,2.8
			c0.6,0.2,0.6,0.3,0.3,0.8c-3.6,5.9-7.2,11.9-10.8,17.8c-0.2,0.3-0.3,0.5-0.5,0.8C650.2,526.9,650.3,527,650.3,527z"/>
		<path class="st129" d="M615,506c7.4,0.4,14.8,0.8,22.2,1.2c-0.1,0.3-0.4,0.4-0.6,0.5c-5.9,3.6-11.9,7.1-17.8,10.7
			c-0.5,0.3-0.7,0.4-0.8-0.3c-0.9-3.8-1.9-7.7-2.8-11.5C615,506.4,615,506.2,615,506z"/>
		<path class="st129" d="M637.3,548c-3.6-6.7-7.1-13.3-10.7-20.1c0.4,0.2,0.5,0.3,0.7,0.4c6.1,3.3,12.2,6.6,18.4,9.9
			c0.5,0.3,0.6,0.4,0.2,0.9c-2.7,2.7-5.4,5.5-8.1,8.3C637.6,547.6,637.5,547.8,637.3,548z"/>
		<path class="st129" d="M613.8,533.4c4.1-6.2,8.2-12.4,12.3-18.7c0.2,0.2,0.1,0.4,0.1,0.6c0,7.1,0,14.2,0,21.2c0,0.5,0,0.7-0.6,0.5
			c-3.8-1.2-7.7-2.3-11.5-3.5C614,533.5,613.9,533.5,613.8,533.4z"/>
	</g>
	<g>
		<path class="st129" d="M837.1,564.8c1.3,2.6,2.6,5.2,3.9,7.8c2.1,4.1,4.1,8.1,6.1,12.3c-6.4-3.6-12.9-7.2-19.3-10.8
			c0-0.3,0.3-0.4,0.4-0.5c2.7-2.7,5.5-5.5,8.2-8.2c0.2-0.2,0.4-0.3,0.5-0.6C837,564.8,837.1,564.8,837.1,564.8z"/>
		<path class="st129" d="M848.6,598.7c1.7-1.1,3.5-2.1,5.2-3.2c0.8-0.5,1.7-1,2.5-1.6c0.3-0.2,0.4-0.2,0.5,0.2c1,3.9,2,7.8,3,11.7
			c0.1,0.3,0.2,0.6-0.4,0.5c-7.2-0.3-14.4-0.6-21.6-0.9c0,0,0,0-0.1,0c0.1-0.3,0.3-0.3,0.5-0.4c3.1-1.9,6.1-3.8,9.2-5.7
			c0.5-0.3,0.8-0.6,0.7-1.3c-0.2-3.3-0.3-6.6-0.4-9.8c-0.1-3.7-0.3-7.4-0.4-11.1c0-0.9,0-0.9,0.8-0.7c3.7,1,7.3,1.9,11,2.8
			c0.6,0.2,0.6,0.3,0.3,0.8c-3.6,5.9-7.2,11.9-10.8,17.8c-0.2,0.3-0.3,0.5-0.5,0.8C848.5,598.6,848.5,598.7,848.6,598.7z"/>
		<path class="st129" d="M813.2,577.7c7.4,0.4,14.8,0.8,22.2,1.2c-0.1,0.3-0.4,0.4-0.6,0.5c-5.9,3.6-11.9,7.1-17.8,10.7
			c-0.5,0.3-0.7,0.4-0.8-0.3c-0.9-3.8-1.9-7.7-2.8-11.5C813.3,578.1,813.2,577.9,813.2,577.7z"/>
		<path class="st129" d="M835.5,619.7c-3.6-6.7-7.1-13.3-10.7-20.1c0.4,0.2,0.5,0.3,0.7,0.4c6.1,3.3,12.2,6.6,18.4,9.9
			c0.5,0.3,0.6,0.4,0.2,0.9c-2.7,2.7-5.4,5.5-8.1,8.3C835.8,619.3,835.7,619.5,835.5,619.7z"/>
		<path class="st129" d="M812,605.1c4.1-6.2,8.2-12.4,12.3-18.7c0.2,0.2,0.1,0.4,0.1,0.6c0,7.1,0,14.2,0,21.2c0,0.5,0,0.7-0.6,0.5
			c-3.8-1.2-7.7-2.3-11.5-3.5C812.2,605.2,812.1,605.2,812,605.1z"/>
	</g>
	<g>
		<ellipse class="st0" cx="1027.7" cy="851.2" rx="101.1" ry="20.9"/>
		
			<linearGradient id="SVGID_104_" gradientUnits="userSpaceOnUse" x1="1059.9489" y1="886.8207" x2="1059.9489" y2="716.5634" gradientTransform="matrix(1 0 0 1 -31.16 -20.14)">
			<stop  offset="0" style="stop-color:#808080;stop-opacity:0.25"/>
			<stop  offset="0.54" style="stop-color:#808080;stop-opacity:0.12"/>
			<stop  offset="1" style="stop-color:#808080;stop-opacity:0.1"/>
		</linearGradient>
		<path class="st130" d="M1094.8,731.1c0.3-2.5,0.7-4.9,1.1-7.4c2-10.7-1-20.9-2.5-25.1l0,0c-0.5-1.3-0.8-2-0.8-2
			c-7.9-2.2-38.9,21.9-50.2,31c-3.9,0-8.2,0.2-12.8,0.5c-2,0.1-4.1,0.2-6.1,0.2c-1.8,0-4.4,0-7.4,0c-10.5-8.5-43-33.9-51.1-31.7
			c0,0-0.3,0.7-0.8,2l0,0c-1.5,4.2-4.5,14.4-2.5,25.1c0.4,2.5,0.9,4.9,1.1,7.4c0.6,5.4,2.9,15.9,11.1,22.9
			c1.8,12.9,8.4,29.8,13.5,40c0.4,1.9,1,3.8,1.7,5.7c-2.1,8.1-4.5,18.7-3.8,22.3c0,0-11-2.7-12.1,10.6c0,0.1,0,0.3,0,0.4
			c-4,1.8-8.9,6-3.4,14.7c0.7,1.1,1.7,1.9,2.9,2.3c1,0.3,2,0.3,1.9-1l6.9,7.7c0,0,12.4,1.4,12.6-5.8l0.7,0.1
			c1.7,0.2,3.4,0.5,5.2,0.6l0.9,2.9c0,0-9.3-0.2-6.8,5.6c0,0,2.3,2.2,3.2,1.4c0,0-1.2,3.8,3.6,3.8c0,0,5.2,2.8,7.3,0.8
			c2-2,6.3-4.9,6.7-6.2c0.1-0.3,0.2-3.3,0.2-7.3h0.8c10.4,0.2,21.5-0.1,31.6-0.6h0.8c0,4.4,0.1,7.6,0.2,8c0.4,1.2,4.6,4.2,6.7,6.2
			c2.1,2,7.3-0.8,7.3-0.8c4.8,0,3.6-3.8,3.6-3.8c0.8,0.8,3.2-1.4,3.2-1.4c2.5-5.7-6.8-5.6-6.8-5.6l1.1-3.7l5.2-0.4l0.8-0.1
			c-0.5,7.9,12.6,6.3,12.6,6.3l6.9-7.7c-0.1,1.4,0.9,1.4,1.8,1c1.2-0.5,2.1-1.3,2.8-2.4c8.4-13.2-7.1-16-7.1-16
			c-0.5-0.1-1-0.2-1.5-0.2c0-0.2,0-0.5,0.1-0.7l0,0c0.2-1.7,0.2-3.5,0.1-5.2c-0.6-2.4-4.4-6.2-9.3-6.7c-3.2-0.4-3.2-14.9-2.9-25
			c0.4-1.9,0.5-3.8,0.5-5.7c0.1-3.1-0.4-6.2-1.2-9.2c6.2-10.5,11.1-21.5,11.7-24.7C1092,746.9,1094.2,736.5,1094.8,731.1z"/>
		<path class="st36" d="M1082.9,831.3L1082.9,831.3c-0.5,6.8-1.8,17.8-1.8,17.8s-5.5,0.7-14,1.4l-5.8,0.5c-4.4,0.4-9.4,0.7-14.7,1
			c-9.7,0.5-20.4,0.9-30.4,0.6c-5-0.1-9.9-0.4-14.4-0.8c-2-0.2-4-0.4-5.8-0.7c-11.5-1.7-19.8-5-20.5-10.8c-0.4-2.5-0.4-4.9-0.3-7.4
			c1.1-13,11.6-10.4,11.6-10.4c-0.7-3.6,1.9-14.7,4-22.8c1.3-5.1,2.5-8.9,2.5-8.9l74.3-4.9h0.2c2,0,3.6,1.6,3.6,3.6
			c0,0.1,0,0.1,0,0.2c-0.4,8.9-1.1,29.3,2.6,29.8c4.7,0.6,8.4,4.3,8.9,6.6C1083.1,827.9,1083.1,829.6,1082.9,831.3z"/>
		<path class="st36" d="M1019.7,733.4c0,0-28,33.7-41.5,24.4c-0.3-0.2-0.6-0.4-0.9-0.7c-9.1-6.9-11.5-18-12.1-23.6
			c-0.3-2.5-0.7-4.9-1.1-7.3c-1.9-10.5,1-20.5,2.5-24.6l0,0c0.4-1.2,0.8-2,0.8-2C976.6,697.1,1019.7,733.4,1019.7,733.4z"/>
		<path class="st36" d="M1004.7,736.6c0,0-8.8,6.2-21.3,16.3c-1.9,1.6-4,3-6.2,4.3c-9.1-6.9-11.5-18-12.1-23.6
			c-0.3-2.5-0.7-4.9-1.1-7.3c-1.9-10.5,1-20.5,2.5-24.6l0,0C983.9,702.9,1004.7,736.6,1004.7,736.6z"/>
		<path class="st131" d="M1004.7,736.6c0,0-8.8,6.2-21.3,16.3c-1.9,1.6-4,3-6.2,4.3c-9.1-6.9-11.5-18-12.1-23.6
			c-0.3-2.5-0.7-4.9-1.1-7.3c-1.9-10.5,1-20.5,2.5-24.6l0,0C983.9,702.9,1004.7,736.6,1004.7,736.6z"/>
		<path class="st2" d="M995.1,733.2c0,0-4.7,3.3-11.4,8.7c-1,0.8-2.1,1.6-3.3,2.3c-4.8-3.7-6.2-9.6-6.5-12.6
			c-0.1-1.3-0.3-2.6-0.6-3.9c-0.6-4.4-0.2-8.9,1.4-13.1l0,0C984,715.3,995.1,733.2,995.1,733.2z"/>
		<path class="st36" d="M1037.9,733.4c0,0,28,33.7,41.5,24.4c0.3-0.2,0.6-0.4,0.9-0.7c9.1-6.9,11.5-18,12.1-23.6
			c0.3-2.5,0.7-4.9,1.1-7.3c1.9-10.5-1-20.5-2.5-24.6l0,0c-0.4-1.2-0.8-2-0.8-2C1081,697.1,1037.9,733.4,1037.9,733.4z"/>
		<path class="st36" d="M1052.9,736.6c0,0,8.8,6.2,21.3,16.3c1.9,1.6,4,3,6.1,4.3c9.1-6.9,11.5-18,12.1-23.6
			c0.3-2.5,0.7-4.9,1.1-7.3c1.9-10.5-1-20.5-2.5-24.6l0,0C1073.7,702.9,1052.9,736.6,1052.9,736.6z"/>
		<path class="st131" d="M1052.9,736.6c0,0,8.8,6.2,21.3,16.3c1.9,1.6,4,3,6.1,4.3c9.1-6.9,11.5-18,12.1-23.6
			c0.3-2.5,0.7-4.9,1.1-7.3c1.9-10.5-1-20.5-2.5-24.6l0,0C1073.7,702.9,1052.9,736.6,1052.9,736.6z"/>
		<path class="st2" d="M1062.6,733.2c0,0,4.7,3.3,11.3,8.7c1,0.8,2.1,1.6,3.3,2.3c4.8-3.6,6.1-9.5,6.4-12.5c0.1-1.2,0.3-2.6,0.6-3.9
			c0.6-4.4,0.2-8.9-1.3-13.1l0,0C1073.6,715.4,1062.6,733.2,1062.6,733.2z"/>
		<path class="st2" d="M1067.6,786c-3.5,5.6-7.3,10.6-10.7,13.7c-11.1,9.9-59.2,6-62.3,5.5c-0.7-0.1-2-2.1-3.7-5.2
			c1.3-5.1,2.5-8.9,2.5-8.9L1067.6,786z"/>
		<path class="st36" d="M1029.6,730.6c-2,0.1-3.9,0.2-5.9,0.1c-10-0.2-43.8,0.3-47.6,13.9c-4.4,16.1,15.3,59.1,18.4,59.6
			s51.1,4.4,62.3-5.5c11.2-9.9,25.7-40.8,24.9-43.6C1081.8,755.2,1095.6,726,1029.6,730.6z"/>
		<path class="st2" d="M1028.5,756.7c0,0-24.7-3.8-36.3,20.5c-4.7,9.6-3.9,21.1,2.2,29.9c3.9,5.4,9.5,9.5,17.4,6.2
			C1029.3,806.1,1028.5,756.7,1028.5,756.7z"/>
		<path class="st2" d="M1027.7,755.1c0,0-24.7-3.8-36.3,20.5c-4.7,9.6-3.9,21.1,2.2,29.9c3.9,5.4,9.5,9.5,17.4,6.2
			C1028.5,804.5,1027.7,755.1,1027.7,755.1z"/>
		<path class="st36" d="M1027.7,755.9c0,0-24.7-3.8-36.3,20.5c-4.7,9.6-3.9,21.1,2.2,29.9c3.9,5.4,9.5,9.5,17.4,6.2
			C1028.5,805.3,1027.7,755.9,1027.7,755.9z"/>
		<path class="st131" d="M1027.7,755.9c0,0-24.7-3.8-36.3,20.5c-4.7,9.6-3.9,21.1,2.2,29.9c3.9,5.4,9.5,9.5,17.4,6.2
			C1028.5,805.3,1027.7,755.9,1027.7,755.9z"/>
		<path class="st132" d="M1001,777.2c0,0-3.4,3.1-2.1,3.9S1001,777.2,1001,777.2z"/>
		<path class="st132" d="M1004.7,781.2c0,0-1.8,4.1-0.5,4.5s2.1-2.9,2.1-2.9L1004.7,781.2z"/>
		<path class="st132" d="M996.5,787.3c0,0-1.8,4.8,0,4.8S996.5,787.3,996.5,787.3z"/>
		<path class="st133" d="M994.3,800.2c0,0,3.6,9.2,13,8.6"/>
		<path class="st133" d="M1002.7,802.9c0,0,3.7,3.6,7.8,1"/>
		<path class="st2" d="M1031.7,756.7c0,0,24.7-3.8,36.3,20.5c4.7,9.6,3.9,21.1-2.2,29.9c-3.8,5.4-9.5,9.5-17.4,6.2
			C1030.8,806.1,1031.7,756.7,1031.7,756.7z"/>
		<path class="st2" d="M1032.4,755.1c0,0,24.7-3.8,36.3,20.5c4.7,9.6,3.9,21.1-2.2,29.9c-3.8,5.4-9.5,9.5-17.4,6.2
			C1031.7,804.5,1032.4,755.1,1032.4,755.1z"/>
		<path class="st36" d="M1032.4,755.9c0,0,24.7-3.8,36.3,20.5c4.7,9.6,3.9,21.1-2.2,29.9c-3.8,5.4-9.5,9.5-17.4,6.2
			C1031.7,805.3,1032.4,755.9,1032.4,755.9z"/>
		<path class="st131" d="M1032.4,755.9c0,0,24.7-3.8,36.3,20.5c4.7,9.6,3.9,21.1-2.2,29.9c-3.8,5.4-9.5,9.5-17.4,6.2
			C1031.7,805.3,1032.4,755.9,1032.4,755.9z"/>
		<path class="st132" d="M1059.1,777.2c0,0,3.4,3.1,2.1,3.9S1059.1,777.2,1059.1,777.2z"/>
		<path class="st132" d="M1055.4,781.2c0,0,1.8,4.1,0.5,4.5c-1.3,0.4-2.1-2.9-2.1-2.9L1055.4,781.2z"/>
		<path class="st132" d="M1063.6,787.3c0,0,1.8,4.8,0,4.8C1061.8,792.1,1063.6,787.3,1063.6,787.3z"/>
		<path class="st133" d="M1065.8,800.2c0,0-3.6,9.2-13,8.6"/>
		<path class="st133" d="M1057.4,802.9c0,0-3.7,3.6-7.8,1"/>
		<path class="st132" d="M1018.3,826.4c0.7-0.1,13-5.5,25.7,0H1018.3z"/>
		<path class="st2" d="M996,851.2c-11.5-1.7-19.8-5-20.5-10.8c-0.4-2.5-0.4-4.9-0.3-7.4c1.4-0.7,2.9-1.3,4.4-1.6
			c2.1-0.6,4.7-0.2,10.1,1.4c5.5,1.6,5.1,8,6.2,16.3C996,849.8,996.1,850.5,996,851.2z"/>
		<path class="st36" d="M978.8,832.2c0,0-15,2.7-6.9,15.7c0.6,1,1.6,1.9,2.8,2.3c1,0.3,1.9,0.3,1.8-1l6.6,7.6c0,0,13.2,1.6,12.1-6.8
			c-1.2-8.4-0.8-14.8-6.2-16.3C983.6,832.1,981,831.6,978.8,832.2z"/>
		<path class="st133" d="M982.4,840.9c0,0,3.2,7.3,7.6,1.2"/>
		<path class="st133" d="M975.1,843.8c0,0,1.6,6.9,7.9,1.8"/>
		<path class="st2" d="M1082.9,831.3L1082.9,831.3c-0.5,6.8-1.8,17.8-1.8,17.8s-5.5,0.7-14,1.4c0-0.5,0-1,0-1.4
			c1.2-8.4,0.8-14.8,6.2-16.3C1078.3,831.4,1080.9,830.9,1082.9,831.3z"/>
		<path class="st36" d="M1084.2,832.2c0,0,15,2.7,6.9,15.7c-0.6,1-1.6,1.9-2.8,2.3c-1,0.3-1.9,0.3-1.8-1l-6.6,7.6
			c0,0-13.2,1.6-12.1-6.8c1.2-8.4,0.8-14.8,6.2-16.3C1079.5,832.1,1082.1,831.6,1084.2,832.2z"/>
		<path class="st133" d="M1080.7,840.9c0,0-3.2,7.3-7.6,1.2"/>
		<path class="st133" d="M1088,843.8c0,0-1.7,6.9-7.9,1.8"/>
		<path class="st2" d="M1016.2,852.7c-5-0.1-9.9-0.4-14.4-0.8l-4.5-15.1c-0.3-0.9-0.4-1.8-0.4-2.8c0.2-5.3,4.6-9.5,9.9-9.3
			c5,0.2,9.1,4.2,9.3,9.2C1016.2,839.8,1016.2,847.3,1016.2,852.7z"/>
		<path class="st36" d="M996.5,836.8l5.3,17.8c0,0-9-0.2-6.5,5.5c0,0,2.3,2.1,3,1.4c0,0-1.2,3.7,3.5,3.7c0,0,5,2.7,7,0.8
			s6-4.9,6.4-6c0.2-0.8,0.2-15.7,0.1-26c0-5.3-4.3-9.5-9.6-9.5l0,0c-5.3,0-9.6,4.3-9.6,9.6C996.1,834.9,996.3,835.9,996.5,836.8z"/>
		<path class="st133" d="M1003.7,859.2c0,0-3.9,3.7-1.9,5.9"/>
		<path class="st133" d="M1002,856.8c0,0-3.6,1.2-3.6,4.6"/>
		<path class="st2" d="M1065.9,834c0,0.9-0.1,1.9-0.4,2.8l-4.2,14.3c-4.4,0.4-9.4,0.7-14.7,1c0-5.3,0-12.5,0.1-18.1
			c0-5.3,4.3-9.6,9.6-9.6C1061.7,824.4,1066,828.7,1065.9,834L1065.9,834L1065.9,834z"/>
		<path class="st36" d="M1066.3,836.8l-5.3,17.8c0,0,9-0.2,6.6,5.5c0,0-2.3,2.1-3,1.4c0,0,1.2,3.7-3.5,3.7c0,0-5,2.7-7,0.8
			c-2-2-6-4.9-6.4-6c-0.2-0.8-0.2-15.7-0.1-26c0-5.3,4.3-9.5,9.6-9.5l0,0c5.3,0,9.6,4.3,9.6,9.6
			C1066.7,834.9,1066.5,835.9,1066.3,836.8z"/>
		<path class="st133" d="M1059.1,859.2c0,0,3.9,3.7,1.9,5.9"/>
		<path class="st133" d="M1060.9,856.8c0,0,3.6,1.2,3.6,4.6"/>
		<path class="st2" d="M1027.7,752c0,0-18.3-0.6-18.9,13.6s28.6,8.2,28.6,8.2s12.3-1.6,10.1-10.3
			C1045.4,754.9,1041,752.8,1027.7,752z"/>
		<path class="st2" d="M1027.7,750.4c0,0-18.3-0.6-18.9,13.6c-0.6,14.2,28.6,8.2,28.6,8.2s12.3-1.6,10.1-10.3
			C1045.4,753.3,1041,751.2,1027.7,750.4z"/>
		<path class="st132" d="M1027.7,751.2c0,0-18.3-0.6-18.9,13.6c-0.6,14.2,28.6,8.2,28.6,8.2s12.3-1.6,10.1-10.3
			C1045.3,754,1041,752,1027.7,751.2z"/>
		<path class="st2" d="M986.9,822.7c0,0,6.2,2.2,7.4,6.4"/>
		<path class="st2" d="M1074,819.6c0,0-4.4,1.8-4.1,9.5"/>
		
			<ellipse transform="matrix(0.867 -0.4983 0.4983 0.867 -294.3492 606.7444)" class="st36" cx="989.5" cy="854.8" rx="2.9" ry="4.8"/>
		<ellipse transform="matrix(0.5 -0.866 0.866 0.5 -198.4208 1357.5608)" class="st36" cx="1076.5" cy="850.6" rx="4.7" ry="2.9"/>
		
			<ellipse transform="matrix(0.867 -0.4983 0.4983 0.867 -294.3492 606.7444)" class="st131" cx="989.5" cy="854.8" rx="2.9" ry="4.8"/>
		<ellipse transform="matrix(0.5 -0.866 0.866 0.5 -198.4208 1357.5608)" class="st131" cx="1076.5" cy="850.6" rx="4.7" ry="2.9"/>
	</g>
</g>
</svg>
