<?xml version="1.0" encoding="utf-8"?>
<!-- Generator: Adobe Illustrator 19.0.0, SVG Export Plug-In . SVG Version: 6.00 Build 0)  -->
<svg version="1.1" id="Layer_1" xmlns="http://www.w3.org/2000/svg" xmlns:xlink="http://www.w3.org/1999/xlink" x="0px" y="0px"
	 viewBox="364 242.9 1323.7 357" style="enable-background:new 364 242.9 1323.7 357;" xml:space="preserve">
<g>
	<path style="fill:#FDFFFE;" d="M528.1,242.9c8.5,16.9,17,33.8,25.6,50.6c13.4,26.4,26.9,52.7,39.9,79.7
		c-41.8-23.3-83.6-46.7-125.4-70.1c0.3-1.9,1.7-2.6,2.7-3.5c17.7-17.7,35.4-35.4,53.1-53c1.1-1.1,2.6-2,3.1-3.7
		C527.4,242.9,527.8,242.9,528.1,242.9z"/>
	<path style="fill:#FFFFFF;" d="M953,396.6c-6.6,9.9-13.2,19.8-19.7,29.7c-8.2,12.3-16.4,24.7-24.4,37.1c-2.1,3.3-3.2,3.2-5.3-0.1
		c-13.6-20.9-27.4-41.7-41.1-62.5c-0.8-1.2-1.2-2.7-3.3-3.5c0,1.9,0,3.7,0,5.4c0,32.2-0.1,64.3,0.1,96.5c0,3.5-0.5,4.9-4.5,4.7
		c-9.5-0.4-19-0.2-28.5-0.1c-2.6,0-3.3-0.7-3.3-3.3c0.1-53.5,0.1-107,0-160.4c0-2.9,0.8-3.6,3.6-3.5c10.8,0.2,21.7,0.2,32.5,0
		c2.9,0,4.4,0.9,5.9,3.3c13.7,22.2,27.5,44.3,41.4,66.6c1.9-0.8,2.4-2.6,3.3-4.1c12.9-20.6,25.7-41.2,38.4-61.8
		c1.7-2.8,3.5-4.2,7-4.1c10.3,0.3,20.7,0.2,31,0c3.3-0.1,4.6,0.6,4.6,4.3c-0.1,53-0.1,106,0,158.9c0,3.3-0.9,4.2-4.2,4.1
		c-9.5-0.2-19-0.3-28.5,0c-3.7,0.1-4.2-1.3-4.2-4.5c0.1-34.2,0.1-68.3,0.1-102.5C953.6,396.9,953.3,396.7,953,396.6z"/>
	<path style="fill:#FFFFFF;" d="M1277.9,390.3c0-18.6,0.1-37.3-0.1-55.9c0-3.5,0.5-4.9,4.5-4.8c9.3,0.4,18.7,0.2,28,0.1
		c2.8,0,4,0.3,4,3.7c-0.1,55.7-0.1,111.3,0,167c0,2.8-0.6,3.7-3.5,3.6c-9.8-0.2-19.7-0.2-29.5,0c-3.2,0.1-3.9-1-3.8-4
		c0.2-4.2,0.1-8.5,0.1-13.9c-2.7,2.9-4.6,4.9-6.5,6.9c-19.8,20.3-54,14.7-70.8-1.2c-17.2-16.3-22.1-36.9-20.5-59.7
		c1.2-17.8,7.7-33.2,20.9-45.5c16.5-15.5,51.5-22,73.7,1.5c0.9,0.9,1.5,2.1,2.2,3.2C1277,390.9,1277.5,390.6,1277.9,390.3z
		 M1278.1,438.7c0.3-2.8-0.2-6.3-1.1-9.7c-3.6-12.5-10.7-21.8-24.2-24.4c-12.3-2.4-22.3,2-29.7,11.9c-9.6,12.6-9.5,33.1,0,45.8
		c11.7,15.7,34.3,16.8,46.6,2C1275.7,457.1,1278.3,448.7,1278.1,438.7z"/>
	<path style="fill:#FDFFFE;" d="M602.3,463.3c11.3-6.9,22.6-13.9,33.9-20.8c5.5-3.4,11.1-6.7,16.5-10.3c2.2-1.4,2.9-1.1,3.5,1.5
		c6.4,25.3,13,50.6,19.6,75.8c0.6,2.2,1,3.7-2.4,3.5c-46.7-2.1-93.5-4.1-140.2-6.1c-0.2,0-0.3-0.1-0.5-0.2c0.5-1.7,2.1-2,3.3-2.7
		c20-12.3,39.9-24.7,60-36.8c3.4-2.1,5.1-3.7,4.8-8.5c-1.4-21.3-1.8-42.6-2.6-63.9c-0.9-24.1-1.8-48.3-2.8-72.4
		c-0.2-6.1-0.2-6.1,5.5-4.6c23.8,6.2,47.6,12.5,71.5,18.5c3.9,1,4.2,1.9,2.1,5.4c-23.4,38.5-46.7,77.1-70,115.7c-1,1.7-2,3.4-3,5.1
		C601.7,462.8,602,463,602.3,463.3z"/>
	<path style="fill:#FFFFFF;" d="M1090.7,506.9c-33.9,0-60.3-20.1-68-51.1c-9.4-37.8,16.7-76.4,55.3-82c31.8-4.6,59.2,7.9,73.6,33.5
		c22.4,39.9-2.6,91.4-47.9,98.6C1099.2,506.6,1094.5,507.2,1090.7,506.9z M1057.1,439.5c0,19.9,14.5,35.2,33.6,35.2
		c19.4,0,33.4-14.5,33.3-34.7c-0.1-19.7-14.9-35-34-35C1070.9,405.1,1057.1,419.5,1057.1,439.5z"/>
	<path style="fill:#FFFFFF;" d="M1643.2,430.8c1.2-14-6.8-24-24.6-24.7c-11.8-0.4-23.2,1.4-34.2,5.7c-3.2,1.3-4.2,0.4-5.1-2.6
		c-2.1-7.2-4.5-14.3-6.8-21.4c-0.7-2-1.2-3.6,1.6-4.7c22.4-9.3,45.6-12.5,69.3-6.7c20.8,5,33,20.6,34.7,42.9
		c1.4,18.3,0.3,36.6,0.5,54.9c0.1,8.7-0.1,17.3,0.1,26c0,2.7-0.5,3.7-3.5,3.7c-9.5-0.2-19-0.2-28.5,0c-3,0.1-3.7-1.1-3.5-3.7
		c0.2-2.9,0-5.9,0-8.9c-1.9-0.1-2.4,1.4-3.3,2.2c-15.3,13.7-41.8,16.8-59.9,7.1c-14.4-7.8-21-21.6-19.1-40.1
		c1.5-15.1,11.8-26.9,28-31.5c16.4-4.7,32.9-4.3,49.3,0.3C1639.8,429.7,1641.4,430.2,1643.2,430.8z M1616.2,480.7c0.8,0,1.7,0,2.5,0
		c14.3-0.6,24.3-8.9,25.2-20.7c0.6-7.6,0.6-7.9-6.9-9.8c-11.1-2.8-22.3-4-33.1,1.5c-6.2,3.2-8.4,8.7-7.8,15.4
		c0.5,6.2,4.2,9.9,9.8,12C1609.2,480.4,1612.7,480.9,1616.2,480.7z"/>
	<path style="fill:#FFFFFF;" d="M1427.3,485.9c-7.9,9.6-16,16.5-27.1,19c-30,6.6-53.4-11.9-53.8-43.1c-0.4-27.5,0-55-0.1-82.5
		c0-2.7,0.6-3.8,3.6-3.7c9.8,0.2,19.7,0.2,29.5,0c3.3-0.1,3.8,1.1,3.8,4c-0.1,22-0.1,44-0.1,66c0,1.8,0,3.7,0.1,5.5
		c0.9,13.7,8.8,21.6,21.7,21.6c13,0,21.7-8.2,22.2-21.8c0.5-14,0.2-28,0.2-42c0-9.7,0.1-19.3-0.1-29c-0.1-3.1,0.6-4.4,4-4.3
		c9.7,0.3,19.3,0.2,29,0c3.2-0.1,3.8,1.1,3.8,4c-0.1,40.2-0.1,80.3,0,120.5c0,3.1-0.9,3.9-3.9,3.9c-9.7-0.2-19.3-0.2-29,0
		c-3,0.1-4.2-0.6-3.9-3.8C1427.5,495.9,1427.3,491.6,1427.3,485.9z"/>
	<path style="fill:#FFFFFF;" d="M1533.3,416.9c0,27.5-0.1,55,0.1,82.5c0,3.7-0.7,4.8-4.6,4.7c-9.3-0.3-18.7-0.2-28,0
		c-2.9,0.1-4-0.4-4-3.7c0.1-55.6,0.1-111.3,0-166.9c0-2.7,0.6-3.7,3.5-3.6c9.7,0.2,19.3,0.3,29,0c3.6-0.1,3.9,1.3,3.9,4.3
		C1533.2,361.6,1533.3,389.2,1533.3,416.9z"/>
	<path style="fill:#FDFFFE;" d="M372.8,326.9c48,2.6,95.8,5.1,143.9,7.7c-0.9,2-2.5,2.3-3.7,3.1c-38.6,23.2-77.3,46.4-115.9,69.6
		c-3,1.8-4.3,2.6-5.4-1.9c-5.9-24.9-12.2-49.7-18.3-74.6C373.1,329.6,373,328.4,372.8,326.9z"/>
	<path style="fill:#FDFFFE;" d="M517.6,599.9c-23.2-43.7-45.9-86.6-69.2-130.5c2.3,1.2,3.5,1.8,4.7,2.4
		c39.8,21.5,79.5,43.1,119.3,64.5c3.2,1.7,4.1,2.5,1,5.6c-17.7,17.8-35.2,35.9-52.8,53.9C519.7,596.9,518.9,598.2,517.6,599.9z"/>
	<path style="fill:#FDFFFE;" d="M364.9,505.1c26.6-40.5,53.1-80.8,79.7-121.3c1.3,1.3,0.9,2.5,0.9,3.6c0,46-0.1,92-0.1,137.9
		c0,3.1-0.2,4.5-4,3.3c-24.9-7.7-49.9-15.2-74.9-22.8C366,505.8,365.7,505.5,364.9,505.1z"/>
</g>
</svg>
