<svg enable-background="new 0 0 512 512" viewBox="0 0 512 512" xmlns="http://www.w3.org/2000/svg"><path d="m458.667 85.333h-405.334c-29.397 0-53.333 23.936-53.333 53.334v234.667c0 29.397 23.936 53.333 53.333 53.333h405.333c29.397 0 53.333-23.936 53.333-53.333v-234.667c.001-29.398-23.935-53.334-53.332-53.334zm32 288c0 17.643-14.357 32-32 32h-405.334c-17.643 0-32-14.357-32-32v-234.666c0-17.643 14.357-32 32-32h405.333c17.643 0 32 14.357 32 32v234.666z"/><path d="m501.333 149.333h-490.666c-5.888 0-10.667 4.779-10.667 10.667v64c0 5.888 4.779 10.667 10.667 10.667h490.667c5.888 0 10.667-4.779 10.667-10.667v-64c-.001-5.888-4.78-10.667-10.668-10.667zm-10.666 64h-469.334v-42.667h469.333v42.667z"/><path d="m202.667 298.667h-128c-5.888 0-10.667 4.779-10.667 10.667s4.779 10.666 10.667 10.666h128c5.888 0 10.667-4.779 10.667-10.667s-4.779-10.666-10.667-10.666z"/><path d="m202.667 341.333h-128c-5.888 0-10.667 4.779-10.667 10.667s4.779 10.667 10.667 10.667h128c5.888 0 10.667-4.779 10.667-10.667-.001-5.888-4.779-10.667-10.667-10.667z"/><path d="m416 277.333h-21.333c-17.643 0-32 14.357-32 32v21.333c0 17.643 14.357 32 32 32h21.333c17.643 0 32-14.357 32-32v-21.333c0-17.642-14.357-32-32-32zm10.667 53.334c0 5.888-4.779 10.667-10.667 10.667h-21.333c-5.888 0-10.667-4.779-10.667-10.667v-21.333c0-5.888 4.779-10.667 10.667-10.667h21.333c5.888 0 10.667 4.779 10.667 10.667z"/></svg>