<svg enable-background="new -41 221.8 2126.6 392" viewBox="-41 221.8 2126.6 392" xmlns="http://www.w3.org/2000/svg"><path d="m471 567.2c0 16.7-13.5 30.3-30.3 30.3h-451.4c-16.7 0-30.3-13.6-30.3-30.3v-292.6c0-16.7 13.5-30.3 30.3-30.3h451.5c16.7 0 30.3 13.6 30.3 30.3v292.6z" fill="#fff"/><path d="m72.6 422.9-12-57.7c-2.1-8-8-10.3-15.5-10.6h-55.1l-.5 2.6c42.9 10.5 71.3 35.6 83.1 65.7z" fill="#f79f1a"/><path d="m200.4 355.8h-35.7l-22.2 130.5h35.6z" fill="#059bbf"/><path d="m94.3 486.2 56-130.3h-37.7l-34.8 89-3.7-13.4c-6.8-16.2-26.3-39.4-49.3-54.1l31.8 108.9z" fill="#059bbf"/><path d="m301.9 443.6c.1-14.8-9.4-26.1-29.9-35.5-12.5-6-20.1-10.1-20-16.2 0-5.4 6.4-11.2 20.4-11.2 11.7-.2 20.1 2.4 26.6 5l3.2 1.5 4.8-28.3c-7.1-2.6-18.1-5.5-31.9-5.5-35.2 0-59.9 17.7-60.1 43.1-.2 18.8 17.7 29.2 31.2 35.5 13.8 6.4 18.5 10.5 18.4 16.2-.1 8.7-11 12.7-21.3 12.7-14.3 0-21.8-2-33.5-6.8l-4.6-2.1-5 29.2c8.3 3.6 23.7 6.8 39.6 6.9 37.6.1 61.9-17.3 62.1-44.5z" fill="#059bbf"/><path d="m344.2 466.7h45.6c1.1 4.5 4.3 19.6 4.3 19.6h33l-28.8-130.4h-27.5c-8.5 0-14.9 2.3-18.6 10.8l-52.8 119.6h37.4c0 .1 6-16 7.4-19.6zm24.4-63.2c-.2.4 3-7.5 4.7-12.5l2.4 11.3s6.8 31.2 8.2 37.7h-29.5c3-7.5 14.2-36.5 14.2-36.5z" fill="#059bbf"/><path d="m440.7 244.3h-451.4c-16.7 0-30.3 13.5-30.3 30.3v31.4h512v-31.4c0-16.7-13.5-30.3-30.3-30.3z" fill="#059bbf"/><path d="m440.7 597.4h-451.4c-16.7 0-30.3-13.6-30.3-30.3v-31.4h512v31.4c0 16.8-13.5 30.3-30.3 30.3z" fill="#f79f1a"/><path d="m-19.5 567.2v-292.6c0-16.7 13.6-30.3 30.3-30.3h-21.5c-16.7 0-30.3 13.5-30.3 30.3v292.6c0 16.7 13.5 30.3 30.3 30.3h21.5c-16.7-.1-30.3-13.6-30.3-30.3z" fill="#202121" opacity=".15"/><path d="m1009.5 568.2c0 16.7-13.5 30.3-30.3 30.3h-451.4c-16.7 0-30.3-13.6-30.3-30.3v-292.6c0-16.7 13.5-30.3 30.3-30.3h451.5c16.7 0 30.3 13.6 30.3 30.3z" fill="#0099df"/><path d="m519 568.2v-292.6c0-16.7 13.6-30.3 30.3-30.3h-21.5c-16.7 0-30.3 13.6-30.3 30.3v292.6c0 16.7 13.5 30.3 30.3 30.3h21.5c-16.7 0-30.3-13.6-30.3-30.3z" fill="#202121" opacity=".15"/><path d="m832.2 400.5c0-18 8.3-34.1 21.3-44.6-9.9-8-22.5-12.8-36.2-12.8-31.7 0-57.4 25.7-57.4 57.5 0 31.7 25.7 57.5 57.4 57.5 13.7 0 26.3-4.8 36.2-12.8-13-10.7-21.3-26.8-21.3-44.8z" fill="#ea001b"/><path d="m889.7 343c-13.7 0-26.3 4.8-36.2 12.8 13 10.5 21.3 26.6 21.3 44.6s-8.3 34.1-21.3 44.6c9.9 8 22.5 12.8 36.2 12.8 31.7 0 57.5-25.7 57.5-57.5-.1-31.5-25.8-57.3-57.5-57.3z" fill="#f79f1a"/><path d="m874.8 400.5c0-18-8.3-34.1-21.3-44.6-13 10.5-21.3 26.6-21.3 44.6s8.3 34.1 21.3 44.6c13-10.5 21.3-26.6 21.3-44.6z" fill="#ff5f01"/><path d="m663.4 427.1c0 4-3.3 7.3-7.3 7.3h-90.7c-4 0-7.3-3.3-7.3-7.3v-70.7c0-4 3.3-7.3 7.3-7.3h90.7c4 0 7.3 3.3 7.3 7.3z" fill="#ffc715"/><path d="m664.4 497h-106.3c-4.6 0-8.3-3.7-8.3-8.3s3.7-8.3 8.3-8.3h106.3c4.6 0 8.3 3.7 8.3 8.3s-3.7 8.3-8.3 8.3z" fill="#34495e"/><path d="m664.4 531.8h-106.3c-4.6 0-8.3-3.7-8.3-8.3s3.7-8.3 8.3-8.3h106.3c4.6 0 8.3 3.7 8.3 8.3s-3.7 8.3-8.3 8.3z" fill="#34495e"/><path d="m586.4 434.4h16.7v-8.3-68.6-8.3h-16.7v8.3 11.7h-20-8.3v16.7h8.3 20v11.8h-20-8.3v16.7h8.3 20v11.7z" fill="#ffa617"/><path d="m655 385.9h8.3v-16.7h-8.3-15.9v-11.7-8.3h-16.7v8.3 48.5c0 4.6 3.7 8.3 8.3 8.3h24.3 8.3v-16.7h-8.3-15.9v-11.7z" fill="#ffa617"/><path d="m573.4 427.1v-70.7c0-4 3.3-7.3 7.3-7.3h-15.4c-4 0-7.3 3.3-7.3 7.3v70.7c0 4 3.3 7.3 7.3 7.3h15.4c-4 0-7.3-3.2-7.3-7.3z" fill="#202121" opacity=".15"/><path d="m1546.3 567.2c0 16.7-13.6 30.3-30.3 30.3h-451.5c-16.7 0-30.3-13.6-30.3-30.3v-292.6c0-16.7 13.5-30.3 30.3-30.3h451.5c16.7 0 30.3 13.6 30.3 30.3z" fill="#306fc5"/><path d="m1055.8 567.2v-292.6c0-16.7 13.6-30.3 30.3-30.3h-21.5c-16.7 0-30.3 13.5-30.3 30.3v292.6c0 16.7 13.5 30.3 30.3 30.3h21.5c-16.7-.1-30.3-13.6-30.3-30.3z" fill="#202121" opacity=".15"/><g fill="#fff"><path d="m1108.9 385.6h15.3l-7.6-19.4z"/><path d="m1190.3 451v9h25.7v9.8h-25.7v10.4h28.5l13.2-14.6-12.5-14.6z"/><path d="m1391.2 366.2-8.3 19.4h16z"/><path d="m1264.7 485.8v-39.7l-18.1 19.5z"/><path d="m1298.7 457.3c-.7-4.2-3.5-6.3-7.7-6.3h-14.6v12.5h15.3c4.3 0 7-2.1 7-6.2z"/><path d="m1347.4 462.1c1.4-.7 2.1-2.8 2.1-4.9.7-2.8-.7-4.2-2.1-4.9s-3.5-.7-5.6-.7h-13.9v11.1h13.9c2.1.1 4.2.1 5.6-.6z"/><path d="m1447.5 348.1v8.3l-4.2-8.3h-32.7v8.3l-4.2-8.3h-44.4c-7.6 0-13.9 1.4-19.5 4.2v-4.2h-31.3v.7 3.5c-3.5-2.8-7.6-4.2-13.2-4.2h-111.9l-7.7 17.4-7.6-17.4h-25-10.4v8.3l-3.5-8.3h-.7-29.9l-13.9 32.7-16 35.5-.3.7h.3 35.5.4l.3-.7 4.2-10.4h9l4.2 11.1h40.3v-.7-7.6l3.5 8.3h20.2l3.5-8.3v7.6.7h16 80 .7v-18.1h1.4c1.4 0 1.4 0 1.4 2.1v15.3h50.1v-4.2c4.2 2.1 10.4 4.2 18.8 4.2h20.9l4.2-11.1h9.7l4.2 11.1h40.3v-7-3.5l6.3 10.4h1.4.7 30.6v-68.1zm-235.7 58.4h-7-4.2v-4.2-34.1l-.7 1.6-16.2 36.7h-.5-3.7-6l-16.7-38.2v38.2h-23.6l-4.9-10.4h-23.6l-4.9 10.4h-12.2l20.6-48.7h17.4l19.5 46.6v-46.6h4.2 14.3l.3.7 8.8 19.1 6.3 14.3.2-.7 13.9-33.4h18.8zm48-38.2h-27.1v9h26.4v9.7h-26.4v9.7h27.1v10.4h-38.9v-49.4h38.9zm49.6 17.9c.3.3.6.6.7.9 1.3 1.7 2.4 4.3 2.5 8.2v.2.1.1 1.2 9.7h-10.4v-5.6c0-2.8 0-7-2.1-9.7-.7-.7-1.3-1.1-2-1.4-1-.7-3-.7-6.3-.7h-12.5v17.4h-11.8v-48.7h26.4c6.3 0 10.4 0 13.9 2.1 3.4 2 5.5 5.4 5.5 10.8-.2 7.4-4.9 11.5-8.3 12.8 0 0 2.3.4 4.4 2.6zm23.4 20.3h-11.8v-48.7h11.8zm135.6 0h-15.3l-22.3-36.9v30.6l-.1-.1v6.4h-11.7-11.8l-4.2-10.4h-24.3l-4.2 11.1h-13.2c-5.6 0-12.5-1.4-16.7-5.6s-6.3-9.7-6.3-18.8c0-7 1.4-13.9 6.3-19.5 3.5-4.2 9.7-5.6 17.4-5.6h11.1v10.4h-11.1c-4.2 0-6.3.7-9 2.8-2.1 2.1-3.5 6.3-3.5 11.1 0 5.6.7 9 3.5 11.8 2.1 2.1 4.9 2.8 8.3 2.8h4.9l16-38.2h7 10.4l19.5 46.6v-2.4-15.6-1.4-27.1h17.4l20.2 34.1v-34.1h11.8z"/><path d="m1299.5 378.1c.2-.2.4-.5.5-.7.6-1 1.4-2.8 1-5.2 0-.2-.1-.4-.1-.6 0-.1 0-.1 0-.2-.3-1.2-1.2-1.9-2.1-2.4-1.4-.7-3.5-.7-5.6-.7h-13.9v11.1h13.9c2.1 0 4.2 0 5.6-.7.2-.1.4-.3.6-.4-.1 0 0-.1.1-.2z"/><path d="m1509.4 476c0-4.9-1.4-9.7-3.5-13.2v-31.3-2.1s-29.1 0-33.5 0c-4.3 0-9.6 4.2-9.6 4.2v-4.2h-32c-4.9 0-11.1 1.4-13.9 4.2v-4.2h-57v2.1 2.1c-4.2-3.5-11.8-4.2-15.3-4.2h-37.5v2.1 2.1c-3.5-3.5-11.8-4.2-16-4.2h-41.7l-9.7 10.4-9-10.4h-2.9-4.7-55.1v2.1 5.5 62.7h61.2l10.1-10.1 8.7 10.1h.7 35.3 1.6.7.7v-7-9h3.5c4.9 0 11.1 0 16-2.1v17.4 1.4h31.3v-1.4-16.7h1.4c2.1 0 2.1 0 2.1 2.1v14.6 1.4h94.6c6.3 0 12.5-1.4 16-4.2v2.8 1.4h29.9c6.3 0 12.5-.7 16.7-3.5 6.4-3.8 10.4-10.6 11-18.7 0-.2.1-.5.1-.7-.2-.6-.2-1-.2-1.5zm-219-4.1h-13.9v2.1 4.2 4.2 7.6h-22.9l-13.3-15.3v.1l-.7-.7-15.3 16h-44.5v-48.7h45.2l12.3 13.5 2.6 2.8.4-.4 14.6-16h36.9c7.2 0 15.2 1.8 18.2 9 .4 1.4.6 3 .6 4.9 0 13.9-9.8 16.7-20.2 16.7zm69.5-.7c1.4 2.1 2.1 4.9 2.1 9v9.7h-11.8v-6.3c0-2.8 0-7.6-2.1-9.7-1.4-2.1-4.2-2.1-8.3-2.1h-12.5v18.1h-11.8v-49.4h26.4c5.6 0 10.4 0 13.9 2.1s6.3 5.6 6.3 11.1c0 7.6-4.9 11.8-8.3 13.2 3.3 1.5 5.4 2.9 6.1 4.3zm48-20.2h-27.1v9h26.4v9.7h-26.4v9.7h27.1v10.4h-38.9v-49.4h38.9zm29.2 38.9h-22.3v-10.4h22.3c2.1 0 3.5 0 4.9-1.4.7-.7 1.4-2.1 1.4-3.5s-.7-2.8-1.4-3.5-2.1-1.4-4.2-1.4c-11.1-.7-24.3 0-24.3-15.3 0-7 4.2-14.6 16.7-14.6h22.9v11.8h-21.6c-2.1 0-3.5 0-4.9.7s-1.4 2.1-1.4 3.5c0 2.1 1.4 2.8 2.8 3.5s2.8.7 4.2.7h6.3c6.3 0 10.4 1.4 13.2 4.2 2.1 2.1 3.5 5.6 3.5 10.4 0 10.5-6.3 15.3-18.1 15.3zm59.8-4.8c-2.8 2.8-7.6 4.9-14.6 4.9h-22.2v-10.4h22.2c2.1 0 3.5 0 4.9-1.4.7-.7 1.4-2.1 1.4-3.5s-.7-2.8-1.4-3.5-2.1-1.4-4.2-1.4c-11.1-.7-24.3 0-24.3-15.3 0-6.6 3.8-12.6 13.1-14.4 1.1-.2 2.3-.3 3.6-.3h22.9v11.8h-15.3-5.6-.7c-2.1 0-3.5 0-4.9.7-.7.7-1.4 2.1-1.4 3.5 0 2.1.7 2.8 2.8 3.5 1.4.7 2.8.7 4.2.7h.7 5.6c3 0 5.3.4 7.4 1.1 1.9.7 8.3 3.5 9.7 11 .1.8.2 1.6.2 2.5.1 4.2-1.3 7.7-4.1 10.5z"/></g><path d="m2085.6 564c0 16.7-13.6 30.3-30.3 30.3h-451.5c-16.7 0-30.3-13.6-30.3-30.3v-292.5c0-16.7 13.5-30.3 30.3-30.3h451.5c16.7 0 30.3 13.6 30.3 30.3z" fill="#34495e"/><path d="m1595.1 564v-292.5c0-16.7 13.6-30.3 30.3-30.3h-21.5c-16.7 0-30.3 13.6-30.3 30.3v292.5c0 16.7 13.5 30.3 30.3 30.3h21.5c-16.7 0-30.3-13.5-30.3-30.3z" fill="#202121" opacity=".15"/><path d="m1883 417.6c0-9.6-3.6-19.3-10.8-26.6-7.3-7.3-17-10.9-26.6-10.8h-.1c-21 0-37.6 16.6-37.6 37.6 0 20.8 16.8 37.6 37.6 37.6 21 0 37.6-16.6 37.6-37.6-.1-.1-.1-.2-.1-.2z" fill="#f26e21"/><g fill="#e7e8e3"><path d="m1800.8 433.7c-5.6 5.6-10.8 7.8-16.4 7.9-13.6-.1-23.6-10.2-23.6-24.6 0-7.2 2.7-13.2 7.1-18.2 4.1-3.9 9.3-6.4 15.3-6.4 6.5 0 11.6 2.2 17.4 8v-16.6c-5.8-2.9-10.8-4.3-17.4-4.3-9.2.7-17.9 4.4-24.5 10.2-1.9 1.7-3.8 3.6-5.3 5.8-4.9 6.3-7.8 14-7.8 22.3 0 21 16.6 36.9 37.6 36.9h.3.4c5.8 0 10.8-1.4 17.4-4.3l-.5-16.7c-.2.2.2.5 0 .7z"/><path d="m1930.5 389.8-16.4 40.3-18.8-47.8h-15.2l29.7 73.1h7.9l31.1-73.1h-15.2z"/><path d="m1954.6 414.1v39.1h39 .8v-11.6h-12.3-13v-13-6.5h24.5v-12.3h-24.5v-15.2h25.3v-12.3h-39.8z"/><path d="m1627.8 382.3h-20.3v70.9h20.3c10.8 0 18.8-2.9 25.3-8 8-6.5 13-16.6 13-27.5 0-20.9-15.2-35.4-38.3-35.4zm16.6 53.5c-4.3 3.6-10.1 5.8-18.8 5.8h-4.3v-47h3.6c8.7 0 14.5 1.4 18.8 5.8 5.1 4.3 8 10.8 8 17.4.6 6.5-2.3 13.7-7.3 18z"/><path d="m1672.6 382.3h13.7v70.9h-13.7z"/><path d="m1721 409.8c-8.7-2.9-10.8-5.1-10.8-8.7 0-4.3 4.3-8 10.1-8 4.3 0 8 1.4 11.6 5.8l7.2-9.4c-5.8-5.1-13-8-21-8-12.3 0-22.4 8.7-22.4 20.2 0 10.1 4.3 14.5 17.4 19.5 5.8 2.2 8 2.9 9.4 4.3 2.9 1.4 4.3 4.3 4.3 7.2 0 5.8-4.3 10.1-10.8 10.1s-12.3-3.6-15.2-9.4l-8.7 8.7c6.5 9.4 14.5 13.7 24.6 13.7 14.5 0 24.6-9.4 24.6-23.1 0-12-4.4-17.1-20.3-22.9z"/><path d="m2033.4 423.5c10.8-2.2 16.6-9.4 16.6-20.2 0-13-9.4-21-25.3-21h-21v70.9h13.7v-28.2h2.2l19.5 28.2h16.6zm-11.6-8.6h-4.3v-21.7h4.3c8.7 0 13.7 3.6 13.7 10.9.1 7.2-5 10.8-13.7 10.8z"/></g></svg>