<svg enable-background="new 0 0 512 512" fill="#8165ba" viewBox="0 0 512 512" xmlns="http://www.w3.org/2000/svg"><path d="m441.239 137.656-134.692-134.692c-1.898-1.898-4.471-2.964-7.156-2.964h-189.793c-23.049 0-41.8 18.751-41.8 41.8v428.4c0 23.049 18.751 41.8 41.8 41.8h292.804c23.049 0 41.8-18.751 41.8-41.8v-325.389c0-2.683-1.066-5.258-2.963-7.155zm-131.728-103.107 100.143 100.141h-78.582c-11.889 0-21.56-9.672-21.56-21.562v-78.579zm114.453 435.651c0 11.889-9.672 21.562-21.562 21.562h-292.804c-11.889 0-21.562-9.673-21.562-21.562v-428.4c0-11.889 9.673-21.562 21.562-21.562h179.674v92.892c0 23.049 18.75 41.8 41.799 41.8h92.893z"/><path d="m336.949 257.012h-161.898c-5.588 0-10.119 4.531-10.119 10.119s4.531 10.119 10.119 10.119h161.898c5.59 0 10.119-4.531 10.119-10.119s-4.529-10.119-10.119-10.119z"/><path d="m336.949 302.208h-161.898c-5.588 0-10.119 4.531-10.119 10.119s4.531 10.119 10.119 10.119h161.898c5.59 0 10.119-4.531 10.119-10.119s-4.529-10.119-10.119-10.119z"/><path d="m336.949 347.404h-161.898c-5.588 0-10.119 4.531-10.119 10.119s4.531 10.119 10.119 10.119h161.898c5.59 0 10.119-4.531 10.119-10.119s-4.529-10.119-10.119-10.119z"/><path d="m284.332 392.601h-109.281c-5.588 0-10.119 4.531-10.119 10.119s4.531 10.119 10.119 10.119h109.281c5.59 0 10.119-4.531 10.119-10.119s-4.529-10.119-10.119-10.119z"/></svg>