<svg enable-background="new 0 0 512 512" height="512" viewBox="0 0 512 512" width="512" xmlns="http://www.w3.org/2000/svg"><path d="m106 212h240c8.284 0 15-6.716 15-15v-122c0-8.284-6.716-15-15-15h-240c-8.284 0-15 6.716-15 15v122c0 8.284 6.716 15 15 15zm15-122h210v92h-210z"/><path d="m106 452h90c8.284 0 15-6.716 15-15v-60c0-8.284-6.716-15-15-15h-90c-8.284 0-15 6.716-15 15v60c0 8.284 6.716 15 15 15zm15-60h60v30h-60z"/><path d="m106 332h240c8.284 0 15-6.716 15-15s-6.716-15-15-15h-240c-8.284 0-15 6.716-15 15s6.716 15 15 15z"/><path d="m106 272h240c8.284 0 15-6.716 15-15s-6.716-15-15-15h-240c-8.284 0-15 6.716-15 15s6.716 15 15 15z"/><path d="m346 362h-90c-8.284 0-15 6.716-15 15s6.716 15 15 15h90c8.284 0 15-6.716 15-15s-6.716-15-15-15z"/><path d="m346 422h-90c-8.284 0-15 6.716-15 15s6.716 15 15 15h90c8.284 0 15-6.716 15-15s-6.716-15-15-15z"/><path d="m481 135c0-8.284-6.716-15-15-15h-45v-105c0-8.284-6.716-15-15-15h-360c-8.284 0-15 6.716-15 15v452c0 24.813 20.187 45 45 45h360c24.813 0 45-20.187 45-45zm-420-105h330v437c0 5.258.915 10.305 2.58 15h-317.58c-8.271 0-15-6.729-15-15zm390 437c0 8.271-6.729 15-15 15s-15-6.729-15-15v-317h30z"/></svg>