<svg id="Layer_1" data-name="Layer 1" xmlns="http://www.w3.org/2000/svg" viewBox="0 0 66 64.04"><title>icon-services-5</title><g id="group-19svg"><path id="path-1" d="M43,56a8,8,0,0,1-8,8H14a8,8,0,0,1-8-8V35a8,8,0,0,1,8-8H35a8,8,0,0,1,8,8Z" transform="translate(0 0.01)" style="fill:#53ecf4;fill-rule:evenodd"/><path id="path-2" d="M66,43a8,8,0,0,1-8,8H27a8,8,0,0,1-8-8V12a8,8,0,0,1,8-8H58a8,8,0,0,1,8,8Z" transform="translate(0 0.01)" style="fill:#e56a77;fill-rule:evenodd"/><path id="path-3" d="M53.5,50h-31A9.52,9.52,0,0,1,13,40.52V9.5A9.52,9.52,0,0,1,22.5,0h31A9.52,9.52,0,0,1,63,9.5v31A9.52,9.52,0,0,1,53.5,50ZM22.5,3A6.51,6.51,0,0,0,16,9.5v31A6.51,6.51,0,0,0,22.5,47h31a6.51,6.51,0,0,0,6.5-6.5V9.5A6.51,6.51,0,0,0,53.5,3Z" transform="translate(0 0.01)" style="fill-rule:evenodd"/><path id="path-4" d="M30.5,63H9.5A9.52,9.52,0,0,1,0,53.53v-21A9.51,9.51,0,0,1,9.5,23h21a9.51,9.51,0,0,1,9.5,9.5v21A9.52,9.52,0,0,1,30.5,63ZM9.5,26A6.51,6.51,0,0,0,3,32.51v21A6.51,6.51,0,0,0,9.5,60h21a6.51,6.51,0,0,0,6.5-6.5v-21A6.51,6.51,0,0,0,30.5,26Z" transform="translate(0 0.01)" style="fill-rule:evenodd"/><path id="path-5" d="M56.2,23.35a2.36,2.36,0,0,0,.21-1V11.83a1.92,1.92,0,0,0-1.91-1.92H44a2.65,2.65,0,0,0-1,.22,1.94,1.94,0,0,0-.55,3.12l3.94,3.95-6.61,6.62a1.8,1.8,0,1,0,2.54,2.55l6.62-6.62,4.16,4.15A1.93,1.93,0,0,0,56.2,23.35Z" transform="translate(0 0.01)" style="fill:#fff;fill-rule:evenodd"/></g></svg>