<svg id="Layer_1" data-name="Layer 1" xmlns="http://www.w3.org/2000/svg" viewBox="0 0 58 64"><title>icon-services-8</title><g id="group-59svg"><path id="path-1" d="M58,56a8,8,0,0,1-8,8H15a8,8,0,0,1-8-8V12a8,8,0,0,1,8-8H50a8,8,0,0,1,8,8Z" style="fill:#ff917b;fill-rule:evenodd"/><path id="path-2" d="M44.5,63H9.5A9.51,9.51,0,0,1,0,53.5V9.5A9.51,9.51,0,0,1,9.5,0h35A9.51,9.51,0,0,1,54,9.5v44A9.51,9.51,0,0,1,44.5,63ZM9.5,3A6.5,6.5,0,0,0,3,9.5v44A6.51,6.51,0,0,0,9.5,60h35A6.51,6.51,0,0,0,51,53.5V9.5A6.51,6.51,0,0,0,44.5,3Z" style="fill-rule:evenodd"/><path id="path-3" d="M46,14H10a1.5,1.5,0,0,1,0-3H46a1.5,1.5,0,0,1,0,3Z" style="fill-rule:evenodd"/><path id="path-4" d="M46,22H10a1.5,1.5,0,0,1,0-3H46a1.5,1.5,0,0,1,0,3Z" style="fill-rule:evenodd"/><path id="path-5" d="M19.52,34.51a6,6,0,0,1,1-3.19,7.92,7.92,0,0,1,2.95-2.67A9.31,9.31,0,0,1,28,27.59a9.68,9.68,0,0,1,4.24.89,6.91,6.91,0,0,1,2.83,2.4,5.83,5.83,0,0,1,1,3.31,5.15,5.15,0,0,1-.57,2.47,7.55,7.55,0,0,1-1.35,1.82c-.53.52-1.47,1.38-2.82,2.59a11.14,11.14,0,0,0-.91.9,4.33,4.33,0,0,0-.5.71,3.53,3.53,0,0,0-.26.65c-.1.37-.19.75-.27,1.13a1.84,1.84,0,0,1-2,1.72A2,2,0,0,1,26,45.62,2.18,2.18,0,0,1,25.37,44a5.84,5.84,0,0,1,1.57-4.19,23.91,23.91,0,0,1,1.92-1.83c.52-.45,1-.92,1.53-1.4a4.52,4.52,0,0,0,.79-1.05,2.45,2.45,0,0,0,.32-1.25,2.91,2.91,0,0,0-1-2.24A3.63,3.63,0,0,0,28,31.08,3.54,3.54,0,0,0,25.3,32a7.35,7.35,0,0,0-1.45,2.71q-.57,1.86-2.13,1.86a2.08,2.08,0,0,1-1.57-.65A2,2,0,0,1,19.52,34.51Zm8.07,18.12A2.62,2.62,0,0,1,25.82,52a2.53,2.53,0,0,1,0-3.58,2.43,2.43,0,0,1,1.79-.71,2.42,2.42,0,0,1,2.46,2.46A2.33,2.33,0,0,1,29.31,52,2.52,2.52,0,0,1,27.59,52.63Z" style="fill-rule:evenodd"/></g></svg>