<svg id="Layer_1" data-name="Layer 1" xmlns="http://www.w3.org/2000/svg" viewBox="0 0 66.66 64.49"><title>icon-services-6</title><g id="group-2svg"><path id="path-1" d="M63.49,30l-3.64-1.29-.32-.14a23.51,23.51,0,0,0-2.53-6,2.75,2.75,0,0,1,.15-.36l1.65-3.49a4.76,4.76,0,0,0-6.34-6.35L49,14a2.39,2.39,0,0,1-.37.15,23.93,23.93,0,0,0-6-2.52c0-.11-.1-.22-.14-.33l-1.3-3.64a4.76,4.76,0,0,0-9,0l-1.3,3.64a2.29,2.29,0,0,1-.1.23,23.4,23.4,0,0,0-6.27,2.54L24.34,14l-3.49-1.66c-4.05-1.92-8.93,2.3-7,6.35l1,3.49h0a32.74,32.74,0,0,0-2.13,6.56L9.49,30c-4.22,1.5-4.06,7.47.16,9l3.54,1.22A23.31,23.31,0,0,0,16,47l-1.54,3.27a4.77,4.77,0,0,0,6.36,6.34l3.26-1.55a23.6,23.6,0,0,0,6.84,2.8l1.23,3.44a4.76,4.76,0,0,0,9,0l1.26-3.53A23.67,23.67,0,0,0,49,55l3.47,1.64a4.76,4.76,0,0,0,6.34-6.34L57.15,46.8l-.06-.13a23.68,23.68,0,0,0,2.55-6.31l.21-.09L63.49,39A4.77,4.77,0,0,0,63.49,30Z" transform="translate(0 0.01)" style="fill:#8b71b5;fill-rule:evenodd"/><path id="path-2" d="M54.51,34.93A17.92,17.92,0,1,1,36.59,17,17.92,17.92,0,0,1,54.51,34.93Z" transform="translate(0 0.01)" style="fill:#53ecf4;fill-rule:evenodd"/><path id="path-3" d="M47.68,34.93A11.09,11.09,0,1,1,36.59,23.85,11.1,11.1,0,0,1,47.68,34.93Z" transform="translate(0 0.01)" style="fill:#ff917b;fill-rule:evenodd"/><path id="path-4" d="M31.65,63a6.2,6.2,0,0,1-5.9-4.17l-.95-2.68A25.65,25.65,0,0,1,19,53.78L16.49,55a6.22,6.22,0,0,1-2.71.62,6.34,6.34,0,0,1-5.3-3,6.09,6.09,0,0,1-.34-6l1.2-2.55A24.92,24.92,0,0,1,7,38.35l-2.74-1a6.26,6.26,0,0,1-4.22-6,6.12,6.12,0,0,1,4.11-5.83l2.6-1a34,34,0,0,1,2-5.52l-1-2.83a5.93,5.93,0,0,1,.39-5.75,6.75,6.75,0,0,1,5.65-3.14A6.46,6.46,0,0,1,16.5,8l2.93,1.39a25,25,0,0,1,5.21-2.1l1.11-3.12a6.27,6.27,0,0,1,11.81,0l1.15,3.23a25,25,0,0,1,5,2.09L46.81,8a6.26,6.26,0,0,1,2.72-.62,6.33,6.33,0,0,1,5.29,3,6.11,6.11,0,0,1,.34,6l-1.48,3.12a26,26,0,0,1,2.09,5L59,25.59a6.26,6.26,0,0,1,0,11.8l-3.09,1.1a25.35,25.35,0,0,1-2.12,5.24l1.38,2.91a6.13,6.13,0,0,1-.34,6,6.33,6.33,0,0,1-5.29,3h0A6.22,6.22,0,0,1,46.81,55l-2.74-1.31A25.33,25.33,0,0,1,38.55,56l-1,2.79A6.22,6.22,0,0,1,31.65,63ZM19.11,50.58a1.5,1.5,0,0,1,.77.22,22,22,0,0,0,6.41,2.62,1.51,1.51,0,0,1,1.06,1l1.23,3.44a3.27,3.27,0,0,0,6.15,0L36,54.29A1.5,1.5,0,0,1,37,53.34a22.3,22.3,0,0,0,6.17-2.63,1.49,1.49,0,0,1,1.43-.08l3.47,1.65a3.27,3.27,0,0,0,4.18-1.23,3.14,3.14,0,0,0,.17-3.12l-1.66-3.49s0-.11-.07-.17a1.58,1.58,0,0,1,.08-1.36A22,22,0,0,0,53.18,37a1.54,1.54,0,0,1,.9-1l.26-.1L58,34.56a3.26,3.26,0,0,0,0-6.15l-3.64-1.29L54,27a1.6,1.6,0,0,1-.87-1,22,22,0,0,0-2.37-5.66A1.47,1.47,0,0,1,50.59,19c.06-.16.13-.32.2-.47l1.66-3.49a3.16,3.16,0,0,0-.17-3.12A3.27,3.27,0,0,0,48.1,10.7l-3.49,1.66c-.15.07-.31.14-.48.2a1.47,1.47,0,0,1-1.29-.12,22.76,22.76,0,0,0-5.65-2.36,1.54,1.54,0,0,1-1-.84L36,8.8,34.73,5.16a3.26,3.26,0,0,0-6.15,0L27.28,8.8a2.6,2.6,0,0,1-.1.25,1.64,1.64,0,0,1-1.05.94,22,22,0,0,0-5.88,2.37,1.5,1.5,0,0,1-1.35.08l-.2-.08L15.21,10.7a3.69,3.69,0,0,0-4.57,1.41,3,3,0,0,0-.19,2.94l.06.14,1.25,3.48a1.56,1.56,0,0,1-.07,1.18,31.86,31.86,0,0,0-2.28,6.26,1.49,1.49,0,0,1-.92,1L5.14,28.41a3.08,3.08,0,0,0-2.14,3,3.26,3.26,0,0,0,2.22,3.14l3.49,1.23a1.52,1.52,0,0,1,1,1.07,22.45,22.45,0,0,0,2.63,6.39,1.5,1.5,0,0,1,.08,1.41l-1.54,3.27A3.14,3.14,0,0,0,11,51a3.28,3.28,0,0,0,4.19,1.24l3.26-1.55A1.67,1.67,0,0,1,19.11,50.58Z" transform="translate(0 0.01)" style="fill-rule:evenodd"/><path id="path-5" d="M31.59,44.52A12.59,12.59,0,1,1,44.18,31.94,12.6,12.6,0,0,1,31.59,44.52Zm0-22.17a9.59,9.59,0,1,0,9.59,9.59A9.6,9.6,0,0,0,31.59,22.35Z" transform="translate(0 0.01)" style="fill-rule:evenodd"/><path id="path-6" d="M31.59,51.35A19.42,19.42,0,1,1,51,31.94,19.45,19.45,0,0,1,31.59,51.35Zm0-35.84A16.42,16.42,0,1,0,48,31.93,16.45,16.45,0,0,0,31.59,15.51Z" transform="translate(0 0.01)" style="fill-rule:evenodd"/></g></svg>