<svg id="Layer_1" data-name="Layer 1" xmlns="http://www.w3.org/2000/svg" viewBox="0 0 63 61.04"><title>icon-services-1</title><g id="group-5svg"><path id="path-1" d="M63,53a8,8,0,0,1-8,8H14a8,8,0,0,1-8-8V12a8,8,0,0,1,8-8H55a8,8,0,0,1,8,8Z" transform="translate(0 0)" style="fill:#53ecf4;fill-rule:evenodd"/><path id="path-2" d="M50.5,60H9.5A9.52,9.52,0,0,1,0,50.53V9.5A9.51,9.51,0,0,1,9.5,0h41A9.51,9.51,0,0,1,60,9.5v41A9.52,9.52,0,0,1,50.5,60ZM9.5,3A6.51,6.51,0,0,0,3,9.5v41A6.51,6.51,0,0,0,9.5,57h41A6.51,6.51,0,0,0,57,50.53V9.5A6.51,6.51,0,0,0,50.5,3Z" transform="translate(0 0)" style="fill-rule:evenodd"/><path id="path-3" d="M58,44H2a1.5,1.5,0,0,1,0-3H58a1.5,1.5,0,0,1,0,3Z" transform="translate(0 0)" style="fill-rule:evenodd"/><path id="path-4" d="M58,22H2a1.5,1.5,0,0,1,0-3H58a1.5,1.5,0,0,1,0,3Z" transform="translate(0 0)" style="fill-rule:evenodd"/><path id="path-5" d="M40.5,59.54A1.5,1.5,0,0,1,39,58h0V2a1.5,1.5,0,0,1,3,0V58a1.5,1.5,0,0,1-1.5,1.5Z" transform="translate(0 0)" style="fill-rule:evenodd"/><path id="path-6" d="M19.5,59.54A1.5,1.5,0,0,1,18,58h0V2a1.5,1.5,0,0,1,3,0V58a1.5,1.5,0,0,1-1.5,1.5Z" transform="translate(0 0)" style="fill-rule:evenodd"/></g></svg>