<svg id="Layer_1" data-name="Layer 1" xmlns="http://www.w3.org/2000/svg" viewBox="0 0 53 63"><title>icon-services-7</title><g id="group-14svg"><path id="path-1" d="M53,55a8,8,0,0,1-8,8H14a8,8,0,0,1-8-8V11a8,8,0,0,1,8-8H45a8,8,0,0,1,8,8Z" style="fill:#53ecf4;fill-rule:evenodd"/><circle id="circle-1" cx="30" cy="47" r="11" style="fill:#fff"/><path id="path-2" d="M29.11,30.9A9.9,9.9,0,1,1,39,21,9.9,9.9,0,0,1,29.11,30.9Z" style="fill:#fff;fill-rule:evenodd"/><path id="path-3" d="M40.5,63H9.5A9.51,9.51,0,0,1,0,53.5V9.5A9.51,9.51,0,0,1,9.5,0h31A9.51,9.51,0,0,1,50,9.5v44A9.51,9.51,0,0,1,40.5,63ZM9.5,3A6.5,6.5,0,0,0,3,9.5v44A6.51,6.51,0,0,0,9.5,60h31A6.51,6.51,0,0,0,47,53.5V9.5A6.51,6.51,0,0,0,40.5,3Z" style="fill-rule:evenodd"/><circle id="circle-2" cx="30" cy="45" r="3"/><circle id="circle-3" cx="21" cy="45" r="3"/><path id="path-4" d="M25.11,55.86a11.4,11.4,0,1,1,11.4-11.4A11.41,11.41,0,0,1,25.11,55.86Zm0-19.8a8.4,8.4,0,1,0,8.4,8.4A8.41,8.41,0,0,0,25.11,36.06Z" style="fill-rule:evenodd"/><path id="path-5" d="M25.11,30.4A11.4,11.4,0,1,1,36.51,19,11.41,11.41,0,0,1,25.11,30.4Zm0-19.8a8.4,8.4,0,1,0,8.4,8.4A8.41,8.41,0,0,0,25.11,10.6Z" style="fill-rule:evenodd"/><path id="path-6" d="M29.68,21.17a2.29,2.29,0,1,1,0-4.57h0a2.29,2.29,0,0,1,0,4.57Z" style="fill-rule:evenodd"/><path id="path-7" d="M20.54,21.17a2.29,2.29,0,1,1,0-4.57h0a2.29,2.29,0,0,1,0,4.57Z" style="fill-rule:evenodd"/></g></svg>