<svg id="Layer_1" data-name="Layer 1" xmlns="http://www.w3.org/2000/svg" viewBox="0 0 65.44 64.49"><title>happiness</title><g id="group-2svg"><path id="path-1" d="M65.43,34.4A30.09,30.09,0,1,1,35.34,4.32,30.09,30.09,0,0,1,65.43,34.4Z" transform="translate(0.01 0)" style="fill:#2dbf91;fill-rule:evenodd"/><path id="path-2" d="M45.63,23.3A3.64,3.64,0,1,1,42,19.66,3.64,3.64,0,0,1,45.63,23.3Z" transform="translate(0.01 0)" style="fill-rule:evenodd"/><path id="path-3" d="M24.7,23.3a3.64,3.64,0,1,1-3.64-3.64A3.64,3.64,0,0,1,24.7,23.3Z" transform="translate(0.01 0)" style="fill-rule:evenodd"/><path id="path-4" d="M34.36,50.26H29.3A11.55,11.55,0,0,1,17.69,38.79a1.5,1.5,0,0,1,3,0,8.45,8.45,0,0,0,8.61,8.47h5.06A8.38,8.38,0,0,0,43,38.93a1.5,1.5,0,0,1,3,0A11.35,11.35,0,0,1,34.36,50.26Z" transform="translate(0.01 0)" style="fill-rule:evenodd"/><path id="path-5" d="M31.58,63.17A31.59,31.59,0,1,1,63.17,31.58,31.62,31.62,0,0,1,31.58,63.17ZM31.58,3A28.59,28.59,0,1,0,60.17,31.58,28.62,28.62,0,0,0,31.58,3Z" transform="translate(0.01 0)" style="fill-rule:evenodd"/></g></svg>