<svg id="Layer_1" data-name="Layer 1" xmlns="http://www.w3.org/2000/svg" viewBox="0 0 63 58"><title>installations</title><g id="group-11svg"><path id="path-1" d="M40.5,27.4C55.5,19.5,58.4,4,58.4,4H15.6s.9,15.5,14.9,23.4V43H23.8c-2.1,0-4.3,1.5-4.3,3.6v6.8c0,2.1,2.2,4.6,4.3,4.6H48.9c2.1,0,2.6-2.5,2.6-4.6V46.6c0-2.1-.4-3.6-2.6-3.6H40.5Z" style="fill:#2dbf91;fill-rule:evenodd"/><path id="path-2" d="M43.9,57H18.8a5.53,5.53,0,0,1-5.3-5.6V44.6A5.47,5.47,0,0,1,18.8,39h5.7V26.3C10.7,17.9,9.1,2.3,9.1,1.6A1.5,1.5,0,0,1,9.5.5,1.29,1.29,0,0,1,10.6,0H53.4a1.43,1.43,0,0,1,1.1.5,1.68,1.68,0,0,1,.3,1.2A35.6,35.6,0,0,1,37.5,26.3V39h6.4c2.7,0,4.6,2.3,4.6,5.6v6.8C48.5,54.8,46.6,57,43.9,57ZM18.8,42a2.61,2.61,0,0,0-2.3,2.6v6.8A2.54,2.54,0,0,0,18.8,54H43.9c1.5,0,1.6-2,1.6-2.6V44.6c0-.4-.1-2.6-1.6-2.6H36a1.54,1.54,0,0,1-1.5-1.5V25.4a1.34,1.34,0,0,1,.8-1.3C46.6,18.1,50.4,7.2,51.5,3H12.3c.8,4.1,3.8,15.1,14.4,21.1a1.56,1.56,0,0,1,.8,1.3V40.5A1.54,1.54,0,0,1,26,42Z" style="fill-rule:evenodd"/><path id="path-3" d="M54.1,19.9a1.56,1.56,0,0,1-1.3-.8,1.49,1.49,0,0,1,.6-2,12.82,12.82,0,0,0,6-7.1h-8A1.45,1.45,0,0,1,50,8.5,1.47,1.47,0,0,1,51.5,7h10a1.85,1.85,0,0,1,1.2.5A2.77,2.77,0,0,1,63,8.8a16.83,16.83,0,0,1-8.1,10.9A2.35,2.35,0,0,1,54.1,19.9Z" style="fill-rule:evenodd"/><path id="path-4" d="M8.3,19.9a1.85,1.85,0,0,1-.7-.2A15.23,15.23,0,0,1,0,8.7,1.92,1.92,0,0,1,.4,7.5,1.43,1.43,0,0,1,1.5,7h9a1.5,1.5,0,0,1,0,3H3.3A12.27,12.27,0,0,0,9,17.1a1.49,1.49,0,0,1,.6,2A1.44,1.44,0,0,1,8.3,19.9Z" style="fill-rule:evenodd"/><path id="path-5" d="M40.5,51h-18a1.5,1.5,0,0,1,0-3h18a1.5,1.5,0,0,1,0,3Z" style="fill-rule:evenodd"/><path id="path-6" d="M37.5,46h-12a1.5,1.5,0,0,1,0-3h12a1.5,1.5,0,0,1,0,3Z" style="fill-rule:evenodd"/></g></svg>