<svg id="Layer_1" data-name="Layer 1" xmlns="http://www.w3.org/2000/svg" viewBox="0 0 62.4 54.8"><title>highlight-1</title><g id="group-21svg"><path id="path-1" d="M32.1,33,8.1,22.5a4.54,4.54,0,0,1,0-8.3l24-10.5a4.51,4.51,0,0,1,3.6,0l24,10.5a4.54,4.54,0,0,1,0,8.3L35.7,33A4.51,4.51,0,0,1,32.1,33Z" transform="translate(0 0.02)" style="fill:#ff917b;fill-rule:evenodd"/><path id="path-2" d="M59.6,35.7a4.54,4.54,0,0,1,0,8.3L35.7,54.4a4.51,4.51,0,0,1-3.6,0L8.2,44a4.54,4.54,0,0,1,0-8.3h0" transform="translate(0 0.02)" style="fill:#81bda4;fill-rule:evenodd"/><path id="path-3" d="M55.8,32.2,35.4,41.1a4.15,4.15,0,0,1-3.1,0L12,32.2h0" transform="translate(0 0.02)" style="fill:#edc951;fill-rule:evenodd"/><path id="path-4" d="M30.1,33a6.87,6.87,0,0,1-2.4-.5L3.6,22A6,6,0,0,1,0,16.5,5.91,5.91,0,0,1,3.6,11L27.6.5a5.75,5.75,0,0,1,4.8,0L56.4,11A6,6,0,0,1,60,16.5,5.91,5.91,0,0,1,56.4,22l-24,10.5A5.93,5.93,0,0,1,30.1,33Zm0-30a2.66,2.66,0,0,0-1.2.3L4.9,13.8A2.7,2.7,0,0,0,3,16.5a3,3,0,0,0,1.8,2.8l24,10.5a3.31,3.31,0,0,0,2.4,0l24-10.5a3.08,3.08,0,0,0,0-5.6L31.2,3.2A3.59,3.59,0,0,0,30.1,3Z" transform="translate(0 0.02)" style="fill-rule:evenodd"/><path id="path-5" d="M30.1,54.3a6.87,6.87,0,0,1-2.4-.5L3.8,43.5a6,6,0,0,1,0-11A1.52,1.52,0,1,1,5,35.3a3.08,3.08,0,0,0,0,5.6L28.9,51.3a3.31,3.31,0,0,0,2.4,0L55.2,40.9a3.08,3.08,0,0,0,0-5.6,1.52,1.52,0,1,1,1.2-2.8,6,6,0,0,1,0,11L32.5,53.9A6.72,6.72,0,0,1,30.1,54.3Z" transform="translate(0 0.02)" style="fill-rule:evenodd"/><path id="path-6" d="M30.1,41a4.92,4.92,0,0,1-2.1-.4L7.6,31.7a1.52,1.52,0,0,1,1.2-2.8l20.4,8.9a2.12,2.12,0,0,0,1.9,0l20.4-8.9a1.52,1.52,0,0,1,1.2,2.8L32.3,40.6A8.51,8.51,0,0,1,30.1,41Z" transform="translate(0 0.02)" style="fill-rule:evenodd"/></g></svg>