<svg id="Layer_1" data-name="Layer 1" xmlns="http://www.w3.org/2000/svg" viewBox="0 0 46 65"><title>highlight-4</title><g id="group-2svg"><path id="path-1" d="M46,57a8,8,0,0,1-8,8H14a8,8,0,0,1-8-8V13a8,8,0,0,1,8-8H38a8,8,0,0,1,8,8Z" style="fill:#ff917b;fill-rule:evenodd"/><path id="path-2" d="M6,56H46V13H6Z" style="fill:#e56a77;fill-rule:evenodd"/><path id="path-3" d="M33.5,63H9.5A9.5,9.5,0,0,1,0,53.5V9.5A9.56,9.56,0,0,1,9.5,0h24A9.56,9.56,0,0,1,43,9.5v44A9.5,9.5,0,0,1,33.5,63ZM9.5,3A6.49,6.49,0,0,0,3,9.5v44A6.49,6.49,0,0,0,9.5,60h24A6.49,6.49,0,0,0,40,53.5V9.5A6.49,6.49,0,0,0,33.5,3Z" style="fill-rule:evenodd"/><path id="path-4" d="M41.5,54H1.5A1.54,1.54,0,0,1,0,52.5V9.5A1.54,1.54,0,0,1,1.5,8h40A1.54,1.54,0,0,1,43,9.5v43A1.54,1.54,0,0,1,41.5,54ZM3,51H40V11H3Z" style="fill-rule:evenodd"/><path id="path-5" d="M24.2,5.7a2,2,0,1,1-2-2A2,2,0,0,1,24.2,5.7Z" style="fill-rule:evenodd"/><path id="path-6" d="M25,58H20a1.5,1.5,0,0,1,0-3h5a1.5,1.5,0,0,1,0,3Z" style="fill-rule:evenodd"/><path id="path-7" d="M9.7,43.7a1.5,1.5,0,0,1-1.1-.4,1.45,1.45,0,0,1,0-2.1L31.5,18.3a1.48,1.48,0,0,1,2.1,2.1L10.7,43.2A1.39,1.39,0,0,1,9.7,43.7Z" style="fill-rule:evenodd"/><path id="path-8" d="M22.3,42.3a1.5,1.5,0,0,1-1.1-.4,1.45,1.45,0,0,1,0-2.1l6.6-6.6a1.48,1.48,0,1,1,2.1,2.1l-6.6,6.6A1.53,1.53,0,0,1,22.3,42.3Z" style="fill-rule:evenodd"/></g></svg>