<svg id="Layer_1" data-name="Layer 1" xmlns="http://www.w3.org/2000/svg" viewBox="0 0 66.5 64.5"><title>highlight-2</title><g id="group-46svg"><path id="path-1" d="M66.5,34.5a30,30,0,1,1-30-30A30,30,0,0,1,66.5,34.5Z" style="fill:#edc951;fill-rule:evenodd"/><path id="path-2" d="M35.3,28.8l11.3,6.3L35.3,41.4a1.94,1.94,0,0,1-2.6-1.7V30.5A1.94,1.94,0,0,1,35.3,28.8Z" style="fill:#fff;fill-rule:evenodd"/><path id="path-3" d="M28.9,40a3.24,3.24,0,0,1-3.2-3.3V27.5a3.31,3.31,0,0,1,3.2-3.3,5,5,0,0,1,1.2.2c.1,0,.1.1.2.1l11.1,6.3a1.46,1.46,0,0,1,0,2.6L30.3,39.7c-.1,0-.1.1-.2.1A5,5,0,0,1,28.9,40Zm0-12.8c-.1,0-.2.1-.2.3v9.2a.32.32,0,0,0,.3.3l8.7-4.9-8.8-4.9Z" style="fill-rule:evenodd"/><path id="path-4" d="M31.5,63A31.5,31.5,0,1,1,63,31.5,31.5,31.5,0,0,1,31.5,63Zm0-60A28.5,28.5,0,1,0,60,31.5,28.55,28.55,0,0,0,31.5,3Z" style="fill-rule:evenodd"/></g></svg>