<?xml version="1.0" encoding="utf-8"?>
<!-- Generator: Adobe Illustrator 23.0.3, SVG Export Plug-In . SVG Version: 6.00 Build 0)  -->
<svg version="1.1" id="Layer_1" xmlns="http://www.w3.org/2000/svg" xmlns:xlink="http://www.w3.org/1999/xlink" x="0px" y="0px"
	 viewBox="0 0 1257.5 255.8" style="enable-background:new 0 0 1257.5 255.8;" xml:space="preserve">
<style type="text/css">
	.st0{fill:#FFFFFF;}
</style>
<title>Beaver Builder</title>
<path class="st0" d="M106,230.8c-2.2-1.4-4.4-2.9-6.7-4.2c-26.3-14.3-52.5-28.9-75-49c-7.2-6.6-13.7-14.1-19.2-22.1
	c-6.9-9.7-6.8-20.1,0.1-30.2c12.1-18,26.7-34.2,43.3-48.1c2.2-1.9,6.4-3.1,9-2.4c10.8,3,21.4,6.7,32.1,10.4c3,1,5.7,2.7,9,4.3
	c3.6-7.7,7.2-15.2,10.6-22.9c0.5-1.2,0.1-3.2-0.5-4.5c-0.7-1.6-2.2-2.9-3.3-4.4c-3.9-5.2-3.9-6.3,0.5-11.1c0.7-0.9,1.5-1.8,2.4-2.5
	c4.2-2.9,6.7-7.8,6.6-13c0-6.6,4.2-11.4,9.4-14.5c6.7-3.9,13.7-7.3,21-10c12.4-4.6,25.6-6.8,38.9-6.5c12.6,0.3,22.6,4.5,28.9,15.2
	c4.1,7,9.1,11,17.5,10.6c4.7-0.2,6.4,2.8,5.4,7.3c0.5,0.1,1,0.3,1,0.2c6.4-7.5,7.4-7.7,16.6-3.5c11.4,5.2,12,7.1,5,17.1
	c-2.2,3.1-2.1,5.7-0.4,9.1C268.8,77,279.1,98,289.5,119c0.4,0.9,0.8,1.8,1.1,2.8c3.7,10.4,3,12.3-5.7,18.9c-1.7,1.2-2.9,3-3.5,5
	c-4.5,26.8-16.5,49.6-35.6,68.9c-0.7,0.7-1.2,1.5-2.6,3.1c4.4,0.3,7.9,0.3,11.4,0.9c3.1,0.7,6.2,1.6,9.2,2.8l-3.7,8.4l-22,17
	c2-3.4,4.1-6.8,6-10.3c0.6-1.2,1.1-3.2,0.5-4.1s-2.6-1.4-3.9-1.3c-4.9,0.5-9.8,1.5-14.8,2.1c-3.1,0.4-6.3,0.4-10.1,0.6
	c10.1-13,20.2-24.7,28.9-37.4c8.9-12.9,14.4-27.4,15.3-43.3c-6.4-0.5-10.3,2-11.7,7.9c-0.3,0.9-0.8,1.8-1.3,2.7
	c-9.1,16.7-21.5,30.7-35.8,43c-9.3,5-19.1,3.9-28.7,1.4c-3.6-0.9-7.8-3.9-9.5-7.1c-7.3-13.3-13.8-26.9-20.2-40.6
	c-1.1-2.8-3.5-5-6.4-5.9c-8.2-3.4-16.6-6.8-24.2-11.4c-7.3-4.4-8-9-4.2-16.6c5.5-10.9,13.3-20.4,22.9-28c1-0.8,2.3-1.3,4.7-2.5
	c-2.6,7.8-4.8,14.2-6.9,20.6c-1.6,4.8-0.7,8.7,3.6,11.8c14.3,10.4,29.6,14.4,46.3,6.5c7.2-3.4,13.7-8.2,20.4-12.3l9.8-0.9
	c4.1,3.3,7.9,6.9,12.3,9.7c15.4,9.6,30,5.3,42.7-3.9c4.7-3.4,5.8-7.4,3.8-13c-6.1-17-14.6-32.7-24.1-48.1c-8.6-14-21-18.7-36.4-17.5
	c-19.2,1.6-38.4,3.4-57.6,5.6c-8.2,0.9-15.5,2.2-20.4-7.2c-3.4-6.4-5.5-6.2-11.2-1.3c-8.7,7.4-8.8,7.8-1.5,16.4
	c2.4,2.8,3.4,5.4,1.1,8.9c-11.1,17-19,35.5-25.8,54.5c-6.2,17.4-8.2,35.4-1.8,53.3c1.3,3.7,4.3,7,7.1,9.9c2.2,2.3,4.8,1.3,5.8-1.7
	s1.3-6.2,2.3-9.2c0.7-1.9,1.6-3.7,2.6-5.4c2,1,4.4,1.7,5.9,3.2c3.9,4,4.6,11.7,1.9,16.4c-2.4,4.4-7.9,6.9-14,4.8
	c-5.8-2-11-5.8-16.4-8.7c-4.7-9.4-9.2-18.9-9.7-29.6c-0.2-4.8-2.8-6.6-6.9-8.1c-2.1,5.2-4.2,10.2-6.2,15.2l16.4,14.8l-1.1,1.6
	L69.7,172c-1.9,4.4-3.8,8.8-5.7,13.1l9.1,6.9c2-4,3.6-7.2,5.3-10.5c1.2,1,1.5,1.7,1.3,2.2c-5.3,10,0.4,15.4,8.3,19.9
	c1,0.6,1.9,1.4,2.9,2c9.8,6.1,19.5,12.1,29.3,18.2c3.4,2.2,5.7,4.6,4.3,9.4c-2.8,10.1-2.4,10.4,7.8,13.5c1.3,0.4,2.6,0.7,3.9,1
	c11,2.2,11.3,2,9.7-9.2l9.3,7.3c0.7,1.1,1.4,2.2,2,3.4c0.8,1.8,1.3,3.6,1.9,5.4c-1.7,0.5-3.4,1.5-5,1.4c-11.7-1-23.6-1.4-35-3.6
	c-13.4-2.7-14-4.1-10.9-16.1c0.2-0.6,0.6-1.5,0.3-1.9C107.7,233,106.9,231.8,106,230.8z M69,143.8l-4.1-3.2
	c-9.4,16-8.1,12.4-0.8,18.2l3.7,3.5l7.3-14.5L69,143.8z M71,137.8l6.3,5.6l2.5-1.8l3.7,7.6l1.5-0.6c-0.7-13.4,1.9-26.3,5.9-39
	c2-5.6,4-11.1,6.1-17c-10.5-3-20.5-6.2-31.1-5.9L65.5,88l5.9,2.7c0.9,1.5,2,3.2,3.1,4.9c0.9,1.3,1.8,2.7,2.6,4l-7.5-3.8
	c-1.9,3.2-3.7,6.3-5.7,9.6l9.9,8c2.6-4.3,4.8-8.1,7.1-11.9l4.8-6l1.3,0.9c-2.7,5.6-5.5,11.1-8,16.7c-0.6,1.3-0.1,3-0.2,4.5
	c1,1.4,2,2.8,4,5.4l-5.9-1.4c-1,0.3-2.5,0.3-2.9,1c-1.8,2.8-3.1,5.9-4.9,8.7S67.8,136.3,71,137.8L71,137.8z M213,161.7l-14.8,42.9
	l0.9,1.4c3.6-1.7,7.7-2.7,10.5-5.2c4.3-3.8,7.7-8.7,11.4-13.1c8.9-10.8,16.4-22.4,21.2-34.6L219.3,132L213,161.7z M200,177.8
	c4.2-14.9,6.9-30.1,8.3-45.5c-13.2,11.4-26.5,20.3-42.5,25.4c2.4,10.3,5.7,20.1,11.1,29.2c3.9,7.4,6.5,16,17,18.3
	C196,195.7,198.1,186.7,200,177.8L200,177.8z M181.7,24.8c-3.1-5.2-5.4-9.2-7.8-13.1c-3.4-5.4-7.7-7.9-14.6-6.1
	c-10.6,2.7-21.1,5.2-29,13.4c-2.4,2.5-3.9,6-5.9,9l1.2,0.8c0.8-0.5,1.7-1,2.5-1.5c6.9-4.4,8.2-4.3,13.9,1.8c2.7,2.9,5.2,5.9,8.3,9.3
	c7.2-11.7,18-14.4,31.5-13.7L181.7,24.8z M167.3,38.8h55.5C220,25.5,180.7,27.5,167.3,38.8z M207.8,23.7C199.9,9,191,3.5,177.5,5.1
	c2.4,2.7,5.6,4.9,6.7,7.9c4.1,10.8,12.4,12.1,22.2,11C206.8,24,207.1,23.9,207.8,23.7z M63,131.4c2.9-4.9,5.4-9.1,8.1-13.5
	l-10.3-7.5L53,122.8L63,131.4z M41.6,140.4l10.4,8.5c8.7-12,8.7-12-1.9-19.1c-0.2-0.2-0.6-0.1-1.5-0.2L41.6,140.4z M58.1,179.3
	c8.2-12,8.2-11.2-4.1-18.4C47.3,170.8,47.7,172.5,58.1,179.3L58.1,179.3z M46.5,99.2l-7.9,9.7l9.3,8.6l8-10.9L46.5,99.2z M33,116.8
	l-6.3,11.3l8.7,7.1l7.5-10.8L33,116.8z M37.7,147.6c-6.1,7.4-7.2,5.3,4.4,16.7l6-8.7L37.7,147.6z M66,93.9
	c-7.7-6.8-10.7-6.5-14.4,1.2l7.9,6.8L66,93.9z M25,137.7l-1,0.7c1,2.6,2.1,5.2,3.4,8.6c1.4-2.1,2.3-3.5,3.3-5.1L25,137.7z"/>
<path class="st0" d="M1118.7,190.9v14.7c-6.5,0-13,0.3-19.4-0.1c-4.3-0.2-5.8-2.6-6.6-9.3c-5.3,6.8-11.8,10.6-20,11.3
	c-13.3,1.1-25-5-30.4-17.3c-6.7-15-6.7-30.3,2-44.5c8.9-14.4,27.8-18.9,42.2-10.1c2,1.2,3.8,2.6,5.4,4.2c0-6.3,0.6-12.1-0.4-17.6
	c-0.3-1.6-4.8-2.5-8.1-4.2v-13.5c6.5,0,13-0.3,19.4,0.1c4.8,0.3,7.2,3.4,7.2,9c0.1,11.5,0,23,0,34.5v33
	C1110.1,190.1,1110.1,190.1,1118.7,190.9z M1093.6,170.6l-1.3-0.6c-0.1-2-0.2-4-0.4-6c-1.5-9.7-7.7-16.2-16.2-16.9
	c-8.3-0.7-15.4,4.1-18.1,12.6c-2.5,7.7-2.3,15.4,1.3,22.8c5.7,11.3,20.6,13.4,28.1,3.6C1090.3,181.9,1091.5,175.9,1093.6,170.6
	L1093.6,170.6z"/>
<path class="st0" d="M336.1,198.3v7.3h-17v-77.3c0-8.2,0-8.2-8.6-8.8v-14.6c6.8,0,13.8-0.5,20.6,0.2c4.4,0.4,6,4.2,6,8.5v27.6
	c6-6,12.6-9.5,20.8-9.7c13.4-0.4,23.2,5.4,28.9,17.4c6,12.3,6.3,26.7,0.9,39.3c-7,17.1-26.9,24.6-42.8,16.5
	C341.9,203,339.3,200.6,336.1,198.3z M336.3,169.1l0.5,0.1c0.1,1.8,0.1,3.7,0.3,5.5c1.2,9.2,7,15.9,14.8,17.3
	c7.6,1.5,15.3-2.4,18.5-9.6c4.2-8.5,3.9-18.6-0.8-26.8c-3.2-5.9-8.6-8.7-15.3-8.4c-7.1,0.3-12.4,3.9-15.1,10.4
	C337.7,161.2,337.2,165.2,336.3,169.1z"/>
<path class="st0" d="M780.8,205.5v-76.6c0-8.7,0-8.7-8.9-9.7v-14.6c6.8,0,13.2-0.3,19.6,0.1c4.9,0.3,7.3,3.6,7.4,9.5
	c0.1,8.6,0,17.3,0,26.6c5.5-5.2,11.2-8.8,18.5-9.4c15.6-1.2,27.3,6.1,32.6,20.8c4.2,11.2,4.2,23.5-0.2,34.7
	c-7.1,18.4-28.4,26.3-44.9,16.7c-2.4-1.6-4.7-3.3-6.8-5.2v7L780.8,205.5z M835.6,171.5c-1.1-5.3-1.5-9-2.7-12.4
	c-2.8-7.8-9-12.1-16.6-12c-7.8,0.1-14.1,4.9-16.5,12.8c-2.5,8.3-2.3,16.5,2.3,24.1c6.1,10.1,20.3,11.4,27.3,1.9
	C832.7,181.5,833.9,175.6,835.6,171.5z"/>
<path class="st0" d="M919,133.1h18c0.1,1.8,0.2,3.5,0.2,5.3c0,14.7,0,29.3,0,44c0,8.1,0,8.1,8.5,8.4v15c-6.2,0-12.3,0.2-18.4-0.1
	c-4.8-0.2-7.2-2.9-7.5-7.6c-0.1-1.4,0-2.9,0-5.4c-7.5,11.7-17.5,16.3-30.1,14.7c-11.8-1.5-18.9-8.6-19.8-20.8
	c-0.8-9.8-0.6-19.6-0.7-29.4c-0.1-8.2,0-8.2-8.3-9.2V133c6.4,0,12.5-0.3,18.6,0.1c5.5,0.3,7.6,2.7,7.7,8.5c0.3,9.5,0.1,19,0.2,28.5
	c0,2.5,0,5,0.1,7.5c0.8,13,10.7,17.8,21.6,10.3c6.7-4.6,9.6-11.4,9.8-19.3C919.2,157,919,145.3,919,133.1z"/>
<path class="st0" d="M552.8,190.7v14.9c-6.3,0-12.5,0.2-18.5-0.1c-5.2-0.3-6.7-4.2-7.1-9.8c-4.7,6.4-10.1,10.1-17,11.4
	c-17,3.3-31.4-9.2-29.3-25.7c0.8-6.3,4.2-10.7,9.5-13.9c6.7-4.1,14.3-6.4,22.2-6.9c4.3-0.3,8.6-0.6,13.3-0.9
	c0.5-5.1-0.3-9.6-4.9-12.6c-3.7-2.4-13.7-2.5-16.3,0.1c-1.3,1.4-1.6,3.7-2.6,6.3h-15.4c-2.4-11.8,1.3-18.7,13-20.4
	c8.7-1.3,17.5-1.3,26.2,0c10.9,1.8,17.6,10.4,18.2,21.5c0.6,9.3,0.4,18.6,0.4,28C544.5,190.4,544.4,190.4,552.8,190.7z M526,171.4
	c-7.7,1.6-15,2.2-21.8,4.6c-6.6,2.4-7.7,11.3-2,14.9c3.4,1.9,7.3,2.6,11.2,1.9C521.2,191.2,526.3,182.7,526,171.4z"/>
<path class="st0" d="M419.8,172.3c0.1,16.1,20.3,28.7,42,12l7.4,12.1c-11,11.4-33.3,14.5-48.1,7c-14.5-7.3-22.6-24.3-19.6-41.3
	c3.8-21.7,22.2-34.4,43.9-30.3c13.7,2.7,23.7,14.6,24.7,29.5c0.2,3.5,0,7,0,11H419.8z M451,159.6c-0.1-7.8-4.7-13.4-11.4-14.1
	c-9.7-1.1-17,4.2-19.2,14.1H451z"/>
<path class="st0" d="M1196,172.5h-50.2c0.4,8,4,13.5,10.5,17.1c9.1,5,19.7,3.3,31.5-5.2c2.5,4.1,5,8.1,7.4,12.1
	c-10.9,11.4-33.3,14.5-48.1,7c-14.5-7.3-22.6-24.3-19.6-41.3c3.8-21.8,22.2-34.5,43.9-30.3c13.3,2.5,23.3,14,24.6,28.5
	C1196.3,164.2,1196,168.2,1196,172.5z M1177.2,159.7c-0.5-8.7-5.4-14-12.8-14.3c-9.4-0.4-16.4,5.2-17.8,14.3H1177.2z"/>
<path class="st0" d="M704.2,172.7h-49.7c2.5,20.1,20.2,25,42.3,11.9l7.5,12.3c-13.5,10.3-28.1,13.6-44.1,8.3
	c-13.9-4.6-23.6-18.1-24.2-32.9c-0.9-19.2,8-33.7,23.8-39C686.6,124.3,709.7,144.4,704.2,172.7z M655.2,159.7h30.6
	c0-7.7-4.7-13.4-11.4-14.1C664.7,144.4,657.2,149.8,655.2,159.7L655.2,159.7z"/>
<path class="st0" d="M556.3,147.6v-14.5c0.7-0.1,1.4-0.2,2.1-0.3c15.5-0.6,16.4,0,21.6,14.6c4.6,13.1,9.2,26.3,13.8,39.4
	c1.6-4.8,3.2-9.9,5-15c3.4-9.7,6.9-19.4,10.3-29.1c3-8.4,5.1-9.8,13.9-9.9c2.3,0,4.6,0,7.3,0v14.5l-1-0.8c-2,2.8-4.6,5.4-5.9,8.5
	c-6.1,15.4-12,31-17.7,46.6c-1.1,3.1-2.5,4.5-6.1,4.2c-5.6-0.4-12.6,1.7-16.6-0.9s-4.7-9.8-6.8-15c-4.6-11.9-8.9-24-13.7-35.8
	c-1.1-2.7-3.5-4.8-5.3-7.2L556.3,147.6z"/>
<path class="st0" d="M1029.8,190.7v15c-6.5,0-12.8,0.2-19-0.1c-5-0.2-7.4-3-7.6-8.6c-0.2-6-0.1-12-0.1-18c0-16.8,0-33.6,0-50.4
	c0-8.5,0-8.5-8.6-9.2v-14.7c6.7,0,13.5-0.4,20.2,0.1c4.7,0.4,6.5,4.1,6.5,8.6c0,8.8,0,17.6,0,26.5c0,14.1,0,28.3,0,42.4
	C1021.2,190.4,1021.2,190.4,1029.8,190.7z"/>
<path class="st0" d="M741,205.6h-18.7v-47.8c0-8.7,0-8.7-8.5-10.1v-14.4c6.7,0,13.3-0.3,19.8,0.1c4,0.2,6,3.3,6.3,7.2
	c0.2,2.4,0,4.8,0,8.7c4.8-9.7,10.7-16,20.6-17.3c5.5-0.7,5.9-0.4,5.9,5.3c0,3.8,0,7.6,0,11.6c-0.6,0.2-1.3,0.4-2,0.5
	c-14.4,0.2-22.7,7.8-23.4,22.2C740.5,182.8,741,193.9,741,205.6z"/>
<path class="st0" d="M1231.4,148.1c6.5-10.7,13.9-17.3,26.1-15.9V149c-0.4,0.2-0.8,0.4-1.2,0.5c-15.8,0.4-23.8,8.1-24.3,24
	c-0.3,9-0.1,18-0.2,27c0,1.6,0,3.2,0,5.1h-18.2V157c0-8.3,0-8.3-8.5-9v-15c5.9,0,11.9-0.3,17.8,0.1s7.9,3,8,9.2
	C1231.1,143.7,1231.2,145.1,1231.4,148.1z"/>
<path class="st0" d="M953,147.8v-14.4c6.8,0,13.5-0.3,20.2,0.1c4.5,0.3,6.1,3.8,6.2,7.8c0.2,7.1,0.2,14.3,0.2,21.5
	c0,6.5,0,13,0,19.5c0,8.2,0,8.2,8.3,8.5v14.9c-6.5,0-13,0.2-19.4-0.1c-3.7-0.1-6.3-2.4-6.6-6.2c-0.4-4.6-0.5-9.3-0.5-13.9
	c-0.1-9.3,0-18.6,0-28C961.3,149,961.3,149,953,147.8z"/>
<path class="st0" d="M976.7,120.7h-14.2v-16h14.2L976.7,120.7z"/>
<path class="st0" d="M208.9,122.6c0.8-1.6,1.5-3.3,2-5.1c0.3-1.5,0.1-3.1-0.5-4.5c-0.3-0.6-3.1-0.6-3.5,0c-0.7,1-0.5,2.7-0.5,4.1
	c0,0.7,0.4,1.4,1,3.5c-3.4-3.4-5.9-5.8-8.3-8.3c-2.6-2.8-1.4-5.2,1.5-6.2c8.2-2.8,16.6-3.3,25-0.4c3.3,1.1,4,3.5,1.9,6.2
	c-2.7,3.4-5.8,6.5-8.7,9.8L208.9,122.6z"/>
<path class="st0" d="M168.4,89.5c0.1-3.9,3.9-7.8,7.7-7.7c2.9,0,7.6,5,7.8,8.2c0.1,3.5-4.2,7.6-8,7.5S168.4,93.4,168.4,89.5z
	 M182.5,89.7c-3.1-1.9-4.8-3.7-6.6-3.8c-1.2-0.1-2.6,2.2-3.9,3.5c1.4,1.4,2.7,3.7,4.4,4C177.8,93.7,179.6,91.6,182.5,89.7
	L182.5,89.7z"/>
<path class="st0" d="M248,88.2l2.8-1c1,4.5,0,7.7-4.3,9.5c-3.6,1.6-6.6,0.3-8.8-2.4c-2.4-2.6-2.4-6.5-0.1-9.1
	c2.7-3.3,6.1-4.3,10.5-1.7c-0.8,1.3-1.5,2.4-2.2,3.6c-1.7-0.2-3.6-1-4.9-0.4c-0.9,0.4-1.6,3.1-1.1,4.1c0.8,1.5,2.3,2.4,3.9,2.7
	C247.2,93.7,248.1,91.2,248,88.2z"/>
<path class="st0" d="M248,88.2c0.1,3-0.8,5.5-4.2,5.3c-1.7-0.3-3.1-1.2-3.9-2.7c-0.5-1.1,0.2-3.7,1.1-4.1c1.3-0.6,3.3,0.2,4.9,0.4
	L248,88.2z"/>
<path class="st0" d="M182.5,89.7c-2.9,1.9-4.7,3.9-6,3.7c-1.7-0.3-3-2.6-4.4-4c1.3-1.2,2.7-3.6,3.9-3.5
	C177.8,86,179.5,87.8,182.5,89.7z"/>
</svg>
