<?xml version="1.0" encoding="UTF-8"?> <!-- Generator: Adobe Illustrator 19.0.0, SVG Export Plug-In . SVG Version: 6.00 Build 0) --> <svg xmlns="http://www.w3.org/2000/svg" xmlns:xlink="http://www.w3.org/1999/xlink" id="Layer_1" x="0px" y="0px" viewBox="0 0 457.3 109.7" style="enable-background:new 0 0 457.3 109.7;" xml:space="preserve"> <style type="text/css"> .st0{fill:#FFFFFF;} </style> <g> <path class="st0" d="M12.1,56.2c0.1-1.4-0.8-2.2-1.6-2.9c-4.9-4.1-1-6.8,1.5-9.7c2.7-3.1,5.2-3.3,8.3-0.2 c3.3,3.3,11.5,0.3,11.5-4.3c-0.1-7.2,4.8-5,8.5-5.4c4.3-0.5,4.8,1.9,4.8,5.5c-0.1,3.3,7.5,7.2,10.3,5.5c0.9-0.6,3.1-1.6,1.7-2.8 c-2.9-2.5-2.7-5.2-2.2-8.4c0.2-1.6-0.8-2.9-2.6-3.7c-3.5-1.6-3.5-4.7,0-6.4c2.9-1.4,3.5-2.9,2.4-5.9c-1.2-3.1,0.9-5.2,4.2-4.3 c3.3,1,5.2,0.8,6.5-2.9c0.9-2.5,5.1-2.3,6.2,0.3c1.2,2.9,2.9,3.6,5.8,2.8c4.3-1.2,6,0.6,4.4,4.7c-1,2.5,0.2,3.6,2,4.8 c3.2,2.2,3.2,4.6,0,7c-1.9,1.4-2.7,3.1-2,5.6c1.2,4-0.2,5.6-4.1,4.8c-4.5-0.8-9.2,3.6-8.3,8.3c0.3,1.7-0.7,2.4-1.5,3.4 c-4.5,5.6-2.7,11.3,4.2,12.4c6,1,3.4,5.5,3.8,8.6c0.4,3-0.6,5.3-4.4,4.9c-4.8-0.6-4.2,3.8-5.7,6.2c-1.3,2.2-1.6,4.4,0.9,6.1 c3.9,2.6,2.2,5.1-0.3,7.2c-2.5,2.1-4.5,7.4-9,2.6c-1.8-1.9-3.7-2.6-6.1-1c-2.6,1.7-6.9,1.5-6.3,6.4c0.4,3.4-1.4,4.4-4.4,4.3 c-4.3-0.1-9.2,1.5-8.8-6.1c0.2-3.6-9-6.4-11.6-3.5c-3.5,3.9-5.7,1.6-7.9-1c-2.1-2.5-6.7-4.7-2-8.7c3-2.6,1.2-5,0.2-7.6 c-1-2.5-1.9-5.1-5.4-4.8c-6.6,0.5-4.5-4.4-4.9-7.9c-0.4-3.7,0.4-6,4.9-6C8.7,64.1,12.1,60,12.1,56.2z M60.1,71.9 c1.7-12.1-12.9-22.6-22.2-22.2C26.7,50.3,16,60.8,16.2,71.8c0.2,11.9,10.8,22.1,22.7,22C50.6,93.7,60.3,83.6,60.1,71.9z M68.2,32.8 c4,0.3,5.9-2.1,6.5-5.5c0.5-2.9-3.4-6.7-6.3-6.6c-3.9,0.2-5.8,3-6,6.2C62.1,30.4,64.4,32.7,68.2,32.8z"></path> <path class="st0" d="M378.1,57.6c-2.4,8.2-4.8,16-7,23.8c-0.7,2.5-2.2,4-4.8,4.4c-3.4,0.5-6.1,0-7.2-4.2c-2.2-8.4-4.7-16.6-7-25 c-0.7-2.5-1.5-4.8-4.3-5.5c-2.2-0.6-2.8-2.1-2.4-4.2c0.4-2.3,2.3-2,3.9-2.2c7.9-0.7,8.6-0.2,10.7,7.5c1.8,6.8,3.8,13.6,6.1,21.8 c3.2-6.3,3.9-11.7,5.7-16.9c0.8-2.2,1.4-4.5,1.9-6.7c0.8-3.2,1.8-5.9,6.1-5.8c4.1,0.1,5.3,2.4,6.2,5.8c2,7.5,4.2,15,6.9,22.7 c3.6-6.1,5.8-12.7,7.4-19.5c0.4-1.7-1.2-2.2-2.4-2.7c-1.7-0.7-1.9-2-1.7-3.7c0.3-2,1.7-2.2,3.2-2.5c9.2-1.6,10.7,0.3,7.8,9.2 c-2.8,8.5-5.4,17.1-8,25.7c-1.1,3.5-2.1,6.4-7,6.1c-4.6-0.2-5.5-3.1-6.3-6.3c-1.4-5.3-2.6-10.6-4.1-15.9 C381.1,61.5,381,59.2,378.1,57.6z"></path> <path class="st0" d="M418.8,74.1c0-5,0.2-10-0.1-15c-0.2-3.4,0.9-7.7-4.5-8.6c-1.4-0.2-1.4-1.8-1.1-2.9c0.3-1.3,1-2.7,2.6-2.5 c3.9,0.4,8.3-1.8,11.5,2.6c1.7,2.3,3.4,0,4.7-0.8c4.1-2.7,8.4-3.9,13.2-2.5c6.8,2,10.6,6.8,11.6,13.6c0.8,5.6,0.7,11.3-1.1,16.8 c-3.1,9.4-12.5,14.2-21.9,11.2c-6.1-2-6.5-1.8-6.6,4.7c-0.1,8-1,8.4,6.9,8.3c2,0,3.8,0.5,3.8,2.9c0,2.5-1.9,2.9-3.8,2.9 c-5.7,0.1-11.3,0.1-17,0.1c-1.5,0-3-0.2-3.6-2c-0.6-1.9,0.5-3,1.8-3.6c2.7-1.1,3-3.2,3-5.7c0-6.5,0-13,0-19.5 C418.5,74.1,418.7,74.1,418.8,74.1z M447.8,66.6c0-1.9,0.1-3.3,0-4.6c-0.5-6.5-3.8-10.7-8.7-11c-6-0.4-10,3.1-11.4,10 c-0.6,3.3-0.8,6.6-0.6,9.9c0.4,6.3,3.3,9.1,10.2,9.7c3.8,0.3,8.6-3.4,10-7.7C448,70.6,447.8,68.3,447.8,66.6z"></path> <path class="st0" d="M219,51.3c0,6.7,0,13.3,0,20c0,3.5-0.9,7.2,3.8,9.1c1.8,0.7,2,4-0.4,4.8c-3.2,1-7,2.2-9.6-1.3 c-1.5-2-2.6-2-4.5-0.8c-1.4,0.9-2.9,1.6-4.4,2.2c-9.7,4.2-19.1-0.2-21.9-10.4c-1.8-6.4-1.6-12.9,0.5-19.2c3-9.2,12.6-13.9,22-10.9 c5.2,1.7,5.5,1.5,5.5-4c0-4.4,1.4-9.2-4.1-12.2c-1.5-0.9-2.1-4.4,1.9-4.8c0.2,0,0.3,0,0.5,0c10.5-1.2,10.8-1,10.8,9.6 C219,39.3,219,45.3,219,51.3z M209.9,64.1C209.9,64.1,210,64.1,209.9,64.1c0.1-1.5-0.1-3,0.1-4.5c0.9-5.4-2.3-7.4-6.7-8.6 c-5.4-1.4-10.5,1.1-12.4,6.4c-2,5.5-2,11.1,0.3,16.5c1.9,4.7,5.4,6.5,10.4,5.6c5-0.9,8.1-4.1,8.3-9C210,68.4,209.9,66.3,209.9,64.1 z"></path> <path class="st0" d="M337,65.9c0,2.5,0,5,0,7.5c-0.1,3.1-0.1,6,4.1,6.5c1.7,0.2,1.7,1.8,1.8,3.1c0.1,1.6-1,1.9-2.2,2.2 c-5.3,1.4-10.6,0.5-15.9,0.5c-1.6,0-1.6-1.4-1.8-2.6c-0.2-1.4-0.2-2.9,1.4-3.3c3.5-0.9,3.4-3.5,3.3-6.3c-0.1-4.7,0-9.3,0-14 c0-3.7-1.4-6.6-5.2-7.5c-3.8-0.9-7.3-0.3-9.8,3.1c-1.9,2.5-2.6,5.3-2.7,8.4c0,3.7,0.2,7.3-0.1,11c-0.2,3,0.7,4.9,3.8,5.1 c2.8,0.2,3.1,1.8,3,4.1c-0.1,2.7-2.1,2.1-3.6,2.1c-4.3,0-8.7,0.1-13-0.1c-1.7-0.1-3.7-0.1-4.2-2.6c-0.4-2.5,0.9-3.2,3-3.5 c1.9-0.3,2-1.9,2.2-3.4c1-6.6,0.8-13.3,0.4-19.9c-0.2-2.5-0.5-5-3.9-5.4c-1.8-0.2-1.6-1.8-1.6-3.1c0-1.4,0.7-2.4,1.9-2.5 c3.8-0.2,8-1.9,11.2,1.8c1.4,1.6,2.9,1.4,4.5,0.6c1.5-0.7,3-1.5,4.5-2.2c9.4-4.3,18.3,1,18.8,11.2C337.1,59.6,337,62.7,337,65.9 C337,65.9,337,65.9,337,65.9z"></path> <path class="st0" d="M174.1,64.1c0.2,13.7-8.3,22.9-20.9,22.7c-9.1-0.1-16.6-7-17.2-16.1c-0.3-4.6-0.8-9.3,0.8-13.8 c3.3-9.4,12.5-14.7,22.6-13C168.7,45.5,174,52.8,174.1,64.1z M145,64.6c0,2.8-0.1,5.6,0.9,8.4c1.4,4.2,5.6,7.5,9.7,7.2 c4.5-0.3,7.2-3.1,8.3-7.4c1.4-5.1,1.5-10.2,0.1-15.3c-1.5-5.4-6.7-8.3-12-6.8C146.8,52.3,145,55.9,145,64.6z"></path> <path class="st0" d="M265.1,61.3c1,4.3-0.9,6.1-6.1,5.6c-4.8-0.4-9.6,0-14.4,0c-4.7,0.1-6.5,3-3.9,7c2.2,3.5,5.1,6.2,9.7,5.8 c3-0.3,5.9-0.6,8.9-0.8c1.3-0.1,3.2-0.9,3.5,1.5c0.2,1.7,0.2,3.2-1.7,4.2c-8.7,4.7-23.1,1.8-27.6-5.6c-6.3-10.5-3.6-26.6,5.5-32.4 c5.7-3.6,12-4.2,18-1C262.8,48.8,265.4,54,265.1,61.3z M246.5,61.7c2.1,0,3.1,0.1,4.1,0c2.3-0.4,5.5,0.8,6.1-2.7 c0.6-3.2-1.2-6-4-7.4c-2.8-1.4-6.2-1.6-9,0.4c-2.4,1.7-4.8,3.8-3.9,7.4c0.9,3.6,4.1,1.7,6.2,2.3C246.6,61.8,247.1,61.8,246.5,61.7z "></path> <path class="st0" d="M105.1,64.6c-0.3,11.6,4.7,16.1,16.2,14.7c2.5-0.3,6.3-2.3,7.1,1.8c0.7,3.8-3.4,3.9-5.8,4.7 c-8.4,2.6-18.2,0.1-22.9-5.8c-4.7-5.8-5.3-19.4-1.3-26.7c3.6-6.5,11.5-10.4,19.5-9.6c6.9,0.7,11.6,5.4,11.7,11.4 c0,1.5,0.2,3.2-2,3.4c-1.6,0.1-3.6,0.8-4.3-1.3c-2-6-6.5-7.8-11.8-6c-5.2,1.7-6.4,6.7-6.4,11.9C105.1,63.6,105.1,64.1,105.1,64.6z"></path> <path class="st0" d="M285.1,61.6c0,3.5,0,7,0,10.5c0,3.7-0.4,7.6,5.1,7.8c1.5,0.1,1.6,1.4,1.7,2.6c0.2,1.7-0.8,2.6-2.2,2.8 c-5.6,1-11.2,0.5-16.9,0.3c-1.5-0.1-2.2-1.4-2.4-2.8c-0.2-1.5,0.3-2.8,1.9-2.9c3.4-0.3,3.6-2.6,4-5.2c0.8-6,0.7-11.9,0.3-17.9 c-0.2-2.5,0-5.5-3.8-6c-1.7-0.2-1.7-1.9-1.4-3.2c0.3-1.6,1.4-2.7,3.1-2.7c2.5-0.1,5,0,7.5-0.1c2.1-0.1,3,0.8,3,2.9 c-0.1,4.6,0,9.3,0,13.9C285.1,61.6,285.1,61.6,285.1,61.6z"></path> <path class="st0" d="M41.9,0c2.5,2.7,6.2,2.5,7.5,3.9c1.5,1.6,3.1,5.2,2.8,7.3c-0.4,2.3-1.5,6.6-2.9,7c-2.6,0.7-4.8,3.5-6.8,3.1 c-2.4-0.5-5.7-1.7-7-3.3c-1.3-1.6-2.7-4.5-2.8-6.7c-0.2-2.3,1.7-4.8,2.8-7C36.5,2.2,40.7,3.5,41.9,0z M42.4,8.1 c-1.9,0.2-3.1,1.3-3.3,3c-0.2,2.2,1.5,3.3,3.4,3.4c1.7,0.1,3.2-1.1,3.4-3C46.1,9.2,44.2,8.7,42.4,8.1z"></path> <path class="st0" d="M286.1,32.1c-0.2,3.7-1.6,5.6-4.9,5.6c-3.4,0.1-5.3-1.7-5.2-5.1c0.1-3.2,1.8-4.8,5-4.9 C284.3,27.8,285.7,29.7,286.1,32.1z"></path> <path class="st0" d="M37.1,80.6c-1.1-0.3-2.1-0.8-1.6-2.3c1.3-3.9,2.6-7.9,3.9-11.7c0.3-0.9,0.9-2,2.1-1.7c1.1,0.3,1.5,1.2,1.1,2.4 c-1.3,4.1-2.6,8.2-4,12.3C38.5,80.1,38,80.6,37.1,80.6z"></path> <path class="st0" d="M47.2,77.6c-0.3,0.1-0.5,0.2-0.7,0.1c-0.8-0.2-1.8-1.4-1.3-1.5c4.5-1.3-3.5-6.9,2.4-7c2.3-0.1,5.6,1.5,5.5,4.1 C53,76,49.2,76.3,47.2,77.6z"></path> <path class="st0" d="M33.2,75.7c-0.4,0.9-0.6,1.7-0.8,1.7c-2.9,0.3-5.1-1.1-6.9-3.1c-1.8-2,0.3-2.9,1.6-3.7 c1.1-0.7,2.4-1.1,3.7-1.5c1.1-0.4,2.5,0.2,1.9,1.2C31.6,72.4,30.1,74.2,33.2,75.7z"></path> </g> </svg> 