<?xml version="1.0" encoding="utf-8"?>
<!-- Generator: Adobe Illustrator 23.0.3, SVG Export Plug-In . SVG Version: 6.00 Build 0)  -->
<svg version="1.1" id="Layer_1" xmlns="http://www.w3.org/2000/svg" xmlns:xlink="http://www.w3.org/1999/xlink" x="0px" y="0px"
	 viewBox="0 0 614.8 156.2" style="enable-background:new 0 0 614.8 156.2;" xml:space="preserve">
<style type="text/css">
	.st0{fill:#FFFFFF;}
</style>
<title>Elementor Page Builder</title>
<path class="st0" d="M208.2,102.3c3-6.2,6.1-12.5,9.1-18.7c3.8-7.8,9.5-12.8,18.4-13.2c7.6-0.3,10.1,3.3,7.9,10.5
	c-1,3.2-1.1,6.7-1.6,10l1.2,0.6c3.7-5.7,7.4-11.3,11.2-17c2.5-3.7,4.9-7.6,7.6-11.1c3.8-5,9.2-7.1,15.3-7.2
	c7.3-0.1,10.4,3.6,9.3,10.8c-2,12.7-4.1,25.3-6,38c-0.8,4.9-1.4,9.9-1.9,14.9c-0.1,1.7,0,3.5,0.2,5.2l2.4,1.7
	c0.8-1.8,1.7-3.6,2.7-5.3c7.5-11.4,13-24,16.4-37.3c2.7-10.9,6.4-21.3,13.4-30.3c7.3-9.3,19.3-10.6,28-2.6c8.3,7.7,12,17.5,12,28.6
	c0,6.2-3.1,11.3-8.6,13.6c-6.7,2.7-13.7,4.8-20.8,6.3c-3.2,0.7-4.9,1.7-4.7,4.9c0.3,7.9-0.1,16,1.4,23.8c1.6,8.6,7.9,10.6,15.4,5.8
	c8.4-5.3,14-13.3,18.9-21.6c4-6.5,7.5-13.3,10.5-20.4c1.8-4.5,2-9.7,2.5-14.6c1.2-10.3,4.7-15.2,12.7-17c9.3-2.1,14.3,2.5,12.6,11.8
	c-1.2,6.5-2.8,13-4,19.5c-0.5,2.5-0.2,5,0.7,7.3c0.7-0.8,1.4-1.7,2-2.6c2.4-4.4,4.6-8.8,7.1-13.2c4-6.9,10.4-9,17.8-8.6
	c5.7,0.3,7.1,3.5,6.5,9.2c-1.1,9.8-1.4,19.8-1.9,29.7c-0.1,1.4,0.8,2.8,1.5,5.3c2.1-1.6,4.1-2.4,5.3-3.9c9-11.3,16.6-23.2,16.4-38.6
	c-0.1-7.6,1.1-15.2,1.7-23.4c-1.6-0.1-3.1-0.2-4.5-0.3c-2.2,0-4.3-0.2-6.4-0.6c-3.2-0.8-7-1.8-6.5-6.1c0.4-4.1,4-5,7.4-5.2
	s6.9,0,10.8,0c0.1-2.7,0.3-5.2,0.3-7.6c0-8.6,4.9-13.8,12.5-13.3c8.4,0.5,12,5.4,10.6,14.4c-0.2,1.1-0.3,2.3-0.4,3.5
	c0,0.5,0.3,0.9,0.7,1.8c3,0,6.1-0.2,9.2,0c5,0.4,8.6,3.2,8,6.5c-0.8,4.4-4.5,5.5-8.3,5.8c-3.6,0.3-7.3,0.1-11.4,0.1
	c-1.9,25.6-5.3,50.8-2,76l2,0.6c1.3-1.3,3-2.4,3.7-4c6.1-13.5,11.9-27.1,18.1-40.5c2.7-5.8,5.5-11.8,9.1-17
	c11.1-16,33.3-11.5,42.4-0.1c1.2,1.5,2.4,3.1,3.9,5c3.7-6.5,8.5-11.8,16-8.8c7.1,2.9,2,9.6,2.8,15.3c3.7-0.3,7.4-0.6,11.1-0.8
	c8.7-0.6,10.3,1.6,8.9,10c-1.9,11.8-3.1,23.7-4.6,35.6c-0.1,1.3,0,2.7,0.5,3.9c1.1,3.6,3.5,4.2,5.6,1.1c2.5-3.5,4.5-7.4,6.1-11.4
	c3.8-9.9,7.2-20,10.6-30c1.3-3.8,3.7-5.6,7.5-5c4.1,0.7,4.8,4,4.1,7.3c-3.4,15.2-7.8,30-16.8,43c-4.2,6.1-9.3,11.4-16.9,13.2
	c-8.2,2-14.1-0.7-17.4-8.4c-5.2-12-4.2-24.4-2-36.8c0.7-3.7,1.6-7.4,2.4-11.1c-3.5-1.4-5.6-0.7-6.5,3.1c-0.3,1.1-1.5,2.8-2.4,2.9
	c-4.3,0.5-4.2,3.6-4.8,6.7c-2.5,13.6-8.5,25-22.2,30.3c-13.8,5.3-26.3,1-34.5-11c-0.5-0.7-1.1-1.3-1.7-1.9
	c-4.4,6.8-8.5,13.6-13.2,20c-2.1,2.8-4.8,5-7.9,6.6c-9.8,5-17.8,2.4-21.9-7.8c-2.7-6.8-3.9-14.3-5.8-21.8c-3.2,3.7-6.7,7.6-10,11.5
	c-4.6,5.6-10.5,7.6-17.4,5.9c-7.2-1.8-10.6-7.4-11.8-14c-1.1-6.1-1.3-12.4-2-20c-1.6,2.9-3.2,4.9-3.8,7.1c-2.3,8-4.5,16-6.3,24.1
	c-1.4,6.4-6.4,9.9-14.2,9c-6.3-0.7-9-4.1-8.6-11c0.1-3.4,0-6.8,0-10.7c-5.2,6.8-9.5,13.5-14.8,19.2c-7,7.6-15.8,12.5-26.5,13.3
	c-11.4,0.9-19.4-4-24-14.1c-2.4-5.3-3.9-11.2-5.8-16.9c-2.7,3.8-5.2,7.9-8.3,11.4c-2.9,3.1-6.1,6.3-9.9,8.1
	c-8.6,4.1-16.4,0.1-19-9.1c-3.2-11.5-1.9-23.1-0.2-34.7c0.3-2.3,0.8-4.5,0.1-7.3c-2.4,4.2-4.9,8.4-7,12.7
	c-3.8,7.6-7.2,15.3-10.9,22.9c-0.9,1.9-2.2,3.7-3.8,5.2c-3.3,3-7.5,6-11.6,3.9c-2.3-1.3-3.6-6.1-3.9-9.4c-0.5-8-0.2-16.1-0.2-24.2
	l-1.6-0.3c-0.8,1.5-1.6,3-2.1,4.6c-3,10.5-6.8,21-8.7,31.7c-1.8,10.4-15.6,11.5-20.6,6.7c-1.5-1.5-2.3-4.3-2.4-6.6
	c-0.3-5.7-0.1-11.5-0.1-17.2l-1.4-0.3c-1.3,2.2-2.5,4.5-3.9,6.7c-7.6,12-17.1,21.7-31.4,25.3c-14.1,3.6-23.9-1.2-30.2-14.4
	c-1.1-2.3-2.1-4.7-3.5-8c-1.3,2.2-2.1,3.7-3,5.2c-3.5,5.8-6.4,12-10.7,17.2c-8.7,10.5-22.6,8.2-27.2-4.5c-2.9-8-4.3-16.6-6.5-25.3
	c-0.6,1-1.5,2.3-2.3,3.5c-5.2,8.5-11.4,16-19.9,21.3C31,154.9,8.6,155.4,2.4,127.4C-3,102.7,0.5,78.6,14.3,56.8
	c8.9-14.1,23.2-14.6,33.8-1.7c5.4,6.6,7.8,14.3,8.4,22.6s-3.9,14.2-11.3,17C39,97.2,32.4,98.1,26,99.9c-1.4,0.4-3.6,1.5-3.6,2.3
	c0.1,8.8-0.5,17.7,1.1,26.2c1.7,8.9,8.2,10.7,15.9,5.4c10.2-7,15.8-17.7,22.5-27.7c8.8-13.1,9-27.8,10-42.5
	c1.2-17.8,2.5-35.5,3.8-53.2c0.5-6.5,6.8-11.2,14-10.3c6.9,0.9,10.7,5.7,9.7,12.4c-4.7,33-7.3,66.2-7.7,99.5
	c0.1,5.8,0.5,11.7,1.3,17.4c0.3,2.6,1.6,5.1,2.5,7.7l1.6,0.2c1.4-2.1,3.2-4.1,4-6.4c6.8-18.8,13.2-37.7,20.2-56.3
	c2.6-7.2,6.1-14,10.4-20.3c7.7-11,20.8-11.2,29.9-1.3c6.6,7.2,9.8,15.7,10.2,25.4c0.3,6.6-2.4,12.2-8.3,14.7
	c-6.8,2.9-14.1,4.8-21.3,6.5c-2.9,0.7-4.6,1.4-4.4,4.6c0.5,8.1-0.1,16.3,1.5,24.2c1.8,8.8,7.8,10.5,15.4,5.6
	c10-6.4,15.9-16.4,21.7-26.3c6.3-10.6,10.5-21.5,10.1-34.3c-0.4-11.4,4.9-17,15.5-20.5h4c6-0.1,6.8,0.9,5.9,6.9
	c-2,13.8-3.9,27.6-5.7,41.5c-0.2,1.8,0.2,3.7,0.4,6.9c1-1.8,1.4-2.2,1.4-2.6C208.2,104.6,208.2,103.4,208.2,102.3z M531.6,98.2
	c-0.7-8.9-1.3-17.5-6.1-25.2c-3.5-5.7-9-5.4-11.1,0.8s-4,12.9-3.8,19.3c0.2,7.4,2.4,15,4.6,22.1c0.7,2.1,4.5,4.3,6.9,4.3
	c2,0,5-2.8,5.8-5C529.8,109.3,530.5,103.7,531.6,98.2z M140.4,85c5.4,0,9.8-0.2,11.7-4.7c2.7-6.5,1.8-13-1.4-20.5
	C144,67.6,143,76.2,140.4,85z M34.7,59.9c-5.6,8-7.1,16.4-9.1,25.1c5.4-0.4,10.3-0.5,11.8-5.9C39.1,72.8,39.5,66.5,34.7,59.9z
	 M332.2,60.2c-6.9,7.3-7.4,16.1-10,24.3C334.7,85.6,339.1,74.8,332.2,60.2z"/>
<path class="st0" d="M208.2,102.3c0,1.2,0.1,2.3,0,3.5c0,0.4-0.4,0.8-1.4,2.6c-0.2-3.2-0.6-5.1-0.4-6.9c1.8-13.8,3.6-27.7,5.6-41.4
	c0.9-6,0.1-7-5.9-6.9h-4c2.1-0.4,4.1-1.2,6.2-1.1c4.8,0.2,5.8,1.9,5.1,6.7c-1.9,13.4-3.7,26.8-5.5,40.3
	C207.8,100.1,207.9,101.2,208.2,102.3z"/>
</svg>
