<?xml version="1.0" encoding="utf-8"?>
<!-- Generator: Adobe Illustrator 23.0.3, SVG Export Plug-In . SVG Version: 6.00 Build 0)  -->
<svg version="1.1" id="Layer_1" xmlns="http://www.w3.org/2000/svg" xmlns:xlink="http://www.w3.org/1999/xlink" x="0px" y="0px"
	 viewBox="0 0 2929.2 525.9" style="enable-background:new 0 0 2929.2 525.9;" xml:space="preserve">
<style type="text/css">
	.st0{fill:#FFFFFF;}
</style>
<title>Gutenberg</title>
<path class="st0" d="M460.4,4.3c-10.1,10.6-19.5,21.8-29.2,32.8c-2,2.2-2.3,5,0.3,6.4c1.6,0.8,4.8,0.4,6.3-0.7
	c2.8-2.2,5-5.3,7.4-8.1l14.4-16.1V28c0,8.7-0.2,17.3,0.2,26c0.1,1.7,2.8,3.3,4.3,4.9c1.5-1.6,3.3-3.1,4.3-5l0,0V2.2
	C465.4,2.5,462,2.6,460.4,4.3z"/>
<path class="st0" d="M469.5,159c-0.6-5.3-0.9-10.6-1-15.9c-0.1-22.7,0-45.3-0.1-68c0.1-1.7,0.1-3.4,0-5.1v100.3
	C469.5,166.7,469.9,162.8,469.5,159z"/>
<path class="st0" d="M468.3,508.5h0.2l-0.2-17.8V508.5z"/>
<path class="st0" d="M468.3,508.5v-17.8c0-4,0-8,0-12.1c0-3.5-0.6-6.8-4.8-6.6c-4,0.1-4.3,3.4-4.2,6.6c0.1,9.3,0,18.6,0,28.6
	c-16.6-4.3-17.6-22.2-29.4-30.1c3.6-2,6.6-3.4,9.4-5.1s4.6-4,2.6-7c-2.1-3.3-4.9-2.5-7.7-0.4c-3.9,3.3-9.3,4.3-14.1,2.7
	c-7.9-2.6-14-10.7-14.2-18.7c-0.2-7.3,5.5-16,13.5-17.8c9.1-2.1,18.7-3.8,28-3.5c16.3,0.6,28.3,15.3,28,34
	c-5.1-1.4-10.2-2.6-15.3-4.3c-8.9-2.9-15.7-7.8-16.8-18.2c-0.1-1.6-2.9-4.1-4.4-4s-4.1,2.7-4.2,4.3c-0.1,3.3,0.5,6.6,1.9,9.6
	c4.9,10.9,14.6,15.3,25.4,18.3c5.3,1.5,10.3,4.4,15.4,6.5c1.8,0.7,4.3,1.9,5.6,1.3s2.9-3.3,3-5.1c1.4-23.5-8.6-40.4-30.5-50.9
	c1.5-1,2.9-2,4.2-3.2c11.3-12,12.1-32.3,1.7-44.4c-2.8-3.3-7-3.5-7.9-0.1c-0.5,1.8,0.3,4.5,1.5,6.2c9.8,14.7,4.3,32.7-12.1,39
	c-3.9,1.5-7.9,2.5-12,2.9c-17.4,1.7-30.2,8.9-33.6,27.4c-8.8-1.3-15.7,1.4-19.1,7.9c-4.9,9.3-1.6,16.9,6.1,23l-4.2,4
	c-8.5-11.4-19.7-20.4-32.7-26.2c-12.9-5.8-26.6-7.8-40.6-7.3c52.4-19.1,92.1-52.6,116.7-102.6c24.6-50.1,26.7-101.8,6.5-154.3
	c4.2,0,7.9,0.2,11.5,0c13.1-0.8,23.4-9.3,26.9-20.4V70.1c-0.3-1.9-1.3-3.3-4.3-3.3c-6-0.1-4.5,5-4.5,8.6c-0.1,19.7,0,39.3,0,59v5.5
	c-8.1-6-16.6-7.4-25.6-7.3c-1.5,0-3-0.2-4.5-0.5c-6.4-0.8-10.7-4.4-12.7-10.5c-1.7-5-0.3-9.6,3.5-13.3c4.7-4.5,10-4,15.8-1.7
	c1.6,0.6,4.2-1,6.3-1.6c-0.9-2.1-1.2-5-2.7-6c-7.5-4.9-18.5-3.7-25,2.4c-6.8,6.2-9,14-6.4,22.7c2.9,9.4,9.5,15.2,19.2,16.7
	c6.2,1,12.7,0.8,18.8,2.2c8.1,1.8,12.7,7.8,14.2,15.7s-1.3,14.5-8.1,19c-8.2,5.4-17,4.9-25.9,2.1c-1.1-0.3-2-1.6-2.6-2.7
	c-7.7-12.6-15.3-25.3-23.2-37.8c-5.1-7.7-7.4-17-6.6-26.2c1.5-17.5,10.2-31.7,21.6-44.5c2.2-2.5,3.7-5.1,0.7-7.8s-4.9-0.3-7.2,1.6
	c-8.4,6.8-16.4,14.3-25.6,19.7c-16,9.4-32.6,10.9-49.7,1.2c-21.1-12.1-44.4-20-68.5-23.2c-5.7-0.7-9.3-2.3-12.4-7.7
	c-5.3-9.3-13.9-9.4-19-0.2c-3.2,5.7-6.8,8.4-13.1,7.9c-0.2,0-0.3,0-0.5,0.1c-25.8,3.8-49.6,13.3-72.8,24.8
	c-8.5,4.3-18.2,5.7-27.6,3.9c-12.4-2.3-23-8.4-32.7-16.1c-4.1-3.4-7.9-7.1-11.8-10.8c-2.3-2.2-4.7-3.7-7.3-1.1s-1.3,5.1,0.9,7.4
	c1,1.1,2,2.2,3,3.4c7.3,8.4,13,17.7,16.3,28.3c4.8,15.5,3.2,29.9-7.1,43.3c-6.8,8.8-12.7,18.3-17.5,28.3c-3.3,6.8-7.5,9.8-14.4,9.6
	c-4.6,0-9.2-0.6-13.6-2c-7.5-2.6-12.4-9.9-12-17.8c0.3-8.5,5.6-16.2,13.5-18.5c4.3-1.2,8.8-1.3,13.3-2c4.1-0.6,8.4-0.8,12.2-2.2
	c11.8-4.5,17.7-17.7,13.2-29.4c0,0,0,0,0,0c-4.7-11.6-17-16.7-28.9-11.7c-3,1.2-6.3,2.6-4.7,6.8c1.7,4.2,4.7,3,7.9,1.6
	c5.9-2.6,11.5-1.3,15.3,3.4s3.9,10.8,0.2,16.1c-2.8,4-6.6,5.9-11.3,6.5c-8.9,1.1-17.9,2.4-26.9,3.5v-4.3c0-19,0-38,0-57
	c0-4.8-2.8-7.9-5.9-6c-1.6,1-2.9,4-2.9,6.1c-0.2,22.5,0,45-0.2,67.5c-0.1,3.4-0.7,6.8-1.9,10.1c-5.2,14.3,0.3,28.6,14,35.4
	c7.8,3.9,15.9,4.3,24.5,2.8C37.6,242.5,39,294,63,343.9s63.2,83.1,114.8,103.1c-29.2-0.3-52.6,10.8-70.8,33.3l-4-4.1
	c6.7-5.3,9.6-11.9,6.5-20c-3.5-9.2-11-11.8-20.1-10.5c-3.1-15.9-13-24-28.3-26.4c-5.9-0.9-12-1.7-17.5-3.8
	c-16.6-6.4-22-24.6-11.8-38.9c1.9-2.6,2.9-5.1,0-7.4c-3.2-2.5-5.5-0.4-7.5,2.2c-8.2,11-9,25.8-2.1,37.6c2.1,3.6,5,6.8,7.4,10
	c-2.7,1.3-5.5,2.4-8.1,3.9c-13.8,8.3-24.4,32.4-21.2,48.4c0.7,3.8,4.1,4.5,7.7,2.6c5.2-2.8,10.7-4.9,16-7.4c6.2-3,13-5.3,18.5-9.2
	c5.9-4.1,9.1-11.1,8.4-18.2c-0.2-1.8-2.8-3.4-4.3-5c-1.5,1.5-4.2,2.9-4.3,4.5c-0.6,9.2-6.2,14.1-13.9,17.1c-5.8,2.2-12,3.6-18,5.4
	c-0.7-12.9,7-27.1,18.1-31.5c14.3-5.7,28.7-3.5,42,2.9c9.9,4.7,12,16.5,6.3,25.8c-4.5,7.3-15,13.9-25.6,5.8c-2.4-1.8-5-2.3-7,0.4
	s-0.8,5.3,1.7,6.8c3.7,2.3,7.7,4,11.5,6c-2.2,2.3-4.3,4.6-6.2,7.1c-3.8,5.3-7.1,10.8-10.9,16.1c-3.1,4.3-7.2,7.1-13.2,7.2
	c0-10.1,0-19.9,0-29.7c0-3.2-0.9-5.9-4.5-6s-4.5,2.6-4.5,5.8c0.1,10.5,0,21,0,31.5c0,7.5,1.2,8.7,8.6,8.7c32.7,0,65.3-0.1,98,0.1
	c4.9,0,7.5-1.6,9.1-6.3c5.8-17,20.5-26.4,38.2-25c12.8,1,25.6,10.6,29.2,22c-4.8,0.5-8.7,0.9-11.9-4.6c-5-8.6-13.6-11.9-23.5-11.1
	c-10.1,0.7-20.1,8.8-22.2,18.2c-0.4,1.9,0.8,5.2,2.3,6.1c2.7,1.7,4.9-0.3,6.1-3.2c0.4-0.9,0.6-1.9,1.1-2.8
	c5.8-11.4,21.2-12.8,28.3-2.5c-3.5-0.1-6.4,0.9-6.2,4.8s3.4,4.3,6.6,4.3c7.8-0.1,15.7,0,23.5,0c6.1,0,8.2-2.4,6.1-8
	c-1.9-4.9-4-10-7.1-14.2c-20.8-27.9-63.7-22.8-77.9,9c-0.7,1.6-2.2,3.9-3.4,3.9c-6.9,0.4-13.8,0.2-20.6,0.2c-0.2-0.7-0.3-0.9-0.2-1
	c14.6-46.7,72-66.6,112.9-36.9c3.1,2.3,6.4,6.3,6.9,9.9c1.4,10.2,6.2,18,12.9,25.3c1.5,1.6,2.1,4,3.4,5.8s2.8,4.3,4.3,4.4
	s3.4-2.3,4.7-3.9c2-2.8,3.8-5.7,5.4-8.7c3.4-6.4,7.8-12.5,9.8-19.3s5.5-12.3,11-15.9c36.5-23.9,86.5-10,105.6,29.1
	c1.7,3.4,2.9,7.1,4.5,11.1c-7.1,0-13.3-0.2-19.4,0.1c-3.2,0.2-4.5-1-5.8-3.9c-9-21.1-31.3-32.1-53.3-26.1
	c-15.7,4.3-26.2,14.6-31.5,30c-2.1,6.1,0,9,6.3,9c11.8,0,23.7,0,35.5,0c3.2,0,5.8-0.8,5.8-4.5s-2.7-4.5-5.9-4.5c-3.9,0-7.8,0-12.8,0
	c4.8-5.5,9.9-7.7,16-6.9c6.8,0.9,11.6,4.7,14,11.3c1.1,3.2,2.9,5.7,6.5,4.2s3-4.8,1.8-7.7c-3.9-9.3-10.7-15.3-20.8-16.7
	c-10.2-1.4-19.3,1.9-24.6,10.8c-3.1,5.2-6.6,5.5-11.7,4.8c0.1-0.6,0.3-1.2,0.5-1.7c6.6-13.4,20.2-21.2,35.5-20.3
	c14.5,0.9,27,10.6,31.5,24.5c1.6,5.2,4.1,6.9,9.6,6.9c35.8-0.3,71.6-0.2,107.4-0.2l-0.1-9.4L468.3,508.5z M99.5,492
	c-2.8,5.3-4.8,10.9-7.2,16.6H45.7c6-8.1,11-16.4,17.5-23.3c10.1-10.6,26.7-10,35.6,0.1C100.5,487.6,100.9,489.3,99.5,492z
	 M93.8,469.7c-4.1,0-7.5-3.4-7.5-7.5s3.4-7.5,7.5-7.5l0,0c4.1,0,7.5,3.4,7.5,7.5S97.9,469.7,93.8,469.7z M399,368.7l-19.9-4.1
	c7-13,15.4-26,21.2-40s9.2-29,13.8-44.2l19.8-7C431.3,308.5,419.3,340.1,399,368.7z M383.1,264l4.8-0.6c2.6,7.9,7.4,13.7,15.6,16.2
	c-2.1,17.3-6.5,33.7-14.4,48.7c-6,11.4-13.5,22-20.7,32.8c-1.1,1.7-3.9,2.8-6.1,3.1c-10,1.3-20.1,2.1-29.7,3.1
	C364,340.2,381,305.9,383.1,264z M254,389.7l119-118.4C371.4,324.5,323.7,385,254,389.7z M431.5,263.1c-6.1,4.9-13.6,7.8-21.5,8.3
	c-7.1,0.5-13.2-5.4-13.4-12.5c-0.2-6.9,5.8-12.9,14-13c7.2,0.8,14.9,3.2,21.3,8.8C435.5,257.8,435.4,260,431.5,263.1z M386.8,101.9
	c-3.1,13.7-2.7,26,3.4,37.3c3.9,7.1,9,13.6,13.4,20.4c15.6,24.2,25.9,50.4,29.7,79c0.2,1.8,0.3,3.5,0.4,5.2l-20.6-7.3
	c-2.1-8.7-3.9-17.9-6.5-27c-7-24.4-19.3-45.8-36.1-64.7c-1.8-2.1-3-3.7-2.2-6.9c0.6-3.1,0.4-6.3-0.6-9.2c-0.9-2.8-0.7-4.4,1.3-6.5
	C374.8,115.9,380.3,109.4,386.8,101.9z M280.8,72.4c18.5,4.4,35.9,11.8,52.6,20.9c13.7,7.4,28.1,7,42.6,2.2c1.5-0.5,3.1-1.1,4.6-1.7
	l0.6,0.5c-6.7,7.6-13.3,15.3-20.1,22.8c-0.9,0.9-2.7,1.3-4.2,1.3c-2.9,0.1-6.3-1-8.7,0.1c-4.1,1.9-6.7,0.3-9.9-1.9
	c-21.1-14.3-44.2-23.6-69.5-27.1c-3.7-0.5-5.3-1.8-5.7-5.8c-0.5-4.9-2-9.7-3.3-15.6C267.2,69.7,274.1,70.8,280.8,72.4L280.8,72.4z
	 M360,134.3c0,4.2-3.3,7.5-7.5,7.6c-4,0-7.3-3.1-7.4-7.1c-0.2-4.2,3-7.7,7.1-7.9c0,0,0,0,0,0C356.4,126.8,359.8,130.1,360,134.3z
	 M264.7,98.4c22.2,1.6,53.2,13.9,71.2,27.7c0.8,6.1,1.5,11,1.9,15.9c0,1.4-0.5,2.7-1.3,3.7c-10.5,12.1-21,24.1-31.5,36.1
	c-0.5,0.6-1.1,1.3-1.6,1.9c-2,2.2-3,4.8-0.4,7s5.2,1.3,7.3-1.2c7.2-8.3,14.4-16.6,21.6-24.9c2.4-2.8,4.9-5.5,7.2-8.3
	c3.4-4.1,6.4-8.6,12.9-5.7c1.3,0.5,2.7,0.4,3.9-0.2c5.6-3.7,8.2,0.2,11.3,3.9c19.1,22.8,31.6,50.4,36.3,79.8c0.2,1,0.2,2,0.3,3.3
	c-7.3,2.9-12.5,7.8-15.1,15.4c-0.4,1.1-2.8,1.5-4.1,2.1c-2-11.3-3.4-22-6-32.4c-5.2-20.8-15.4-39.2-29.5-55.4
	c-0.4-0.5-0.9-1-1.4-1.5c-2-2.3-4.5-3.2-6.9-0.9s-1.6,4.7,0.4,7c10,11.2,18,24,23.7,37.9c5.1,12.4,8.2,25.6,9.2,39
	c-1.9-1.7-3.1-2.7-4.3-3.8c-14.1-14.1-28.3-28.2-42.4-42.4c-2.3-2.3-4.8-4.3-7.6-1.3s-0.9,5.4,1.4,7.7
	c15.4,15.4,30.9,30.9,46.3,46.3c1.3,1.2,2.8,2.4,4.2,3.4L243.4,386.2C201.4,344,159,301.4,116.2,258.6c7-7,14.6-14.6,22.2-22.2
	c9.1-9.1,18.1-18.1,27.2-27.2c2.2-2.2,3.9-4.6,1.4-7.3c-2.7-2.9-5.3-1.4-7.7,1c-13.7,13.8-27.5,27.6-41.2,41.5
	c-1.3,1.3-2.1,2.9-3.5,4c-1.8-23.1,14.4-62,38.5-83.5c7.1,8.1,14.2,16.1,21.3,24.3c2.3,2.6,4.8,4.1,7.6,1.6s1.3-5.1-0.8-7.4
	c-7-8-14.1-16-21.5-24.4c20.5-17.3,45.9-27.8,72.6-30.1c-7.6,7.9-15,15.6-22.5,23.3c-4.4,4.5-8.9,9-13.5,13.4
	c-2.3,2.2-3.8,4.7-1.3,7.3c2.8,3,5.3,1.4,7.7-1c13.2-13.6,26.5-27.2,40-41.1c2.1,1.9,3.3,3,4.4,4.1c11.9,11.9,23.8,23.8,35.7,35.7
	c2.2,2.3,4.7,4.5,7.6,1.7s1-5.6-1.5-8c-11.6-11.4-23.3-22.8-34.9-34.2l0.9-1.3c21.4,1.9,42,9,60,20.7c0.7,0.4,1.4,1.3,2.1,1.3
	c2.2-0.1,5.2,0.4,6.5-0.9c2.3-2.3,1.1-5.1-1.6-6.6c-10.1-5.4-20-11.1-30.5-15.6c-12.3-5.3-25.4-7.5-38.8-8.3c-1.5-0.1-3-1.2-4.6-1.8
	c1.2-0.9,2.2-2.2,3.5-2.8C258.9,111.7,262.8,105.8,264.7,98.4L264.7,98.4z M139,151.3c2.9,0.6,5.2,3.9,8,6.2
	c-27.4,27-41.8,59.1-43.9,98.2c-1.9-1.7-3.6-2.5-4-3.7c-2.7-7.7-8.1-12.3-16.2-14.9c4.2-32,17.9-62,39.3-86.1
	C128.8,151.1,134.1,150.3,139,151.3z M125.8,135.9c0.1-4.2,3.4-7.6,7.6-7.8c4,0.1,7.3,3.3,7.3,7.4c0.3,3.9-2.6,7.3-6.5,7.6
	c-0.1,0-0.2,0-0.4,0C129.5,143.3,125.8,139.9,125.8,135.9L125.8,135.9z M99.3,265.6c0.4-1.1,2.1-1.6,4-3
	c2.1,42.7,18.9,77.1,50.4,104.6c-11-1.1-21.5-2.1-31.9-3.2c-1.1-0.3-2.1-0.9-2.8-1.8c-19.2-23.4-31.2-50-35.6-80
	c-0.1-0.6-0.1-1.3-0.1-2.2C91.1,277.5,96.5,273,99.3,265.6z M112.9,270.9l1.6-1.6l118,120.4C171,385.6,118.3,335.3,112.9,270.9
	L112.9,270.9z M230.6,92.5c2.1-11,5.6-21.7,8.8-32.5c0.5-1.8,1.9-3.4,3.4-5.9c1.2,1.3,2.2,2.8,3.2,4.3c5.3,11,8.8,22.6,9.5,34.8
	c0.5,8.2-5.3,14.2-12.7,14.1C234.8,107.1,229,101,230.6,92.5z M237.4,115.9c0.6,0.2,0.8,1.5,1.2,2.2c-0.9,0.6-1.9,1-2.9,1.3
	c-8.5,1.3-17.2,1.9-25.6,3.9c-20.2,4.6-38.3,13.9-54.5,26.9l-2,1.6c-3.5-3.6-7.8-6.5-4.4-12.5c0.9-2.2,0.9-4.6,0-6.8
	c-2-4.3,0.4-5.8,3.3-7.8c21.2-14.3,47.6-24.4,68.9-26.2C223.7,107,228.6,113.1,237.4,115.9L237.4,115.9z M126.3,98.8
	c9.5,1,18.3-2,26.8-6.2c22-10.8,44.7-19.6,69.1-23.3c1.1-0.2,2.3-0.2,3.7-0.4c-1.2,6.3-2.3,12.4-3.7,18.5c-0.2,1-2.1,2-3.3,2.2
	c-26.9,3.9-52.5,14.2-74.6,30.1c-0.1,0.1-0.3,0.2-0.4,0.3c-1.2,0.3-2.9,1.3-3.5,0.8c-5.3-4-12.6,3-17.7-3.6
	c-6.1-7.9-13-15.1-19.3-22.4C111.1,96.1,118.6,98,126.3,98.8z M67.3,184c6.4-12.8,13.7-25,22-36.6c8.2-11.2,11.7-25.2,9.7-39
	c-0.2-1.2-0.2-2.4-0.3-3.6l1-0.5c4.9,5.5,9.6,11.2,14.7,16.6c3.2,3.4,6,6.5,3.1,11.5c-0.7,1.3-0.9,2.9-0.5,4.4c2.4,5.4-1,8.4-4,12
	c-20.6,24.4-34,54-38.6,85.6c-0.3,1.5-1.2,2.8-2.5,3.5c-6.3,2.4-12.8,4.4-19.3,6.5C53.9,223.5,57.9,202.9,67.3,184L67.3,184z
	 M54.4,255c7-5.5,15.5-8.6,24.3-8.9c6.9-0.3,12.7,6,12.6,12.8c0,7-6,12.7-14,12.8c-8-1.1-16.1-3.7-23.1-9.2
	C51.3,260.2,51.3,257.4,54.4,255L54.4,255z M52.5,272.8l19.9,7.3c4.6,15.1,8,30.3,13.8,44.5c5.8,13.9,14.1,26.8,21.2,40l-20,4
	C67,340.5,54.9,307.4,52.5,272.8L52.5,272.8z M102.9,387.2c-2.9-3.4-5.9-6.7-9.5-10.7c18.5-4.8,37.9-4.8,56.3,0
	c14.9,3.7,29.5,8.9,44,14.1c35.9,12.7,71.2,11.9,106.4-3.2c25-10.7,51.2-16.6,78.8-13.6c4.4,0.5,8.8,1.4,14.2,2.3
	c-4.1,4.6-7.6,8.6-11.2,12.4c-0.8,0.7-1.9,0.9-3,0.8c-45.4-9-84.6,4.6-120.1,32.3c-3.5,2.8-6.9,5.7-11.2,9.3c0-2.4,0-4.2,0-6
	c0-3.1-0.7-5.9-4.4-5.9s-4.8,2.4-4.6,5.7c0.1,1.6,0,3.3,0,5.8c-3.1-2.6-5.6-4.8-8.2-6.9c-23.6-19.3-50.1-32.5-80.7-36.2
	c-13.6-1.8-27.3-1.2-40.7,1.8C106.1,389.8,104.6,389.3,102.9,387.2L102.9,387.2z M124.9,407.5c-3.8-3-7.3-6.2-11.6-9.9
	c11-2.2,22.3-2.7,33.5-1.4c34.9,3.7,63.6,20.2,88.6,43.9c3.7,3.5,4.6,12.2,1.7,17.5c-6.7-6.8-12.7-13.7-19.5-19.7
	c-25.4-22.6-55-32.9-89.1-29.9C127.3,408.2,125.7,408.2,124.9,407.5L124.9,407.5z M225.9,468.6c-9.9-12.1-20.8-22.9-34.8-29.6
	c-10.1-4.8-21.2-7.5-31.6-11.5c-7.1-2.7-13.9-6.1-20.9-9.2c0.3-0.6,0.6-1.1,0.8-1.7c38.1,0,67,17.9,90.4,46.9L225.9,468.6z
	 M251.6,490.6c-2.3,3.8-5.3,7.1-8.4,11.3c-2.9-3.7-5.7-6.6-7.7-9.9c-6.4-10.1-4.6-19,5.3-25.8c1.6-0.8,3.4-0.9,5.1-0.1
	C254.8,471.9,257.1,481.4,251.6,490.6L251.6,490.6z M249.9,458c-3-3.4-3.3-13.3-0.6-15.9C280,412.6,315.2,394,359,395.7
	c4.4,0.2,8.8,0.8,14.6,1.4c-6.9,5.5-10.9,11.5-20.5,10.9c-40.2-2.5-72.1,14.5-98.1,44.1C253.4,454,251.8,455.9,249.9,458L249.9,458z
	 M260.7,469.1l-3.8-5c23.2-29.1,51.8-47.4,90.2-47c-7,4.9-14,9.5-22.8,11.3C298.2,433.7,277.5,448,260.7,469.1L260.7,469.1z
	 M392.4,454.7c4-0.1,7.2,3.1,7.3,7.1c0,0.2,0,0.4,0,0.5c0,4-3.2,7.3-7.1,7.4c-4.2,0-7.6-3.3-7.7-7.5
	C384.8,458.1,388.2,454.7,392.4,454.7C392.3,454.7,392.4,454.7,392.4,454.7L392.4,454.7z M394.1,508.7c-2.6-6-5.3-11.9-7.6-17.9
	c-0.5-1.2,0.4-3.5,1.3-4.6c8.8-11,25.9-12.3,36.4-2.5c3.1,3,5.9,6.3,8.4,9.9c3.5,4.8,6.5,9.9,10,15.2L394.1,508.7z"/>
<path class="st0" d="M243.2,16.8C261.2-1.3,284,0.1,299.4,20c4.1,5.2,7.3,11.2,11.5,16.2c5.4,6.4,15,8.4,21.8,5.5
	c7.1-3,12-11.2,11.7-19.3c-0.2-5.8-3-10.1-8-13c-2.8-1.6-5.4-3.6-3.2-7.1s5.3-2.4,8.2-0.5c12.4,7.7,15.7,22.1,8.2,35.9
	c-7,13-22.4,17.9-36.1,11.6c-7.2-3.3-11.6-9.2-15.8-15.5c-2.9-4.6-6.3-9-10-13c-9.8-9.8-25.6-9.9-35.4-0.1c-1.4,1.4-2.7,3-3.7,4.7
	c-4.3,6.8-6.8,6.8-11.1-0.2c-7.2-11.7-23.9-15.8-34.9-7.6c-5.2,3.8-9.4,9.3-13.1,14.7c-5.3,7.8-10.6,15.4-20.2,18.3
	c-13.8,4.3-28.3-1.5-34-13.6c-6.1-13-2.1-27.3,9.8-35.2c2.7-1.8,5.6-3.1,7.8,0.2s0.2,5.4-2.6,7.4c-9.8,6.9-11.6,18-4.7,26.8
	c6.5,8.2,20.1,9.2,28.1,1.6c3.4-3.3,6.1-7.4,8.7-11.4c5.8-9,12.4-17.2,23-20.5C220.1,1.5,232.7,5.4,243.2,16.8z"/>
<path class="st0" d="M2748.8,396.4c-30.5-29.6-29.6-45.4-0.7-76.5c-11.3-22.9-27.6-42.7-30.6-64.3c-10-72.7,48.8-116.2,120-91
	c13.4,4.7,22.7,6.2,34.2-4.4c7-6.4,19.4-11.2,28.3-9.8c9.9,1.5,23,8.9,26.9,17.4c6.1,13.1-1.7,24.6-15.8,24l-34.9-10.1
	c3.7,28.9,10.4,52.5,9,75.7c-2.5,41.3-36.3,66.2-83.6,66.6c-5.6,0-13.2-3.4-16.6-0.8c-10.5,7.9-19.4,17.9-28.9,27
	c8.9,6,17.2,16.1,26.7,17.3c20.6,2.7,41.9,0.4,62.9,1.1c36.2,1.2,57.8,16.6,66,45.8c9.9,35.5-1.5,72.5-31.3,89.2
	c-47.8,26.7-98.8,28.8-149.5,9.9c-24.7-9.2-37.1-30.6-36.3-57.6c0.7-24.9,13-42.7,36.1-52.5C2736.1,401.1,2741.5,399.2,2748.8,396.4
	z M2796.5,503.9c17.8-4.2,36.4-6.4,53.3-13c21-8.2,31.1-31.4,26.7-54c-4.6-23.5-23.1-27.1-42.3-27.4c-22.5-0.3-45.1-0.4-67.4,2.3
	c-24.1,3-35.9,19.8-34.7,44C2733.6,487.6,2753.4,501.6,2796.5,503.9z M2844.5,242.1c-2.1-11.8-3.5-23.8-6.4-35.3
	c-5-19.7-20.1-26.3-38.5-25.8c-24.6,0.7-37.4,17.1-39.4,48.4c-2.9,45.5,6.6,66.2,32.6,70.9C2826.8,306.4,2843.2,287.5,2844.5,242.1z
	"/>
<path class="st0" d="M1940.8,59.8h80.6v131.3c21.2-10.4,42-27.2,64.9-30.6c50.5-7.6,83.6,17.8,95.9,67.6
	c10.4,42.2,10.1,84.9-2.2,126.8c-9.6,32.8-30.3,54.6-65.3,60.5c-34.2,5.7-64.4-0.3-86.1-30.1c-1.8-2.5-1.7-6.5-2.4-9.8l-6.3,4.7
	c-2.9,10.4-5.8,20.9-8.8,31.8h-70.8l-5.2-4.6c4.7-4.8,8.9-13.1,14.2-13.8c22.5-3,29.7-16.4,29.6-36.9c-0.1-80.8-0.3-161.6,0.1-242.4
	c0.1-21.3-8.1-33.3-29.9-36.4c-5.3-0.8-9.8-7.8-14.6-12L1940.8,59.8z M2147,289.2c-4.2-23-6.8-45.5-12.8-67
	c-6.4-22.8-23.7-33.3-47.6-33.6c-24.9-0.3-45.8,7.6-54,32.4c-14.6,44.1-14.7,89.2,0.5,133.3c8,23.2,27.4,32.8,51.4,33.4
	c23.8,0.6,41.6-10.1,48.7-32.4C2139.9,334,2142.5,311.4,2147,289.2z"/>
<path class="st0" d="M839.9,166.2C825,115.2,813,103,780.9,101c-48.5-3.1-86.4,15.5-101.2,54.6c-21.8,57.9-22.4,117.3-1.3,175.5
	c12.6,34.9,40.4,53.4,77.2,57.6c10.4,1.3,20.9,1.8,31.4,1.6c41.8-1.1,41.8-1.3,41.8-42.7c0-11.3-0.3-22.6,0.1-34
	c0.6-18.6-5.9-30.7-25.9-34.7c-5.8-1.2-10.3-9-15.4-13.9l4.5-6.5c34.7,0,69.3-0.4,104,0.4c4.8,0.1,9.5,5.6,14.2,8.6
	c-4,3.8-7.4,9.8-12.1,11c-16.4,4.3-21.6,15.2-21.6,30.6c0,23.4,0.7,46.9-0.5,70.3c-0.3,6.7-4.1,16.8-9.2,19.2
	c-51.3,24.6-158.3,32.5-213-26.5c-84.2-90.9-41.3-265.5,74.7-290.6c33.5-7.2,70.2-0.7,105.2,1.5c9.6,0.6,22.2,6.2,27.3,13.6
	c8,11.5,17.3,28.7,13.8,39.6C871.5,148.2,853.6,155.4,839.9,166.2z"/>
<path class="st0" d="M1762.5,412.1h-118.4l-5.1-4.9c4.8-4.7,9.1-12.7,14.5-13.6c20.8-3.1,29.3-14.8,29.3-34.7c0-47.7,0-95.4,0-143
	c0-17.6-6.5-28.8-25.3-32.5c-6-1.2-10.8-8.9-16.2-13.7l4.3-7.2c20,0,40,0,60,0c24.6-0.1,10.5,23.2,22.6,35
	c16.1-25.6,39-39.5,70.5-38.8c47.9,1.1,76,25.4,78.1,73.5c1.8,40.3,0.9,80.8,0.8,121.2c0,20.4,3.8,36.9,28.6,40.2
	c4.3,0.6,7.5,9.3,14,18h-86.2c0-29.7,0.1-58.5,0-87.4c-0.1-29.1,0.5-58.2-0.9-87.3c-1.4-29.4-16.4-45.6-41.5-48.1
	c-30.7-3.1-55.5,8.8-58.7,37.4c-5.4,47.9-5.2,96.5-4.3,144.8c0.1,7.3,16.3,14.3,24.9,21.6c5.1,4.3,10.1,8.7,15.1,13.1L1762.5,412.1z
	"/>
<path class="st0" d="M1199.5,412.1h-68.6c-2.5-11.2-4.9-22.1-6-26.8c-21.7,10.2-43.7,26.9-67.8,30.6c-53.2,8.2-85.1-21-87.3-74.9
	c-1.6-39.5-0.8-79.2-0.6-118.8c0.1-20.7-4.1-36.7-29.2-39.3c-4.5-0.5-8.2-9.1-16.3-18.7h89.1c0,44-0.1,87.4,0,130.7
	c0,16.2-0.5,32.4,1.1,48.5c2.2,21.5,11,38.6,35.2,43.2c24,4.5,48.1-3.8,59-23.4c5.4-9.6,10.3-21,10.7-31.7
	c1.4-40.4,1.3-80.8,0.8-121.2c-0.2-15.9-10.2-23.7-25.9-27.1c-5.7-1.2-10-9.5-14.9-14.6l4.6-5.1h80.5v70c0,41.2,0.4,82.5-0.2,123.7
	c-0.3,19.8,6.6,32.2,27.4,36.2c5.5,1.1,9.7,8.5,14.6,12.9L1199.5,412.1z"/>
<path class="st0" d="M134.3,76.8c-16.5-0.5-26.8-6.7-35.4-16.2c-2.4-2.7-4.6-5.7-6.6-8.8c-4.8-7.5-2.7-11.6,6.4-12
	c11-0.4,19.3,5.4,26.9,12.3c6.7,6,13.9,10.7,23.2,11.5c1.5,0.1,3.9,2.1,4,3.4c0.1,1.6-1.3,4.4-2.7,4.9
	C144,74.2,137.6,75.8,134.3,76.8z M130,67.3c-9.4-6.3-16-16.6-29-18.6C108.4,59.5,117.3,66.5,130,67.3z"/>
<path class="st0" d="M356.7,77.3c-5.9-1.6-11.8-3-17.5-5c-1.6-0.6-3.5-3.5-3.4-5.1c0.1-1.4,3-3.3,4.8-3.6
	c8.4-1.2,14.9-5.6,21.5-10.6c6.3-5,13.3-9.1,20.7-12.3c3.7-1.5,9,0,13.3,1.1c1.2,0.3,2.8,4.2,2.3,5.8
	C393,62.9,372.9,76.7,356.7,77.3z M358.5,67.4c13-0.7,21.6-8.1,29.3-18.8C374.8,51,367.9,61.1,358.5,67.4z"/>
<path class="st0" d="M2439.5,291.6h-154c2.8,35,2.7,70.5,36.5,88.2c37.6,19.7,71.7,5.9,101-23.3c14.5,18.8,4.3,31.1-8.7,41.6
	c-46,37.4-129,21.7-155.9-31c-26.6-52-24.9-106.5-1.4-158.9c18.1-40.5,61.6-57,111.3-47.5c39.5,7.6,65.9,38.3,70.9,84.2
	C2440.8,259.2,2439.5,273.7,2439.5,291.6z M2391.7,265.4c2.6-53.5-14.1-81.2-47.9-81.5c-35.9-0.3-55.9,29.1-54.7,81.5H2391.7z"/>
<path class="st0" d="M1606.5,291.6h-156.7c1.6,35.3,2.4,69.8,36.3,87.9c38.1,20.4,71.5,5.2,101.7-23.1c14.1,20,2.5,32.5-11.2,42.9
	c-49.1,37.6-133.7,18-157.9-38.5c-21.2-49.4-20.7-101,1.3-150.4c18.1-40.6,55.5-56.9,107.5-50.4c36.7,4.6,64.7,31,72.6,70.9
	C1603.8,249.7,1604.2,269,1606.5,291.6z M1554.4,265c6.8-45.5-11.4-79-43.4-81c-37-2.4-58.7,26.9-59.2,81H1554.4z"/>
<path class="st0" d="M459.7,208.8c-5,0.8-9.5,1.9-14.1,1.9c-1.6,0-3.3-2.3-5-3.6c1.5-1.7,2.8-4.8,4.4-4.9c6.2-0.5,11.5-2.3,16.4-6.3
	c3.1-2.6,6.6-0.6,7.2,3.4c0,0.7,0,1.3,0,2c0,26.1,0,52.3,0,78.4c0,3.2-0.8,5.9-4.4,5.9s-4.6-2.7-4.5-5.9c0-1,0-2,0-3L459.7,208.8
	L459.7,208.8z"/>
<path class="st0" d="M26.5,208.6v22.2c0,16.3,0,32.7,0,49c0,3.2-0.8,5.9-4.4,5.9s-4.5-2.7-4.5-5.9c0-26.3,0-52.7,0.1-79
	c0-1.8,1.2-4.5,2.6-5.2s3.8,0.7,5.6,1.3c4.6,1.6,9.1,3.8,13.8,4.9c3,0.7,5.7,1.2,5.6,4.9c-0.1,3.8-3,4.6-6,4.1
	C35.2,210.3,31,209.4,26.5,208.6z"/>
<path class="st0" d="M27.3,18.8c0,12.4,0,23.4,0,34.3c0,4.4-2.4,7-5.4,5.6c-1.9-1.1-3.1-3-3.4-5.2c-0.3-15.3-0.3-30.6,0-46
	c0.2-2,1.4-3.8,3.1-4.9c1.2-0.6,4,0.5,5,1.7C36.4,15.2,45.8,26.1,55.4,37c2.1,2.4,2.5,5.3-0.3,6.8c-1.5,0.8-5.1,0.2-6.3-1.1
	C41.7,35.3,35,27.5,27.3,18.8z"/>
<path class="st0" d="M2616.7,400.8c-5,4-9.8,11.3-14.9,11.4c-40.3,1-80.5,0.5-120.8,0.5l-4.3-6.2c4.6-4.6,8.7-12.3,14-13.1
	c22.4-3.8,28.5-17.7,28.3-38c-0.4-45.3-0.3-90.5,0-135.8c0.1-20.2-5.3-34.6-28.9-36.7c-4.8-0.4-8.8-9.3-17.6-19.3h78.4
	c2.8,12.9,5.7,25.9,9.4,43.1c4.8-7,7.8-10.9,10.4-15.2c17.9-29.9,47.7-41.2,81.2-29.9c17.2,5.8,27.4,17.4,24.5,36.5
	c-2.7,18.2-14.2,25-41.1,25.1c-0.7-2.7-0.7-6.2-2.3-8.5c-6.1-8.5-12.8-23.5-19.1-23.4c-10.9,0.2-28,7.4-31.3,15.9
	c-9.6,25.1-15.2,52.1-19.4,78.9c-2.8,18.1-0.6,37.1-0.6,55.7c0,46,2.9,49.1,48.3,52.5L2616.7,400.8z"/>
<path class="st0" d="M1303.4,109.5V162h58.1v27.2h-57c0,59.7-1,117.5,0.6,175.3c0.5,18.1,14.7,28.2,33.4,28.4
	c8.7,0.1,17.5-1.1,26.5-1.7c7.1,15.5,0.3,20.8-14.8,24c-60,12.7-90.4-10.6-90.8-71.5c-0.3-50.7-0.1-101.5-0.1-153l-39.4-2.2
	c4.6-7.6,7-16.6,11.2-17.5c27.9-6,38.7-26,46.9-50.2c2.3-6.9,11.3-11.6,17.2-17.3L1303.4,109.5z"/>
<path class="st0" d="M95,11.1c-8.8,0-17.7,0-26.5,0c-3,0-5.5-0.8-5.7-4.1c-0.2-3.6,2.4-4.9,5.6-4.9c17.7,0,35.3,0,53,0
	c3.1,0,5.9,0.9,5.9,4.5s-2.7,4.5-5.9,4.5C112.6,11.1,103.8,11.1,95,11.1z"/>
<path class="st0" d="M393,11.1c-8.6,0-17.3,0-25.9,0c-3.2,0-5.7-0.8-5.7-4.6c0-3.5,2.5-4.4,5.5-4.4c17.8,0,35.6,0,53.4,0
	c3.1,0,5.7,1.2,5.5,4.9c-0.2,3.5-2.8,4-5.7,4C410.9,11.1,402,11.1,393,11.1z"/>
<path class="st0" d="M421.2,35c0,9.4-3.9,12-12.6,8.5c-9.1-3.6-14-15-9.9-24c1.1-1.7,2.9-2.8,4.9-2.9C413,16.9,421.2,25.7,421.2,35z
	"/>
<path class="st0" d="M426.2,161.7c0.1-7.8,6-13.3,13.9-13.1c7.2,0.2,12.8,6.1,12.7,13.3c-0.1,7.3-6.1,13.2-13.4,13.2
	C432.1,175,426.2,169,426.2,161.7L426.2,161.7z M445.7,162.1c-2.9-2.1-4.6-4.2-6.2-4.2c-1.4,0-4.1,2.7-3.9,3.6c0.6,2,2.1,3.6,4,4.3
	C440.8,166.2,442.7,164.1,445.7,162.1z"/>
<path class="st0" d="M32.3,161.5c0.1-7.2,6-13,13.2-12.9c0.1,0,0.3,0,0.4,0c7.4,0.1,13.3,6.2,13.1,13.6s-6.2,13.3-13.6,13.1
	c-7.4-0.1-13.3-6.2-13.1-13.6C32.3,161.6,32.3,161.6,32.3,161.5z M45.4,155.6c-2,3.1-4,4.9-3.8,6.5c0.1,1.4,2.6,2.7,4,4.1
	c1.4-1.5,3.6-2.9,3.9-4.6C49.7,160.3,47.6,158.6,45.4,155.6L45.4,155.6z"/>
<path class="st0" d="M452.5,80.9c-0.1,8.7-3,10.8-11.2,8.1c-9.5-2.9-14.8-12.8-12-22.3c0.2-0.6,0.4-1.2,0.6-1.7
	c0.6-1.6,3.5-3.2,5.2-3.2C444.9,62.3,452.6,71.1,452.5,80.9z"/>
<path class="st0" d="M88.7,25.3c0.1,10.7-5.3,17.5-14.8,19.3c-5.3,1-7.5-0.6-8.3-5.8C64,28,70.4,18.9,81.1,16.8c4.7-1,6.5,0.3,7.3,5
	C88.5,22.9,88.6,24.1,88.7,25.3z"/>
<path class="st0" d="M57.8,71.3c0,10.8-6.8,18.1-16.7,18.8c-3.7,0.3-5.4-1.4-6.2-4.8c-2.3-10.4,4.2-20.8,14.7-23.1
	c0.6-0.1,1.2-0.2,1.9-0.3c3.4-0.4,5.5,0.9,6,4.3C57.6,68.1,57.7,70.1,57.8,71.3z"/>
<path class="st0" d="M223.3,29.7c1.4,0.3,4.5,0.2,6.9,1.4c2,1.2,3.3,3.2,3.6,5.5c0,3.1-2.8,3.9-5.5,3.2c-13.4-3.2-22.9,2.7-30.4,13
	c-1.9,2.6-3.8,5.1-7.3,2.9c-3.7-2.4-2.3-5.3-0.3-8.1C198,36.7,208,29.8,223.3,29.7z"/>
<path class="st0" d="M263.8,29.6c15.4,0.4,25.5,7.7,33.3,19c1.8,2.6,1.7,5.3-1,7s-4.8,0.3-6.8-2c-3-3.5-6-7.2-9.6-10
	c-5.7-4.5-13.2-6-20.3-4.1c-3.1,0.8-5.9,0.6-6.8-2.9s1.2-5.2,4.5-5.8C259.7,30.2,262.3,29.8,263.8,29.6z"/>
<path class="st0" d="M325.6,35.8c-6.6-0.1-11.9-5.4-12.1-12c0-6.7,5.4-12.1,12.1-12.1c0.1,0,0.2,0,0.3,0c6.5,0,11.7,5.3,11.7,11.8
	c0,0.2,0,0.3,0,0.4C337.5,30.5,332.2,35.8,325.6,35.8z M321.2,23.2c2,1.7,3.2,3.4,4.3,3.3s2.6-1.8,3-3c0.2-0.7-1.5-2.7-2.5-2.7
	C324.7,20.7,323.4,22,321.2,23.2L321.2,23.2z"/>
<path class="st0" d="M150.2,23.7c-0.2-6.5,4.9-11.9,11.3-12.1c0.2,0,0.3,0,0.5,0c6.7-0.1,12.2,5.2,12.4,11.9c0,0.1,0,0.2,0,0.3
	c-0.2,6.6-5.5,11.9-12.1,12C155.6,35.7,150.2,30.3,150.2,23.7z M166.6,23.7c-1.9-1.4-3.1-3-4.2-3s-3,1.7-3,2.7
	c0.3,1.4,1.3,2.6,2.7,3.1C163.2,26.6,164.5,25.1,166.6,23.7z"/>
<path class="st0" d="M450.4,365.1c-4.7,0-9.3,0-14,0c-2.8,0-5.5-1.2-4.8-4.3c0.4-1.8,3-4.4,4.6-4.5c9.3-0.4,18.6-0.3,28-0.2
	c3,0,5.6,1.8,4.8,4.9c-0.4,1.7-3.3,3.6-5.2,3.8C459.5,365.5,454.9,365.1,450.4,365.1z"/>
<path class="st0" d="M36.3,356.5h13.5c3.2,0,5.7,1.5,5,4.6c-0.4,1.7-3.2,4.1-4.9,4.1c-9.1,0.4-18.3,0.2-27.5,0.2
	c-3.1,0-5.7-1.5-4.9-4.7c0.4-1.7,3.1-3.9,4.9-4.1C26.9,356.1,31.6,356.5,36.3,356.5z"/>
<path class="st0" d="M432,381.9c4.3,0,8.7-0.4,12.9,0.2c1.9,0.3,3.4,2.7,5,4.2c-1.6,1.5-3.2,4.2-4.9,4.3c-9,0.4-18,0.4-26.9,0
	c-1.6-0.1-3.1-2.9-4.7-4.4c1.7-1.4,3.2-3.9,5.1-4.1C422.9,381.5,427.5,381.9,432,381.9z"/>
<path class="st0" d="M54.2,390.9c-4.3,0-8.7,0-13,0c-3,0-4.8-1.2-4.8-4.4s1.8-4.5,4.8-4.5c9,0,18-0.3,26.9,0.2
	c1.6,0.1,4.1,2.8,4.4,4.5c0.5,2.9-1.8,4.2-4.8,4.2C63.2,390.8,58.7,390.9,54.2,390.9z"/>
<path class="st0" d="M453.5,352.5c-3.1,0-6.3,0-9.5,0c-3.4,0-6.3-0.9-6.2-4.8c0-3.6,2.8-4.4,6-4.3c6.5,0.1,12.9,0.1,19.4,0
	c3.1,0,5.9,0.7,6,4.4c0,3.9-3,4.7-6.2,4.7L453.5,352.5z"/>
<path class="st0" d="M33.3,343.6c3.5,0,7-0.4,10.4,0.2c1.8,0.3,3.2,2.5,4.8,3.8c-1.5,1.7-2.8,4.6-4.4,4.8c-7.4,0.5-14.9,0.5-22.3,0
	c-1.6-0.1-3-3-4.5-4.6c1.5-1.4,2.9-3.6,4.6-3.9C25.6,343.2,29.5,343.7,33.3,343.6z"/>
<path class="st0" d="M417.4,403.6c-3.5,0-7.1,0.5-10.5-0.2c-1.9-0.4-4.6-2.5-4.9-4.2c-0.6-3.1,1.9-4.5,5.1-4.5c6.7,0,13.3,0.1,20,0
	c3.2,0,5.4,1.3,5.3,4.5s-2.3,4.5-5.5,4.4S420.5,403.7,417.4,403.6z"/>
<path class="st0" d="M69.3,403.8c-3.5,0-7.1,0.5-10.4-0.2c-1.9-0.4-3.4-2.8-5.1-4.3c1.6-1.5,3.2-4.2,4.9-4.3c7-0.5,14-0.5,20.9,0
	c1.7,0.1,3.2,2.6,4.7,3.9c-1.5,1.6-2.8,4.2-4.7,4.6C76.4,404.3,72.8,403.8,69.3,403.8L69.3,403.8z"/>
<path class="st0" d="M29.6,330.8c2.6,0,5.5-0.5,7.9,0.2c1.8,0.5,4.3,2.7,4.3,4.2c0,1.5-2.5,4.2-4,4.4c-5.4,0.5-10.9,0.5-16.4,0
	c-1.6-0.2-4-2.9-4-4.4s2.5-3.6,4.3-4.2C24.2,330.3,27,330.8,29.6,330.8z"/>
<path class="st0" d="M456.7,330.7c2.8,0,5.8-0.5,8.4,0.2c1.6,0.4,3.9,2.6,3.9,4s-2.1,4.3-3.5,4.4c-5.8,0.5-11.6,0.5-17.4,0
	c-1.4-0.1-3.4-3-3.5-4.8c-0.1-1.2,2.4-3.3,4.1-3.7C451.2,330.2,454,330.7,456.7,330.7z"/>
<path class="st0" d="M88.4,416.7c-2.2,0-4.6,0.6-6.4-0.2s-3.1-3.1-4.5-4.7c1.6-1.4,3-3.6,4.7-3.9c3.8-0.6,7.6-0.6,11.4,0
	c1.8,0.3,3.3,2.7,5,4.1c-1.6,1.5-2.9,3.6-4.8,4.5C92.3,417.3,90.2,416.7,88.4,416.7z"/>
<path class="st0" d="M398.8,407.7c2,0,4.2-0.5,5.9,0.2s3.8,2.6,3.8,4.1s-2,4.1-3.4,4.3c-4.4,0.6-8.9,0.7-13.3,0.1
	c-1.6-0.2-3.8-3-3.8-4.6c0-1.4,2.6-3.3,4.5-3.9S396.6,407.7,398.8,407.7L398.8,407.7z"/>
<path class="st0" d="M433.4,377.9c-1.7,0-3.6,0.5-4.9-0.1c-1.9-1-3.3-2.8-5-4.3c1.5-1.5,2.7-4.1,4.4-4.4c3.8-0.7,7.6-0.7,11.4,0
	c1.6,0.3,3.9,3,3.9,4.5s-2.5,3.3-4.3,4.1C437.3,378.4,435.2,377.9,433.4,377.9z"/>
<path class="st0" d="M459.3,317.8c1.7,0,3.6-0.6,4.9,0.1c1.9,1,3.3,2.9,5,4.4c-1.5,1.5-2.9,3.8-4.6,4.2c-3.6,0.7-7.3,0.7-10.9,0
	c-1.6-0.3-4-2.9-4-4.4s2.4-3.4,4.2-4.2C455.4,317.3,457.5,317.8,459.3,317.8z"/>
<path class="st0" d="M52.6,378c-2,0-4.2,0.6-5.9-0.2s-3.8-2.7-3.8-4.2s2.2-3.9,3.7-4.2c3.9-0.6,7.9-0.6,11.8,0
	c1.6,0.3,3.7,2.8,3.9,4.5c0.2,1.2-2.2,3.3-3.9,4S54.6,378.1,52.6,378L52.6,378z"/>
<path class="st0" d="M26.9,326.8c-1.8,0-3.9,0.5-5.4-0.1s-4.2-2.7-4.1-3.8c0.2-1.8,2.2-4.4,3.8-4.7c3.8-0.7,7.6-0.7,11.4,0
	c1.7,0.3,4,2.9,4,4.4s-2.5,3.3-4.3,4.2C30.8,327.4,28.8,326.8,26.9,326.8z"/>
<path class="st0" d="M461.1,313.8c-1.3,0-3,0.5-3.9-0.1c-1.6-1.1-3.5-2.8-3.7-4.4c-0.1-1.3,1.8-3.8,3.2-4.1c2.9-0.7,5.9-0.7,8.9,0
	c1.5,0.4,3.5,3,3.5,4.5s-2.4,3-4,4C464,314.3,462.4,313.8,461.1,313.8L461.1,313.8z"/>
<path class="st0" d="M24.6,313.9c-1,0-2.3,0.4-2.9-0.1c-1.7-1.2-4.2-2.8-4.2-4.3s2.3-3.7,4.1-4.4c2.2-0.8,4.6-0.8,6.8,0
	c1.9,0.7,3.3,3,4.9,4.5c-1.7,1.5-3.4,2.9-5.3,4.1C27.2,314.3,25.8,313.9,24.6,313.9z"/>
<path class="st0" d="M22,302.5c-2-2.7-4.3-4.4-4.2-6s2.4-3.1,3.8-4.7c1.6,1.5,4.2,2.7,4.6,4.5C26.4,297.6,24,299.6,22,302.5z"/>
<path class="st0" d="M46.4,399.2c-2.8,2.1-4.6,4.6-5.9,4.3c-1.8-0.3-3.2-2.7-4.8-4.2c1.5-1.5,2.8-3.9,4.5-4.1S43.5,397.2,46.4,399.2
	z"/>
<path class="st0" d="M68.8,418.5c-1.9-2.9-4.3-4.9-3.9-6.3c0.4-1.7,3-3,4.6-4.4c1.3,1.6,3.7,3.1,3.7,4.8S71,415.8,68.8,418.5z"/>
<path class="st0" d="M446.6,405.5c-2.2-2.9-4.6-4.7-4.5-6.2s2.5-4.1,4.1-4.2c1.4-0.1,4,2.4,4.2,4S448.5,402.5,446.6,405.5z"/>
<path class="st0" d="M417.3,405.8c2.1,2.9,4.4,4.8,4.1,6.1c-0.4,1.8-2.8,3.2-4.3,4.8c-1.4-1.5-3.8-3-4-4.7
	C412.9,410.5,415.2,408.7,417.3,405.8z"/>
<path class="st0" d="M424.1,58.2c-2-3-4.3-4.9-4-6.4s2.8-3.9,4.4-3.9c1.4,0,3.8,2.6,3.9,4.2S426.2,55.3,424.1,58.2z"/>
<path class="st0" d="M464.2,302.3c-2.1-3.1-4.3-4.9-4.1-6.5s2.8-4,4.3-3.9s3.9,2.6,4,4.2S466.3,299.4,464.2,302.3z"/>
<path class="st0" d="M53.8,7.1c-3.1,1.9-5,3.9-6.5,3.6s-3.9-3-3.8-4.4s2.7-3.8,4.4-3.9C49.5,2.4,51,4.8,53.8,7.1z"/>
<path class="st0" d="M440.5,0.4c1.9,3,4.1,4.9,3.9,6.4s-2.8,4.1-4.2,4s-4-2.6-4.1-4.2S438.3,3.3,440.5,0.4z"/>
<path class="st0" d="M66.5,51.8c-3,2.1-4.8,4.4-6.3,4.2s-3-2.6-4.6-4.1c1.5-1.5,2.8-3.9,4.5-4.1S63.5,49.8,66.5,51.8z"/>
<path class="st0" d="M242.9,44.1c-2.1-3-4.3-4.8-4.1-6.3s2.7-4.1,4.2-4.1s4,2.5,4.1,4.2S245,41.1,242.9,44.1z"/>
<path class="st0" d="M265.3,265.9c-7.8,0.5-13.2,4.3-16.9,10.5c-1.6,2.7-3.4,5-6.6,2.9c-2.8-1.9-1.8-4.6-0.3-7
	c5.6-9,13.4-14,24.2-14.5c9.5-0.4,18-3.1,24.1-10.9c1.9-2.4,4.3-3.3,6.2-1c1,1.2,0.7,4.5-0.3,6c-4,6.1-10.1,9.7-16.9,11.7
	c-2.9,0.9-3.6,2.1-3.5,4.8c0.2,4.1,0,8.3,0,12.5c0,15.6-9.2,26-24.6,28c-25.4,3.4-42.5-11.5-42.4-37.1c0-10.3-0.5-20.8,1.2-30.9
	c4.4-26.7,37.4-38,58-20.3c4.3,3.7,7.1,9,7.8,14.6c0.5,3.4-0.8,6.1-4.5,6.5c-3.4,0.4-5-1.9-5.5-5.1c-1.2-8.2-5.5-12.8-13.5-14.7
	c-16.9-4.1-30.6,4.1-32.6,21.4c-1.5,12.4-1.4,24.9,0.3,37.3c3,20.6,23,23.9,36.8,17.8c5.8-2.6,8.9-7.3,8.9-13.9
	C265.3,278.4,265.3,272.3,265.3,265.9z"/>
<path class="st0" d="M394.6,227.3c-1.5,1.5-2.9,3.9-4.7,4.4c-3.1,0.8-4.8-1.6-5.2-4.6c-3-23.3-13.6-43.1-28.5-60.8
	c-2-2.4-4.1-5-1-7.7s5.8-0.6,8,1.9c15.4,18,26,38.4,30.1,61.9c0.2,1.3,0.3,2.6,0.5,4L394.6,227.3z"/>
</svg>
