<?xml version="1.0" encoding="utf-8"?>
<!-- Generator: Adobe Illustrator 23.0.3, SVG Export Plug-In . SVG Version: 6.00 Build 0)  -->
<svg version="1.1" id="Layer_1" xmlns="http://www.w3.org/2000/svg" xmlns:xlink="http://www.w3.org/1999/xlink" x="0px" y="0px"
	 viewBox="0 0 2195.7 381.3" style="enable-background:new 0 0 2195.7 381.3;" xml:space="preserve">
<style type="text/css">
	.st0{fill:#FFFFFF;}
</style>
<title>SiteOrigin Page Builder</title>
<path class="st0" d="M300.6,0c10.4,4.6,21.3,8.5,31.2,13.9c10.2,5.5,18,14.2,24.1,24.1c1.5,2.5,3.3,3,6,3.1
	c7.6,0.3,15.3,0.5,22.8,1.9c14.5,2.8,26.7,10.7,32.5,24.2c12.2,28.7,27.8,56.1,33.9,87.1c1.4,7.2,2.1,14.5,2.2,21.8
	c0.1,4.1,1.4,7.3,4.8,8.2c1.7,0.5,4.9-1.9,6.5-3.8c5.9-6.8,10.8-14.4,17.2-20.7c9.4-9.2,19.6-17.5,29.7-25.9
	c7.1-5.9,15.2-6.6,23.3-2.2c12,6.4,24.1,12.7,35.8,19.8c8,4.7,10.6,15,5.8,23c-1.6,2.8-4.1,5-6.9,6.4c-6.7,3.3-14.5,4.6-22,6
	c-10.5,2-21.1,3-31.5,4.9c-2.8,0.6-5.4,2.1-7.3,4.4c-4,4.9-7.6,10.1-10.9,15.5c-11.1,18.6-28.1,26.4-48.9,28.3
	c-31.1,2.9-56.5-7.4-76.2-31.7c-0.6-0.7-0.9-1.7-2.2-1.7c-0.9,28.5-1.9,57.1-2.8,86c5.9,1.8,11.9,3.2,17.5,5.4
	c7.2,2.9,14.6,5.8,21.1,9.9c10,6.3,9.8,14.6,0,21.4c-11.4,7.9-24.7,11.4-37.9,14.6c-30.5,7.5-61.6,11.4-92.8,12.8
	c-33.4,1.5-66.9,2.5-100.3,1.8c-46.3-0.9-92.4-4.6-137.4-16.7c-9.1-2.5-17.8-6.4-26.5-10.1c-3-1.5-5.7-3.5-7.9-6
	c-4.5-4.7-4.7-10.4,0.3-14.5c5-4.1,10.5-7.5,16.5-10.1c8-3.5,16.6-5.7,25.6-8.8c-3.1-38.7-7.1-77.7-2.3-117.4
	c-7.6-0.1-13.8-3.3-19.5-7.8c-7.7-6-9.9-14.9-4.4-22.9c4.5-6.5,5.9-13.3,6.5-20.9c1.7-22.4,21.7-40.9,45.5-42.3
	c6-0.3,12.2,1.1,18.3,1.4c2.3,0.1,5.1,0,6.8-1.2c21.1-14.8,44.9-22.4,70.2-25.1c14.9-1.6,29.8-2,45.5-3c0.6-2.2,1.4-5.6,2.6-8.8
	c7.7-22.2,22.9-36.6,45.5-43.2c1.1-0.3,2.2-0.8,3.2-1.1L300.6,0z M222.7,212l11.8,8.2l9.2,10.7l7.2,15c1.3,7.7,2.5,15.3,3.8,23
	c-0.9,6.6-1.7,13.2-2.7,19.7c-0.6,4.1-1.6,8.2-2.5,12.3l15.2,4.9l14.9,2.2l8.9,0.9l23.1,0.9c10.6,0.4,21-0.7,30.8-5
	c4.6-2,8.5-5.1,8.7-10.6c0.6-18.1,1-36.3,1.5-54.4l0.8-30c-0.6-9.7-1.2-19.4-1.8-29.1c-0.2-3.2-0.4-6.4-0.5-9.9l6.4,3.1l12.1,7
	l10.9,10.3c16.3,24.3,38.6,35.6,68.1,32.5c16.4-1.7,29-8.8,37.1-23.5c3-5.4,7-10.1,10.6-15.1c3.7-5.3,9.4-8.7,15.8-9.4
	c11-1.5,22-3.1,33-4.9c5.7-0.9,11.3-2.4,16.9-3.6l0.2-2.3c-12-6.4-23.9-12.8-36-18.9c-1.3-0.6-3.9,0.4-5.3,1.4
	c-13.6,10.2-26.4,21.2-36.7,35c-4.4,5.8-9.5,11.1-15,15.9c-5,4.3-11.5,5.5-17.2,1.6c-5.4-3.7-10.1-8.6-14.9-13.1
	c-0.6-0.6-0.8-2.1-0.7-3.1c2.1-23.2-5.1-44.3-14.6-64.8l-7-14c-2.3-6.3-4.7-12.7-7-19l-7-13.9l-11-9.8l-12-4l-18.2-0.3
	c-2.9,0.2-5.9,0.7-8.8,0.6c-1.3,0-2.6-1-3.9-1.6l-7.9-14l-11.3-11.7l-9.9-6.5L304.6,19l-17-3.7l-16.2,0.7l-17.9,5.9
	c-18,9.7-25,25.7-26,45.2c0.4,8.3,0.8,16.7,1.3,25c1.7,6,3.3,12,4.9,18c2.4,5.3,4.8,10.7,7.1,16l9,14.9l8.6,11.5l9.1,10.6l10.2,9.9
	l11,9l11.8,8.1l8.4,6.1l-10.2-2.3l-13-5.9l-12.1-7.5l-11-8.4l-11-10.1l-9-10l-9-11.9l-7.9-12l-8.1-15l-6.9-17.2L206.5,76v-6.1
	L189.5,71l-14,1l-15.9,2.1l-20.2,4.8l-21.7,9.1c-1.9,0.9-3.8,1.9-5.7,3c-5.5,3.7-10.9,7.4-16.4,11.2l-13-4.1
	c-12.9-3.2-30.8,4.2-37.3,15.6c-1.5,2.6-2.4,5.5-2.6,8.4c-0.6,11.2-1.1,22.3-10.2,31.5l8.8,5.5c1.1-2.4,2.2-4.1,2.6-6
	c1.5-6.4,3.1-12.9,4.2-19.4c2.6-15.5,5.2-17.4,20.3-14.6l8.5,3.7l-11.4,29c-2.3,13.1-4.6,26.1-6.9,39.2c-0.3,10-0.6,20-0.9,30l1,25
	c0.7,8.3,1.3,16.7,1.9,25c0.6,8.3,1.3,16.7,2,25l9.8,5l13.9,4l17.2,2.8l16,0.1l18-2.2l25.4-7.4c-1.9-11.8-3.6-22.2-5.3-32.6
	l1.9-24.7c2.9-9.9,7.3-18.9,15.1-26l18-8.2l16.8,0.2L222.7,212z M237.5,278c0-5.7,0.4-10.9-0.1-16c-1.5-18.3-13.6-33.7-29.6-38.2
	c-13.4-3.7-24.4,1.4-29.6,14.3c-5.3,13-4.2,26.3-2,39.9L237.5,278z"/>
<path class="st0" d="M1262.8,170.2c0.2-21.5,2.2-44.5,8.7-66.9c9.1-31.6,29-52.5,60.3-62.5c34-10.9,68.1-11,102.2-0.5
	c34.3,10.5,55.5,33.8,63.4,68.7c10,44.4,9.7,88.8-1.9,133c-8.5,32.3-29.7,52.5-60.6,62.9c-35.9,12.1-72,11.6-107.7-1
	c-30.9-10.9-48.6-33.5-56.5-64.7C1264.9,217.1,1263.1,194.6,1262.8,170.2z M1470.7,171.7c0-22.4-1.5-44.5-7.9-66.2
	c-5.7-19-17.4-31.7-36.3-38c-26.3-8.8-52.8-9.1-79.6-2c-24.4,6.5-39,22-44.5,46.7c-3.7,16.9-5.7,34.2-6,51.5
	c-0.4,23.7,0.6,47.2,6.1,70.4c5.2,21.8,16.8,37.7,38.9,44.7c25.6,8.4,53.2,8.9,79.1,1.5c22.9-6.4,37.2-20.7,43.1-43.8
	C1469.1,215.2,1470.7,193.5,1470.7,171.7L1470.7,171.7z"/>
<path class="st0" d="M1766.5,325.3c2.2,4.2,4.3,8,6.3,11.8c5.5,10.4,13.9,16.6,25.6,18.6c17.6,3,35,3.4,52.5-1.1
	c14.3-3.7,22.2-12.8,25-27.2c3-15.5,2.4-31,2.2-47.5c-1.2,1.4-1.9,2-2.4,2.8c-9.1,13.1-21.8,20.9-37.2,24
	c-16.4,3.3-33.3,2.9-49.5-1.2c-22.3-5.6-36.7-19.3-41.8-41.6c-7.9-34.2-7.9-69.8-0.1-104c5-22.4,19.4-36.3,41.7-41.8
	c22.9-5.7,45.4-6,67.2,4.9c9.5,4.8,12.5,7.6,25.6,24.4c1.2-9.7,2.3-18.8,3.5-28.3h21.9c0.1,1.5,0.2,3.3,0.2,5c0,57.3,0,114.7,0,172
	c0.2,14.5-2,28.9-6.3,42.8c-5.8,17.9-17.2,30.3-35.1,36c-29.5,9.3-59,8.6-88.2-1.7c-16.9-6-24.3-19.3-26.6-36
	c-0.2-1.4,1.2-3.7,2.5-4.5C1757.3,329.9,1761.7,327.9,1766.5,325.3z M1879.4,212.2c-1.6-14-2.9-28.9-5-43.7
	c-2.3-16.7-12.3-27.1-28.9-29c-12.9-1.5-26.3-2.1-39.2-0.5c-21.4,2.6-29.4,11.9-32.6,33.3c-3,19.5-3.2,39.2-1.8,58.8
	c1,11.1,3,22,6,32.7c2.5,9.3,9.5,14.9,18.9,17.5c15.2,4.3,30.7,4.6,46,2.2c20.8-3.3,29.6-12.2,32.8-33.1
	C1877.3,238.2,1878,225.7,1879.4,212.2z"/>
<path class="st0" d="M646.5,250.4c6.2,11.7,15.7,18.3,26.4,23.2c24.3,11.2,49.7,14.6,75.9,9.6c29.1-5.5,40.1-25.1,39.2-53.6
	c-0.7-21.1-11.4-34-30.7-40.7c-5.3-1.8-10.7-3.6-16.2-5.1c-18.6-5.1-37.4-9.5-55.8-15.2c-13.3-4.1-25.2-11.2-34.4-22.2
	c-11.7-14-14.7-30.6-13.8-48.2c1.7-33.3,19.5-55.3,56-63.1c24-5.3,48.9-4.9,72.8,1c15.1,3.8,28.9,11.5,40,22.5
	c1.2,1.1,2.2,3.6,1.8,4.8c-2.9,8.6-6.3,17-9.6,25.6c-4-3.8-7.4-7.6-11.4-10.8c-12.2-9.7-27-15.6-42.6-16.8
	c-13.4-1.1-26.9-0.8-40.3,0.8c-27.2,3-42.3,30-31.8,55.5c3.2,8.2,9.7,14.7,18,17.9c12.7,4.8,25.8,8.4,38.8,12.4
	c16.5,5,33.4,9,49.6,15c26.9,10,41.2,30.3,42.7,58.8c0.6,11.4-0.1,22.9-2.2,34.2c-4.7,24.1-19.5,41-42.5,48.9
	c-39.6,13.7-79.1,12.5-117.6-5c-9.4-4.1-17.3-11-22.8-19.6c-1-1.7-1.3-3.8-0.7-5.8C638.8,266.6,642.5,259,646.5,250.4z"/>
<path class="st0" d="M1203.6,249.2l22.7,6.2c-3,26.9-13.8,42.4-40.1,50.3c-22.4,6.8-45.3,6.4-68.2,1.7
	c-23.6-4.9-38.8-19.4-45.5-42.1c-10.6-35.3-10.8-71,0.4-106.2c6.8-21.4,21.7-35.1,43.5-40.8c20.7-5.4,42.4-5.6,63.2-0.5
	c25.6,6.1,40.2,22.8,45.7,48c3.7,16.8,3.5,33.7,2.5,51.2h-133.4c-0.2,20.6,2.2,40,13.8,57.1c4,5.9,9.8,9.4,16.7,11.1
	c17.6,4.2,35.9,4,53.4-0.6c12-3.1,19.2-10.7,22.1-22.6C1201.4,257.9,1202.5,253.8,1203.6,249.2z M1200.5,196.3
	c-2.4-12.1-4.3-23.9-7.1-35.4c-2.3-9.5-8.4-15.8-18-19.1c-18.3-6.2-36.6-5.9-54.9-0.2c-6.5,2-12.2,5.5-15.8,11.5
	c-7.9,13.1-9.2,27.7-10.1,43.2L1200.5,196.3z"/>
<path class="st0" d="M2037.3,306.3V118.8h23.6c0.7,8.4,1.5,16.9,2.2,26c0.6-0.5,1.2-1,1.8-1.5c19-24.1,44.8-30.6,73.9-28.6
	c14.1,1,27.2,5,38.2,14c9.9,8.1,13.5,19.7,15.3,31.7c1.8,11.3,2.9,22.8,3.1,34.2c0.4,35.5,0.1,71,0.1,106.5v5.2h-28.8v-5.5
	c-0.1-38.8,0-77.7-0.3-116.5c-0.2-7.3-1.1-14.6-2.8-21.7c-2.7-12.4-10.5-20.1-23.1-22.6c-15.7-3.2-32-2.8-47.5,1.2
	c-17,4.2-23.7,16.5-25.3,32.6c-1,10.8-1.8,21.6-1.9,32.4c-0.2,31.5-0.1,63-0.1,94.5v5.6L2037.3,306.3z"/>
<path class="st0" d="M1029,265.4c5,2.9,9.7,5.4,14.1,8.4c1.3,1.2,2.1,2.9,2.2,4.7c0,2.4-1,4.9-1.5,7.3c-2.5,12.4-10,19.8-22.3,22.7
	c-15.7,3.6-31,3.1-46.1-2.5c-8.5-3.1-14.9-8.8-16.7-17.7c-2.3-11-4.8-22.2-5-33.4c-0.6-36.1-0.2-72.3-0.2-108.5v-6.1h-30.7v-21.9
	h32.7V98.9c0-11.8,0.1-23.7-0.1-35.5c0-3.3,0.7-5.1,4.1-6.1c7.3-2.1,14.5-4.8,22.4-7.5v68.3h44.8V140h-44.6v6
	c0,37.2-0.1,74.3,0.1,111.5c0.1,6,0.6,12,1.6,17.9c1.3,7.8,4.5,10.8,12.3,11.5c5.6,0.5,11.3,0.1,17-0.1c6.4-0.3,10.4-3.9,12.4-9.8
	C1026.6,273.2,1027.7,269.6,1029,265.4z"/>
<path class="st0" d="M1638.2,114.4v27.7c-8.3,1-16.4,1.3-24.3,3c-16.2,3.5-29.4,11.5-36.3,27.4c-1.2,2.7-1.8,5.7-1.8,8.6
	c-0.1,39.8-0.1,79.6-0.1,119.4v5.6h-27.4V118.5c7.9,0,15.9-0.1,23.8,0.2c0.8,0,2.2,2.6,2.2,4c0.2,7.6,0.1,15.3,0.9,23.4
	C1591.3,125.5,1611,113,1638.2,114.4z"/>
<path class="st0" d="M1957.8,118.7h28.4v187.3h-28.4V118.7z"/>
<path class="st0" d="M1698.4,306.3h-28V118.9h28V306.3z"/>
<path class="st0" d="M889.4,306.3h-28V118.9h28V306.3z"/>
<path class="st0" d="M1972.5,52c5.1,0.2,11.5,0.2,14.4,6.4c3.5,7.5,3.9,15.7-0.2,23.1s-25.6,6.9-30.1-0.4
	c-3.5-5.8-2.9-19.3,1.3-24.4C1961.6,52.3,1966.6,52,1972.5,52z"/>
<path class="st0" d="M1701.8,70.3c0,12.2-3.5,15.8-15.6,16.2c-16.6,0.6-23-8.4-18-24.9c1.5-4.9,4.5-8.1,9.6-9
	c1.8-0.3,3.6-0.5,5.4-0.6C1697.4,51.8,1701.8,56.1,1701.8,70.3z"/>
<path class="st0" d="M892.8,70.5c0,1.5-0.1,3.1-0.3,4.6c-0.3,1.9-0.6,4.2-1.7,5.7c-5.7,7.9-14.1,5.9-21.9,5.2
	c-6.2-0.5-9.2-3.8-10.4-9.7c-0.1-0.7-0.2-1.3-0.3-2c-1.3-17.6,4.6-25.1,24.6-21.3C890.2,54.3,892.6,58.9,892.8,70.5z"/>
<path class="st0" d="M387.7,94c0.9,2.5,3.1,6.4,2.3,7.1c-2.1,2-5.5,2.7-8.5,3.8c-0.6-0.3-1.2-0.6-1.8-0.8c-3.8-1.4-7.1-3.5-6-8.3
	c0.7-3.3,5.7-4.8,10.3-3.4C385.3,92.9,386.5,93.5,387.7,94z"/>
</svg>
