<?xml version="1.0" encoding="UTF-8"?> <!-- Generator: Adobe Illustrator 19.0.0, SVG Export Plug-In . SVG Version: 6.00 Build 0) --> <svg xmlns="http://www.w3.org/2000/svg" xmlns:xlink="http://www.w3.org/1999/xlink" id="Layer_1" x="0px" y="0px" viewBox="0 0 413.1 68.7" style="enable-background:new 0 0 413.1 68.7;" xml:space="preserve"> <style type="text/css"> .st0{fill:#FFFFFF;} .st1{fill:#E2E2E2;} </style> <g> <path class="st0" d="M50.6,27.1c5.9-7.4,12.6-10.3,21-8.7C79.4,19.8,83.7,25.1,84,34c0.2,6.9,0.2,13.9,0,20.8 c-0.1,2.9,0.7,4.2,3.7,3.7c4.7-0.8,3.2,2.8,3.5,5.1c0.4,2.8-0.4,4.1-3.6,3.9c-4-0.3-8-0.3-12,0c-3.2,0.2-3.7-1-3.7-3.8 c0.2-8.1,0.1-16.3,0-24.4c0-3.9,0-7.9-4.5-9.8c-3.7-1.5-9.2,0-12.4,3.4c-3.1,3.3-4.4,7.3-4.5,11.7c-0.1,3.5,0.1,6.9-0.1,10.4 C50.3,57.7,51,59,54,58.5c5-0.8,3.3,2.9,3.7,5.3c0.5,3.2-1,3.7-3.8,3.7c-9.5-0.2-18.9,0.1-28.4-0.2C13.7,67,7.6,60.5,7.5,48.9 c-0.1-5.9-0.1-11.7,0-17.6c0.1-2.7-0.8-3.7-3.4-3.3c-5.1,1-3.8-2.6-4.1-5.4c-0.4-3.3,1.1-4.3,4-3.8c3.2,0.5,4.4-0.9,3.9-4 c0-0.3,0-0.5,0-0.8c0-8.7,0-8.6,8.6-8.4c2.2,0,3.1,0.6,3,2.9c-0.2,2.4,0.1,4.8-0.1,7.2c-0.2,2.5,0.9,3.4,3.3,3.1c0.7-0.1,1.3,0,2,0 c5.9,0,7.1,1.7,5.8,7.6c-0.3,1.1-0.7,1.6-1.8,1.6c-0.4,0-0.8,0-1.2,0c-8,0.3-8,0.3-8,8.2c0,3.9-0.1,7.7,0,11.6 c0.3,7.3,3.7,10.5,11.1,10.7c7.8,0.2,7.8,0.2,7.8-7.9c0-12.5-0.1-25,0.1-37.6c0-2.9-0.4-4.6-3.8-4c-4.5,0.8-3.5-2.4-3.7-4.9 c-0.3-3,0.5-4.3,3.8-4.1c4.2,0.3,8.5,0.2,12.8,0c2.3-0.1,3,0.6,2.9,2.9C50.5,10.7,50.6,18.4,50.6,27.1z"></path> <path class="st0" d="M158,27.4c12.1-13,24-12.9,29.8,0.8c2.4-3.7,5.1-6.6,8.9-8.4c11.9-5.7,22.9,0.8,23.4,13.9 c0.3,7.2,0.2,14.4,0.1,21.6c-0.1,2.7,0.8,3.7,3.4,3.3c4.8-0.9,3.5,2.6,3.8,5.1c0.4,3.3-1,4-4,3.9c-4-0.2-8-0.2-12,0 c-2.7,0.2-3.3-0.9-3.3-3.4c0.1-8.7,0.1-17.3,0-26c0-3.5-0.1-7.1-4.1-8.7c-3.5-1.4-8.2,0.3-11,3.8c-1.9,2.5-3.1,5.3-3.3,8.4 c-0.3,3.7-0.3,7.4-0.6,11.2c-0.3,3.7-0.1,6.7,5,5.7c1.5-0.3,2.2,0.4,2.1,2c-0.1,1.3-0.1,2.7,0,4c0.2,2.2-0.6,3-2.9,3 c-4.4-0.2-8.8-0.2-13.2,0c-2.6,0.1-3.1-1-3.1-3.3c0.1-8.8,0.1-17.6,0-26.4c0-3.5-0.1-7.1-4.3-8.6c-3.4-1.2-8,0.6-10.6,4 c-2.3,3.1-3.5,6.6-3.7,10.4c-0.2,3.1,0,6.1-0.2,9.2c-0.2,3.6-0.2,6.8,4.9,5.8c1.3-0.3,2,0.5,1.9,1.8c-0.1,1.3-0.1,2.7,0,4 c0.3,2.5-0.7,3.2-3.1,3.1c-6.5-0.2-13.1-0.1-19.6,0c-2.3,0-3.3-0.4-3.3-3c0-3.7-0.4-7.2,5.1-6c1.7,0.3,1.9-1,1.9-2.3 c0-8.4,0-16.8,0-25.2c0-3-2-3.1-4.1-2.8c-4.8,0.6-3.1-2.9-3.4-5.2c-0.4-2.9,0.5-4.2,3.6-3.8c2.1,0.3,4.3,0,6.4,0 C156.6,19.2,157.1,19.6,158,27.4z"></path> <path class="st1" d="M302,59.2c-0.9,8.2-0.9,8.2-8.6,8.2c-4.8,0-9.6-0.1-14.4,0.1c-2.8,0.1-3.6-0.7-3.7-3.6 c-0.1-3.7,0.2-6.4,4.9-5.4c1.7,0.3,2.3-0.5,2.3-2.3c-0.1-8.5-0.1-17.1,0-25.6c0-2.8-1.6-2.8-3.3-2.5c-4.5,0.8-4-2-4.2-5 c-0.2-3.6,1.3-4.2,4.4-4c4,0.2,8,0.2,12,0c2.5-0.1,3.2,0.7,3.2,3.2c-0.1,10.8,0,21.6-0.1,32.4c0,2.8,0.5,4,3.7,3.9 c3,0,4.2-0.8,3.7-3.8c-0.5-2.8,0.8-3.9,3.5-3.5c1.6,0.2,3.2,0,4.8,0c1,0,2,0,1.9,1.4c-0.1,5,3.6,5.7,7.2,6.3c1.4,0.3,2.9,0.3,4.4,0 c2.6-0.5,5.6-0.9,6-4.2c0.5-3.6-2.3-4.7-4.9-5.9c-5.1-2.2-10.7-3.3-15.4-6.6c-5-3.5-6.9-8.6-5.3-14.3c1-3.6,3.4-6,6.7-7.6 c8.1-3.8,16.3-3.6,24.3,0.2c4.5,2.2,6.6,7.8,5,12.3c-0.4,1.2-1.2,1.2-2.2,1.3c-1.9,0-3.7-0.1-5.6,0c-1.8,0.1-2.6-0.5-2.6-2.5 c0-3.7-3.1-4-5.7-4.3c-2.9-0.4-6.1-0.3-7.8,2.7c-1.1,1.9-0.2,3.9,1.6,5.3c1.9,1.5,4.2,2.2,6.5,3c4,1.3,8.2,2.5,11.8,4.9 c7.9,5.2,7.9,16.2,0.1,21.4c-7.7,5.2-22,5-29.7-0.2C304.7,63.4,303.4,61.7,302,59.2z"></path> <path class="st0" d="M119.8,45c-4.7,0-9.3,0.1-14,0c-2.3-0.1-2.7,0.7-2.1,2.8c1.8,7.3,8.7,11.8,16.5,10.6c2.8-0.4,5.4-1.4,7.9-2.6 c1.3-0.6,2.7-2.9,4-1.4c1.8,2.1,2.7,4.8,3.9,7.3c0.1,0.3-0.6,1.1-1.1,1.4c-14.7,10.1-37.7,6.7-43.1-12.9 c-5.2-19,9.6-35.4,28.6-31.8c11.8,2.2,17.5,13.2,16.6,24.7c-0.2,2.1-1.4,1.9-2.8,1.9C129.4,45,124.6,45,119.8,45z M113.8,37.8 C113.8,37.8,113.8,37.8,113.8,37.8c2.5,0,5.1-0.2,7.6,0c2.8,0.2,3.1-1.1,2.6-3.3c-1.1-4.6-4.9-7.4-9.7-7.2 c-4.9,0.2-9.6,4.2-10.4,8.5c-0.3,1.8,0.5,2,1.9,2C108.5,37.8,111.2,37.8,113.8,37.8z"></path> <path class="st1" d="M395.7,45c-4.5,0-9.1,0.2-13.6,0c-3.2-0.1-3.2,1.3-2.5,3.7c2,6.8,9,11,16.3,9.7c3.2-0.5,6.3-1.4,8.9-3.2 c2-1.3,3-1.3,4.2,1c3.5,6.2,3.4,6.8-3.1,9.7c-13.7,6.1-28.7,2.6-35.5-8.6c-5.8-9.6-5.6-19.7,0.6-29c6-8.9,14.9-11.5,25.2-9.6 c10.6,2,18.3,13.6,16.5,24.4c-0.3,1.8-1.2,2.1-2.7,2.1C405.3,44.9,400.5,45,395.7,45z M379.7,37.8c6.1,0,12.2-0.1,18.3,0 c2.6,0,2.3-1.4,1.9-3.1c-1.2-4.9-4.9-7.6-9.9-7.4C384.5,27.6,380.5,31.6,379.7,37.8z"></path> <path class="st0" d="M239.7,45c0.9,9.4,8,14.9,17,13.3c3-0.5,6.1-1.3,8.6-3.1c2.5-1.9,3.4-0.9,4.6,1.4c3.2,6.1,3.3,6-2.9,9 c-12,5.7-25.6,3.6-33.5-5.1c-7.3-8-8.5-21.2-2.8-31c5.2-8.9,16.1-13.3,27-10.7c10.1,2.4,17.2,13.8,15.4,24.4 c-0.4,2.3-1.7,1.9-3.1,1.9c-8.8,0-17.6,0-26.4,0C242.3,45,241,45,239.7,45z M249.9,37.8c2.8,0,5.6-0.1,8.4,0 c2.1,0.1,2.8-0.5,2.2-2.7c-1.1-4.3-4-7.3-8-7.8c-4.9-0.5-9.4,2.2-11.5,6.8c-1.1,2.4-1.4,4,2.2,3.7 C245.3,37.7,247.6,37.8,249.9,37.8z"></path> <path class="st1" d="M359,28.2c0,7.9,0,15.7,0,23.6c0,3.6,0.7,6.5,5.3,6.1c1.7-0.1,1.8,0.9,2,2.3c0.7,7.7-0.4,8.8-8.3,7.4 c-6.7-1.2-9.8-4.3-10.7-11c-1.2-8.9-0.3-17.8-0.5-26.7c-0.1-5.7-0.1-11.4,0-17.2c0.1-2.6-0.5-4.2-3.5-3.7c-5,0.9-3.7-2.7-4-5.4 c-0.4-3.4,1.4-3.6,4-3.5c4.1,0.2,8.3,0.2,12.4,0c2.6-0.1,3.5,0.7,3.4,3.4C358.9,11.7,359,19.9,359,28.2C359,28.2,359,28.2,359,28.2 z"></path> <path class="st1" d="M288.6,0.1c6,0,8,2.4,5.7,8.9c-1.4,3.9-6,0.9-9.1,1.7c-1.6,0.4-2.9-0.1-2.7-2.2c0.1-0.7,0-1.3,0-2 C282.4,0.1,282.4,0.1,288.6,0.1z"></path> </g> </svg> 