<svg id="Layer_1" data-name="Layer 1" xmlns="http://www.w3.org/2000/svg" viewBox="0 0 314.67 62.28"><title>winning-wp</title><path d="M221.19,22.22c-2,12.48-4.73,24.82-7.75,37.08-1.17,4.72-4.3,7.83-9.53,8.15-3.64.22-6.62-.8-8-4.51-1.31-3.49.18-6.11,2.77-8.35.71-.61,1.9-.73,2.16-2.17-3.06,0-6.11-.28-7.85-3.11-1.18-1.92-1.88-1.55-3.19-.17-3.05,3.19-6.79,4.41-10.85,2.25-4.48-2.39-3.81-6.48-2.85-10.54.73-3.08,1.45-6.16,1.95-9.28.3-1.89.92-4.39-1.76-5C173.88,26,172.75,28.09,172,30c-2,5.48-2.71,11.3-4,17-1.12,5.11-4,7.54-8.1,4.9-3.34-2.17-5.06-.48-7.53.14-1.8.45-4.23,1.09-5.28-.23-3.42-4.32-6.16-1.58-9.58-.06-5.82,2.57-11-1.39-10.24-7.75.49-4.27,1.68-8.47,2.51-12.71.36-1.86.51-3.95-1.66-4.66s-3.39,1.16-4.12,2.82c-2.4,5.37-2.81,11.26-4.1,16.92-1.35,5.92-3.45,7.46-9.23,5.56a7.64,7.64,0,0,0-5,0c-6.57,1.83-10.8-2-9.74-8.8.61-3.94,1.6-7.82,2.22-11.76.28-1.73.76-4.08-1.51-4.73S93,27.94,92.35,29.85c-1.16,3.62-2,7.36-2.89,11.06-.47,1.94-.8,3.91-1.2,5.86-1.26,6.15-4.63,7.47-10,3.68-1.53-1.08-2,.31-2.84.66C72.25,52.45,69,53.3,66,50.92s-3-5.68-2.19-9.14c1.25-5.68,2.35-11.4,3.55-17.09.72-3.43,5.92-5.62,8.83-3.79,1.43.91.57,2.05.36,3.1C75.4,29.7,74.18,35.39,73,41.1c-.37,1.86-1.45,4.28,1.33,5,2.37.63,4.34-.94,5.12-3.08a84.7,84.7,0,0,0,2.58-9.59c.62-2.59,1-5.23,1.61-7.83,1.15-5.2,5.18-7,9.51-3.67,1.83,1.4,2.2-.14,3.07-.49,6.69-2.72,11.62.63,10.83,7.78-.45,4.1-1.72,8.12-2.57,12.18-.37,1.8-.9,3.89,1.43,4.69,2,.7,3.51-.61,4.47-2.33C113.48,38.27,114,32,115,26c.78-4.54,2.74-6.3,6.83-5.23,3.3.86,6.23.48,9.49-.15,4.66-.88,8,3.08,7.34,8.26-.55,4.1-1.72,8.12-2.44,12.21-.33,1.86-1.2,4.32,1.58,5,2.28.57,3.71-1.15,4.58-3.07,2.66-5.82,2.94-12.25,4.52-18.35.57-2.2.78-4,3.86-4.09,5.72-.15,6,0,4.83,5.67-1.09,5-2.23,10.07-3.2,15.13-.33,1.7-1.06,3.93,1.33,4.73,2,.65,3.5-.66,4.72-2.12,1.55-1.86,2-4.18,2.51-6.45.86-3.89,1.62-7.81,2.42-11.72,1.12-5.45,5.13-7.26,9.74-3.88,1.63,1.2,1.93,0,2.66-.35,3.1-1.45,6.15-1.79,8.9.53,2.58,2.18,2.79,5.16,2.11,8.26-.82,3.73-1.76,7.44-2.46,11.2-.32,1.73-.84,3.92,1.67,4.54,2.11.52,3.35-1,4.36-2.61.84-1.36.7-2.88.89-4.36.77-5.94,2.81-11.37,7.42-15.37,3.41-3,7.31-4.36,12-2.44,2.55,1.05,5.12-1.54,7.9-.7.91.28,2,0,2.66,1A2.53,2.53,0,0,1,221.19,22.22Zm-21,17.85c.26,2.55-.56,5.73,2.93,6.11,2.85.31,4.49-1.88,5.14-4.5,1-4.18,1.92-8.39,2.77-12.61.32-1.58,1-3.46-1.07-4.38s-3.51.3-4.73,1.75C201.87,30.42,200.92,35.3,200.17,40.07Zm5,16.17c.1-1.56-.26-2.38-1.64-1.86-2.4.9-4.49,2.25-4.74,5.09a2.15,2.15,0,0,0,2.4,2.49C204.42,61.36,204.52,58.36,205.16,56.24Z" transform="translate(-4.15 -5.2)" style="fill:#fff"/><path d="M221.19,22.22a2.53,2.53,0,0,0,0-.55c3.33-9.36,10.16-14.44,19.73-16.2,3.74-.69,5.76-.11,5.58,4.61-.37,10.13-.11,20.28-.11,30.42l1.54.23q2.32-6.66,4.64-13.32c2.19-6.28,4.49-12.53,6.48-18.88.73-2.34,1.89-3,4.24-3.16,3.81-.28,5.18.79,5,4.89a271,271,0,0,0,.74,30.61q4.07-11.32,8.1-22.66c1.23-3.44,2.49-6.88,3.6-10.36.62-1.95,1.88-2.91,3.72-2.27,2.51.87.35,2.43.17,3.62-.33,2.08-2.05,3.84-1.49,6.16l.06-.07c-1.34.2-1.07,1.2-1.05,2.09l.06-.08c-5,10.09-8.1,20.94-12.24,31.37-.84,2.11-1.57,3.64-4.45,3.63-6.21,0-6.21.2-6.21-6.17a164.06,164.06,0,0,0-1-22.45c-3.17,8.08-6.32,16.17-9.51,24.24a7.27,7.27,0,0,1-9.41,4.18c-2-.83-1.29-2.5-1.3-3.85-.06-11.31,0-22.61-.07-33.92,0-1.35.87-3.32-1-3.94-1.46-.49-2.81.79-4,1.7-3.71,2.89-5,6.85-5,11.42,0,1.24,1.34,3.24-.95,3.74-1.76.39-3.08-.8-4.13-2.23C222.29,24.12,222.62,22.61,221.19,22.22Z" transform="translate(-4.15 -5.2)" style="fill:#fff"/><path d="M40.3,23.65C36.94,32.22,33.4,40.49,30.48,49c-1.67,4.88-5.27,3.13-8.21,3.11-3.64,0-2.12-3.18-2.14-5q-.21-16.74,0-33.48c0-3.65-1.17-4.12-4-2.28-4.71,3.05-6.19,7.57-6,12.91,0,1,.83,2.45-.76,3a3.46,3.46,0,0,1-3.58-1.28c-2.08-2.25-1.81-4.87-.93-7.5,2.41-7.13,13.77-14,21.28-13.17,3.08.32,2.2,2.35,2.27,4,.23,5.32.4,10.64.48,16,.08,5.09,0,10.19,1.13,15.45,3.68-10.6,7.41-21.17,11-31.8.71-2.1,1.42-3.31,4-3.49,4-.28,5.54.67,5.39,5.08a247.46,247.46,0,0,0,.79,30.37Q56.6,25.43,62.07,10.05c.39-1.09.73-2.21,1.19-3.28.68-1.6,2.17-1.53,3.42-1.17,2,.57.63,2,.31,2.84C61.91,22.16,56.66,35.82,51.63,49.56c-1.68,4.59-5.3,2.31-8.05,2.51-3.32.24-2.15-2.74-2.18-4.44-.12-6.83,0-13.66-.08-20.49C41.3,26,41.93,24.63,40.3,23.65Z" transform="translate(-4.15 -5.2)" style="fill:#fff"/><path d="M283.18,15.36c4.89-4.12,9.67-8.31,16.29-9.66,10.39-2.11,19.2,3.09,19.35,11.69.14,7.74-6.07,15.25-14.6,16.56-3.45.52-4.33,2.07-4.83,4.88-.61,3.44-1.62,6.81-2.07,10.26-.34,2.65-1.65,3.13-4,3.17-5.9.1-5.85.21-4.59-5.63,2.22-10.23,4.36-20.47,6.53-30.71.66-3.07,6.2-5.87,8.94-4.52,1.64.81.58,2,.38,3-1.11,5.64-2.25,11.28-3.42,17.16,7.94-1.95,13-13.3,9.39-19.8a6.61,6.61,0,0,0-5.16-3.48c-9.63-1.37-17,5-17.37,14.67,0,1.43,1.76,4.12-1.36,4.3-2.74.16-4.11-1.94-4.36-4.53-.18-1.79-.05-3.61-.05-5.41l-.06.08c1.29-.22,1.5-1,1.05-2.09Z" transform="translate(-4.15 -5.2)" style="fill:#fff"/><path d="M79.36,13.05c-.46,2.81-2.15,4.56-5.3,4.37a4.54,4.54,0,0,1-4.56-4.86,4.67,4.67,0,0,1,5-4.94C77.43,7.75,79.35,9.61,79.36,13.05Z" transform="translate(-4.15 -5.2)" style="fill:#fff"/><path d="M159.07,12.58c-.57,2.82-1.95,4.91-5.16,4.85a4.47,4.47,0,0,1-4.78-4.59,4.61,4.61,0,0,1,4.71-5.22C156.85,7.48,158.52,9.59,159.07,12.58Z" transform="translate(-4.15 -5.2)" style="fill:#fff"/><path d="M283.24,15.29c.45,1.11.24,1.87-1.05,2.09C282.17,16.49,281.9,15.49,283.24,15.29Z" transform="translate(-4.15 -5.2)" style="fill:#fff"/></svg>