<?xml version="1.0" encoding="UTF-8"?> <!-- Generator: Adobe Illustrator 19.0.0, SVG Export Plug-In . SVG Version: 6.00 Build 0) --> <svg xmlns="http://www.w3.org/2000/svg" xmlns:xlink="http://www.w3.org/1999/xlink" id="Layer_1" x="0px" y="0px" viewBox="952 183.9 2500 475" style="enable-background:new 952 183.9 2500 475;" xml:space="preserve"> <style type="text/css"> .st0{fill:#FFFFFF;} </style> <path class="st0" d="M1114.6,658.9h152.7V543.4l-37.3-37.3h-79.2l-36.3,37.3V658.9z M1312.1,345l-36.3,36.3v80.1l36.3,36.3h116.4 V345H1312.1z M1267.4,183.9h-152.7v116.4l36.3,36.3h79.2l37.3-36.3V183.9z M1428.5,658.9V543.4l-36.3-37.3h-116.4v152.7H1428.5z M989.8,183.9l-36.3,36.3v116.4h152.7V183.9H989.8z M1275.8,183.9v116.4l36.3,36.3h116.4V183.9H1275.8z M1191,443.7 c-12.1,0-21.4-10.2-21.4-21.4c0-12.1,10.2-21.4,21.4-21.4c12.1,0,21.4,10.2,21.4,21.4C1212.4,433.5,1203.1,443.7,1191,443.7z M1106.2,345H953.5v152.7H1069l37.3-36.3V345z M1106.2,543.4l-37.3-37.3H953.5v152.7H1069l37.3-36.3V543.4z"></path> <path class="st0" d="M1755.4,543.4c-2.8,0-3.7-0.9-4.7-3.7l-38.2-135h-0.9l-38.2,135c-0.9,2.8-1.9,3.7-4.7,3.7h-44.7 c-2.8,0-3.7-0.9-4.7-3.7L1554.2,305c0-1.9,0-3.7,2.8-3.7h58.7c2.8,0,4.7,1.9,4.7,3.7l30.7,140.6h0.9l37.3-140.6 c0.9-2.8,1.9-3.7,4.7-3.7h36.3c2.8,0,3.7,0.9,4.7,3.7l39.1,140.6h0.9l29.8-140.6c0-1.9,1.9-3.7,4.7-3.7h58.7c1.9,0,2.8,1.9,2.8,3.7 l-65.2,234.7c-0.9,2.8-1.9,3.7-4.7,3.7L1755.4,543.4L1755.4,543.4z M1917.5,543.4c-1.9,0-3.7-1.9-3.7-3.7V305c0-1.9,1.9-3.7,3.7-3.7 h96.9c58.7,0,89.4,33.5,89.4,80.1s-30.7,81-89.4,81h-35.4c-1.9,0-1.9,0.9-1.9,1.9v74.5c0,1.9-1.9,3.7-3.7,3.7h-55.9V543.4z M2041.3,382.3c0-16.8-11.2-27-30.7-27h-31.7c-1.9,0-1.9,0.9-1.9,1.9v50.3c0,1.9,0.9,1.9,1.9,1.9h31.7 C2030.2,409.3,2041.3,398.1,2041.3,382.3L2041.3,382.3z M2186.6,483.8c-4.7-13-6.5-28.9-6.5-60.5c0-30.7,2.8-47.5,6.5-60.5 c12.1-38.2,41.9-57.7,80.1-57.7c39.1,0,68,19.6,80.1,57.7c4.7,13,6.5,27.9,6.5,56.8c0,2.8-1.9,4.7-5.6,4.7h-151.8 c-1.9,0-2.8,1.9-2.8,3.7c0,25.1,1.9,39.1,5.6,51.2c11.2,34.5,36.3,49.4,69.9,49.4c31.7,0,55-14,68.9-32.6c1.9-2.8,4.7-2.8,6.5-0.9 l2.8,2.8c2.8,1.9,2.8,4.7,0.9,6.5c-15.8,22.4-42.8,38.2-78.2,38.2C2227.6,542.5,2199.7,522.9,2186.6,483.8L2186.6,483.8z M2337.5,411.1c1.9,0,2.8-0.9,2.8-2.8c0-15.8-1.9-28.9-5.6-40c-10.2-32.6-34.5-49.4-67.1-49.4s-56.8,15.8-67.1,49.4 c-3.7,11.2-5.6,23.3-5.6,40c0,1.9,0.9,2.8,2.8,2.8H2337.5z M2569.4,537.8c-2.8,0-4.7-1.9-4.7-4.7v-136c0-54-22.4-77.3-66.1-77.3 c-38.2,0-69.9,26.1-69.9,70.8v143.4c0,2.8-1.9,4.7-4.7,4.7h-4.7c-2.8,0-4.7-1.9-4.7-4.7V316.1c0-2.8,1.9-4.7,4.7-4.7h4.7 c2.8,0,4.7,1.9,4.7,4.7v31.7h0.9c11.2-26.1,37.3-41.9,69.9-41.9c51.2,0,80.1,28.9,80.1,87.5v139.7c0,2.8-1.9,4.7-4.7,4.7H2569.4z M2647.7,596.5c-1.9-2.8-1.9-5.6,0.9-6.5l3.7-2.8c2.8-1.9,4.7-0.9,6.5,1.9c13,16.8,32.6,27,60.5,27c42.8,0,70.8-21.4,70.8-77.3 v-38.2h-0.9c-11.2,25.1-30.7,42.8-70.8,42.8c-38.2,0-64.3-20.5-75.4-54c-5.6-15.8-7.5-36.3-7.5-64.3c0-27.9,2.8-48.4,7.5-64.3 c11.2-33.5,37.3-54,75.4-54c40,0,59.6,17.7,70.8,42.8h0.9v-32.6c0-2.8,1.9-4.7,4.7-4.7h4.7c2.8,0,4.7,1.9,4.7,4.7v222.6 c0,62.4-33.5,90.3-85.7,90.3C2685.8,629.1,2658.8,614.2,2647.7,596.5z M2783.6,483.8c4.7-14,6.5-30.7,6.5-59.6 c0-27.9-1.9-45.6-6.5-59.6c-11.2-33.5-35.4-45.6-63.3-45.6c-30.7,0-53.1,14.9-62.4,44.7c-4.7,14-7.5,33.5-7.5,59.6 c0,26.1,2.8,45.6,7.5,59.6c10.2,29.8,31.7,44.7,62.4,44.7C2748.3,529.4,2773.4,517.3,2783.6,483.8z M2882.4,240.7 c-2.8,0-4.7-1.9-4.7-4.7v-18.6c0-2.8,1.9-4.7,4.7-4.7h11.2c2.8,0,4.7,1.9,4.7,4.7V237c0,2.8-1.9,4.7-4.7,4.7h-11.2V240.7z M2886.1,537.8c-2.8,0-4.7-1.9-4.7-4.7v-217c0-2.8,1.9-4.7,4.7-4.7h4.7c2.8,0,4.7,1.9,4.7,4.7v217c0,2.8-1.9,4.7-4.7,4.7 L2886.1,537.8L2886.1,537.8z M3127.3,537.8c-2.8,0-4.7-1.9-4.7-4.7v-136c0-54-22.4-77.3-66.1-77.3c-38.2,0-69.9,26.1-69.9,70.8 v143.4c0,2.8-1.9,4.7-4.7,4.7h-4.7c-2.8,0-4.7-1.9-4.7-4.7V316.1c0-2.8,1.9-4.7,4.7-4.7h4.7c2.8,0,4.7,1.9,4.7,4.7v31.7h0.9 c11.2-26.1,37.3-41.9,69.9-41.9c51.2,0,80.1,28.9,80.1,87.5v139.7c0,2.8-1.9,4.7-4.7,4.7L3127.3,537.8L3127.3,537.8z M3200.9,483.8 c-4.7-13-6.5-28.9-6.5-60.5c0-30.7,2.8-47.5,6.5-60.5c12.1-38.2,41.9-57.7,80.1-57.7c39.1,0,68,19.6,80.1,57.7 c4.7,13,6.5,27.9,6.5,56.8c0,2.8-1.9,4.7-5.6,4.7h-151.8c-1.9,0-2.8,1.9-2.8,3.7c0,25.1,1.9,39.1,5.6,51.2 c11.2,34.5,36.3,49.4,69.9,49.4c31.7,0,55-14,68.9-32.6c1.9-2.8,4.7-2.8,6.5-0.9l2.8,2.8c2.8,1.9,2.8,4.7,0.9,6.5 c-15.8,22.4-42.8,38.2-78.2,38.2C3241.9,542.5,3213,522.9,3200.9,483.8L3200.9,483.8z M3350.8,411.1c1.9,0,2.8-0.9,2.8-2.8 c0-15.8-1.9-28.9-5.6-40c-10.2-32.6-34.5-49.4-67.1-49.4c-32.6,0-56.8,15.8-67.1,49.4c-3.7,11.2-5.6,23.3-5.6,40 c0,1.9,0.9,2.8,2.8,2.8H3350.8z M3395.6,333.8c0-15.8,12.1-27.9,27.9-27.9s27.9,12.1,27.9,27.9c0,15.8-12.1,27.9-27.9,27.9 S3395.6,349.7,3395.6,333.8z M3446.8,333.8c0-14-10.2-23.3-23.3-23.3c-14,0-23.3,10.2-23.3,23.3c0,14,10.2,23.3,23.3,23.3 S3446.8,347.8,3446.8,333.8z M3414.2,349.7c-0.9,0-0.9,0-0.9-0.9v-28.9c0-0.9,0-0.9,0.9-0.9h11.2c6.5,0,10.2,3.7,10.2,9.3 c0,3.7-1.9,7.5-6.5,8.4l6.5,12.1c0.9,0.9,0,1.9-0.9,1.9h-2.8c-0.9,0-0.9-0.9-1.9-0.9l-6.5-12.1h-6.5v11.2c0,0.9-0.9,0.9-0.9,0.9 H3414.2L3414.2,349.7z M3430.9,327.3c0-2.8-1.9-4.7-5.6-4.7h-7.5v9.3h7.5C3429.1,332,3430.9,330.1,3430.9,327.3z"></path> </svg> 